<svg width="170" height="167" viewBox="0 0 170 167" fill="none" xmlns="http://www.w3.org/2000/svg">
<g clip-path="url(#clip0_41_13537)">
<path d="M3.88572 161.551C-27.2692 126.897 139.118 -27.176 166.273 4.17213C196.269 38.7577 36.904 198.211 3.88572 161.551Z" fill="url(#paint0_linear_41_13537)"/>
<g style="mix-blend-mode:multiply" opacity="0.3">
<path d="M151.934 0.273467C151.548 37.0249 127.846 75.2354 100.964 101.545C72.7174 129.063 33.4272 152.363 -0.000122465 149.263C-0.210891 151.464 0.0203651 153.686 0.679982 155.797C1.3396 157.908 2.41419 159.864 3.84027 161.551C36.904 198.211 196.269 38.7576 166.273 4.17203C163.16 0.592648 158.206 -0.547283 151.934 0.273467Z" fill="#DE7F1E"/>
</g>
<path opacity="0.5" d="M105.099 74.6884C118.916 56.4494 126.778 38.2105 132.232 12.9041C121.406 19.5044 110.945 26.6889 100.895 34.426C99.5773 42.9983 100.168 64.5886 105.099 74.6884Z" fill="#D36D1D"/>
<path opacity="0.5" d="M76.1489 104.532C85.1447 97.5732 93.2705 89.5509 100.35 80.6388C94.6237 68.9431 92.4649 49.3363 94.6464 39.2593C85.9885 46.0989 76.467 54.1924 66.7638 63.3802C65.9003 77.333 70.0134 91.4682 76.1489 104.532Z" fill="#D36D1D"/>
<path opacity="0.5" d="M44.6531 124.002C53.734 119.637 62.3717 114.399 70.4451 108.362C64.6946 95.9503 61.5982 82.4682 61.3554 68.7834C53.7428 76.307 46.1302 84.5145 38.8584 93.292C39.3913 103.745 41.3408 114.077 44.6531 124.002Z" fill="#D36D1D"/>
<path opacity="0.5" d="M33.4955 99.7212C24.5409 111.096 16.6166 123.25 9.81689 136.039C20.0301 133.908 29.9814 130.667 39.4947 126.373C36.5505 117.73 34.5393 108.795 33.4955 99.7212Z" fill="#D36D1D"/>
<path d="M66.7635 63.3801C76.444 54.2606 85.9882 46.1215 94.6461 39.2591C93.1236 46.3495 93.7372 58.1136 96.2141 68.5554C97.9639 66.0703 99.7136 63.5397 101.418 60.8494C100.123 52.0998 99.9471 43.2201 100.895 34.4258C109.053 28.2246 116.189 23.2545 121.574 19.6751C122.62 16.8253 123.642 13.907 124.619 10.9204C81.8069 34.973 21.7695 93.4743 4.70361 132.072C7.51523 131.582 10.299 130.943 13.0434 130.157C19.1035 119.52 25.9394 109.347 33.4952 99.7211C34.2907 106.666 35.6743 113.53 37.631 120.24C39.2899 119.396 40.9942 118.484 42.7213 117.504C40.4729 109.609 39.1011 101.489 38.6309 93.2919C45.9027 84.5144 53.5153 76.3069 61.1279 68.7834C61.3753 79.6296 63.3785 90.3633 67.0589 100.565C68.8314 99.0599 70.6266 97.464 72.4218 95.8225C68.2568 85.5354 66.3277 74.4749 66.7635 63.3801Z" fill="#F2B83E"/>
<path opacity="0.8" d="M33.4955 99.7212C24.5409 111.096 16.6166 123.25 9.81689 136.039C9.81689 136.039 19.6338 124.389 34.6772 107.678C34.2 105.033 33.791 102.389 33.4955 99.7212Z" fill="#D36D1D"/>
<path opacity="0.8" d="M61.1737 68.7834C53.5611 76.307 45.9485 84.5145 38.6768 93.292C38.8131 96.3014 39.1312 99.3108 39.5403 102.411C46.3575 95.0247 53.8111 86.8856 61.8555 78.4729C61.4919 75.2355 61.3555 71.9753 61.1737 68.7834Z" fill="#D36D1D"/>
<path opacity="0.8" d="M94.6465 39.2593C85.9885 46.0989 76.4671 54.1924 66.7638 63.3802C66.5744 66.6175 66.6352 69.8646 66.9456 73.0925C75.5808 64.1782 84.6705 55.0587 93.8738 46.3041C93.9284 43.9378 94.1869 41.5808 94.6465 39.2593Z" fill="#D36D1D"/>
<path opacity="0.8" d="M100.895 34.4259C100.631 36.3311 100.464 38.2487 100.396 40.1711C111.212 30.0941 122.052 20.7239 132.209 12.8127C121.389 19.4434 110.936 26.6584 100.895 34.4259Z" fill="#D36D1D"/>
</g>
<defs>
<linearGradient id="paint0_linear_41_13537" x1="161.856" y1="38.0336" x2="-48.7311" y2="53.0606" gradientUnits="userSpaceOnUse">
<stop stop-color="#EB9227"/>
<stop offset="0.23" stop-color="#EC962C"/>
<stop offset="0.5" stop-color="#EFA23B"/>
<stop offset="0.8" stop-color="#F5B653"/>
<stop offset="1" stop-color="#F9C668"/>
</linearGradient>
<clipPath id="clip0_41_13537">
<rect width="170" height="167" fill="white"/>
</clipPath>
</defs>
</svg>
