<svg width="18" height="22" viewBox="0 0 18 22" fill="none" xmlns="http://www.w3.org/2000/svg">
<g clip-path="url(#clip0_164_3861)">
<path d="M5.83687 5.48819C5.83687 5.48819 4.45543 6.34289 4.1952 7.56458C3.93496 8.78626 3.68202 16.6282 5.10724 17.8354C7.01887 19.4627 15.3026 19.3927 16.9467 17.5771C18.5908 15.7615 17.8952 8.04987 17.6569 7.34245C17.3213 6.34289 15.4899 5.04395 15.4899 5.04395L5.83687 5.48819Z" fill="#E9DEBA"/>
<path d="M6.67387 5.65437C6.67387 5.65437 5.05895 6.49216 4.79872 7.72592C4.53848 8.95968 4.46309 16.2391 5.5016 17.1421C7.39864 18.7815 14.7022 18.7235 16.4193 16.9755C17.7594 15.6113 17.2949 8.28365 17.0565 7.55933C16.7209 6.5477 14.9819 5.31152 14.9819 5.31152L6.67387 5.65437Z" fill="url(#paint0_linear_164_3861)"/>
<g style="mix-blend-mode:multiply" opacity="0.3">
<path d="M5.93652 5.69558C5.93652 5.69558 7.442 7.68745 10.8007 7.68745C14.5559 7.68745 15.8084 5.57727 15.8084 5.57727L5.93652 5.69558Z" fill="#A35625"/>
</g>
<path d="M4.7207 1.93152V5.36962C4.7207 5.36962 10.0081 8.2669 16.8812 5.42998V2.05224L4.7207 1.93152Z" fill="#C6311A"/>
<path d="M4.7207 1.93152C6.52722 0.694622 8.66492 0.0219936 10.8593 0C13.0363 0.0172022 15.1484 0.737591 16.8764 2.05224C16.8764 2.05224 15.0523 4.58736 10.4945 4.58736C9.39705 4.57872 8.31412 4.33729 7.31832 3.87924C6.32251 3.4212 5.43685 2.75712 4.7207 1.93152Z" fill="#ED4B1A"/>
<path d="M6.0166 3.11914C7.31396 4.06853 8.88236 4.58273 10.4941 4.58709C12.8216 4.58709 14.4341 3.92796 15.4556 3.28091C15.4623 3.27453 15.468 3.26721 15.4726 3.25918C10.4892 5.48767 6.71462 3.52717 6.0166 3.11914Z" fill="#F4C894"/>
<path d="M5.74001 7.42422C5.10766 7.57874 5.10766 9.99797 5.5649 9.9521C6.02213 9.90622 6.18509 7.31557 5.74001 7.42422Z" fill="#FFF9CE"/>
<path d="M5.61774 10.4758C5.18725 10.4565 5.18969 11.9558 5.60314 11.9606C6.0166 11.9655 5.99228 10.4927 5.61774 10.4758Z" fill="#FFF9CE"/>
<path d="M10.9609 16.6982C10.1518 16.6982 9.36092 16.46 8.68819 16.0138C8.01546 15.5676 7.49114 14.9333 7.18151 14.1913C6.87189 13.4492 6.79088 12.6327 6.94872 11.8449C7.10657 11.0572 7.49618 10.3336 8.06829 9.76562C8.64039 9.19767 9.36931 8.8109 10.1628 8.65421C10.9564 8.49751 11.7789 8.57793 12.5264 8.8853C13.2739 9.19267 13.9128 9.71318 14.3623 10.381C14.8118 11.0488 15.0517 11.834 15.0517 12.6372C15.0504 13.7138 14.619 14.746 13.8521 15.5074C13.0852 16.2687 12.0455 16.6969 10.9609 16.6982Z" fill="#F9ECB5"/>
<path d="M10.9606 16.2827C12.9888 16.2827 14.633 14.6504 14.633 12.637C14.633 10.6235 12.9888 8.99121 10.9606 8.99121C8.93231 8.99121 7.28809 10.6235 7.28809 12.637C7.28809 14.6504 8.93231 16.2827 10.9606 16.2827Z" fill="#ED5340"/>
<path d="M10.7331 14.5468C11.0201 14.3199 11.1441 13.9867 11.3411 13.6921C11.8956 12.8543 13.4084 13.1658 13.6346 11.9852C13.6706 11.7094 13.6199 11.4294 13.4892 11.1834C13.3586 10.9374 13.1545 10.7376 12.9049 10.6114C12.3553 10.3047 11.6719 10.312 11.2633 10.8262C10.9933 11.1618 10.9204 11.6109 10.4583 11.7775C10.1204 11.8575 9.77863 11.9203 9.43434 11.9658C8.14046 12.2918 7.97507 13.8394 8.99412 14.6217C9.25444 14.7941 9.56328 14.8798 9.87592 14.8663C10.1886 14.8529 10.4888 14.741 10.7331 14.5468Z" fill="#F4B730"/>
<path d="M8.79426 14.0953C9.12745 14.455 9.59928 14.6771 10.0784 14.4526C10.6305 14.1918 10.791 13.5303 11.3309 13.2454C11.4452 13.185 11.3455 13.004 11.2288 13.0716C10.9513 13.2283 10.7186 13.4527 10.5527 13.7234C10.4263 13.9351 10.2544 14.1165 10.0492 14.2546C9.6309 14.4767 9.21501 14.2836 8.91586 13.9697C8.84047 13.8876 8.71886 14.0083 8.79426 14.0904V14.0953Z" fill="#E09B2C"/>
<path d="M9.70904 12.2871C10.1517 12.3113 10.6332 12.304 11.0029 12.0264C11.4212 11.7149 11.5477 11.1644 11.9976 10.8844C12.0196 10.8716 12.0355 10.8506 12.0419 10.8262C12.0483 10.8017 12.0446 10.7758 12.0317 10.754C12.0188 10.7322 11.9977 10.7164 11.9731 10.7101C11.9485 10.7037 11.9223 10.7074 11.9004 10.7202C11.6247 10.91 11.3987 11.1625 11.2413 11.4566C10.8643 12.0191 10.3608 12.1398 9.70904 12.1157C9.59959 12.1157 9.59959 12.2799 9.70904 12.2871Z" fill="#E09B2C"/>
<path d="M11.8999 11.8615C12.244 11.626 12.532 11.3186 12.7438 10.9609C12.7561 10.9404 12.7596 10.9159 12.7537 10.8929C12.7478 10.8698 12.7328 10.85 12.7122 10.8378C12.6915 10.8256 12.6669 10.8221 12.6436 10.828C12.6204 10.8339 12.6004 10.8487 12.5881 10.8692C12.3938 11.2022 12.1301 11.4903 11.8147 11.7142C11.7248 11.777 11.8147 11.9219 11.8999 11.8615Z" fill="#E09B2C"/>
<path d="M9.50649 13.5496C9.71883 13.2945 9.99589 13.1003 10.3091 12.987C10.3991 12.9484 10.3334 12.7866 10.2386 12.8253C9.89044 12.9523 9.58535 13.174 9.35814 13.4651C9.2949 13.5544 9.44326 13.6389 9.50649 13.5496Z" fill="#E09B2C"/>
<path d="M6.47452 15.5053C5.82028 15.8747 5.22685 16.4107 4.44615 16.5048C3.36872 16.6352 2.25725 16.2634 1.19442 16.5604C0.995873 16.6147 0.807703 16.7012 0.63747 16.8163C0.32134 17.0668 0.105383 17.4209 0.0282852 17.815C-0.0488126 18.2092 0.0179865 18.6178 0.216716 18.9675C1.09471 20.5103 3.37845 20.0782 4.83771 19.9333C5.72057 19.8391 6.6472 19.7474 7.40602 19.2548C8.31805 18.6609 8.86528 17.4706 8.40075 16.4493C8.07971 15.7057 7.29657 15.0441 6.47452 15.5053Z" fill="#E59A59"/>
<path d="M3.02632 18.2941C2.87797 18.2941 2.59341 18.4897 2.8123 18.6128C2.95473 18.6929 3.11913 18.7259 3.2817 18.707C3.64894 18.6635 3.24521 18.2845 3.02632 18.2941Z" fill="#D47C41"/>
<path d="M0.126728 18.0356C0.0970286 18.0758 0.0793289 18.1235 0.0756539 18.1732C0.0735682 18.1981 0.0786261 18.2232 0.0902445 18.2454C0.101863 18.2676 0.119569 18.2861 0.141321 18.2987C0.161889 18.3082 0.184301 18.3132 0.206987 18.3132C0.229674 18.3132 0.252086 18.3082 0.272654 18.2987C0.306989 18.2866 0.338371 18.2674 0.364766 18.2425C0.391161 18.2175 0.411981 18.1873 0.425877 18.1539C0.508568 17.9197 0.243469 17.8666 0.126728 18.0356Z" fill="#D47C41"/>
<path d="M2.04318 17.265C1.96029 17.2607 1.87766 17.2775 1.80316 17.3138C1.72866 17.3502 1.66477 17.4048 1.61756 17.4726C1.43759 17.7768 1.92158 17.8155 2.10398 17.7575C2.23532 17.7141 2.3472 17.5982 2.3472 17.4654C2.3274 17.4024 2.28637 17.3481 2.23101 17.3116C2.17565 17.2751 2.10933 17.2587 2.04318 17.265Z" fill="#D47C41"/>
<path d="M2.56352 17.4661C2.6064 17.5178 2.65926 17.5605 2.71899 17.5916C2.77872 17.6227 2.8441 17.6416 2.91131 17.6472C2.95347 17.6608 2.99833 17.6639 3.04198 17.6563C3.08564 17.6487 3.12677 17.6307 3.16181 17.6038C3.53879 17.1861 2.32517 17.0774 2.56352 17.4661Z" fill="#D47C41"/>
<path d="M1.09009 16.8214C0.829855 16.901 0.730139 17.4829 1.05118 17.3622C1.11076 17.3385 1.16481 17.3029 1.20999 17.2576C1.25517 17.2124 1.29051 17.1584 1.31384 17.099C1.33628 17.0548 1.3432 17.0044 1.3335 16.9559C1.32381 16.9073 1.29806 16.8634 1.26034 16.831C1.2345 16.8169 1.20579 16.8086 1.17632 16.807C1.14685 16.8053 1.11738 16.8102 1.09009 16.8214Z" fill="#D47C41"/>
<path d="M0.345787 17.3136C0.241206 17.3547 0.345787 17.5044 0.389565 17.5551C0.404074 17.5655 0.421521 17.5711 0.439423 17.5711C0.457325 17.5711 0.474771 17.5655 0.489281 17.5551C0.547651 17.5116 0.501441 17.3909 0.46496 17.3499C0.450571 17.3333 0.43174 17.3211 0.410649 17.3146C0.389558 17.3082 0.367068 17.3079 0.345787 17.3136Z" fill="#D47C41"/>
<path d="M3.76774 17.2267C3.47346 17.0939 3.3324 17.4392 3.52453 17.6372C3.55097 17.6743 3.58698 17.7037 3.6288 17.7223C3.67061 17.7409 3.71669 17.7479 3.7622 17.7427C3.80771 17.7376 3.85098 17.7203 3.88747 17.6928C3.92396 17.6653 3.95233 17.6286 3.96961 17.5865C3.98529 17.5124 3.9735 17.4353 3.93641 17.3692C3.89932 17.303 3.83942 17.2525 3.76774 17.2267Z" fill="#D47C41"/>
<path d="M1.61039 19.4577C1.58332 19.4529 1.55546 19.4549 1.52936 19.4634C1.50325 19.472 1.47972 19.487 1.46088 19.5069C1.44205 19.5268 1.42851 19.551 1.42149 19.5774C1.41447 19.6038 1.4142 19.6315 1.42069 19.658C1.45049 19.7103 1.491 19.7558 1.53959 19.7915C1.58818 19.8273 1.64379 19.8526 1.70281 19.8657C1.75741 19.8641 1.80947 19.8424 1.84898 19.805C1.88849 19.7676 1.91266 19.7169 1.91684 19.6629C1.9206 19.6302 1.91379 19.5973 1.89738 19.5687C1.86333 19.4987 1.68579 19.4697 1.61039 19.4577Z" fill="#D47C41"/>
<path d="M1.11381 18.7817C1.09115 18.7931 1.07236 18.8108 1.05982 18.8327C1.04727 18.8546 1.04152 18.8797 1.04328 18.9049C1.05837 19.0637 1.11821 19.2152 1.21596 19.3419C1.22924 19.36 1.24797 19.3736 1.26947 19.3805C1.28465 19.3823 1.30005 19.3802 1.31413 19.3742C1.32822 19.3683 1.34049 19.3588 1.34973 19.3467C1.3835 19.3108 1.40625 19.266 1.4153 19.2177C1.42434 19.1694 1.41931 19.1195 1.4008 19.0739C1.37161 18.9966 1.23055 18.7359 1.11381 18.7817Z" fill="#D47C41"/>
<path d="M6.82765 16.8769C5.74808 17.4418 4.57349 17.8059 3.36191 17.9513C2.55233 18.0371 1.73504 18.02 0.929803 17.9006C1.20942 17.4948 1.59896 17.1759 2.05343 16.9807C3.35218 16.435 4.60471 17.2221 4.74091 17.3235L4.78226 17.3525L4.81874 17.3163C5.4877 16.6575 6.27348 16.1271 7.13653 15.7517C7.30678 15.6769 7.48189 15.6117 7.65943 15.5489C7.61347 15.5199 7.56552 15.4941 7.51594 15.4717C7.37001 15.5248 7.22652 15.5803 7.08789 15.6407C6.22572 16.0158 5.4395 16.5434 4.76766 17.198C4.4977 17.0266 3.27678 16.336 2.00479 16.8696C1.56488 17.0569 1.18299 17.3569 0.898186 17.7388L0.582012 16.8913C0.550395 16.9203 0.516345 16.9469 0.484728 16.9783L0.827655 17.8957L0.730371 17.8668L0.0980236 17.5505C0.0858631 17.5891 0.0761347 17.6302 0.0664062 17.6712L0.65984 17.9754L0.0907273 18.6732C0.10532 18.7166 0.124777 18.7577 0.141801 18.8011L0.81063 17.9827V18.0454C0.755487 18.5735 0.829749 19.1069 1.02709 19.6003C1.05384 19.6655 1.08059 19.7258 1.11221 19.7886C1.14383 19.8514 1.22652 19.8369 1.28489 19.8611C1.23138 19.7613 1.18274 19.6599 1.13896 19.5568C0.970167 19.1342 0.894694 18.6806 0.917643 18.2265C1.54601 19.1166 2.46281 19.766 3.51513 20.0663L3.91886 20.0397C2.22855 19.7838 1.24354 18.5017 0.934667 18.0623C1.45544 18.41 2.03075 18.6695 2.63714 18.8301C3.60255 19.0612 4.61043 19.0525 5.57167 18.8049C6.5329 18.5573 7.41786 18.0783 8.14829 17.4104C8.2894 17.2792 8.42336 17.1406 8.54958 16.9952C8.54958 16.942 8.53499 16.8865 8.52526 16.8334C8.38268 17.004 8.22914 17.1653 8.0656 17.3163C7.35072 17.9685 6.48517 18.4361 5.54526 18.6778C4.60536 18.9194 3.61999 18.9278 2.67605 18.7021C2.1435 18.563 1.63514 18.3448 1.16815 18.0551C1.90117 18.1456 2.64234 18.1504 3.3765 18.0696C4.60212 17.9225 5.79052 17.5552 6.88359 16.9855C7.36364 16.7474 7.82681 16.4772 8.26989 16.1767L8.20179 16.0753C7.76277 16.3734 7.30364 16.6412 6.82765 16.8769Z" fill="#F4C29B"/>
<path d="M7.78255 18.6536C7.27999 19.1099 6.7047 19.4803 6.08008 19.7498C6.29629 19.7066 6.50921 19.6485 6.71729 19.5759C7.1269 19.3389 7.51077 19.0606 7.86281 18.7454C7.99252 18.6327 8.11656 18.5144 8.23492 18.3905C8.31322 18.2608 8.37917 18.1242 8.43192 17.9824C8.2351 18.2241 8.01785 18.4486 7.78255 18.6536Z" fill="#F4C29B"/>
<path d="M0.647461 17.9486L0.844461 18.2553L1.14361 17.8424L0.9004 17.671C0.810412 17.7652 0.730152 17.8666 0.647461 17.9486Z" fill="#A66133"/>
<path opacity="0.3" d="M4.84475 19.9207C5.7276 19.8266 6.65424 19.7348 7.41305 19.2423C8.31779 18.6532 8.86015 17.4725 8.41508 16.4561C7.29092 17.4559 5.92079 18.1434 4.44319 18.4491C2.96558 18.7547 1.43287 18.6677 0 18.1968C0.00864013 18.4662 0.0802455 18.7299 0.209161 18.967C1.09445 20.5219 3.38792 20.0777 4.84475 19.9207Z" fill="#BD6E31"/>
<path opacity="0.3" d="M4.84503 19.9217C5.72789 19.8275 6.65452 19.7358 7.41334 19.2432C7.94772 18.8989 8.33828 18.3739 8.51265 17.7656L5.00555 19.5957L0.202148 18.9342C0.208463 18.9448 0.213368 18.9561 0.216741 18.968C1.09473 20.5229 3.3882 20.0786 4.84503 19.9217Z" fill="#BD6E31"/>
<path opacity="0.3" d="M7.41363 19.243C7.81478 18.9789 8.13728 18.6129 8.34755 18.1831L7.29689 17.4129C6.89756 17.1206 6.41414 16.9635 5.91801 16.9649C5.42187 16.9662 4.93932 17.1259 4.54159 17.4203C4.14386 17.7147 3.85205 18.1283 3.70923 18.6C3.56641 19.0717 3.58016 19.5764 3.74845 20.0398C4.14002 20.0011 4.51456 19.9528 4.84533 19.9166C5.72818 19.8273 6.65481 19.7355 7.41363 19.243Z" fill="#522F15"/>
<path d="M11.9974 17.565C12.8633 17.7775 13.3716 18.8809 13.2475 19.6969C12.9654 21.5681 10.5722 21.8916 9.06674 21.9713C8.26779 22.0309 7.46471 22.0058 6.67112 21.8964C5.86852 21.7612 5.02458 21.4377 4.52357 20.7665C3.55073 19.4724 4.06877 17.8209 5.66909 17.425C6.5033 17.2173 6.88514 17.6157 7.39832 18.1759C8.06471 18.9002 8.84542 18.8809 9.64801 18.3449C10.3071 17.903 11.1511 17.3574 11.9974 17.565Z" fill="#E59A59"/>
<g style="mix-blend-mode:multiply" opacity="0.3">
<path d="M8.05482 20.6072C8.15211 20.5565 8.12049 20.443 8.05482 20.385C7.98916 20.3271 7.84809 20.3367 7.74595 20.3174C7.66541 20.2944 7.57925 20.3004 7.50273 20.3343C7.35438 20.414 7.42734 20.5202 7.53435 20.5758C7.65752 20.6373 7.79692 20.6592 7.93322 20.6385C7.97543 20.6361 8.01674 20.6254 8.05482 20.6072Z" fill="#C05A19"/>
</g>
<g style="mix-blend-mode:multiply" opacity="0.3">
<path d="M7.16211 21.1578C7.16211 21.3437 7.66312 21.4765 7.64853 21.2351C7.63394 20.9936 7.16697 20.9139 7.16211 21.1578Z" fill="#C05A19"/>
</g>
<g style="mix-blend-mode:multiply" opacity="0.3">
<path d="M10.6524 18.9292C10.5746 19.1875 9.78173 19.68 9.89361 19.1851C9.94097 19.0102 10.0485 18.8573 10.1976 18.7529C10.3703 18.637 10.7473 18.6201 10.6524 18.9292Z" fill="#C05A19"/>
</g>
<g style="mix-blend-mode:multiply" opacity="0.3">
<path d="M10.1758 20.2933C10.1699 20.3534 10.1433 20.4097 10.1004 20.4526C10.0475 20.5002 9.98507 20.5363 9.91718 20.5583C9.8493 20.5803 9.77749 20.5879 9.70645 20.5806C9.50458 20.5565 9.46324 20.3609 9.597 20.2209C9.65301 20.1657 9.72015 20.1229 9.794 20.0953C9.85286 20.0642 9.9201 20.0524 9.98614 20.0615C10.0259 20.0708 10.0627 20.0899 10.0932 20.117C10.1185 20.1391 10.1389 20.1662 10.1532 20.1965C10.1674 20.2269 10.1751 20.2598 10.1758 20.2933Z" fill="#C05A19"/>
</g>
<g style="mix-blend-mode:multiply" opacity="0.3">
<path d="M10.818 19.5303C10.8644 19.5475 10.9052 19.5771 10.9357 19.6159C10.9662 19.6547 10.9852 19.7011 10.9907 19.75C11.0008 19.849 10.9711 19.948 10.908 20.0253C10.7718 20.2015 10.3608 20.4188 10.3121 20.0663C10.2756 19.8128 10.5286 19.4362 10.818 19.5303Z" fill="#C05A19"/>
</g>
<g style="mix-blend-mode:multiply" opacity="0.3">
<path d="M11.8755 18.9317C11.9096 18.9567 11.9358 18.991 11.9509 19.0303C11.966 19.0697 11.9694 19.1126 11.9606 19.1538C11.9439 19.2362 11.9043 19.3123 11.8463 19.3735C11.7712 19.47 11.6789 19.5518 11.5739 19.615C11.5098 19.6543 11.4373 19.6782 11.3623 19.685C11.3168 19.6909 11.2705 19.6815 11.2309 19.6584C11.1913 19.6353 11.1606 19.5998 11.1436 19.5575C11.1266 19.5151 11.1243 19.4684 11.137 19.4246C11.1497 19.3808 11.1768 19.3424 11.2139 19.3156C11.3331 19.1852 11.6736 18.7989 11.8755 18.9317Z" fill="#C05A19"/>
</g>
<path d="M7.60943 19.2868C7.49269 19.1685 7.27623 19.0453 7.16679 19.0695C7.05734 19.0936 7.0087 19.3109 7.04518 19.3906C7.11085 19.5548 7.48053 19.8107 7.62889 19.632C7.65889 19.6003 7.67971 19.5611 7.68913 19.5186C7.69855 19.4761 7.69622 19.4319 7.68239 19.3906C7.66508 19.3516 7.6403 19.3163 7.60943 19.2868Z" fill="#D47C41"/>
<path d="M6.01201 18.2048C5.85149 18.1348 5.60099 18.1541 5.6472 18.3328C5.71043 18.5742 6.13362 18.6949 6.13362 18.3521C6.14335 18.2893 6.08011 18.2362 6.01201 18.2048Z" fill="#D47C41"/>
<path d="M5.59373 19.1392C5.6667 18.6563 4.8641 18.6249 4.88113 19.1006C4.89396 19.2136 4.94956 19.3177 5.0367 19.3916C5.12383 19.4656 5.236 19.5039 5.35052 19.4989C5.48915 19.4893 5.57671 19.2502 5.59373 19.1392Z" fill="#D47C41"/>
<path d="M6.45262 19.5566C6.35778 19.4362 6.24156 19.3339 6.10969 19.2548C6.0343 19.209 5.92242 19.1414 5.83973 19.2041C5.74609 19.3086 5.69043 19.4412 5.68164 19.5808C5.71326 19.7957 6.05862 20.0926 6.30669 19.9864C6.36676 19.9613 6.41788 19.9189 6.45343 19.8647C6.48898 19.8104 6.50734 19.7469 6.50612 19.6822C6.49888 19.6366 6.48051 19.5935 6.45262 19.5566Z" fill="#D47C41"/>
<path d="M7.10924 20.0519C7.02655 19.9095 6.86603 19.796 6.72984 19.866C6.67853 19.906 6.63999 19.9599 6.61884 20.0211C6.59769 20.0824 6.59485 20.1484 6.61066 20.2113C6.65758 20.2795 6.72135 20.3346 6.79587 20.3714C6.87039 20.4082 6.95316 20.4254 7.03628 20.4213C7.21139 20.4068 7.20166 20.2113 7.10924 20.0519Z" fill="#D47C41"/>
<path d="M5.60867 20.1412L5.59408 20.1243C5.49922 20.047 5.31925 19.9625 5.2098 20.0615C5.03712 20.2233 5.30952 20.4696 5.45301 20.5444C5.75459 20.6844 5.80324 20.3271 5.60867 20.1412Z" fill="#D47C41"/>
<path d="M6.77322 20.7783C6.70419 20.7174 6.6221 20.673 6.53319 20.6483C6.44427 20.6236 6.35086 20.6193 6.26004 20.6358C6.06061 20.7155 6.29896 20.9932 6.38894 21.0487C6.55676 21.1549 6.77808 21.2225 6.84375 20.969C6.85018 20.9339 6.84704 20.8977 6.83464 20.8641C6.82224 20.8306 6.80103 20.8009 6.77322 20.7783Z" fill="#D47C41"/>
<g style="mix-blend-mode:multiply" opacity="0.3">
<path d="M5.10729 20.7837C4.99375 20.6104 4.83485 20.471 4.64763 20.3805C4.42387 20.2718 4.47738 20.4746 4.54548 20.6074C4.62396 20.7607 4.7514 20.8838 4.90786 20.9575C4.93629 20.9734 4.96907 20.9798 5.00143 20.9759C5.0338 20.972 5.06407 20.9579 5.08784 20.9358C5.10563 20.9151 5.11694 20.8896 5.1204 20.8626C5.12386 20.8356 5.1193 20.8082 5.10729 20.7837Z" fill="#C05A19"/>
</g>
<g style="mix-blend-mode:multiply" opacity="0.2">
<path d="M5.83719 21.2031C5.77908 21.1364 5.70795 21.0821 5.62811 21.0435C5.54826 21.0049 5.46136 20.9828 5.37266 20.9785C5.24619 20.9978 5.26078 21.1548 5.31672 21.2369C5.3665 21.3091 5.43277 21.3686 5.51011 21.4105C5.58746 21.4525 5.6737 21.4757 5.7618 21.4783C5.79008 21.4728 5.81628 21.4597 5.83747 21.4403C5.85867 21.4209 5.87403 21.3961 5.88184 21.3685C5.88966 21.341 5.88962 21.3119 5.88174 21.2844C5.87386 21.2568 5.85843 21.232 5.83719 21.2127V21.2031Z" fill="#C05A19"/>
</g>
<path d="M6.40377 17.6251C6.40377 17.5623 6.36972 17.5092 6.27 17.4923H6.24568C6.21805 17.4841 6.18876 17.4832 6.16064 17.4895C6.13253 17.4958 6.10653 17.5093 6.08516 17.5285C5.93681 17.6661 6.15813 17.9582 6.31135 17.8086C6.36385 17.7608 6.39676 17.6954 6.40377 17.6251Z" fill="#D47C41"/>
<path d="M7.2276 18.2003C7.16885 18.1227 7.09632 18.0564 7.01358 18.0047C6.91386 17.9347 6.73875 17.8478 6.77037 18.0506C6.7912 18.1318 6.82818 18.208 6.87914 18.2747C6.9301 18.3415 6.994 18.3975 7.06708 18.4393C7.09816 18.4497 7.13187 18.4494 7.16275 18.4385C7.19364 18.4275 7.21991 18.4066 7.23733 18.379C7.25424 18.3518 7.26236 18.3201 7.26063 18.2881C7.25889 18.2562 7.24736 18.2256 7.2276 18.2003Z" fill="#D47C41"/>
<g style="mix-blend-mode:multiply" opacity="0.3">
<path d="M8.45862 18.9144C8.26161 18.7985 7.836 18.743 7.84086 18.9144C7.84086 19.1558 8.35404 19.2259 8.50483 19.1196C8.59725 19.0399 8.5559 18.9699 8.45862 18.9144Z" fill="#C05A19"/>
</g>
<path d="M12.4882 17.8037C11.6102 17.5236 10.7298 18.0137 10.0123 18.4773C9.58916 18.7501 9.1903 19.0833 8.68685 19.2016C8.47646 19.2416 8.26005 19.2385 8.05093 19.1924C7.8418 19.1463 7.64438 19.0582 7.4708 18.9336C7.16922 18.7381 6.91385 18.4749 6.62199 18.2624C6.35104 18.0558 6.03955 17.9078 5.70752 17.8278C5.36335 17.7575 5.00569 17.7946 4.68361 17.9341C4.63987 17.9727 4.59845 18.0138 4.55957 18.0572C4.93652 17.8892 5.35855 17.8485 5.76103 17.9413C6.10445 18.044 6.42253 18.2167 6.69496 18.4483C6.97581 18.6986 7.27497 18.9277 7.58997 19.134C7.90381 19.3118 8.26839 19.3806 8.62605 19.3296C9.09058 19.2644 9.47485 18.9795 9.8421 18.7284C10.3013 18.3963 10.8047 18.129 11.3378 17.9341C11.5688 17.858 11.8129 17.8292 12.0554 17.8495C12.2979 17.8699 12.5336 17.9389 12.7485 18.0524C12.6708 17.9606 12.5836 17.8772 12.4882 17.8037Z" fill="#F4C29B"/>
<path d="M13.0068 18.4298C12.9123 18.3914 12.8135 18.3647 12.7125 18.3501C12.3789 18.3132 12.0416 18.371 11.7397 18.5167C10.9103 18.8764 10.2804 19.5718 9.45349 19.9339C8.42714 20.3806 7.30594 19.9074 6.51551 19.2096C5.90748 18.6784 5.18515 18.2752 4.3631 18.3042L4.31445 18.3791C4.63347 18.376 4.9505 18.4291 5.25081 18.536C5.70408 18.7169 6.11722 18.9843 6.46686 19.3231C7.14299 19.9291 8.09881 20.3613 9.01814 20.1898C9.93748 20.0184 10.6306 19.2917 11.404 18.8305C11.7195 18.6214 12.082 18.4929 12.4596 18.4563C12.6863 18.4473 12.9106 18.5052 13.1041 18.6229C13.075 18.5569 13.0425 18.4924 13.0068 18.4298Z" fill="#F4C29B"/>
<path d="M4.03711 19.4241C4.43174 20.0042 4.94257 20.4973 5.53772 20.8727C6.20402 21.2727 6.95181 21.5202 7.72661 21.5971C8.62368 21.7126 9.53511 21.6437 10.4042 21.3945C11.2732 21.1452 12.0813 20.7211 12.7781 20.1484C12.9513 19.9989 13.1138 19.8375 13.2645 19.6655C13.2645 19.6108 13.2694 19.5529 13.2791 19.4917C12.7169 20.1386 12.0187 20.6553 11.2337 21.0055C10.3342 21.3835 9.36471 21.5694 8.38814 21.5512C7.56896 21.5526 6.75945 21.3754 6.01684 21.0321C5.23024 20.6341 4.55133 20.0545 4.03711 19.342V19.4241Z" fill="#F4C29B"/>
<path d="M13.2327 19.0865L13.2108 18.9779C12.4228 19.0769 11.7321 19.6491 11.0997 20.0692C10.718 20.3435 10.2896 20.5471 9.83504 20.6704C9.37657 20.7737 8.90628 20.8159 8.43658 20.7959C6.8849 20.738 5.41591 19.9847 4.30201 18.9489L4.13419 18.792L4.1123 18.8741C4.82904 19.6134 5.70439 20.1828 6.67331 20.54C7.45832 20.8328 8.29875 20.9498 9.1346 20.8829C9.56855 20.856 9.99505 20.7581 10.3969 20.5931C10.8112 20.3902 11.2046 20.1476 11.5716 19.8688C11.8569 19.6655 12.1569 19.4831 12.469 19.3232C12.7116 19.2103 12.9685 19.1307 13.2327 19.0865Z" fill="#F4C29B"/>
<path opacity="0.3" d="M11.9974 17.565C11.151 17.3574 10.307 17.903 9.64794 18.3449C8.84535 18.8809 8.06464 18.9002 7.39824 18.1759C7.19293 17.9283 6.95296 17.7112 6.68564 17.5312C7.12828 17.9368 8.36622 19.2382 7.46148 20.3947C6.37433 21.7902 4.66699 20.9403 4.66699 20.9403C5.1753 21.4932 5.94141 21.7733 6.67105 21.9061C7.46464 22.0154 8.26772 22.0405 9.06667 21.9809C10.5697 21.9013 12.958 21.5777 13.2475 19.7066C13.3764 18.8809 12.8632 17.7775 11.9974 17.565Z" fill="#BD6E31"/>
<path opacity="0.3" d="M11.9973 17.5654C11.4975 17.4699 10.9797 17.5555 10.5381 17.8069C12.8316 19.1348 11.1218 21.6506 11.1048 21.6699C12.1433 21.3802 13.0675 20.8152 13.2377 19.6949C13.3764 18.8813 12.8632 17.7779 11.9973 17.5654Z" fill="#BD6E31"/>
</g>
<defs>
<linearGradient id="paint0_linear_164_3861" x1="10.9811" y1="6.42456" x2="10.9811" y2="19.216" gradientUnits="userSpaceOnUse">
<stop stop-color="#E8A04B"/>
<stop offset="1" stop-color="#7A501B"/>
</linearGradient>
<clipPath id="clip0_164_3861">
<rect width="18" height="22" fill="white"/>
</clipPath>
</defs>
</svg>
