<svg width="228" height="190" viewBox="0 0 228 190" fill="none" xmlns="http://www.w3.org/2000/svg">
<path d="M113.897 56.5229C151.609 56.5229 186.589 76.1969 206.177 108.423C213.736 120.859 211.856 136.845 201.618 147.188H22.772C16.148 137.291 15.387 124.589 20.781 113.972L21.012 113.516C38.779 78.55 74.676 56.5229 113.897 56.5229Z" fill="#F79219"/>
<path d="M206.177 108.423C193.439 87.4661 174.189 71.8251 151.914 63.4441C165.645 72.1911 177.444 84.0541 186.177 98.4231C193.736 110.859 191.856 126.845 181.618 137.188H18.2778C19.1928 140.697 20.6928 144.081 22.7718 147.188H201.618C211.856 136.845 213.736 120.859 206.177 108.423Z" fill="#EF7816"/>
<path d="M71.8869 163.357C86.4816 163.357 98.3129 151.526 98.3129 136.931C98.3129 122.336 86.4816 110.505 71.8869 110.505C57.2923 110.505 45.4609 122.336 45.4609 136.931C45.4609 151.526 57.2923 163.357 71.8869 163.357Z" fill="#FFA91A"/>
<path d="M71.8868 153.582C81.0829 153.582 88.5378 146.127 88.5378 136.931C88.5378 127.735 81.0829 120.28 71.8868 120.28C62.6907 120.28 55.2358 127.735 55.2358 136.931C55.2358 146.127 62.6907 153.582 71.8868 153.582Z" fill="#FFC91D"/>
<path d="M49.315 155.255L55.062 149.508C58.478 146.092 58.478 140.552 55.062 137.136L45.171 127.245C41.755 123.829 36.215 123.829 32.799 127.245L27.052 132.992C23.636 136.408 23.636 141.948 27.052 145.364L36.943 155.255C40.36 158.672 45.899 158.672 49.315 155.255Z" fill="#E63950"/>
<path d="M144.358 146.446L147.997 153.713C150.16 158.033 155.416 159.782 159.737 157.618L172.245 151.354C176.565 149.191 178.314 143.935 176.15 139.614L172.511 132.347C170.348 128.027 165.092 126.278 160.771 128.442L148.263 134.706C143.943 136.869 142.195 142.126 144.358 146.446Z" fill="#E63950"/>
<path d="M176.15 139.615L172.511 132.348C171.508 130.346 169.838 128.906 167.908 128.141L171.15 134.615C173.313 138.935 171.565 144.192 167.245 146.355L154.737 152.619C152.419 153.78 149.835 153.805 147.6 152.921L147.997 153.714C150.16 158.034 155.416 159.782 159.737 157.619L172.245 151.355C176.565 149.191 178.313 143.935 176.15 139.615Z" fill="#D10028"/>
<path d="M55.0619 137.136L50.0619 132.136C53.4789 135.553 53.4789 141.092 50.0619 144.509L44.3149 150.256C40.8989 153.673 35.3589 153.673 31.9429 150.256L36.9429 155.256C40.3589 158.673 45.8989 158.673 49.3149 155.256L55.0619 149.509C58.4789 146.092 58.4789 140.552 55.0619 137.136Z" fill="#D10028"/>
<path d="M180.129 189.501H47.8709C35.9229 189.501 24.3419 185.376 15.0839 177.824L5.74189 170.203C-3.70811 162.494 1.74289 147.188 13.9389 147.188H214.061C226.257 147.188 231.708 162.494 222.258 170.203L212.916 177.824C203.658 185.376 192.077 189.501 180.129 189.501Z" fill="#F1F2F2"/>
<path d="M7.36998 159.819C7.14998 159.819 6.91998 159.779 6.69998 159.7C5.66998 159.33 5.11998 158.189 5.48998 157.149C5.48998 157.139 5.49998 157.129 5.49998 157.129C5.86998 156.129 7.02998 155.568 8.04998 155.929C9.08998 156.299 9.62998 157.45 9.25998 158.49C8.97998 159.279 8.21998 159.819 7.36998 159.819ZM13.35 155.21C12.3 155.21 11.42 154.39 11.35 153.35C11.27 152.25 12.1 151.29 13.21 151.21C13.43 151.2 13.67 151.189 13.94 151.189H93.58C94.68 151.189 95.58 152.089 95.58 153.189C95.58 154.29 94.68 155.189 93.58 155.189H13.94C13.79 155.189 13.64 155.189 13.5 155.2H13.49C13.44 155.21 13.39 155.21 13.35 155.21Z" fill="white"/>
<path d="M216.746 147.449C217.71 151.862 216.452 156.781 212.257 160.203L202.915 167.824C193.657 175.376 182.076 179.501 170.128 179.501H37.8708C25.9228 179.501 14.3418 175.376 5.08383 167.824L1.97583 165.288C2.75583 167.09 3.99383 168.777 5.74183 170.203L15.0838 177.824C24.3418 185.376 35.9228 189.501 47.8708 189.501H180.129C192.077 189.501 203.658 185.376 212.916 177.824L222.258 170.203C230.982 163.086 227.005 149.494 216.746 147.449Z" fill="#E6E7E8"/>
<path d="M220.346 148.754C223.196 153.853 222.681 160.779 217.258 165.203L207.916 172.824C198.658 180.376 187.077 184.501 175.129 184.501H42.8709C30.9229 184.501 19.3419 180.376 10.0839 172.824L2.81494 166.894C3.55494 168.09 4.52494 169.21 5.74194 170.203L15.0839 177.824C24.3419 185.376 35.9229 189.501 47.8709 189.501H180.129C192.077 189.501 203.658 185.376 212.916 177.824L222.258 170.203C229.872 163.992 227.812 152.849 220.346 148.754Z" fill="#D1D3D4"/>
<path d="M147.82 54.7392L159.899 66.8186L199.259 27.4586L187.18 15.3792L147.82 54.7392Z" fill="#FCC4AE"/>
<path d="M194.256 22.4581L154.896 61.8181L159.896 66.818L199.256 27.458L194.256 22.4581Z" fill="#F2AD97"/>
<path d="M94.3759 67.1671C114.025 47.5181 153.026 32.2871 167.687 46.9481C182.348 61.6091 167.117 100.611 147.468 120.259C127.819 139.907 111.194 132.763 96.5329 118.102C81.8719 103.441 74.7269 86.8161 94.3759 67.1671Z" fill="#FFA91A"/>
<path d="M167.687 46.9481C163.606 42.8671 157.637 41.1081 150.727 41.1101C159.76 57.9901 145.479 92.2491 127.469 110.26C117.918 119.811 109.084 123.018 100.84 122.122C114.436 133.892 129.719 138.011 147.469 120.26C167.117 100.61 182.348 61.6081 167.687 46.9481Z" fill="#EF7816"/>
<path d="M201.888 39.3691C208.785 39.3691 214.376 33.778 214.376 26.8811C214.376 19.9841 208.785 14.3931 201.888 14.3931C194.991 14.3931 189.4 19.9841 189.4 26.8811C189.4 33.778 194.991 39.3691 201.888 39.3691Z" fill="#FCC4AE"/>
<path d="M210.719 18.051C209.85 17.182 208.882 16.475 207.854 15.916C210.434 20.653 209.727 26.705 205.719 30.712C201.711 34.719 195.66 35.427 190.922 32.848C191.481 33.875 192.188 34.843 193.057 35.712C197.934 40.589 205.841 40.589 210.718 35.712C215.595 30.835 215.596 22.928 210.719 18.051Z" fill="#F2AD97"/>
<path d="M187.753 25.2341C194.65 25.2341 200.241 19.643 200.241 12.7461C200.241 5.84912 194.65 0.258057 187.753 0.258057C180.856 0.258057 175.265 5.84912 175.265 12.7461C175.265 19.643 180.856 25.2341 187.753 25.2341Z" fill="#FCC4AE"/>
<path d="M65.7149 93.6851L63.2649 91.2351C62.8739 90.8441 62.8739 90.2111 63.2649 89.8211L68.8069 84.2791C69.1979 83.8881 69.8309 83.8881 70.2209 84.2791L72.6709 86.7291C73.0619 87.1201 73.0619 87.7531 72.6709 88.1431L67.1289 93.6851C66.7379 94.0751 66.1049 94.0751 65.7149 93.6851Z" fill="#76A34F"/>
<path d="M168.016 121.619L165.566 119.169C165.175 118.778 165.175 118.145 165.566 117.755L171.108 112.213C171.499 111.822 172.132 111.822 172.522 112.213L174.972 114.663C175.363 115.054 175.363 115.687 174.972 116.077L169.43 121.619C169.039 122.01 168.406 122.01 168.016 121.619Z" fill="#76A34F"/>
<path d="M124.071 100.027L121.621 97.5771C121.23 97.1861 121.23 96.5531 121.621 96.1631L127.163 90.6211C127.554 90.2301 128.187 90.2301 128.577 90.6211L131.027 93.0711C131.418 93.4621 131.418 94.0951 131.027 94.4851L125.485 100.027C125.095 100.417 124.462 100.417 124.071 100.027Z" fill="#91B56B"/>
<path d="M47.543 114.173L45.093 116.623C44.702 117.014 44.069 117.014 43.679 116.623L38.137 111.081C37.746 110.69 37.746 110.057 38.137 109.667L40.587 107.217C40.978 106.826 41.611 106.826 42.001 107.217L47.543 112.759C47.933 113.149 47.933 113.782 47.543 114.173Z" fill="#76A34F"/>
<path d="M131.027 66.3681L128.577 68.8181C128.186 69.2091 127.553 69.2091 127.163 68.8181L121.621 63.2761C121.23 62.8851 121.23 62.2521 121.621 61.8621L124.071 59.4121C124.462 59.0211 125.095 59.0211 125.485 59.4121L131.027 64.9541C131.418 65.3441 131.418 65.9771 131.027 66.3681Z" fill="#91B56B"/>
<path d="M103.017 91.2341L100.567 93.6841C100.176 94.0751 99.5429 94.0751 99.1529 93.6841L93.6109 88.1421C93.2199 87.7511 93.2199 87.1181 93.6109 86.7281L96.0609 84.2781C96.4519 83.8871 97.0849 83.8871 97.4749 84.2781L103.017 89.8201C103.407 90.2111 103.407 90.8441 103.017 91.2341Z" fill="#FFA91A"/>
</svg>
