<svg width="160" height="156" viewBox="0 0 160 156" fill="none" xmlns="http://www.w3.org/2000/svg">
<path d="M78.483 31.1101L84.23 25.3631C87.646 21.9471 87.646 16.4071 84.23 12.9911L74.339 3.10009C70.923 -0.315914 65.383 -0.315914 61.967 3.10009L56.22 8.84709C52.804 12.2631 52.804 17.8031 56.22 21.2191L66.111 31.1101C69.528 34.5271 75.067 34.5271 78.483 31.1101Z" fill="#E63950"/>
<path d="M84.23 12.9911L74.339 3.10014C74.321 3.08214 74.302 3.06414 74.284 3.04614C77.646 6.46714 77.629 11.9651 74.231 15.3631L68.484 21.1101C65.086 24.5081 59.587 24.5261 56.167 21.1641C56.185 21.1821 56.202 21.2011 56.221 21.2191L66.112 31.1101C69.529 34.5271 75.068 34.5271 78.484 31.1101L84.231 25.3631C87.647 21.9471 87.647 16.4081 84.23 12.9911Z" fill="#D10028"/>
<path d="M76.7239 46.7221H68.5969C63.7649 46.7221 59.8489 42.8051 59.8489 37.9741V23.9851C59.8489 19.1531 63.7659 15.2371 68.5969 15.2371H76.7239C81.5559 15.2371 85.4719 19.1541 85.4719 23.9851V37.9741C85.4719 42.8051 81.5549 46.7221 76.7239 46.7221Z" fill="#FFC91D"/>
<path d="M79.8828 15.825C80.2628 16.805 80.4718 17.871 80.4718 18.985V32.974C80.4718 37.806 76.5548 41.722 71.7238 41.722H63.5968C62.4828 41.722 61.4168 41.513 60.4368 41.133C61.7038 44.403 64.8798 46.722 68.5968 46.722H76.7238C81.5558 46.722 85.4718 42.805 85.4718 37.974V23.985C85.4718 20.267 83.1528 17.092 79.8828 15.825Z" fill="#FFA91A"/>
<path d="M124.594 46.687L118.847 40.94C115.431 37.524 115.431 31.984 118.847 28.568L128.738 18.677C132.154 15.261 137.694 15.261 141.11 18.677L146.857 24.424C150.273 27.84 150.273 33.38 146.857 36.796L136.966 46.687C133.55 50.103 128.011 50.103 124.594 46.687Z" fill="#E63950"/>
<path d="M146.858 24.423L141.111 18.676C140.364 17.929 139.515 17.345 138.609 16.925C140.111 20.161 139.527 24.126 136.858 26.795L126.967 36.686C124.298 39.355 120.333 39.939 117.097 38.437C117.517 39.343 118.101 40.192 118.848 40.939L124.595 46.686C128.011 50.103 133.551 50.103 136.967 46.686L146.858 36.795C150.274 33.379 150.274 27.839 146.858 24.423Z" fill="#D10028"/>
<path d="M90.8969 33.5571L85.1499 27.8101C81.7339 24.3941 81.7339 18.8541 85.1499 15.4381L95.0409 5.54711C98.4569 2.13111 103.997 2.13111 107.413 5.54711L113.16 11.2941C116.576 14.7101 116.576 20.2501 113.16 23.6661L103.269 33.5571C99.8529 36.9731 94.3139 36.9731 90.8969 33.5571Z" fill="#FFC91D"/>
<path d="M53.5739 70.9741C68.1686 70.9741 79.9999 59.1427 79.9999 44.5481C79.9999 29.9534 68.1686 18.1221 53.5739 18.1221C38.9793 18.1221 27.1479 29.9534 27.1479 44.5481C27.1479 59.1427 38.9793 70.9741 53.5739 70.9741Z" fill="#5A7A39"/>
<path d="M53.5739 61.199C62.7699 61.199 70.2249 53.7441 70.2249 44.548C70.2249 35.3519 62.7699 27.897 53.5739 27.897C44.3778 27.897 36.9229 35.3519 36.9229 44.548C36.9229 53.7441 44.3778 61.199 53.5739 61.199Z" fill="#76A34F"/>
<path d="M43.731 35.1232C47.73 33.8752 51.727 36.8982 51.734 41.0872C51.751 52.6972 44.28 63.4632 32.615 67.1022C20.95 70.7412 8.68196 66.1322 2.09596 56.5722C-0.281041 53.1222 1.28896 48.3632 5.28796 47.1162L43.731 35.1232Z" fill="#91B56B"/>
<path d="M51.733 41.0872C51.729 38.3672 50.043 36.1402 47.766 35.2532C45.903 44.7402 39.033 52.9312 29.155 56.0132C19.277 59.0942 8.96797 56.2612 2.04197 49.5172C0.672966 51.5412 0.551968 54.3322 2.09497 56.5722C8.68197 66.1322 20.949 70.7412 32.615 67.1022C44.279 63.4632 51.75 52.6972 51.733 41.0872Z" fill="#648940"/>
<path d="M106.426 70.9741C121.021 70.9741 132.852 59.1427 132.852 44.5481C132.852 29.9534 121.021 18.1221 106.426 18.1221C91.8313 18.1221 80 29.9534 80 44.5481C80 59.1427 91.8313 70.9741 106.426 70.9741Z" fill="#6D2E03"/>
<path d="M106.426 61.199C115.622 61.199 123.077 53.7441 123.077 44.548C123.077 35.3519 115.622 27.897 106.426 27.897C97.2298 27.897 89.7749 35.3519 89.7749 44.548C89.7749 53.7441 97.2298 61.199 106.426 61.199Z" fill="#995222"/>
<path d="M116.269 35.1232C112.27 33.8752 108.273 36.8982 108.266 41.0872C108.249 52.6972 115.72 63.4632 127.385 67.1022C139.05 70.7412 151.318 66.1322 157.904 56.5722C160.281 53.1222 158.711 48.3632 154.712 47.1162L116.269 35.1232Z" fill="#8C3F0A"/>
<path d="M108.267 41.0872C108.271 38.3672 109.957 36.1402 112.234 35.2532C114.097 44.7402 120.967 52.9312 130.845 56.0132C140.723 59.0942 151.032 56.2612 157.958 49.5172C159.327 51.5412 159.448 54.3322 157.905 56.5722C151.318 66.1322 139.051 70.7412 127.385 67.1022C115.721 63.4632 108.25 52.6972 108.267 41.0872Z" fill="#7C3108"/>
<path d="M91.3221 65.6872C91.6041 65.0652 90.9791 64.1192 89.7941 63.1882C91.1521 63.1182 92.0991 62.7462 92.2381 62.1212C92.3781 61.4962 91.6791 60.7572 90.4801 60.1162C91.9481 59.7772 92.9161 59.1882 92.9261 58.5052C92.9381 57.6082 91.2921 56.8272 89.0181 56.5472C91.1951 54.7752 92.3961 52.8852 91.7971 51.9682C91.3451 51.2772 89.9741 51.3022 88.2571 51.9082C89.0651 50.4772 89.2991 49.2692 88.7521 48.7222C88.2051 48.1752 86.9971 48.4092 85.5661 49.2172C86.1721 47.5002 86.1971 46.1292 85.5061 45.6772C84.5901 45.0782 82.7001 46.2792 80.9271 48.4562C80.6481 46.1832 79.8671 44.5362 78.9691 44.5482C78.2861 44.5572 77.6961 45.5262 77.3581 46.9942C76.7171 45.7952 75.9771 45.0962 75.3531 45.2362C74.7281 45.3762 74.3561 46.3232 74.2861 47.6802C73.3551 46.4962 72.4091 45.8702 71.7871 46.1522C70.7861 46.6062 71.0011 49.2382 72.2681 52.0312C72.7161 53.0182 67.3951 64.8312 70.0181 67.4552C72.6421 70.0792 84.4551 64.7572 85.4421 65.2052C88.2361 66.4722 90.8681 66.6882 91.3221 65.6872Z" fill="#76A34F"/>
<path d="M92.926 58.504C92.938 57.607 91.292 56.826 89.018 56.546C91.195 54.774 92.397 52.884 91.797 51.968C91.345 51.277 89.974 51.302 88.257 51.908C89.065 50.477 89.299 49.269 88.752 48.722C88.339 48.308 87.548 48.341 86.569 48.731C86.094 49.588 85.2 50.585 84.018 51.547C86.291 51.826 87.938 52.607 87.926 53.505C87.917 54.188 86.948 54.778 85.48 55.116C86.679 55.757 87.378 56.497 87.238 57.121C87.098 57.746 86.151 58.118 84.794 58.188C85.978 59.119 86.604 60.065 86.321 60.687C85.867 61.688 83.235 61.473 80.443 60.206C79.759 59.896 73.873 62.357 69.452 63.023C69.157 64.98 69.214 66.651 70.019 67.456C72.643 70.08 84.456 64.758 85.443 65.206C88.235 66.473 90.867 66.689 91.321 65.687C91.603 65.065 90.978 64.119 89.794 63.188C91.152 63.118 92.099 62.746 92.238 62.121C92.377 61.496 91.679 60.756 90.48 60.116C91.948 59.777 92.917 59.188 92.926 58.504Z" fill="#648940"/>
<path d="M136.122 136.253H23.8782V147.46C23.8782 151.88 27.4612 155.462 31.8802 155.462H128.119C132.539 155.462 136.121 151.879 136.121 147.46L136.122 136.253Z" fill="#E6E7E8"/>
<path d="M131.122 136.253V142.46C131.122 146.879 127.539 150.462 123.12 150.462H26.88C25.978 150.462 25.111 150.313 24.302 150.038C25.375 153.193 28.362 155.462 31.88 155.462H128.119C132.539 155.462 136.121 151.879 136.121 147.46V136.253H131.122Z" fill="#D1D3D4"/>
<path d="M23.8781 136.253H136.122C149.554 123.504 157.93 105.48 157.93 85.5001V71.8911C157.93 67.4731 154.348 63.8911 149.93 63.8911H10.0701C5.65207 63.8911 2.07007 67.4731 2.07007 71.8911V85.5001C2.07007 105.48 10.4461 123.504 23.8781 136.253Z" fill="#F1F2F2"/>
<path d="M8.06909 87.5001C6.96909 87.5001 6.06909 86.6001 6.06909 85.5001C6.06909 84.3991 6.96909 83.5001 8.06909 83.5001C9.17009 83.5001 10.0691 84.3991 10.0691 85.5001C10.0691 86.6001 9.17009 87.5001 8.06909 87.5001ZM8.06909 79.5001C6.96909 79.5001 6.06909 78.6001 6.06909 77.5001V71.8901C6.06909 69.6901 7.87009 67.8901 10.0691 67.8901H108.349C109.45 67.8901 110.349 68.7901 110.349 69.8901C110.349 70.9911 109.45 71.8901 108.349 71.8901H10.0691V77.4801C10.0691 77.4911 10.0691 77.4911 10.0691 77.5011C10.0691 78.6001 9.17009 79.5001 8.06909 79.5001Z" fill="white"/>
<path d="M149.93 63.8911H147.93V75.5001C147.93 95.4811 139.554 113.505 126.122 126.253H15.1592C17.7462 129.857 20.6682 133.206 23.8782 136.253H136.122C149.554 123.504 157.93 105.48 157.93 85.5001V71.8911C157.93 67.4721 154.348 63.8911 149.93 63.8911Z" fill="#E6E7E8"/>
<path d="M152.506 64.3152C152.781 65.1232 152.93 65.9902 152.93 66.8912V80.5002C152.93 100.481 144.554 118.505 131.122 131.253H19.103C20.612 132.997 22.206 134.666 23.878 136.253H136.122C149.554 123.504 157.93 105.48 157.93 85.5002V71.8912C157.93 68.3742 155.661 65.3872 152.506 64.3152Z" fill="#D1D3D4"/>
</svg>
