<svg width="137" height="185" viewBox="0 0 137 185" fill="none" xmlns="http://www.w3.org/2000/svg">
<g clip-path="url(#clip0_41_15380)">
<path d="M58.0908 46.3641C61.5944 48.4191 65.557 49.5563 69.6136 49.6709C70.0985 49.6185 70.547 49.3881 70.873 49.0239C71.1989 48.6598 71.3792 48.1876 71.3792 47.6982C71.3792 47.2087 71.1989 46.7366 70.873 46.3724C70.547 46.0083 70.0985 45.7779 69.6136 45.7255C66.0986 45.4777 62.6608 44.5727 59.4772 43.0572C57.6136 42.2818 56.2726 45.4974 58.0908 46.3641Z" fill="#8A5C53"/>
<path d="M54.3863 162.354C54.3863 162.354 41.1136 180.37 45.2954 180.37C49.4772 180.37 53.9772 174.395 53.9772 174.395C53.9772 174.395 54.5227 185.798 57 184.954C60.0227 184.042 60.7272 175.308 60.7272 175.308C60.7272 175.308 65.0682 184.681 67.1818 180.37C69.2954 176.06 61.5682 154.167 54.3863 162.354Z" fill="#815F4E"/>
<path d="M105.841 66.912C106.091 71.3592 106.363 75.7835 106.977 80.0253C109.545 97.8366 122.5 111.383 126.386 128.761C132.182 154.737 119.568 175.695 89.6816 177.155C83.1725 177.597 76.6648 176.273 70.8407 173.324C65.6361 170.587 60.0679 166.482 53.9088 168.762C37.9998 174.327 18.7952 176.585 7.06794 161.282C-5.84116 144.201 0.954299 122.809 11.3634 106.982C21.3861 91.7475 30.3861 76.3764 36.0225 58.7248C38.5225 50.8568 40.2498 38.1996 47.3861 33.114C50.087 31.2041 53.2983 30.1545 56.602 30.1016C59.9056 30.0487 63.1487 30.9951 65.9089 32.8175C65.9089 32.8175 92.5452 19.499 100.682 37.2418C104.795 46.2501 105.25 56.6723 105.841 66.912Z" fill="url(#paint0_radial_41_15380)"/>
<path opacity="0.5" d="M60.8859 161.693C76.9768 162.308 93.8632 154.714 101.795 141.167C117.84 113.641 91.9086 69.3978 67.3632 67.6646C40.9086 65.8173 9.09046 112.25 23.2723 140.392C30.0905 153.847 46.4996 161.122 60.8859 161.693Z" fill="#E1E56E"/>
<g opacity="0.1">
<path d="M126.386 128.761C122.5 111.383 109.545 97.8365 106.977 80.0253C106.364 75.7834 106.091 71.3591 105.841 66.912C105.25 56.6722 104.795 46.25 100.682 37.2646C92.5453 19.4989 65.909 32.8174 65.909 32.8174C65.1751 32.3643 64.4163 31.9531 63.6362 31.5859C66.0908 33.5016 68.4771 35.5313 70.7953 37.6751C88.409 53.8671 96.0226 77.9956 97.0453 101.257C98.0453 123.653 86.3408 149.263 70.7953 164.863C68.9771 166.687 67.0226 168.443 64.9999 170.108C66.9771 171.089 68.909 172.252 70.7953 173.255C76.6129 176.229 83.1209 177.576 89.6362 177.155C119.591 175.604 132.182 154.737 126.386 128.761Z" fill="#968022"/>
</g>
<path d="M61.3634 38.3364C61.3634 38.3364 63.9089 18.8375 57.6134 9.12229C51.318 -0.592949 68.9771 -2.53144 71.2498 2.89633C73.9771 9.73804 71.8862 37.3102 70.0225 39.5223C68.1589 41.7345 62.8407 40.5714 61.3634 38.3364Z" fill="url(#paint1_linear_41_15380)"/>
<path d="M65.9087 30.0579C64.5626 30.0516 63.2186 29.9525 61.886 29.7615C61.8735 32.6274 61.699 35.4903 61.3633 38.3364C62.8406 40.617 68.1815 41.8257 70.0451 39.5907C71.2113 36.3003 71.8406 32.8426 71.9087 29.351C69.9415 29.8119 67.9288 30.049 65.9087 30.0579Z" fill="#905814"/>
<path d="M58.5452 6.18037C56.6134 2.07535 67.6361 0.547362 69.227 3.17002C70.8179 5.79268 60.0452 9.37318 58.5452 6.18037Z" fill="#CDA548"/>
<path d="M74.9997 39.4083C79.4088 51.997 91.1361 61.279 102.409 67.1172C112.409 72.2485 136.863 79.3639 136.863 79.3639C137.374 70.7986 136.654 62.2042 134.727 53.8443C133.71 49.7988 131.905 45.9952 129.416 42.6526C126.928 39.31 123.805 36.4945 120.227 34.3682C111.5 28.758 102.045 29.6246 92.2042 31.4947C85.5224 32.749 79.6361 34.4138 74.8179 39.4083H74.9997Z" fill="#528431"/>
<path d="M134.704 53.8443C133.687 49.7988 131.882 45.9952 129.393 42.6526C126.905 39.31 123.782 36.4945 120.204 34.3682C111.477 28.758 102.023 29.6246 92.1816 31.4947C86.2498 32.6122 80.818 34.0489 76.4316 37.8803C85.0453 39.9328 117.954 49.4656 136.841 79.3639C137.351 70.7986 136.631 62.2042 134.704 53.8443Z" fill="#4C682B"/>
<g opacity="0.2">
<path d="M125 123.584C105.854 140.893 81.0859 150.62 55.318 150.951C35.8097 150.901 16.7296 145.208 0.363423 134.554C-0.358212 139.204 -0.136321 143.952 1.01578 148.513C2.16788 153.075 4.22645 157.356 7.06797 161.1C18.7952 176.402 37.8861 174.144 53.9089 168.58C60.068 166.436 65.6361 170.518 70.8407 173.141C76.6582 176.115 83.1663 177.462 89.6816 177.041C119.591 175.581 132.182 154.623 126.386 128.647C125.977 127.005 125.477 125.272 125 123.584Z" fill="#968022"/>
</g>
<path d="M14.1591 147.644C13.481 147.591 12.8083 147.799 12.2769 148.225C11.7456 148.651 11.3954 149.263 11.2972 149.939C11.199 150.614 11.3601 151.301 11.748 151.862C12.1359 152.423 12.7215 152.814 13.3864 152.958C14.0644 153.011 14.7372 152.803 15.2685 152.377C15.7999 151.952 16.1501 151.339 16.2483 150.664C16.3465 149.988 16.1853 149.301 15.7975 148.74C15.4096 148.18 14.8239 147.788 14.1591 147.644Z" fill="#A39C27"/>
<path d="M24.3179 154.007C23.472 153.947 22.6349 154.21 21.974 154.743C21.3131 155.276 20.8772 156.04 20.7537 156.882C20.6301 157.724 20.828 158.582 21.3077 159.283C21.7874 159.985 22.5135 160.479 23.3406 160.666C24.1865 160.726 25.0237 160.463 25.6846 159.93C26.3455 159.397 26.7813 158.633 26.9049 157.791C27.0284 156.949 26.8305 156.092 26.3509 155.39C25.8712 154.688 25.1451 154.194 24.3179 154.007Z" fill="#A39C27"/>
<path d="M98.0227 137.404C98.6255 137.568 99.2682 137.484 99.8095 137.172C100.351 136.86 100.746 136.345 100.909 135.74C101.072 135.135 100.988 134.49 100.677 133.947C100.366 133.404 99.8527 133.007 99.25 132.843C98.6472 132.68 98.0045 132.764 97.4632 133.076C96.9219 133.388 96.5264 133.903 96.3636 134.508C96.2009 135.113 96.2842 135.758 96.5954 136.301C96.9065 136.844 97.4199 137.241 98.0227 137.404Z" fill="#B8B027"/>
<path opacity="0.5" d="M103.932 164.566C104.486 164.312 104.918 163.847 105.131 163.274C105.344 162.701 105.321 162.067 105.068 161.51C104.815 160.954 104.352 160.521 103.781 160.307C103.21 160.093 102.577 160.116 102.023 160.37C101.468 160.624 101.037 161.089 100.824 161.662C100.611 162.235 100.633 162.869 100.886 163.426C101.139 163.982 101.603 164.415 102.174 164.629C102.745 164.843 103.377 164.82 103.932 164.566Z" fill="#E1E56E"/>
<path opacity="0.5" d="M112.045 157.359C112.751 156.976 113.285 156.338 113.539 155.574C113.792 154.81 113.747 153.978 113.411 153.246C113.076 152.515 112.475 151.939 111.732 151.636C110.989 151.332 110.158 151.324 109.409 151.612C108.703 151.996 108.17 152.634 107.916 153.398C107.662 154.162 107.708 154.994 108.043 155.726C108.379 156.457 108.979 157.033 109.722 157.336C110.466 157.64 111.296 157.648 112.045 157.359Z" fill="#E1E56E"/>
<path opacity="0.5" d="M102.273 154.851C102.729 154.582 103.069 154.152 103.228 153.646C103.387 153.139 103.353 152.591 103.132 152.109C102.911 151.626 102.52 151.243 102.034 151.033C101.547 150.823 101.001 150.802 100.5 150.974C100.044 151.243 99.703 151.672 99.5442 152.179C99.3854 152.686 99.4197 153.233 99.6404 153.716C99.8612 154.199 100.253 154.582 100.739 154.792C101.225 155.001 101.772 155.022 102.273 154.851Z" fill="#E1E56E"/>
<path d="M105.227 128.784C105.971 128.996 106.769 128.902 107.445 128.523C108.12 128.145 108.618 127.513 108.829 126.766C109.04 126.019 108.947 125.218 108.57 124.54C108.192 123.862 107.562 123.363 106.818 123.151C106.073 122.939 105.276 123.033 104.6 123.411C103.925 123.79 103.426 124.422 103.216 125.169C103.005 125.916 103.098 126.717 103.475 127.395C103.852 128.072 104.482 128.572 105.227 128.784Z" fill="#B8B027"/>
<path d="M45.6814 60.0246C46.2842 60.0246 46.8623 59.7844 47.2885 59.3567C47.7147 58.929 47.9541 58.3489 47.9541 57.7441C47.9541 57.1392 47.7147 56.5592 47.2885 56.1315C46.8623 55.7038 46.2842 55.4635 45.6814 55.4635C45.0787 55.4635 44.5006 55.7038 44.0744 56.1315C43.6481 56.5592 43.4087 57.1392 43.4087 57.7441C43.4087 58.3489 43.6481 58.929 44.0744 59.3567C44.5006 59.7844 45.0787 60.0246 45.6814 60.0246Z" fill="#B8B027"/>
<path d="M51.9773 52.4531C52.6995 52.412 53.3801 52.1002 53.8841 51.5795C54.3882 51.0588 54.679 50.3672 54.699 49.6416C54.719 48.9159 54.4667 48.2092 53.9922 47.6614C53.5176 47.1135 52.8553 46.7644 52.1364 46.6833C51.4141 46.7244 50.7336 47.0362 50.2296 47.5569C49.7255 48.0776 49.4347 48.7692 49.4147 49.4949C49.3947 50.2205 49.6469 50.9272 50.1215 51.4751C50.5961 52.0229 51.2584 52.372 51.9773 52.4531Z" fill="#B8B027"/>
<path d="M42.6361 76.8553C36.4997 75.008 19.9088 104.633 26.727 106.138C34.0906 107.803 49.2725 78.8394 42.6361 76.8553Z" fill="#F1EE9D"/>
<path d="M77.4317 37.2874C76.4542 37.9316 75.5203 38.6401 74.6362 39.4083C97.7164 44.5157 118.588 56.8359 134.25 74.5975C117.886 48.8042 86.9999 39.5907 77.4317 37.2874Z" fill="#89B352"/>
</g>
<defs>
<radialGradient id="paint0_radial_41_15380" cx="0" cy="0" r="1" gradientUnits="userSpaceOnUse" gradientTransform="translate(58.7452 78.0207) scale(108.655 109.03)">
<stop offset="0.01" stop-color="#D9DF43"/>
<stop offset="1" stop-color="#B8BD00"/>
</radialGradient>
<linearGradient id="paint1_linear_41_15380" x1="75.9544" y1="39.0662" x2="53.9495" y2="-2.74272" gradientUnits="userSpaceOnUse">
<stop stop-color="#A86B22"/>
<stop offset="1" stop-color="#B09400"/>
</linearGradient>
<clipPath id="clip0_41_15380">
<rect width="137" height="185" fill="white"/>
</clipPath>
</defs>
</svg>
