<svg width="14" height="21" viewBox="0 0 14 21" fill="none" xmlns="http://www.w3.org/2000/svg">
<path d="M11.7398 19.6028H1.76841C1.42645 19.6028 1.10588 19.436 0.909842 19.1557C0.31766 18.3097 0 17.3021 0 16.2696V5.29404C0 4.26142 0.31766 3.25379 0.909842 2.4079C1.106 2.12779 1.42645 1.96082 1.76841 1.96082H11.7397C12.0817 1.96082 12.4022 2.12768 12.5983 2.4079C13.1904 3.2539 13.5081 4.26153 13.5081 5.29404V16.2696C13.5081 17.3022 13.1904 18.3098 12.5983 19.1557C12.4022 19.436 12.0818 19.6028 11.7398 19.6028Z" fill="#808285"/>
<path d="M0.698368 16.0157C0.570467 16.0157 0.46582 15.911 0.46582 15.7831C0.46582 15.6552 0.570467 15.5506 0.698368 15.5506C0.827432 15.5506 0.930915 15.6552 0.930915 15.7831C0.930915 15.911 0.827432 16.0157 0.698368 16.0157ZM0.698368 15.0855C0.570467 15.0855 0.46582 14.9808 0.46582 14.8529V5.78126C0.46582 5.65336 0.570467 5.54871 0.698368 5.54871C0.827432 5.54871 0.930915 5.65336 0.930915 5.78126V14.8529C0.930915 14.9808 0.827432 15.0855 0.698368 15.0855Z" fill="#939598"/>
<path d="M12.5976 2.40724C12.424 2.15923 12.1529 2.00005 11.8557 1.9668C12.1761 2.63967 12.3447 3.37859 12.3447 4.13077V15.1064C12.3447 16.1391 12.0271 17.1467 11.4349 17.9926C11.2387 18.2728 10.9183 18.4396 10.5763 18.4396H0.604905C0.56572 18.4396 0.526768 18.4374 0.488281 18.4331C0.607694 18.6839 0.74827 18.9257 0.909076 19.1554C1.10523 19.4356 1.42568 19.6025 1.76764 19.6025H11.7389C12.0809 19.6025 12.4015 19.4356 12.5975 19.1554C13.1897 18.3094 13.5073 17.3018 13.5073 16.2693V5.2935C13.5075 4.26088 13.1898 3.25325 12.5976 2.40724Z" fill="#58595B"/>
<path d="M12.5978 2.40753C12.4869 2.24928 12.3365 2.1272 12.1648 2.0508C12.6614 2.84786 12.9261 3.76968 12.9261 4.71231V15.688C12.9261 16.7206 12.6085 17.7282 12.0163 18.5741C11.8201 18.8543 11.4997 19.0212 11.1577 19.0212H1.18642C1.03771 19.0212 0.892945 18.9896 0.760742 18.9308C0.808182 19.0069 0.857598 19.0819 0.909108 19.1555C1.10526 19.4357 1.42571 19.6026 1.76767 19.6026H11.739C12.0809 19.6026 12.4015 19.4357 12.5975 19.1555C13.1897 18.3095 13.5074 17.3018 13.5074 16.2693V5.29379C13.5076 4.26117 13.1899 3.25354 12.5978 2.40753Z" fill="#414042"/>
<path d="M11.5876 1.95995H1.92232C1.53641 1.95995 1.22363 1.64717 1.22363 1.26126C1.22363 0.875345 1.53641 0.562569 1.92232 0.562569H11.5876C11.9735 0.562569 12.2863 0.875345 12.2863 1.26126C12.2863 1.64705 11.9734 1.95995 11.5876 1.95995Z" fill="#FFA91A"/>
<path d="M11.6948 0.570312C11.7003 0.605776 11.7032 0.64217 11.7032 0.679145C11.7032 1.06506 11.3905 1.37783 11.0046 1.37783H1.3393C1.30233 1.37783 1.26593 1.37493 1.23047 1.36935C1.28279 1.70352 1.57185 1.9592 1.92067 1.9592H11.5859C11.9718 1.9592 12.2846 1.64643 12.2846 1.26051C12.2846 0.911809 12.0289 0.622636 11.6948 0.570312Z" fill="#F79219"/>
<path d="M11.5876 21H1.92232C1.53641 21 1.22363 20.6873 1.22363 20.3013C1.22363 19.9154 1.53641 19.6027 1.92232 19.6027H11.5876C11.9735 19.6027 12.2863 19.9154 12.2863 20.3013C12.2863 20.6873 11.9734 21 11.5876 21Z" fill="#FFA91A"/>
<path d="M11.6948 19.6104C11.7003 19.6458 11.7032 19.6822 11.7032 19.7192C11.7032 20.1051 11.3905 20.4179 11.0046 20.4179H1.3393C1.30233 20.4179 1.26593 20.415 1.23047 20.4094C1.28279 20.7436 1.57185 20.9992 1.92067 20.9992H11.5859C11.9718 20.9992 12.2846 20.6865 12.2846 20.3006C12.2846 19.9517 12.0289 19.6627 11.6948 19.6104Z" fill="#F79219"/>
<path d="M11.1805 0H7.44901C7.25611 0 7.09961 0.156388 7.09961 0.349402V0.562764H11.5299V0.349402C11.5299 0.156388 11.3735 0 11.1805 0Z" fill="#FFC91D"/>
<path d="M13.0941 3.29967H0.409793C0.194803 3.79779 0.0613206 4.32858 0.015625 4.8717H13.4881C13.4426 4.32858 13.309 3.79779 13.0941 3.29967Z" fill="#FFA91A"/>
<path d="M13.0951 3.2998H12.7232C12.8175 3.62212 12.8796 3.95385 12.9079 4.29046H0.0999693C0.0610176 4.48196 0.0331124 4.67614 0.0166016 4.87183H13.4891C13.4435 4.32871 13.3099 3.79792 13.0951 3.2998Z" fill="#F79219"/>
<path d="M0.409793 18.273H13.094C13.309 17.7749 13.4425 17.2441 13.4881 16.701H0.015625C0.0613206 17.2441 0.194919 17.7749 0.409793 18.273Z" fill="#FFA91A"/>
<path d="M12.8254 16.7012C12.7562 17.0413 12.652 17.3732 12.5146 17.6918H0.202148C0.259936 17.8896 0.329934 18.0838 0.411674 18.2732H13.0959C13.3109 17.7751 13.4443 17.2443 13.49 16.7012H12.8254Z" fill="#F79219"/>
<path d="M9.72642 6.34764H6.22507C6.12879 6.34764 6.04077 6.40241 5.99822 6.4888L4.17388 10.195C4.09121 10.363 4.21342 10.5594 4.40073 10.5594H5.648C5.83846 10.5594 5.96055 10.7621 5.87136 10.9305L3.56345 15.29C3.4345 15.5336 3.73309 15.7784 3.94668 15.6042L9.58259 11.008C9.76688 10.8578 9.66061 10.5593 9.42283 10.5593H8.46578C8.27858 10.5593 8.15626 10.3628 8.23893 10.1949L9.95339 6.71193C10.0359 6.54414 9.91362 6.34764 9.72642 6.34764Z" fill="#FFA91A"/>
<path d="M9.42272 10.5605H8.83844L3.96297 14.5366L3.56345 15.2913C3.43451 15.5349 3.73298 15.7796 3.94669 15.6054L9.5826 11.0092C9.76666 10.8589 9.6605 10.5605 9.42272 10.5605Z" fill="#F79219"/>
</svg>
