<svg width="184" height="145" viewBox="0 0 184 145" fill="none" xmlns="http://www.w3.org/2000/svg">
<path d="M122.568 142.993C126.628 142.765 163.568 125.706 167.151 118.043C169.759 112.456 169.94 47.3451 170.757 47.0258C185.089 42.0769 193.933 20.5253 164.067 9.12239C131.276 -3.26122 74.3121 -2.28057 42.2697 7.57158C23.7654 13.3187 122.568 142.993 122.568 142.993Z" fill="url(#paint0_linear_41_14630)"/>
<path d="M132.161 54.4149C141.231 52.8413 150.007 49.6257 153.658 45.589C157.309 41.5524 158.987 33.7299 155.813 28.6214C145.699 12.3836 123.113 7.00142 105.901 4.56119C100.889 3.8314 95.8777 3.35247 90.8434 3.0788C69.9127 1.98412 49.4809 4.26471 29.8654 12.2012C18.8671 16.4659 10.59 21.506 4.19517 29.6477C-0.453581 35.6228 -2.26773 43.7189 4.53533 48.759C9.70565 52.5448 17.0756 52.8869 23.3118 53.1606C22.314 90.0606 28.0059 139.116 31.4301 141.397C39.7525 146.71 122.387 145.661 126.242 142.218C130.777 138.09 133.635 94.3253 131.866 54.8254L132.161 54.4149Z" fill="#F28C31"/>
<path d="M27.371 49.2608C27.371 49.2608 7.14323 50.766 4.53539 41.3244C1.92755 31.8827 26.7587 7.98215 77.7816 6.84185C128.805 5.70155 153.59 25.7936 152.865 35.4633C152.139 45.133 138.556 50.1731 126.242 50.9941C126.242 50.9941 127.966 130.108 123.271 135.809C118.577 141.511 37.5529 141.876 34.5142 136.539C28.5955 126.14 27.371 49.2608 27.371 49.2608Z" fill="#FFE4AC"/>
<g style="mix-blend-mode:overlay" opacity="0.3">
<path d="M38.9587 28.6899C48.0294 17.4009 96.6486 13.8204 112.182 27.2075C122.273 35.8965 78.8926 122.422 47.0997 116.47C37.1899 114.623 33.04 36.1246 38.9587 28.6899Z" fill="#F2E4DA"/>
</g>
<path opacity="0.3" d="M115.652 127.713C116.049 127.204 116.286 126.587 116.333 125.941C116.381 125.295 116.236 124.65 115.917 124.088C115.599 123.525 115.121 123.071 114.544 122.782C113.968 122.494 113.32 122.384 112.681 122.468C111.871 122.536 111.116 122.908 110.565 123.51C110.015 124.112 109.709 124.9 109.709 125.718C109.709 126.535 110.015 127.323 110.565 127.925C111.116 128.527 111.871 128.899 112.681 128.967C113.242 129.028 113.808 128.945 114.327 128.725C114.847 128.506 115.303 128.158 115.652 127.713Z" fill="#D1642E"/>
<path opacity="0.3" d="M109.076 115.17C108.827 114.839 108.486 114.59 108.096 114.454C107.707 114.318 107.286 114.301 106.887 114.406C106.487 114.51 106.128 114.731 105.854 115.041C105.579 115.351 105.403 115.735 105.346 116.146C105.289 116.557 105.354 116.975 105.534 117.349C105.713 117.722 105.998 118.034 106.354 118.244C106.709 118.455 107.119 118.554 107.531 118.531C107.942 118.507 108.338 118.361 108.667 118.112C109.105 117.773 109.393 117.275 109.469 116.725C109.545 116.175 109.404 115.616 109.076 115.17Z" fill="#BD592E"/>
<path opacity="0.3" d="M32.2238 25.3146C31.5474 25.0212 30.785 24.9994 30.0933 25.254C29.4016 25.5085 28.8331 26.0199 28.5048 26.683C28.2715 27.3859 28.3105 28.1514 28.6141 28.8266C28.9177 29.5018 29.4635 30.037 30.1423 30.325C30.8212 30.6131 31.5832 30.6329 32.276 30.3805C32.9687 30.1281 33.5413 29.6221 33.8792 28.9636C34.1248 28.2581 34.0896 27.4844 33.7811 26.8043C33.4726 26.1242 32.9146 25.5905 32.2238 25.3146Z" fill="#D1642E"/>
<path opacity="0.3" d="M47.4173 126.39C46.8886 126.074 46.2805 125.918 45.6657 125.94C45.051 125.963 44.4558 126.163 43.9514 126.518C43.4471 126.872 43.0551 127.365 42.8225 127.938C42.5898 128.51 42.5264 129.138 42.6397 129.746C42.7531 130.355 43.0385 130.917 43.4616 131.366C43.8848 131.815 44.4277 132.132 45.0254 132.278C45.6231 132.425 46.2501 132.395 46.8312 132.192C47.4123 131.989 47.9229 131.621 48.3017 131.134C48.5582 130.766 48.739 130.35 48.8335 129.91C48.928 129.471 48.9342 129.017 48.8518 128.575C48.7694 128.133 48.6001 127.712 48.3538 127.337C48.1074 126.962 47.789 126.64 47.4173 126.39Z" fill="#BD592E"/>
<path opacity="0.3" d="M31.3167 34.5737C31.0415 34.4536 30.7453 34.3896 30.4453 34.3855C30.1453 34.3813 29.8475 34.4371 29.5691 34.5495C29.2907 34.6619 29.0372 34.8288 28.8234 35.0404C28.6095 35.2521 28.4396 35.5043 28.3234 35.7824C28.0858 36.351 28.0826 36.9912 28.3143 37.5622C28.5461 38.1331 28.9939 38.5881 29.5593 38.827C30.1246 39.0659 30.7612 39.0692 31.3289 38.8361C31.8966 38.603 32.3491 38.1527 32.5866 37.5841C32.7938 37.0139 32.7779 36.3858 32.5422 35.827C32.3064 35.2681 31.8684 34.8202 31.3167 34.5737Z" fill="#D1642E"/>
<path opacity="0.3" d="M43.2447 32.7493C42.628 32.5009 41.9387 32.5078 41.327 32.7684C40.7153 33.029 40.2309 33.5222 39.9792 34.1405C39.7366 34.763 39.7374 35.4549 39.9814 36.0768C40.2254 36.6988 40.6946 37.2048 41.2945 37.493C41.9121 37.7293 42.5967 37.7165 43.2052 37.4573C43.8137 37.198 44.2991 36.7124 44.56 36.1018C44.7971 35.4788 44.7936 34.7891 44.5502 34.1685C44.3067 33.548 43.841 33.0417 43.2447 32.7493Z" fill="#D1642E"/>
<path opacity="0.3" d="M102.25 123.152C101.966 123.133 101.682 123.172 101.413 123.266C101.145 123.36 100.897 123.507 100.686 123.698C100.475 123.889 100.304 124.121 100.183 124.38C100.062 124.638 99.9938 124.919 99.9823 125.204C99.9776 125.761 100.176 126.301 100.539 126.721C100.902 127.141 101.406 127.413 101.955 127.485C102.519 127.488 103.064 127.279 103.484 126.9C103.903 126.52 104.166 125.997 104.223 125.433C104.228 124.876 104.029 124.336 103.666 123.916C103.303 123.496 102.799 123.224 102.25 123.152Z" fill="#BD592E"/>
<path opacity="0.3" d="M57.5991 124.657C57.3554 124.482 57.0796 124.357 56.7877 124.29C56.4958 124.223 56.1935 124.215 55.8983 124.265C55.6031 124.316 55.3209 124.426 55.0679 124.587C54.8149 124.748 54.5962 124.958 54.4244 125.205C54.0814 125.707 53.9378 126.32 54.0217 126.924C54.1056 127.527 54.411 128.077 54.8779 128.466C55.1217 128.649 55.3997 128.781 55.6953 128.854C55.9909 128.927 56.2981 128.94 56.5986 128.891C56.8991 128.842 57.1867 128.732 57.4443 128.569C57.7019 128.406 57.9242 128.193 58.098 127.941C58.4425 127.432 58.5826 126.81 58.49 126.201C58.3975 125.591 58.0792 125.04 57.5991 124.657Z" fill="#D1642E"/>
<path opacity="0.3" d="M152.865 35.372C153.59 25.7023 128.827 5.4963 77.7816 6.84185C26.736 8.1874 1.72345 31.9284 4.53538 41.3244C7.34731 50.7204 27.371 49.2608 27.371 49.2608C27.371 49.2608 28.5955 126.14 34.5142 136.539C37.5529 141.876 118.6 141.511 123.271 135.809C127.943 130.108 126.242 50.9941 126.242 50.9941C138.556 50.1731 152.116 45.0418 152.865 35.372ZM145.472 35.372C144.52 43.9015 122.047 48.2802 122.047 48.2802C122.047 48.2802 123.838 124.726 119.598 131.134C115.357 137.543 43.086 138.227 38.0745 133.255C33.0629 128.283 31.2714 55.0079 32.0424 45.0418C32.0424 45.0418 10.7488 49.3977 8.41313 39.6824C6.07741 29.967 35.0131 10.5592 77.6682 9.85223C120.323 9.14525 146.402 26.8426 145.472 35.372Z" fill="#E08C31"/>
<defs>
<linearGradient id="paint0_linear_41_14630" x1="130.211" y1="-2.02971" x2="87.2981" y2="103.347" gradientUnits="userSpaceOnUse">
<stop offset="0.01" stop-color="#E07E26"/>
<stop offset="1" stop-color="#B86011"/>
</linearGradient>
</defs>
</svg>
