<svg width="188" height="139" viewBox="0 0 188 139" fill="none" xmlns="http://www.w3.org/2000/svg">
<path d="M91.7261 104.687C64.9881 77.949 48.4501 41.011 48.4501 0.209991H6.27612C2.90312 0.209991 0.170113 2.99099 0.274113 6.36299C1.80011 55.845 21.6631 100.708 53.2971 134.387C55.6121 136.851 59.5171 136.895 61.9081 134.504L91.7261 104.687Z" fill="#FCC4AE"/>
<path d="M48.4502 0.209991H38.7842C41.2452 37.027 57.1902 70.151 81.7262 94.687L51.9082 124.505C50.2672 126.146 47.9142 126.64 45.8502 125.992C48.2532 128.861 50.7362 131.661 53.2972 134.388C55.6122 136.852 59.5172 136.896 61.9082 134.505L91.7262 104.687C64.9882 77.949 48.4502 41.011 48.4502 0.209991Z" fill="#E59076"/>
<path d="M27.4302 89.58C26.6902 89.58 26.0102 89.17 25.6602 88.51C25.6602 88.51 25.6602 88.51 25.6602 88.5C25.4102 88.03 25.3702 87.49 25.5302 86.979C25.6902 86.469 26.0402 86.049 26.5102 85.809C27.4602 85.309 28.7102 85.709 29.2002 86.649C29.2102 86.649 29.2102 86.66 29.2102 86.66C29.7202 87.639 29.3302 88.849 28.3502 89.359C28.0702 89.51 27.7502 89.58 27.4302 89.58ZM23.9102 82.399C23.1302 82.399 22.4202 81.95 22.0902 81.25C16.6602 69.58 12.3902 57.33 9.41018 44.81C6.40018 32.21 4.68018 19.241 4.28018 6.27C4.26018 5.73 4.46018 5.21 4.84018 4.82C5.21018 4.43 5.74018 4.211 6.28018 4.211H24.4202C25.5202 4.211 26.4202 5.11 26.4202 6.211C26.4202 7.311 25.5202 8.211 24.4202 8.211H8.35018C9.39018 33.041 15.2302 57.041 25.7202 79.561C26.1802 80.561 25.7502 81.751 24.7502 82.221C24.4802 82.34 24.2002 82.399 23.9102 82.399Z" fill="#FFD2C0"/>
<path d="M48.4502 0.209991C48.4502 41.011 64.9882 77.949 91.7262 104.687L185.96 10.453C189.74 6.673 187.063 0.209991 181.717 0.209991H48.4502Z" fill="#FFA91A"/>
<path d="M181.717 0.209991H176.19C176.116 0.291991 176.039 0.372995 175.96 0.452995L82.2031 94.21C85.2101 97.853 88.3891 101.349 91.7261 104.687L185.96 10.453C189.74 6.673 187.063 0.209991 181.717 0.209991Z" fill="#F79219"/>
<path d="M182.649 0.277985C182.939 2.04598 182.453 3.95899 180.959 5.45299L86.8442 99.568C88.4302 101.313 90.0582 103.02 91.7252 104.687L185.959 10.453C189.513 6.89999 187.36 0.975985 182.649 0.277985Z" fill="#EF7816"/>
<path d="M142.39 54.022V67.516C142.39 71.871 145.921 75.402 150.277 75.402C154.633 75.402 158.164 71.871 158.164 67.516V38.249L142.39 54.022Z" fill="#EF7816"/>
<path d="M104.882 91.53V130.932C104.882 135.288 108.413 138.819 112.769 138.819C117.125 138.819 120.656 135.288 120.656 130.932V75.756L104.882 91.53Z" fill="#EF7816"/>
<path d="M91.7261 78.368C100.086 78.368 106.863 71.5909 106.863 63.231C106.863 54.8711 100.086 48.094 91.7261 48.094C83.3662 48.094 76.5891 54.8711 76.5891 63.231C76.5891 71.5909 83.3662 78.368 91.7261 78.368Z" fill="#E63950"/>
<path d="M99.6351 50.322C101.048 52.624 101.863 55.332 101.863 58.231C101.863 66.591 95.0861 73.368 86.7261 73.368C83.8271 73.368 81.1191 72.553 78.8171 71.14C81.4791 75.476 86.2651 78.368 91.7261 78.368C100.086 78.368 106.863 71.591 106.863 63.231C106.863 57.77 103.971 52.984 99.6351 50.322Z" fill="#D10028"/>
<path d="M108.705 20.898C117.065 20.898 123.842 14.121 123.842 5.76099C123.842 3.80099 123.47 1.92899 122.792 0.209991H94.6181C93.9401 1.92899 93.5681 3.80199 93.5681 5.76099C93.5681 14.121 100.345 20.898 108.705 20.898Z" fill="#E63950"/>
<path d="M122.792 0.209991H118.832C118.839 0.392991 118.842 0.576994 118.842 0.760994C118.842 9.12099 112.065 15.898 103.705 15.898C100.806 15.898 98.0981 15.083 95.7961 13.67C98.4581 18.006 103.244 20.898 108.705 20.898C117.065 20.898 123.842 14.121 123.842 5.76099C123.842 3.80099 123.47 1.92899 122.792 0.209991Z" fill="#D10028"/>
<path d="M94.8792 24.447C86.2752 13.22 70.1422 11.085 58.9152 19.689C57.4562 20.807 57.1792 22.897 58.2972 24.357C59.4152 25.816 61.5052 26.093 62.9652 24.975C71.2782 18.605 83.2242 20.185 89.5942 28.498C90.7122 29.957 92.8022 30.234 94.2622 29.116C95.7212 27.997 95.9982 25.907 94.8792 24.447Z" fill="#76A34F"/>
<path d="M119.898 61.396C109.09 52.271 107.721 36.055 116.845 25.247C118.031 23.842 120.132 23.665 121.536 24.851C122.941 26.037 123.118 28.138 121.932 29.542C115.176 37.544 116.19 49.552 124.192 56.308C125.597 57.494 125.774 59.595 124.588 60.999C123.403 62.405 121.302 62.582 119.898 61.396Z" fill="#76A34F"/>
<path d="M133.518 31.619C131.73 33.407 132.168 36.494 134.453 37.576C139.826 40.12 146.442 39.169 150.887 34.724C155.332 30.279 156.282 23.664 153.739 18.29C152.657 16.005 149.569 15.568 147.782 17.355L145.93 19.207L144.069 15.533C142.924 13.272 139.904 12.79 138.112 14.582L130.746 21.948C128.954 23.74 129.436 26.76 131.697 27.905L135.371 29.766L133.518 31.619Z" fill="#FCC4AE"/>
<path d="M153.738 18.291C153.001 16.733 151.331 16.034 149.776 16.314C150.822 20.991 149.526 26.085 145.887 29.725C142.248 33.365 137.153 34.661 132.476 33.615C132.197 35.17 132.895 36.84 134.453 37.577C139.826 40.121 146.442 39.17 150.887 34.725C155.331 30.28 156.282 23.664 153.738 18.291Z" fill="#F2AD97"/>
</svg>
