<svg width="146" height="131" viewBox="0 0 146 131" fill="none" xmlns="http://www.w3.org/2000/svg">
<g clip-path="url(#clip0_41_15012)">
<path d="M64.929 83.0218C64.929 83.0218 69.1004 96.3642 72.0249 96.772C74.9495 97.1797 78.2821 73.4171 78.2821 73.4171L91.6352 67.5728L84.97 120.965L65.337 121.803L52.8228 85.5589L64.929 83.0218Z" fill="#4F6E33"/>
<path d="M54.9088 80.0997L72.8641 108.868C78.2824 93.0117 95.8069 63.4274 95.8069 63.4274L107.641 81.1644C91.3861 96.6587 89.5044 130.57 89.5044 130.57L63.1383 131.023C60.7805 99.8301 43.8228 82.229 43.8228 82.229L54.9088 80.0997Z" fill="url(#paint0_linear_41_15012)"/>
<path d="M44.6384 25.1897C44.6384 25.1897 34.3232 17.9862 25.0735 25.5522C17.3881 31.827 21.9903 44.0594 21.9903 44.0594C21.9903 44.0594 0.725091 40.6388 -0.000375334 50.9231C-0.725841 61.2074 10.995 63.9483 10.995 63.9483C10.995 63.9483 -1.45131 74.7536 3.1282 85.5363C6.75553 94.2122 22.8291 89.3193 22.8291 89.3193C22.8291 89.3193 32.6456 116.276 42.9155 86.9181C42.9155 86.9181 63.8633 102.775 74.4959 77.3134C74.4959 77.3134 84.1083 99.2637 101.701 79.035C101.701 79.035 100.001 91.0409 108.91 95.8206C117.82 100.6 132.012 97.2024 133.848 89.0248C135.231 83.0898 126.752 74.8442 126.752 74.8442C126.752 74.8442 147.972 75.5691 145.909 61.5245C143.846 47.4799 124.984 45.3959 124.984 45.3959C124.984 45.3959 133.032 39.1664 129.767 30.9888C126.797 23.6041 114.691 25.1671 114.691 25.1671C114.691 25.1671 117.208 9.74067 105.759 5.98033C93.3807 1.90287 82.8614 13.8181 82.8614 13.8181C82.8614 13.8181 71.9114 -3.8509 58.9437 0.770235C45.0465 5.64054 44.6384 25.1897 44.6384 25.1897Z" fill="#8EC726"/>
<path d="M8.25188 79.9185C8.19896 79.062 8.40209 78.2092 8.83545 77.4685C9.2688 76.7277 9.91281 76.1324 10.6856 75.7582C11.4584 75.384 12.3251 75.2479 13.1755 75.3672C14.0259 75.4864 14.8217 75.8556 15.4616 76.4279C16.1014 77.0001 16.5566 77.7495 16.7692 78.5809C16.9817 79.4123 16.9421 80.288 16.6553 81.0968C16.3685 81.9056 15.8475 82.6109 15.1586 83.1231C14.4696 83.6353 13.6438 83.9312 12.786 83.9733C11.65 84.0232 10.5394 83.6268 9.69208 82.869C8.84471 82.1113 8.32778 81.0522 8.25188 79.9185Z" fill="#79A63E"/>
<path d="M87.8719 30.4678C87.8719 30.4678 106.258 31.306 107.074 45.4865C107.686 55.6122 89.5495 58.8968 89.5495 58.8968C89.5495 58.8968 99.1619 68.4789 93.3129 76.8151C87.8039 84.6982 74.4961 77.3814 74.4961 77.3814C74.4961 77.3814 84.1085 99.3317 101.701 79.103C101.701 79.103 100.001 91.1088 108.91 95.8885C117.82 100.668 132.012 97.2704 133.848 89.0928C135.231 83.1578 126.752 74.9122 126.752 74.9122C126.752 74.9122 147.972 75.6371 145.909 61.5925C143.846 47.5479 124.984 45.4639 124.984 45.4639C124.984 45.4639 133.032 39.2344 129.768 31.0568C126.798 23.672 114.691 25.2351 114.691 25.2351C114.691 25.2351 117.208 9.80866 105.759 6.04832C93.3809 1.97086 82.8616 13.8861 82.8616 13.8861C107.391 11.3264 87.8719 30.4678 87.8719 30.4678Z" fill="#79A63E"/>
<path d="M111.79 84.3357C112.023 83.7841 112.368 83.2869 112.803 82.8755C113.239 82.4642 113.755 82.1476 114.319 81.9458C114.883 81.744 115.483 81.6614 116.081 81.7032C116.679 81.745 117.261 81.9104 117.792 82.1888C118.322 82.4672 118.789 82.8527 119.163 83.3207C119.537 83.7887 119.809 84.3291 119.963 84.9078C120.117 85.4865 120.149 86.0908 120.057 86.6825C119.966 87.2741 119.752 87.8403 119.43 88.3452C119.16 88.8465 118.795 89.2898 118.354 89.6499C117.913 90.0099 117.405 90.2797 116.86 90.4438C116.315 90.6078 115.742 90.663 115.176 90.6061C114.609 90.5492 114.06 90.3813 113.558 90.1121C113.056 89.8429 112.613 89.4776 112.252 89.0371C111.892 88.5965 111.622 88.0893 111.458 87.5445C111.293 86.9997 111.238 86.428 111.295 85.8618C111.352 85.2957 111.52 84.7463 111.79 84.2451V84.3357Z" fill="#4F6E33"/>
<path d="M111.291 73.1906C111.508 72.803 111.834 72.4877 112.229 72.284C112.624 72.0802 113.07 71.9969 113.512 72.0445C113.954 72.0921 114.372 72.2685 114.714 72.5516C115.057 72.8348 115.308 73.2123 115.438 73.6372C115.567 74.0621 115.569 74.5156 115.442 74.9414C115.316 75.3671 115.067 75.7464 114.726 76.0319C114.386 76.3174 113.969 76.4966 113.527 76.5473C113.086 76.5979 112.639 76.5177 112.243 76.3166C111.97 76.1785 111.729 75.9868 111.533 75.753C111.336 75.5193 111.189 75.2483 111.1 74.9563C111.011 74.6644 110.982 74.3575 111.015 74.054C111.048 73.7506 111.141 73.4569 111.291 73.1906Z" fill="#4F6E33"/>
<path d="M37.3388 35.7459C37.3387 36.616 37.0802 37.4665 36.5959 38.1897C36.1116 38.9129 35.4234 39.4761 34.6184 39.8081C33.8135 40.14 32.928 40.2257 32.0742 40.0543C31.2204 39.8829 30.4368 39.4621 29.8226 38.8452C29.2085 38.2284 28.7914 37.4432 28.6242 36.5892C28.4571 35.7353 28.5474 34.851 28.8838 34.0484C29.2202 33.2458 29.7874 32.561 30.5137 32.0808C31.2399 31.6007 32.0925 31.3468 32.9633 31.3513C34.1258 31.3572 35.2387 31.8229 36.0586 32.6464C36.8785 33.4699 37.3388 34.5843 37.3388 35.7459Z" fill="#D4E388"/>
<path d="M65.3143 25.9147C65.3188 26.7848 65.0646 27.6367 64.5841 28.3623C64.1036 29.088 63.4183 29.6548 62.615 29.9909C61.8118 30.327 60.9267 30.4172 60.0721 30.2502C59.2175 30.0832 58.4317 29.6665 57.8143 29.0528C57.1969 28.4391 56.7758 27.6561 56.6043 26.803C56.4327 25.95 56.5185 25.0652 56.8507 24.2609C57.1829 23.4565 57.7466 22.7688 58.4703 22.285C59.1941 21.8011 60.0453 21.5427 60.9161 21.5427C62.0787 21.5427 63.1939 22.0026 64.0181 22.8219C64.8423 23.6411 65.3083 24.7531 65.3143 25.9147Z" fill="#D4E388"/>
<path d="M36.409 48.0915C36.409 48.7725 36.2069 49.4382 35.8283 50.0044C35.4496 50.5707 34.9114 51.012 34.2818 51.2726C33.6521 51.5332 32.9592 51.6014 32.2908 51.4685C31.6223 51.3357 31.0083 51.0078 30.5264 50.5262C30.0445 50.0447 29.7163 49.4312 29.5833 48.7632C29.4503 48.0953 29.5186 47.403 29.7794 46.7739C30.0402 46.1447 30.4819 45.6069 31.0486 45.2286C31.6153 44.8503 32.2815 44.6483 32.9631 44.6483C33.877 44.6483 34.7535 45.0111 35.3997 45.6568C36.046 46.3025 36.409 47.1783 36.409 48.0915Z" fill="#D4E388"/>
<path d="M78.6901 19.9796C78.6946 20.667 78.4944 21.3402 78.115 21.9136C77.7356 22.4871 77.1941 22.9348 76.5594 23.1999C75.9247 23.465 75.2254 23.5356 74.5504 23.4026C73.8755 23.2696 73.2553 22.939 72.7689 22.4529C72.2824 21.9669 71.9516 21.3473 71.8185 20.6728C71.6854 19.9984 71.756 19.2997 72.0213 18.6655C72.2866 18.0313 72.7347 17.4902 73.3086 17.1111C73.8825 16.732 74.5562 16.532 75.2442 16.5365C76.1581 16.5365 77.0346 16.8992 77.6808 17.5449C78.3271 18.1907 78.6901 19.0665 78.6901 19.9796Z" fill="#D4E388"/>
<path d="M61.8459 18.0542C64.6255 18.0542 66.8788 15.8027 66.8788 13.0253C66.8788 10.248 64.6255 7.99646 61.8459 7.99646C59.0663 7.99646 56.813 10.248 56.813 13.0253C56.813 15.8027 59.0663 18.0542 61.8459 18.0542Z" fill="#D4E388"/>
</g>
<defs>
<linearGradient id="paint0_linear_41_15012" x1="76.31" y1="139.223" x2="75.5631" y2="65.0357" gradientUnits="userSpaceOnUse">
<stop stop-color="#7AA043"/>
<stop offset="1" stop-color="#6C8E3E"/>
</linearGradient>
<clipPath id="clip0_41_15012">
<rect width="146" height="131" fill="white"/>
</clipPath>
</defs>
</svg>
