<svg width="73" height="168" viewBox="0 0 73 168" fill="none" xmlns="http://www.w3.org/2000/svg">
<path d="M50.792 14.955V153.044C50.792 161.161 44.212 167.74 36.096 167.74C27.979 167.74 21.4 161.16 21.4 153.044V14.955C21.4 6.83804 27.98 0.259033 36.096 0.259033C44.212 0.259033 50.792 6.83904 50.792 14.955Z" fill="#E63950"/>
<path d="M40.208 0.843018C40.588 2.14802 40.792 3.52802 40.792 4.95602V143.045C40.792 151.162 34.212 157.742 26.096 157.742C24.668 157.742 23.288 157.538 21.983 157.158C23.762 163.273 29.407 167.742 36.096 167.742C44.213 167.742 50.792 161.162 50.792 153.045V14.955C50.792 8.26702 46.323 2.62202 40.208 0.843018Z" fill="#D10028"/>
<path d="M43.683 2.36707C45.021 4.58207 45.791 7.17907 45.791 9.95507V148.044C45.791 156.161 39.211 162.741 31.095 162.741C28.318 162.741 25.722 161.971 23.507 160.633C26.08 164.893 30.755 167.741 36.095 167.741C44.212 167.741 50.791 161.161 50.791 153.044V14.9551C50.792 9.61507 47.943 4.94107 43.683 2.36707Z" fill="#B7022D"/>
<path d="M72.19 15.044V152.955C72.19 161.121 65.57 167.74 57.405 167.74H53.749C52.116 167.74 50.792 166.416 50.792 164.783V3.21603C50.792 1.58303 52.116 0.259033 53.749 0.259033H57.405C65.571 0.259033 72.19 6.87903 72.19 15.044Z" fill="#FFA91A"/>
<path d="M61.59 0.859985C61.981 2.18699 62.191 3.59098 62.191 5.04398V142.955C62.191 149.955 57.326 155.819 50.792 157.351V164.784C50.792 166.417 52.116 167.741 53.749 167.741H57.405C65.571 167.741 72.19 161.121 72.19 152.956V15.044C72.19 8.33198 67.717 2.66499 61.59 0.859985Z" fill="#F79219"/>
<path d="M0 152.956V15.044C0 6.87803 6.62 0.259033 14.785 0.259033H18.441C20.074 0.259033 21.398 1.58303 21.398 3.21603V164.784C21.398 166.417 20.074 167.741 18.441 167.741H14.785C6.62 167.741 0 161.121 0 152.956Z" fill="#FFA91A"/>
<path d="M6 145.26C4.899 145.26 4 144.36 4 143.26C4 142.15 4.899 141.26 6 141.26C7.1 141.26 8 142.15 8 143.26C8 144.36 7.1 145.26 6 145.26ZM6 137.26C4.899 137.26 4 136.36 4 135.26V24.74C4 23.64 4.899 22.74 6 22.74C7.1 22.74 8 23.64 8 24.74V135.26C8 136.36 7.1 137.26 6 137.26Z" fill="#FFC91D"/>
<path d="M18.442 0.259033H14.7859C13.6209 0.259033 12.487 0.394033 11.399 0.649033V154.784C11.399 156.417 10.075 157.741 8.44196 157.741H4.78595C3.33295 157.741 1.92795 157.531 0.600952 157.14C2.40595 163.268 8.07295 167.741 14.7859 167.741H18.442C20.075 167.741 21.399 166.417 21.399 164.784V3.21603C21.399 1.58303 20.075 0.259033 18.442 0.259033Z" fill="#F79219"/>
</svg>
