<svg width="20" height="19" viewBox="0 0 20 19" fill="none" xmlns="http://www.w3.org/2000/svg">
<path d="M16.2992 3.69793L5.35742 14.5742L8.75626 17.9935L19.698 7.11724L16.2992 3.69793Z" fill="#8B2800"/>
<path d="M16.2989 3.69786L16.296 4.662L18.7336 7.11428L8.75881 17.0293L6.08092 14.3353L5.59739 14.8159L8.75592 17.9935L19.6977 7.11717L16.2989 3.69786Z" fill="#7D1A00"/>
<path d="M12.877 7.77898L10.1416 10.498L12.8607 13.2335L15.5961 10.5144L12.877 7.77898Z" fill="#A34E2D"/>
<path d="M12.8616 13.2328L12.8636 12.551L14.9152 10.5117L12.8759 8.46016L12.8779 7.77832L15.6323 10.4787L12.8616 13.2328Z" fill="#993B17"/>
<path d="M10.8242 10.5L12.8635 12.5516L12.8656 11.8697L11.5061 10.502L10.8242 10.5Z" fill="#C99884"/>
<path d="M10.8239 10.4997L12.8755 8.46036L12.8735 9.14217L11.5058 10.5017L10.8239 10.4997Z" fill="#AD6143"/>
<path d="M4.67513 14.5725L8.75373 18.6757L13.5408 13.9173C13.544 12.8323 13.1161 11.7905 12.3513 11.021C11.5864 10.2515 10.5471 9.81739 9.46216 9.81413L4.67513 14.5725Z" fill="#C82E25"/>
<path d="M4.67513 14.5725L8.75373 18.6757L13.5408 13.9173C13.544 12.8323 13.1161 11.7905 12.3513 11.021C11.5864 10.2515 10.5471 9.81739 9.46216 9.81413L4.67513 14.5725Z" fill="#C82E25"/>
<path d="M13.5287 13.5912C13.4538 12.6217 13.0358 11.7106 12.3499 11.0215L11.3829 11.9834C11.7674 12.3692 12.0274 12.8616 12.129 13.3969L8.75915 16.7468L8.75336 18.6752L13.5524 13.9048L13.5287 13.5912Z" fill="#C11107"/>
<path d="M16.297 4.37974L13.5615 7.09882L16.2806 9.83426L19.016 7.11519L16.297 4.37974Z" fill="#A34E2D"/>
<path d="M16.2805 9.83426L16.2825 9.15245L18.3341 7.11315L16.2948 5.06156L16.2969 4.37976L19.0513 7.08008L16.2805 9.83426Z" fill="#993B17"/>
<path d="M14.2432 7.10059L16.2825 9.15217L16.2845 8.47037L14.925 7.10263L14.2432 7.10059Z" fill="#B7745A"/>
<path d="M14.2429 7.10111L16.2945 5.0618L16.2924 5.74361L14.9247 7.10315L14.2429 7.10111Z" fill="#AD6143"/>
<path d="M9.65759 11.3775L6.23828 14.7764L7.19952 15.7434L10.6188 12.3446L9.65759 11.3775Z" fill="#D2514A"/>
<path d="M8.97333 12.0575L7.26367 13.7569L8.22491 14.7239L9.93456 13.0245L8.97333 12.0575Z" fill="#E59B96"/>
<path d="M9.24664 0.252979C9.16645 0.172775 9.07125 0.109154 8.96647 0.0657475C8.86169 0.0223411 8.74939 0 8.63597 0C8.52256 0 8.41025 0.0223411 8.30547 0.0657475C8.2007 0.109154 8.10549 0.172775 8.0253 0.252979C7.81883 0.459401 5.63823 2.64005 5.4344 2.84389C5.27252 3.00586 5.1816 3.2255 5.18164 3.4545C5.18168 3.6835 5.27266 3.90311 5.43459 4.06503C5.59652 4.22696 5.81612 4.31795 6.04512 4.31798C6.27412 4.31802 6.49376 4.2271 6.65574 4.06523C6.85963 3.86139 9.04022 1.68074 9.24664 1.47432C9.32685 1.39413 9.39047 1.29893 9.43387 1.19415C9.47728 1.08937 9.49962 0.977063 9.49962 0.863649C9.49962 0.750234 9.47728 0.63793 9.43387 0.53315C9.39047 0.428371 9.32685 0.333168 9.24664 0.252979Z" fill="#A34E2D"/>
<path d="M6.0459 4.31782V3.45419L8.6368 0.863281H9.50044C9.50065 0.976723 9.4784 1.08908 9.43497 1.19388C9.39155 1.29869 9.32781 1.39385 9.24742 1.4739L6.65652 4.06438C6.57656 4.14492 6.48142 4.20879 6.3766 4.25229C6.27179 4.29579 6.15938 4.31807 6.0459 4.31782Z" fill="#8B2800"/>
<path d="M10.3636 10.3634V9.49973C11.2273 9.49973 11.2273 8.6361 11.2273 8.6361C11.2273 8.6361 11.2273 7.77246 10.3636 7.77246H1.72727C0.863635 7.77246 0.863635 8.6361 0.863635 8.6361C0.863635 8.6361 0.863635 9.49973 1.72727 9.49973V10.3634C1.72727 10.3634 0 10.3634 0 12.0906V17.2725C0 18.9997 1.72727 18.9997 1.72727 18.9997H10.3636C10.3636 18.9997 12.0909 18.9997 12.0909 17.2725V12.0906C12.0909 10.3634 10.3636 10.3634 10.3636 10.3634Z" fill="#C5C0C0"/>
<path d="M9.5 18.9996V18.136H10.3619C10.6816 18.1322 11.2273 18.015 11.2273 17.2724V12.0906C11.2273 11.3479 10.6833 11.2307 10.3586 11.2269L10.3687 10.3633C11.2256 10.3734 12.0909 10.9115 12.0909 12.0906V17.2724C12.0909 18.4519 11.2247 18.9895 10.367 18.9996H9.5Z" fill="#AFA8A8"/>
<path d="M9.49999 17.2725V12.0906C9.49999 10.3634 7.77272 10.3634 7.77272 10.3634V9.49973C8.63635 9.49973 8.63635 8.6361 8.63635 8.6361C8.63635 8.6361 8.63635 7.77246 7.77272 7.77246H1.72727C0.863635 7.77246 0.863635 8.6361 0.863635 8.6361C0.863635 8.6361 0.863635 9.49973 1.72727 9.49973V10.3634C1.72727 10.3634 0 10.3634 0 12.0906V17.2725C0 18.9997 1.72727 18.9997 1.72727 18.9997H7.77272C7.77272 18.9997 9.49999 18.9997 9.49999 17.2725Z" fill="#D5D1D1"/>
<path d="M3.45419 18.1366C2.76727 18.1359 2.1087 17.8627 1.62297 17.3769C1.13724 16.8912 0.864031 16.2326 0.863281 15.5457V12.523C0.863656 12.1795 1.00026 11.8502 1.24312 11.6074C1.48599 11.3645 1.81527 11.2279 2.15873 11.2275H2.59055V12.0912H2.15873C2.04425 12.0913 1.93451 12.1369 1.85356 12.2178C1.77261 12.2988 1.72707 12.4085 1.72692 12.523V15.5457C1.72744 16.0037 1.90959 16.4427 2.2334 16.7665C2.55721 17.0903 2.99625 17.2725 3.45419 17.273V18.1366Z" fill="#EDEBEB"/>
<path d="M6.90935 9.5H1.72754V10.3636H6.90935V9.5Z" fill="#C5C0C0"/>
<path d="M3.45419 18.1363H8.636C9.32315 18.1363 9.98216 17.8633 10.468 17.3774C10.9539 16.8915 11.2269 16.2325 11.2269 15.5454V13.8181C11.2269 13.8181 9.49964 12.0908 6.90873 12.0908C4.31782 12.0908 2.59055 12.9545 0.863281 12.9545V15.5454C0.863281 16.2325 1.13625 16.8915 1.62214 17.3774C2.10803 17.8633 2.76704 18.1363 3.45419 18.1363Z" fill="#E76400"/>
<path d="M6.90873 12.0908C4.31782 12.0908 2.59055 12.9545 0.863281 12.9545V15.5454C0.86328 15.8856 0.930295 16.2225 1.0605 16.5369C1.19071 16.8512 1.38155 17.1368 1.62214 17.3774C1.86273 17.618 2.14835 17.8088 2.46269 17.939C2.77703 18.0693 3.11395 18.1363 3.45419 18.1363H8.636C8.87509 18.1328 9.11252 18.096 9.34139 18.0267C9.44732 17.7895 9.50128 17.5324 9.49964 17.2726V12.6809C8.68931 12.2978 7.80505 12.0964 6.90873 12.0908Z" fill="#EF7F00"/>
<path d="M3.45419 18.1359C2.76727 18.1352 2.1087 17.862 1.62297 17.3762C1.13724 16.8905 0.864031 16.2319 0.863281 15.545V12.9541H1.72692V15.545C1.72744 16.0029 1.90959 16.442 2.2334 16.7658C2.55721 17.0896 2.99625 17.2718 3.45419 17.2723V18.1359Z" fill="#FDBC34"/>
<path d="M1.72692 13.8184H0.863281V15.5456H1.72692V13.8184Z" fill="#FEE3AA"/>
<path d="M4.31774 11.2273C4.79471 11.2273 5.18137 10.8406 5.18137 10.3636C5.18137 9.88666 4.79471 9.5 4.31774 9.5C3.84076 9.5 3.4541 9.88666 3.4541 10.3636C3.4541 10.8406 3.84076 11.2273 4.31774 11.2273Z" fill="#EF7F00"/>
<path d="M1.72754 7.77246C1.72754 8.6361 2.59117 8.6361 2.59117 8.6361C3.45481 8.6361 3.45481 9.49973 4.31845 9.49973C5.18208 9.49973 5.18208 8.6361 6.04572 8.6361C6.90935 8.6361 6.90935 9.49973 7.77299 9.49973C8.63662 9.49973 8.63662 8.6361 9.50026 8.6361C10.3639 8.6361 10.3639 7.77246 10.3639 7.77246H1.72754Z" fill="#E76400"/>
<path d="M2.59118 8.6361C3.45481 8.6361 3.45481 9.49973 4.31845 9.49973C5.18208 9.49973 5.18208 8.6361 6.04572 8.6361C6.90935 8.6361 6.90935 9.49973 7.77299 9.49973C8.63662 9.49973 8.63662 8.6361 8.63662 8.6361C8.63662 8.6361 8.63662 7.77246 7.77299 7.77246H1.72754C1.72754 8.6361 2.59118 8.6361 2.59118 8.6361Z" fill="#EF7F00"/>
<path d="M5.18208 8.6361H2.59117C1.72754 8.6361 1.72754 7.77246 1.72754 7.77246H6.04572C6.04572 7.77246 6.04572 8.6361 5.18208 8.6361Z" fill="#FDBC34"/>
<path d="M1.72702 4.31833C1.72702 3.45469 2.57958 3.46579 2.57958 3.46579C2.59065 2.59108 3.45429 2.59108 3.45429 2.59108C3.45429 2.59108 3.45429 1.72745 4.31792 1.72745C4.31792 1.72745 4.31793 0.863812 5.18156 0.863812C5.18156 0.863812 5.94679 0.765386 7.34065 2.15925C8.73451 3.55311 8.6361 4.31835 8.6361 4.31835C8.6361 5.18199 7.77247 5.18199 7.77247 5.18199C7.77247 5.18199 7.77247 6.04563 6.90883 6.04563C6.90883 6.04563 6.90883 6.90926 6.0452 6.90926C6.0452 6.90926 6.04518 7.7729 5.18155 7.7729C5.18155 7.7729 4.44804 7.91002 3.02843 6.4904C1.60881 5.07079 1.72702 4.31833 1.72702 4.31833Z" fill="#EF7F00"/>
<path d="M3.0285 6.48998C1.81402 5.27465 1.72377 4.5506 1.72462 4.35788C1.72799 3.89233 1.98016 3.5672 2.38246 3.48539L2.59753 3.27159C2.67343 2.88954 2.9526 2.67616 3.25453 2.61164L3.4755 2.39109C3.54466 2.04488 3.77997 1.80915 4.12154 1.74463L4.33914 1.52745C4.42095 1.11799 4.73553 0.863281 5.18169 0.863281C5.44567 0.863281 6.17183 0.989369 7.34078 2.15873L6.73016 2.76935C5.72146 1.76065 5.19012 1.72692 5.18422 1.72692L5.18 1.89897L4.49685 2.59055H4.31805L4.31384 2.7626L3.63322 3.45419H3.45442L3.45189 3.63088L2.75946 4.32626L2.58572 4.32879C2.58825 4.35325 2.64223 4.88205 3.63912 5.87937L3.0285 6.48998Z" fill="#FDBC34"/>
<path d="M2.46413 3.58079L1.85352 4.19141L4.44442 6.78231L5.05504 6.1717L2.46413 3.58079Z" fill="#FDBC34"/>
<path d="M3.32839 2.71751L2.71777 3.32812L5.30868 5.91903L5.9193 5.30841L3.32839 2.71751Z" fill="#FDBC34"/>
<path d="M4.19167 1.85423L3.58105 2.46484L6.17196 5.05575L6.78258 4.44513L4.19167 1.85423Z" fill="#FDBC34"/>
<path d="M5.05495 0.989969L4.44434 1.60059L7.03524 4.19149L7.64586 3.58087L5.05495 0.989969Z" fill="#FDBC34"/>
<path d="M10.3634 9.5H7.77246V10.3636H10.3634V9.5Z" fill="#AFA8A8"/>
</svg>
