<svg width="122" height="214" viewBox="0 0 122 214" fill="none" xmlns="http://www.w3.org/2000/svg">
<path d="M76.97 213.182H45.03C42.515 213.182 40.324 211.467 39.72 209.026L18.865 124.768H103.135L82.28 209.026C81.676 211.467 79.485 213.182 76.97 213.182Z" fill="#F2AD97"/>
<path d="M85.289 196.872L34.771 188.575C34.732 188.569 34.695 188.573 34.656 188.568L37.268 199.12L82.879 206.611L85.289 196.872Z" fill="#FCC4AE"/>
<path d="M27.793 160.386C27.755 160.38 27.717 160.384 27.679 160.379L30.291 170.931L89.311 180.624L91.721 170.885L27.793 160.386Z" fill="#FCC4AE"/>
<path d="M20.816 132.198C20.777 132.192 20.74 132.196 20.702 132.191L23.314 142.743L95.742 154.638L98.152 144.899L20.816 132.198Z" fill="#FCC4AE"/>
<path d="M90.66 124.768L72.28 199.026C71.676 201.467 69.485 203.182 66.97 203.182H38.273L39.719 209.026C40.323 211.467 42.514 213.182 45.029 213.182H76.969C79.484 213.182 81.675 211.467 82.279 209.026L103.134 124.768H90.66Z" fill="#E59076"/>
<path d="M82.878 206.61L85.288 196.871L73.3 194.902L72.279 199.025C71.675 201.466 69.484 203.181 66.969 203.181H62.005L82.878 206.61Z" fill="#F2AD97"/>
<path d="M77.323 178.655L89.31 180.624L91.721 170.885L79.733 168.917L77.323 178.655Z" fill="#F2AD97"/>
<path d="M83.754 152.669L95.742 154.638L98.153 144.9L86.165 142.931L83.754 152.669Z" fill="#F2AD97"/>
<path d="M120.903 101.08L118.079 120.101C117.681 122.783 115.379 124.768 112.668 124.768H9.332C6.621 124.768 4.31899 122.783 3.92099 120.101L1.097 101.08C0.558995 97.455 3.36699 94.199 7.03199 94.199H114.969C118.633 94.199 121.442 97.455 120.903 101.08Z" fill="#FCC4AE"/>
<path d="M114.969 94.198H110.441L108.08 110.101C107.682 112.782 105.38 114.768 102.669 114.768H3.129L3.921 120.101C4.319 122.782 6.621 124.768 9.332 124.768H112.668C115.379 124.768 117.681 122.782 118.079 120.101L120.903 101.08C121.442 97.455 118.633 94.198 114.969 94.198Z" fill="#F2AD97"/>
<path d="M115.893 94.278C115.983 94.859 115.995 95.463 115.904 96.08L113.08 115.101C112.682 117.782 110.38 119.768 107.669 119.768H4.33199C4.17299 119.768 4.02099 119.739 3.86499 119.725L3.92099 120.101C4.31899 122.782 6.62099 124.768 9.33199 124.768H112.668C115.379 124.768 117.681 122.782 118.079 120.101L120.903 101.08C121.395 97.768 119.09 94.771 115.893 94.278Z" fill="#E59076"/>
<path d="M109.201 59.418C109.801 56.351 110.123 53.184 110.123 49.941C110.123 22.811 88.13 0.817993 61 0.817993C33.87 0.817993 11.877 22.811 11.877 49.941C11.877 53.184 12.2 56.351 12.799 59.418C5.336 62.903 0.153 70.454 0.153 79.234C0.153 91.319 9.95 101.116 22.035 101.116C27.785 101.116 33 98.881 36.906 95.254C40.104 105.52 49.681 112.972 61 112.972C72.319 112.972 81.896 105.519 85.093 95.254C88.998 98.881 94.214 101.116 99.964 101.116C112.049 101.116 121.846 91.319 121.846 79.234C121.847 70.454 116.663 62.903 109.201 59.418Z" fill="#F1F2F2"/>
<path d="M6.149 81.2299C5.049 81.2299 4.149 80.3399 4.149 79.2399C4.149 78.1299 5.049 77.2399 6.149 77.2399C7.25 77.2399 8.149 78.13 8.149 79.2199C8.149 79.2299 8.149 79.2299 8.149 79.2399C8.149 80.3399 7.26 81.2299 6.149 81.2299ZM8.14 73.5699C7.81 73.5699 7.47 73.4899 7.17 73.3199C6.71 73.0599 6.37 72.6399 6.22 72.1299C6.07 71.6099 6.14 71.0699 6.4 70.6099C8.251 67.2699 11.05 64.6499 14.491 63.0399L17.32 61.7199L16.73 58.6499C16.161 55.7699 15.88 52.84 15.88 49.9399C15.88 25.0599 36.12 4.81995 61 4.81995C62.1 4.81995 63 5.71995 63 6.81995C63 7.91995 62.1 8.81995 61 8.81995C50.04 8.81995 39.72 13.0999 31.939 20.8799C24.16 28.6599 19.879 38.9799 19.879 49.9399C19.879 52.59 20.139 55.2599 20.649 57.8799L21.549 62.4899C21.729 63.3899 21.269 64.2899 20.429 64.6799L16.179 66.6699C13.549 67.8999 11.309 69.9899 9.889 72.5399C9.54 73.1799 8.87 73.5699 8.14 73.5699Z" fill="white"/>
<path d="M109.201 59.418C109.801 56.351 110.123 53.184 110.123 49.941C110.123 26.734 94.025 7.29903 72.391 2.16003C83.224 11.171 90.123 24.749 90.123 39.941C90.123 43.184 89.8 46.351 89.201 49.418C96.664 52.903 101.847 60.454 101.847 69.234C101.847 81.319 92.05 91.116 79.965 91.116C74.215 91.116 69 88.881 65.094 85.254C61.896 95.52 52.319 102.972 41 102.972C40.967 102.972 40.936 102.968 40.903 102.968C45.511 109.039 52.79 112.972 61 112.972C72.318 112.972 81.896 105.519 85.094 95.254C88.999 98.881 94.215 101.116 99.965 101.116C112.05 101.116 121.847 91.319 121.847 79.234C121.847 70.454 116.663 62.903 109.201 59.418Z" fill="#E6E7E8"/>
</svg>
