<svg width="24" height="24" viewBox="0 0 24 24" fill="none" xmlns="http://www.w3.org/2000/svg">
<rect x="-0.000854492" width="24.0008" height="24" rx="4" fill="#4CAD73"/>
<path d="M16.4664 11.9999C16.4664 12.1974 16.3907 12.3884 16.2491 12.5266C16.1108 12.6682 15.9198 12.7472 15.7222 12.7472H12.7453V15.723C12.7453 15.9205 12.6663 16.1114 12.5247 16.2497C12.3864 16.3879 12.1987 16.4669 12.0011 16.4669C11.8035 16.4669 11.6125 16.3879 11.4742 16.2497C11.3326 16.1114 11.2536 15.9205 11.2536 15.723V12.7472H8.27669C8.07911 12.7472 7.88812 12.6682 7.74981 12.5266C7.6115 12.3884 7.53247 12.1974 7.53247 11.9999C7.53247 11.8024 7.6115 11.6148 7.74981 11.4732C7.88812 11.335 8.07911 11.256 8.27669 11.256H11.2536V8.2802C11.2536 8.08269 11.3326 7.89177 11.4742 7.75351C11.6125 7.61196 11.8035 7.53296 12.0011 7.53296C12.1987 7.53296 12.3864 7.61196 12.5247 7.75351C12.6663 7.89177 12.7453 8.08269 12.7453 8.2802V11.256H15.7222C15.9198 11.256 16.1108 11.335 16.2491 11.4732C16.3907 11.6148 16.4664 11.8024 16.4664 11.9999Z" fill="white"/>
</svg>
