<svg width="133" height="159" viewBox="0 0 133 159" fill="none" xmlns="http://www.w3.org/2000/svg">
<g clip-path="url(#clip0_41_15029)">
<path d="M7.14014 54.1255C7.413 54.9415 17.8956 113.419 23.0574 141.978L23.6486 145.287C24.4217 149.593 25.0129 152.993 25.3995 155.056L25.6724 156.597L25.7861 157.3C25.7861 157.3 59.0304 160.722 112.194 157.685L124.655 54.3975L7.14014 54.1255Z" fill="#71C7E0"/>
<path d="M122.176 74.7966L124.655 54.3975L7.14014 54.1255C7.14014 54.3975 8.32256 60.4039 9.95976 69.4022C10.4416 70.8336 10.829 72.2949 11.1194 73.7767C40.9302 91.5692 96.8452 86.6735 122.176 74.7966Z" fill="#5C9FB1"/>
<path d="M29.9473 131.189L62.5094 96.3291H100.302L103.053 131.189H29.9473Z" fill="#EDECDF"/>
<path d="M103.053 131.189L100.301 96.3291L70.104 131.189H103.053Z" fill="#E3D8C6"/>
<path d="M68.217 122.871C67.9796 122.836 67.7377 122.849 67.5053 122.908C67.2728 122.967 67.0543 123.071 66.8621 123.214C66.67 123.357 66.508 123.537 66.3854 123.742C66.2628 123.948 66.1821 124.175 66.1477 124.412C66.1134 124.649 66.1261 124.89 66.1853 125.121C66.2444 125.353 66.3487 125.571 66.4923 125.762C66.6359 125.954 66.8159 126.115 67.0221 126.238C67.2283 126.36 67.4566 126.44 67.694 126.475C68.1734 126.544 68.6608 126.42 69.0488 126.131C69.4369 125.842 69.6939 125.411 69.7632 124.933C69.8326 124.455 69.7086 123.97 69.4186 123.583C69.1287 123.196 68.6964 122.94 68.217 122.871Z" fill="#D2C9B1"/>
<path d="M62.3046 103.673C61.8731 103.599 61.4293 103.679 61.051 103.899C60.6726 104.118 60.3839 104.464 60.2354 104.874C60.165 105.134 60.1499 105.405 60.1911 105.671C60.2323 105.936 60.3288 106.191 60.4744 106.417C60.6201 106.643 60.8116 106.837 61.0367 106.985C61.2619 107.133 61.5156 107.232 61.7816 107.277C62.2611 107.346 62.7484 107.222 63.1365 106.933C63.5245 106.644 63.7815 106.213 63.8509 105.735C63.9202 105.257 63.7963 104.772 63.5063 104.385C63.2163 103.998 62.784 103.742 62.3046 103.673Z" fill="#D2C9B1"/>
<path d="M63.669 119.697C63.4809 119.649 63.2847 119.641 63.0931 119.673C62.9014 119.705 62.7187 119.776 62.5567 119.883C62.3947 119.99 62.257 120.13 62.1525 120.293C62.0481 120.456 61.9792 120.64 61.9504 120.831C61.9216 121.023 61.9334 121.218 61.9852 121.405C62.037 121.591 62.1275 121.765 62.251 121.915C62.3744 122.064 62.528 122.186 62.7018 122.273C62.8755 122.359 63.0656 122.409 63.2597 122.417C63.6194 122.458 63.9811 122.361 64.2721 122.147C64.5632 121.932 64.762 121.616 64.8287 121.261C64.864 120.904 64.765 120.546 64.5507 120.257C64.3365 119.968 64.0223 119.769 63.669 119.697Z" fill="#D2C9B1"/>
<path d="M68.2167 116.411C67.893 116.355 67.5599 116.415 67.2767 116.582C66.9936 116.748 66.7787 117.008 66.6704 117.318C66.6204 117.511 66.6111 117.714 66.6433 117.911C66.6754 118.109 66.7482 118.298 66.8572 118.466C66.9661 118.634 67.1088 118.778 67.2762 118.888C67.4437 118.999 67.6322 119.074 67.8301 119.108C68.0078 119.134 68.1889 119.124 68.3629 119.08C68.5368 119.036 68.7004 118.958 68.844 118.85C68.9877 118.743 69.1086 118.608 69.2 118.454C69.2913 118.3 69.3513 118.129 69.3764 117.952C69.4222 117.595 69.3267 117.235 69.1102 116.947C68.8936 116.659 68.5731 116.467 68.2167 116.411Z" fill="#D2C9B1"/>
<path d="M67.3754 100.228C67.0517 100.172 66.7186 100.232 66.4354 100.398C66.1522 100.564 65.9374 100.825 65.8291 101.134C65.7791 101.328 65.7698 101.53 65.802 101.728C65.8341 101.925 65.9069 102.114 66.0158 102.282C66.1248 102.451 66.2675 102.595 66.4349 102.705C66.6023 102.816 66.7909 102.89 66.9888 102.925C67.3494 102.971 67.7139 102.876 68.0063 102.661C68.2987 102.446 68.4962 102.126 68.5578 101.769C68.5917 101.411 68.4887 101.053 68.2695 100.767C68.0503 100.482 67.731 100.289 67.3754 100.228Z" fill="#D2C9B1"/>
<path opacity="0.2" d="M112.057 157.73L124.655 54.3975H123.677L96.7314 71.5101L91.8198 158.66C98.1867 158.448 104.933 158.138 112.057 157.73Z" fill="#2B4346"/>
<path d="M1.79638 31.7317L0 58.9305C0 58.9305 21.6247 82.2762 65.238 82.2762C108.851 82.2762 133 60.3585 133 60.3585L130.84 31.7317H1.79638Z" fill="#DBCAC0"/>
<path d="M130.84 31.7317H119.47L101.506 58.2506L102.325 76.5418C122.312 70.0594 133 60.3585 133 60.3585L130.84 31.7317Z" fill="#C9BCB4"/>
<path d="M1.79639 31.7316C4.36589 28.3091 27.2867 -0.181685 66.6933 -0.000358953C105.691 0.180967 128.225 28.2185 130.84 31.7316C124.87 43.7013 115.671 53.7751 104.276 60.8218C92.8804 67.8685 79.7397 71.609 66.3295 71.6233C52.9159 71.6106 39.7715 67.871 28.3721 60.8243C16.9727 53.7777 7.76969 43.7031 1.79639 31.7316Z" fill="#E5DAD6"/>
<path d="M8.41357 32.049C10.6875 29.0571 31.1525 3.51286 66.648 3.64886C101.666 3.80752 121.881 28.9891 124.246 32.049C118.519 42.2966 110.164 50.8443 100.036 56.8179C89.9084 62.7915 78.3705 65.9766 66.6025 66.0476C54.7409 66.078 43.0877 62.9406 32.8545 56.9616C22.6213 50.9826 14.1819 42.3802 8.41357 32.049Z" fill="#71C7E0"/>
<path d="M15.9175 32.457C17.9185 29.9411 35.814 8.22731 66.648 8.36331C97.482 8.4993 114.764 29.8731 116.833 32.457C111.666 41.2188 104.292 48.4832 95.4414 53.5304C86.5911 58.5777 76.5716 61.2329 66.3752 61.2329C56.1787 61.2329 46.1592 58.5777 37.3089 53.5304C28.4586 48.4832 21.0847 41.2188 15.9175 32.457Z" fill="#A0DEED"/>
<path d="M77.4715 27.0399C76.7211 18.7442 73.2193 13.1685 72.3552 13.4404C70.4906 13.8258 71.3774 27.0399 71.3774 27.0399H59.1212C59.1212 27.0399 59.1212 13.4404 58.0297 13.2365C56.9382 13.0325 53.8685 16.931 52.4359 27.0399H40.5435C40.5435 27.0399 41.021 34.4062 51.5036 32.4117C50.1393 46.6911 54.869 54.3974 65.147 54.3974C75.948 54.3974 79.8136 46.6004 78.5857 32.0037C89.0456 33.9756 89.5231 27.0399 89.5231 27.0399H77.4715ZM68.5578 46.9404C68.4764 47.9624 68.0498 48.9267 67.3478 49.6759C66.6457 50.4251 65.7096 50.915 64.6922 51.0655C63.1914 51.0655 61.0085 48.527 60.8266 46.9404C60.6447 45.3538 68.5578 45.6031 68.5578 46.9404Z" fill="#EDECDF"/>
<path d="M79.95 70.2634L78.1991 70.4448C64.369 71.6434 50.4598 69.3283 37.7708 63.7157C25.0818 58.1031 14.027 49.3761 5.63916 38.3501C12.1551 48.5058 21.1283 56.8654 31.7335 62.6598C42.3387 68.4543 54.2354 71.4977 66.3294 71.51C70.8991 71.5295 75.4602 71.1121 79.95 70.2634Z" fill="#F2EDEB"/>
</g>
<defs>
<clipPath id="clip0_41_15029">
<rect width="133" height="159" fill="white"/>
</clipPath>
</defs>
</svg>
