<svg width="174" height="126" viewBox="0 0 174 126" fill="none" xmlns="http://www.w3.org/2000/svg">
<g clip-path="url(#clip0_41_13523)">
<path d="M61.972 125.064C25.7001 110.521 3.9416 77.0064 0 16.5748C0 16.5748 74.5259 -23.9945 150.738 21.78C150.738 21.78 151.786 110.042 61.972 125.064Z" fill="url(#paint0_linear_41_13523)"/>
<path d="M150.738 21.7799C133.415 11.2851 114.159 4.39769 94.1199 1.52954C94.8034 16.9856 86.7379 34.6334 75.8928 45.3864C64.1925 56.877 48.529 63.4168 32.1479 63.6506C23.285 63.6746 14.5283 61.7169 6.51611 57.9202C16.0625 92.9418 34.9959 114.265 61.9719 125.064C151.786 110.042 150.738 21.7799 150.738 21.7799Z" fill="url(#paint1_linear_41_13523)"/>
<path d="M149.393 36.3457C149.507 35.638 149.621 34.9074 149.712 34.2225C138.466 27.9436 126.551 22.9505 114.192 19.3372C110.524 18.2642 106.469 17.0998 102.049 15.9811C103.256 11.4151 104.509 7.32848 105.762 3.62998L103.735 3.19621C102.527 6.84904 101.229 11.027 100.044 15.5474C87.5876 12.666 74.9401 10.6898 62.1998 9.63433C63.0884 6.14131 63.977 2.99073 64.8428 0.182617L62.7466 0.296768C61.9036 3.05923 61.0606 6.11848 60.1949 9.42886C48.1796 8.52283 36.1222 8.3094 24.0825 8.78961L24.4926 7.00885L22.3282 7.67093L22.0548 8.88093L17.8625 9.13206C15.4019 9.97678 13.1691 10.7987 11.1641 11.5749C14.7184 11.4151 18.2271 11.0955 21.6219 10.9357C19.0771 23.2907 17.4022 35.8097 16.6094 48.4001C12.6223 48.5599 8.54395 48.811 4.37451 49.1306C4.51121 49.7927 4.64792 50.4319 4.8074 51.0712C8.77179 50.7744 12.6678 50.5461 16.4727 50.3863C15.8803 60.2946 15.6981 71.1846 16.1082 83.0335C16.8145 84.3805 17.5208 85.6818 18.2499 86.9603C17.6688 74.7207 17.7372 62.4588 18.4549 50.2265C30.1624 49.7883 41.8855 50.0322 53.5648 50.957C52.5037 64.262 52.2374 77.6187 52.7673 90.9556C41.7598 89.7308 30.6921 89.1287 19.6169 89.152C20.0042 89.8141 20.4143 90.499 20.8244 91.1382C31.5281 91.1701 42.222 91.7874 52.8585 92.9875C53.2534 102.12 54.0128 111.777 55.1368 121.959L57.2557 122.964C56.0026 112.462 55.2052 102.553 54.7723 93.2843C68.1529 94.8792 81.3812 97.5669 94.325 101.321C94.7351 105.498 95.2591 109.813 95.8515 114.197C96.4895 113.877 97.1046 113.58 97.7198 113.238C97.1958 109.402 96.7401 105.613 96.3755 101.823C100.932 103.215 105.17 104.654 108.975 106.092L110.957 104.608C106.788 103.01 102.163 101.389 97.0591 99.8365L96.1705 99.5854C94.8524 85.6451 94.6163 71.6233 95.4642 57.6463C109.988 61.1589 124.062 66.3295 137.409 73.0567L138.321 71.2759C128.362 66.1583 117.95 61.9777 107.221 58.7878C103.712 57.7148 99.8387 56.6418 95.6693 55.6144C96.5148 42.9386 98.4819 30.363 101.547 18.0359C118.271 21.8697 134.377 28.0329 149.393 36.3457ZM18.5916 48.3087C19.3924 35.7166 21.0827 23.1971 23.6496 10.8443C35.6726 10.3217 47.7159 10.5122 59.7164 11.4151C56.8012 23.7846 54.7984 36.3523 53.7243 49.0165C42.0359 48.12 30.3065 47.8837 18.5916 48.3087ZM54.6812 91.3209C54.1264 77.9622 54.3775 64.5822 55.433 51.2538C68.262 52.3323 80.9945 54.3544 93.5276 57.3038C92.7103 71.235 92.9311 85.2078 94.1883 99.106C81.2489 95.4534 68.0373 92.85 54.6812 91.3209ZM93.5959 55.2491C81.0876 52.3402 68.3872 50.3336 55.5925 49.2448C56.7023 36.57 58.7432 23.9945 61.6986 11.6206C74.4333 12.659 87.0745 14.6354 99.5197 17.5336C96.4784 29.8948 94.5267 42.4999 93.6871 55.2035L93.5959 55.2491Z" fill="url(#paint2_linear_41_13523)"/>
<path d="M150.738 21.78C145.087 18.6751 57.7342 31.3915 61.8808 125.064C62.9972 127.781 141.487 124.676 173.704 115.087C173.795 115.087 177.714 52.304 150.738 21.78Z" fill="#F69677"/>
<path d="M149.029 26.9854C149.029 26.9854 66.5517 36.1174 68.83 120.11C101.852 119.485 134.766 116.117 167.233 110.042C167.233 110.042 172.451 60.1577 149.029 26.9854Z" fill="url(#paint3_linear_41_13523)"/>
<path opacity="0.2" d="M64.4098 93.3073C62.2126 103.74 61.393 114.417 61.9719 125.064C63.0883 127.781 141.579 124.676 173.795 115.087C174.185 105.989 173.972 96.8751 173.157 87.8052C159.099 111.868 97.9703 127.142 64.4098 93.3073Z" fill="#DA5C3B"/>
<path d="M144.472 79.3808C140.417 76.7325 134.63 78.7644 131.645 82.3031C129.07 85.3167 127.749 90.4306 130.141 93.9693C133.24 98.5354 141.533 98.9007 145.589 94.3803C149.644 89.8599 149.052 82.3488 144.472 79.3808Z" fill="#E97D5F"/>
<path d="M143.72 77.7825C140.098 73.7188 132.761 74.6776 128.911 78.6044C125.425 82.1203 124.103 88.7182 127.749 92.5537C131.394 96.3892 138.161 95.3161 141.875 91.9144C145.588 88.5127 147.183 81.6865 143.72 77.7825Z" fill="#FFEDC7"/>
<path d="M140.804 78.65C137.979 76.23 133.012 77.851 130.574 80.7047C128.592 82.9878 127.407 87.0287 129.344 89.5857C131.622 92.5536 137.227 92.234 140.212 89.2661C143.196 86.2982 143.538 81.0472 140.804 78.65Z" fill="#EDB68A"/>
<path d="M72.7715 87.8507C99.2463 33.5605 149.029 26.9854 149.029 26.9854C149.029 26.9854 88.8569 33.7431 72.7715 87.8507Z" fill="#FFDFD0"/>
</g>
<defs>
<linearGradient id="paint0_linear_41_13523" x1="0" y1="62.532" x2="150.715" y2="62.532" gradientUnits="userSpaceOnUse">
<stop stop-color="#C76045"/>
<stop offset="1" stop-color="#BE3827"/>
</linearGradient>
<linearGradient id="paint1_linear_41_13523" x1="6.51611" y1="63.3081" x2="150.715" y2="63.3081" gradientUnits="userSpaceOnUse">
<stop stop-color="#B75139"/>
<stop offset="1" stop-color="#AF2F20"/>
</linearGradient>
<linearGradient id="paint2_linear_41_13523" x1="4.37451" y1="61.6187" x2="149.712" y2="61.6187" gradientUnits="userSpaceOnUse">
<stop stop-color="#AB4428"/>
<stop offset="1" stop-color="#A63019"/>
</linearGradient>
<linearGradient id="paint3_linear_41_13523" x1="85.5306" y1="11.6206" x2="135.808" y2="137.55" gradientUnits="userSpaceOnUse">
<stop stop-color="#F0E2E1"/>
<stop offset="1" stop-color="#F69677"/>
</linearGradient>
<clipPath id="clip0_41_13523">
<rect width="174" height="126" fill="white"/>
</clipPath>
</defs>
</svg>
