<svg width="131" height="181" viewBox="0 0 131 181" fill="none" xmlns="http://www.w3.org/2000/svg">
<g clip-path="url(#clip0_41_14337)">
<path d="M121.781 56.9038C105.847 33.8464 86.3622 28.8388 86.3622 28.8388L38.2416 28.5657C38.2416 28.5657 14.2041 37.1923 5.5542 61.6838C-4.02894 88.8838 -0.204787 158.193 9.40112 171.645C19.007 185.097 109.762 182.684 120.802 173.079C131.842 163.474 136.304 78.0038 121.781 56.9038ZM107.759 102.108C98.6541 100.469 82.7201 59.0434 86.089 52.3515C87.9101 48.7097 104.618 59.4759 108.26 67.8294C111.902 76.1829 113.427 103.155 107.759 102.108Z" fill="url(#paint0_linear_41_14337)"/>
<g style="mix-blend-mode:multiply" opacity="0.1">
<path d="M86.3624 28.8162H76.3468C102.433 37.5338 112.267 49.7113 117.456 59.6353C122.396 69.0814 125.537 100.606 122.396 123.368C118.185 154.164 81.2408 177.54 48.7355 174.809C21.4201 172.533 4.55288 144.991 0.933594 130.947C2.29936 149.657 5.48616 165.841 9.51517 171.645C19.1211 185.074 109.876 182.684 120.916 173.079C131.956 163.474 136.304 78.0039 121.781 56.9039C105.916 33.8237 86.3624 28.8162 86.3624 28.8162Z" fill="#AC9D8C"/>
</g>
<g style="mix-blend-mode:multiply" opacity="0.3">
<path d="M39.562 28.2698C45.8445 35.508 53.2197 40.47 62.6435 40.3106C67.1507 40.3863 71.5961 39.2548 75.5185 37.0335C79.441 34.8122 82.6978 31.582 84.9511 27.678L39.562 28.2698Z" fill="#AC9D8C"/>
</g>
<path d="M38.2417 7.69336V28.5657C38.2417 28.5657 59.1835 40.1286 86.3623 28.8161V8.17135L38.2417 7.69336Z" fill="#71C7E0"/>
<path d="M86.3621 8.17139H81.1949L75.4814 12.7237L75.618 32.3669C79.2895 31.5247 82.8835 30.375 86.3621 28.9299V8.17139Z" fill="#62B9E0"/>
<path d="M38.2417 7.69341C45.3991 2.76704 53.8638 0.0882955 62.5524 0C71.1648 0.0721188 79.5208 2.93982 86.3623 8.1714C86.3623 8.1714 79.1465 18.2093 61.0956 18.2093C56.7567 18.1868 52.4728 17.2368 48.5311 15.4232C44.5895 13.6095 41.0813 10.974 38.2417 7.69341Z" fill="#A0DEED"/>
<path opacity="0.5" d="M39.562 9.10474C42.3724 11.9688 45.7222 14.248 49.4181 15.8107C53.1141 17.3734 57.0829 18.1886 61.0956 18.2094C64.7919 18.2298 68.4743 17.7551 72.0446 16.7981C51.7401 18.6418 39.7896 9.35511 39.562 9.10474Z" fill="white"/>
<g style="mix-blend-mode:multiply" opacity="0.2">
<path d="M107.759 102.108C98.6543 100.47 82.7203 59.0435 86.0892 52.3516C86.0892 52.3516 62.2793 82.0782 71.6121 96.418C77.2117 105.022 107.759 102.108 107.759 102.108Z" fill="#AC9D8C"/>
</g>
<g style="mix-blend-mode:multiply" opacity="0.3">
<path d="M87.0226 63.7323C85.6796 58.4517 85.2015 54.1952 86.0893 52.3516C86.0893 52.3516 72.773 68.9903 69.9732 83.3756C69.9732 83.3756 69.9732 83.3756 69.9732 83.5577L69.8366 84.3771C69.7304 85.151 69.6394 85.9097 69.5635 86.6532C73.883 77.9788 79.8072 70.2013 87.0226 63.7323Z" fill="#AC9D8C"/>
</g>
<path d="M27.9758 41.6083C26.3369 38.8769 12.7475 51.3047 9.62901 62.3668C6.51051 73.4289 3.73344 106.979 6.16907 108.436C8.60469 109.893 11.0175 68.2848 13.089 62.3668C15.1604 56.4488 29.0229 43.2471 27.9758 41.6083Z" fill="white"/>
<g style="mix-blend-mode:multiply" opacity="0.1">
<path d="M3.89258 155.257C5.39492 162.791 7.23871 168.618 9.40118 171.645C19.0071 185.074 109.762 182.684 120.802 173.079C124.012 170.302 126.652 161.129 128.451 149.02C95.1259 169.596 39.6757 180.294 3.89258 155.257Z" fill="#AC9D8C"/>
</g>
</g>
<defs>
<linearGradient id="paint0_linear_41_14337" x1="167.716" y1="167.434" x2="-43.221" y2="48.7226" gradientUnits="userSpaceOnUse">
<stop stop-color="#CEC7BB"/>
<stop offset="0.29" stop-color="#E0DBD0"/>
<stop offset="0.73" stop-color="#F7F4E9"/>
<stop offset="1" stop-color="#FFFDF3"/>
</linearGradient>
<clipPath id="clip0_41_14337">
<rect width="131" height="181" fill="white"/>
</clipPath>
</defs>
</svg>
