<svg width="18" height="28" viewBox="0 0 18 28" fill="none" xmlns="http://www.w3.org/2000/svg">
<g clip-path="url(#clip0_164_3969)">
<path d="M11.3499 11.8607C11.0251 10.8023 11.0251 9.66553 11.3499 8.60153L11.7531 7.29113C12.0611 6.29433 11.7755 5.20793 11.0195 4.49113L9.61393 3.15833V1.76953H6.62353V3.19753L5.25713 4.49113C4.50113 5.20793 4.21553 6.29433 4.52353 7.29113L4.92673 8.60153C5.25153 9.65993 5.25153 10.7967 4.92673 11.8607L4.52353 13.1711C4.19313 14.2519 4.01953 15.3719 4.01953 16.5031V22.3887C4.01953 22.3887 4.80913 23.5087 8.13553 23.5087C11.4675 23.5087 12.2515 22.3887 12.2515 22.3887V16.5031C12.2515 15.3719 12.0835 14.2519 11.7475 13.1711L11.3499 11.8607Z" fill="#C5E6ED"/>
<path d="M9.65875 0.794922H6.58435C6.46115 0.794922 6.36035 0.895722 6.36035 1.01892V2.21732C6.36035 2.34052 6.46115 2.44132 6.58435 2.44132H9.65875C9.78195 2.44132 9.88275 2.34052 9.88275 2.21732V1.01892C9.88275 0.895722 9.78195 0.794922 9.65875 0.794922Z" fill="#C39B4E"/>
<path d="M8.05675 5.56055C7.05435 5.56055 5.40795 5.89095 5.04395 6.35015C5.96795 6.52935 6.95915 6.61895 7.96155 6.61895C9.09275 6.61895 10.2071 6.49575 11.2319 6.27175C11.0975 5.84055 9.71435 5.56055 8.05675 5.56055Z" fill="#FFCE52"/>
<path d="M11.1534 13.3563L10.7502 12.0459C10.7278 11.9675 10.7278 11.9787 10.7166 11.9395C10.7054 11.9003 10.711 11.9115 10.6886 11.8219C10.6662 11.7379 10.6662 11.7435 10.655 11.7099C10.6494 11.6707 10.6494 11.6819 10.6326 11.6035C10.6158 11.5195 10.6158 11.5307 10.6046 11.4971C10.599 11.4579 10.599 11.4691 10.5822 11.3795C10.5654 11.2899 10.5654 11.3011 10.5598 11.2619C10.5542 11.2227 10.5598 11.2339 10.543 11.1499C10.5318 11.0659 10.5318 11.0715 10.5262 11.0379C10.5206 10.9987 10.5262 11.0099 10.515 10.9259C10.5038 10.8363 10.5038 10.8475 10.4982 10.8083C10.4982 10.7691 10.4982 10.7803 10.4926 10.6963C10.487 10.6067 10.487 10.6179 10.4814 10.5787C10.4814 10.5395 10.4814 10.5507 10.4814 10.4667C10.4758 10.3827 10.4758 10.3939 10.4758 10.3547C10.4758 10.3155 10.4758 10.3267 10.4758 10.2371C10.4758 10.1475 10.4758 10.1587 10.4758 10.1195C10.4758 10.0803 10.4758 10.0915 10.4814 10.0075C10.487 9.92346 10.4814 9.93466 10.4814 9.89546C10.487 9.85626 10.487 9.86746 10.4926 9.77786C10.4982 9.69386 10.4982 9.70506 10.4982 9.66586C10.5038 9.62666 10.5038 9.63786 10.515 9.54826C10.5262 9.46426 10.5206 9.46986 10.5262 9.43626C10.5318 9.39706 10.5318 9.40826 10.543 9.32426C10.5542 9.24026 10.5542 9.25146 10.5598 9.21786C10.5654 9.17866 10.5654 9.18986 10.5822 9.10026C10.599 9.01066 10.599 9.01626 10.6046 8.98266C10.6158 8.94346 10.6102 8.95466 10.6326 8.87626C10.6494 8.79226 10.6494 8.80346 10.655 8.76986C10.6662 8.73626 10.6662 8.74186 10.6886 8.65786C10.711 8.57386 10.7054 8.58506 10.7166 8.54586C10.7278 8.51226 10.7278 8.51786 10.7502 8.43386L11.1534 7.12346C11.2374 6.85466 11.2598 6.56906 11.2262 6.28906C10.207 6.51866 9.08703 6.63626 7.95582 6.63626C6.95342 6.63626 5.96782 6.54666 5.03822 6.36746C5.02142 6.61946 5.04383 6.87706 5.11663 7.12346L5.51982 8.43386C5.54222 8.51226 5.54223 8.50106 5.55343 8.54026C5.56463 8.57946 5.55903 8.56826 5.58143 8.65786C5.60383 8.74186 5.60382 8.73626 5.61502 8.76986C5.62062 8.80906 5.62063 8.79786 5.63743 8.87626C5.65423 8.96026 5.65423 8.94906 5.66543 8.98826C5.67103 9.02746 5.67102 9.01626 5.68222 9.10026C5.69902 9.18986 5.69903 9.18426 5.70463 9.21786C5.71022 9.25706 5.70463 9.24586 5.72143 9.32426C5.73263 9.40826 5.73262 9.40266 5.73822 9.43626C5.74382 9.47546 5.73823 9.46426 5.74943 9.54826C5.76063 9.63226 5.76062 9.62666 5.76622 9.66026C5.76622 9.69946 5.76622 9.68826 5.77182 9.77786C5.77742 9.86746 5.77742 9.85626 5.78302 9.89546C5.78302 9.93466 5.78302 9.92346 5.78302 10.0075C5.78862 10.0971 5.78863 10.0859 5.78863 10.1251C5.78863 10.1643 5.78863 10.1531 5.78863 10.2371C5.78863 10.3211 5.78863 10.3099 5.78863 10.3491C5.78863 10.3883 5.78862 10.3771 5.78302 10.4667C5.77742 10.5507 5.78302 10.5395 5.78302 10.5787C5.77742 10.6179 5.77742 10.6067 5.77182 10.6963C5.76622 10.7859 5.76622 10.7747 5.76622 10.8139C5.76062 10.8531 5.76063 10.8419 5.74943 10.9259C5.73823 11.0099 5.74382 11.0043 5.73822 11.0379C5.73262 11.0771 5.73263 11.0659 5.72143 11.1499C5.71023 11.2339 5.71022 11.2227 5.70463 11.2619C5.69903 11.3011 5.69902 11.2899 5.68222 11.3795C5.66542 11.4635 5.67103 11.4523 5.66543 11.4915C5.65423 11.5307 5.65983 11.5195 5.63743 11.6035C5.62063 11.6875 5.62062 11.6763 5.61502 11.7099C5.60382 11.7435 5.60383 11.7379 5.58143 11.8219C5.55903 11.9115 5.55903 11.9003 5.55343 11.9395C5.54223 11.9731 5.54222 11.9675 5.51982 12.0459L5.11663 13.3563C4.80303 14.3755 4.64062 15.4395 4.64062 16.5035V22.1147C4.73023 22.1819 4.85342 22.2715 5.08302 22.3779C5.59822 22.6131 6.53343 22.8819 8.12943 22.8819C9.72543 22.8819 10.6606 22.6131 11.1758 22.3779C11.4054 22.2715 11.5286 22.1819 11.6182 22.1147V16.5035C11.6294 15.4395 11.467 14.3755 11.1534 13.3563Z" fill="#FBC132"/>
<g opacity="0.41">
<path d="M11.1539 13.356L10.7507 12.0456C10.7283 11.9672 10.7283 11.9784 10.7171 11.9392C10.7059 11.9 10.7115 11.9112 10.6891 11.8216C10.6667 11.7376 10.6667 11.7432 10.6555 11.7096C10.6499 11.6704 10.6499 11.6816 10.6331 11.6032C10.6163 11.5192 10.6163 11.5304 10.6051 11.4968C10.5995 11.4576 10.5995 11.4688 10.5827 11.3792C10.5659 11.2896 10.5659 11.3008 10.5603 11.2616C10.5547 11.2224 10.5603 11.2336 10.5435 11.1496C10.5323 11.0656 10.5323 11.0712 10.5267 11.0376C10.5211 10.9984 10.5267 11.0096 10.5155 10.9256C10.5043 10.836 10.5043 10.8472 10.4987 10.808C10.4987 10.7688 10.4987 10.78 10.4931 10.696C10.4875 10.6064 10.4875 10.6176 10.4819 10.5784C10.4819 10.5392 10.4819 10.5504 10.4819 10.4664C10.4763 10.3824 10.4763 10.3936 10.4763 10.3544C10.4763 10.3152 10.4763 10.3264 10.4763 10.2368C10.4763 10.1472 10.4763 10.1584 10.4763 10.1192C10.4763 10.08 10.4763 10.0912 10.4819 10.0072C10.4875 9.9232 10.4819 9.9344 10.4819 9.8952C10.4875 9.856 10.4875 9.8672 10.4931 9.7776C10.4987 9.6936 10.4987 9.7048 10.4987 9.6656C10.5043 9.6264 10.5043 9.6376 10.5155 9.548C10.5267 9.464 10.5211 9.4696 10.5267 9.436C10.5323 9.3968 10.5323 9.408 10.5435 9.324C10.5547 9.24 10.5547 9.2512 10.5603 9.2176C10.5659 9.1784 10.5659 9.1896 10.5827 9.1C10.5995 9.0104 10.5995 9.016 10.6051 8.9824C10.6163 8.9432 10.6107 8.9544 10.6331 8.876C10.6499 8.792 10.6499 8.8032 10.6555 8.7696C10.6667 8.736 10.6667 8.7416 10.6891 8.6576C10.7115 8.5736 10.7059 8.5848 10.7171 8.5456C10.7283 8.512 10.7283 8.5176 10.7507 8.4336L10.8627 8.0752C10.4203 8.6072 9.85474 9.548 9.82114 10.8472C9.77074 12.9752 10.3531 16.212 9.04834 18.9224C8.23634 20.608 6.13634 20.8096 4.65234 20.776V22.1368C4.74194 22.204 4.86514 22.2936 5.09474 22.4C5.60994 22.6352 6.54514 22.904 8.14114 22.904C9.73714 22.904 10.6723 22.6352 11.1875 22.4C11.4171 22.2936 11.5403 22.204 11.6299 22.1368V16.5032C11.6299 15.4392 11.4675 14.3752 11.1539 13.356Z" fill="#ED9700"/>
</g>
<g opacity="0.5">
<path d="M6.97041 3.62891C5.90641 4.64251 5.08321 6.28891 5.57041 7.06171C6.05201 7.83451 6.10241 6.77051 6.39361 5.80731C6.68481 4.84411 7.45201 3.72411 6.97041 3.62891Z" fill="white"/>
</g>
<g opacity="0.5">
<path d="M6.29239 11.1211C5.76039 12.9579 5.27879 14.7443 5.46919 15.5227C5.66519 16.2899 7.26119 11.2163 6.29239 11.1211Z" fill="white"/>
</g>
<path d="M9.65875 0.794922H9.08755C8.80755 1.45012 8.10195 2.37972 6.36035 2.13892V2.21732C6.36035 2.34052 6.46115 2.44132 6.58435 2.44132H9.65875C9.78195 2.44132 9.88275 2.34052 9.88275 2.21732V1.01892C9.88275 0.895722 9.78195 0.794922 9.65875 0.794922Z" fill="#A27D37"/>
<path d="M13.9536 24.8193C12.5088 23.5929 11.5736 23.8561 10.9072 24.0969C10.9072 24.0969 11.2824 25.7545 12.5928 26.3145C13.9032 26.8745 15.9864 26.7961 15.9864 26.7961C15.9864 26.7961 15.3984 26.0457 13.9536 24.8193Z" fill="#3E7200"/>
<path d="M5.56487 23.6433C4.81447 24.1753 4.01367 24.4161 4.01367 24.4161C4.01367 24.4161 4.49527 25.1889 6.41607 25.1889C8.33687 25.1889 10.4257 24.4161 10.3977 24.3097C10.3697 24.2033 9.78167 23.1897 9.78167 23.1897C8.07927 22.8145 6.31527 23.1113 5.56487 23.6433Z" fill="#3E7200"/>
<path d="M10.8566 22.3885L10.8286 22.4949C10.5374 22.9205 11.0974 23.3237 11.1478 23.4301C11.2038 23.5365 11.8982 23.3237 12.5646 23.0269C13.231 22.7357 13.9814 22.3045 14.463 21.0221C14.9446 19.7397 15.1294 18.9893 15.1294 18.9893C15.1294 18.9893 12.7774 19.8965 12.1614 20.3277C11.551 20.7589 11.523 21.1565 10.8566 22.3885Z" fill="#3E7200"/>
<path d="M14.2672 19.672C13.9088 19.9464 13.2648 20.204 12.66 20.7976C12.6208 20.8368 12.5816 20.876 12.548 20.9152C12.0216 21.4808 11.6744 22.1192 11.4728 22.5672C11.2656 23.0264 11.1816 23.3232 11.232 23.3512C11.2824 23.3792 11.4616 23.1216 11.7304 22.7072C11.988 22.3152 12.3688 21.7048 12.8504 21.2008C12.884 21.1616 12.9232 21.128 12.9568 21.0944C13.4608 20.5792 14.1216 20.232 14.452 19.868C14.7264 19.56 14.8272 19.3528 14.788 19.3192C14.7432 19.28 14.5584 19.448 14.2672 19.672Z" fill="#2C5100"/>
<path d="M9.37274 23.7663C8.87994 23.6879 8.01754 23.5703 7.21114 23.7047C7.07114 23.7271 6.93114 23.7607 6.79114 23.7999C6.23114 23.9623 5.76634 24.1695 5.37434 24.2647C5.17274 24.3151 5.01034 24.3431 4.85914 24.3543C4.51194 24.3767 4.28794 24.3767 4.28234 24.4215C4.27674 24.4663 4.47274 24.5447 4.84794 24.5951C5.02154 24.6175 5.21194 24.6119 5.43594 24.5783C5.97354 24.4999 6.28154 24.3599 6.90314 24.1919C7.02634 24.1583 7.14954 24.1303 7.27834 24.1079C7.96154 23.9959 8.87994 24.0519 9.34474 24.0631C9.83194 24.0575 10.2239 24.2367 10.2407 24.1807C10.2519 24.1191 10.0167 23.8671 9.37274 23.7663Z" fill="#2C5100"/>
<path d="M14.0772 25.552C13.842 25.4176 13.59 25.3056 13.31 25.188C13.0804 25.0928 12.8396 25.0032 12.638 24.9304C12.2292 24.7792 11.882 24.5384 11.602 24.4208C11.322 24.3032 11.1372 24.292 11.1204 24.3368C11.1036 24.3816 11.2548 24.4712 11.4788 24.6336C11.6356 24.7512 12.0948 25.1152 12.4868 25.2944C12.7052 25.3896 12.9124 25.4736 13.1532 25.5688C13.4276 25.6808 13.6628 25.7816 13.8924 25.8936C14.6652 26.2632 15.1412 26.7 15.2028 26.6384C15.27 26.5712 14.8892 26.0112 14.0772 25.552Z" fill="#2C5100"/>
<path d="M14.7987 21.9858C14.7987 21.9858 13.3315 22.053 12.7995 22.2994C13.8859 21.0562 13.8243 20.121 13.8243 20.121C13.8243 20.121 12.6707 20.4122 12.1331 21.7002C12.2899 20.2106 11.8867 19.6338 11.8867 19.6338C11.8867 19.6338 11.3771 20.8546 11.4443 21.7226C11.1979 20.6754 10.7107 19.8802 9.97712 19.701C9.62432 20.7258 10.0443 21.6554 10.0443 21.6554C10.0443 21.6554 9.43392 20.9106 8.92432 20.7538C8.77872 21.997 9.27152 22.4226 9.46192 22.5402C9.50672 22.5626 9.53472 22.5794 9.53472 22.5794C9.53472 22.5794 9.50672 22.5682 9.46192 22.5402C9.21552 22.417 8.38112 22.025 7.79872 22.0978C8.21872 23.0778 9.15392 23.2122 9.15392 23.2122C9.15392 23.2122 7.82112 23.425 7.31152 23.9346C7.86592 24.1586 9.26592 24.0298 9.26592 24.0298C9.26592 24.0298 7.73712 24.9258 7.56352 25.525C8.69472 25.5474 9.48992 25.0546 9.48992 25.0546C9.48992 25.0546 9.15392 25.4522 9.15392 26.1242C9.15392 26.7906 9.14272 27.2106 9.14272 27.2106C9.14272 27.2106 10.2627 25.9282 10.3523 25.4578C10.8619 26.3706 11.7523 26.8578 11.7299 26.7682C11.7075 26.6786 11.7299 25.6146 11.4163 25.1442C12.8611 26.0346 13.3035 25.945 13.3035 25.945C13.3035 25.945 13.0571 24.8138 12.4131 24.4106C14.0147 24.7466 14.4123 24.5002 14.4123 24.5002C14.4123 24.5002 13.5891 23.4306 12.8331 23.453C14.2611 23.0274 14.7987 21.9858 14.7987 21.9858Z" fill="#FFCC00"/>
<path d="M9.45703 22.5342C9.50183 22.5622 9.52983 22.5734 9.52983 22.5734C9.52983 22.5734 9.50183 22.5566 9.45703 22.5342Z" fill="#FFCC00"/>
<path d="M13.7577 22.545C13.7577 22.545 12.6377 22.7522 12.6265 22.6346C12.6153 22.517 13.0633 21.5034 13.0521 21.2458C12.4361 21.6434 12.0497 22.1586 12.0609 22.0298C12.0721 21.901 12.1505 21.061 12.0217 20.7922C11.6241 21.3074 11.5681 22.209 11.4561 21.9626C11.3385 21.7162 11.1705 21.1002 10.7729 20.7754C10.4873 21.705 10.5545 22.3322 10.4873 22.2818C10.4201 22.2314 9.72569 21.5706 9.44569 21.4418C9.49609 22.2146 9.89928 22.6906 9.89928 22.6906C9.89928 22.6906 9.17688 22.5226 8.71208 22.5226C9.09848 23.0658 9.86008 23.3066 9.74248 23.3066C9.62488 23.3066 8.54408 23.4354 8.14648 23.7434C9.12648 23.7938 9.82088 23.8834 9.82088 23.8834C9.82088 23.8834 9.52408 24.1802 9.34488 24.309C9.34488 24.309 8.50489 24.8914 8.49369 25.0426C9.36729 24.8242 9.66408 24.7178 9.66408 24.7178C9.66408 24.7178 9.58569 25.093 9.61369 25.4626C10.0897 25.1154 10.3249 25.065 10.3249 25.065C10.3249 25.065 10.8009 25.569 11.0585 25.7202C11.1089 25.0762 11.2153 24.8186 11.2153 24.8186C11.2153 24.8186 11.8201 25.0874 12.1953 25.1042C12.0945 24.4882 12.0273 24.2306 12.0945 24.2306C12.1561 24.2306 13.1753 24.2418 13.0857 24.1522C12.9961 24.0626 12.7609 23.6482 12.4697 23.609C12.8785 23.1722 13.7577 22.545 13.7577 22.545Z" fill="#FFA500"/>
<path d="M11.5513 21.9629C10.2185 22.2541 9.66405 22.7637 9.59685 23.5645C9.52965 24.3653 9.68646 25.2557 11.0193 24.8301C12.3521 24.4045 13.2873 22.0525 11.5513 21.9629Z" fill="#502D16"/>
<path d="M10.3252 22.6348C10.2804 22.6348 10.2412 22.674 10.2412 22.7188C10.2412 22.7636 10.2804 22.8028 10.3252 22.8028C10.37 22.8028 10.4092 22.7636 10.4092 22.7188C10.4092 22.674 10.37 22.6348 10.3252 22.6348Z" fill="#B88209"/>
<path d="M10.6551 22.3101C10.6271 22.3437 10.6271 22.3941 10.6607 22.4221C10.6943 22.4501 10.7447 22.4501 10.7727 22.4165C10.8007 22.3829 10.8007 22.3325 10.7671 22.3045C10.7391 22.2765 10.6887 22.2765 10.6551 22.3101Z" fill="#B88209"/>
<path d="M10.969 22.1651C10.9242 22.1763 10.9018 22.2267 10.913 22.2659C10.9242 22.3107 10.9746 22.3331 11.0138 22.3219C11.0586 22.3107 11.081 22.2603 11.0698 22.2211C11.0586 22.1763 11.0138 22.1483 10.969 22.1651Z" fill="#B88209"/>
<path d="M11.2323 22.339C11.2043 22.3782 11.2099 22.4342 11.2491 22.4622C11.2883 22.4902 11.3443 22.4846 11.3723 22.4454C11.4003 22.4062 11.3947 22.3502 11.3555 22.3222C11.3163 22.2942 11.2603 22.2998 11.2323 22.339Z" fill="#B88209"/>
<path d="M11.7693 22.2097C11.7301 22.2041 11.6909 22.2321 11.6853 22.2713C11.6797 22.3105 11.7077 22.3497 11.7469 22.3553C11.7861 22.3609 11.8253 22.3329 11.8309 22.2937C11.8365 22.2489 11.8085 22.2153 11.7693 22.2097Z" fill="#B88209"/>
<path d="M11.4108 22.2321C11.366 22.2153 11.3156 22.2377 11.3044 22.2825C11.2876 22.3273 11.31 22.3777 11.3548 22.3889C11.3996 22.4057 11.45 22.3833 11.4612 22.3385C11.4724 22.2937 11.4556 22.2433 11.4108 22.2321Z" fill="#B88209"/>
<path d="M11.3386 22.8982C11.2994 22.8926 11.2602 22.9206 11.2546 22.9598C11.249 22.999 11.277 23.0382 11.3162 23.0438C11.3554 23.0494 11.3946 23.0214 11.4002 22.9822C11.4058 22.943 11.3778 22.9038 11.3386 22.8982Z" fill="#B88209"/>
<path d="M12.0664 22.501C12.016 22.5178 11.9936 22.5682 12.0104 22.6186C12.0272 22.669 12.0776 22.6914 12.128 22.6746C12.1784 22.6578 12.2008 22.6074 12.184 22.557C12.1616 22.5122 12.1112 22.4842 12.0664 22.501Z" fill="#B88209"/>
<path d="M11.7414 22.7585C11.7078 22.7753 11.691 22.8201 11.7078 22.8537C11.7246 22.8873 11.7694 22.9041 11.803 22.8873C11.8366 22.8705 11.8534 22.8257 11.8366 22.7921C11.8198 22.7529 11.775 22.7417 11.7414 22.7585Z" fill="#B88209"/>
<path d="M11.7525 22.9493C11.7077 22.9269 11.6573 22.9437 11.6349 22.9885C11.6125 23.0333 11.6293 23.0837 11.6741 23.1061C11.7189 23.1285 11.7693 23.1117 11.7917 23.0669C11.8085 23.0277 11.7917 22.9717 11.7525 22.9493Z" fill="#B88209"/>
<path d="M12.1004 23.0325C12.0724 23.0605 12.078 23.1053 12.106 23.1333C12.134 23.1613 12.1788 23.1557 12.2068 23.1277C12.2348 23.0997 12.2292 23.0549 12.2012 23.0269C12.1676 23.0045 12.1228 23.0045 12.1004 23.0325Z" fill="#B88209"/>
<path d="M11.3103 22.7529C11.2879 22.7865 11.2935 22.8313 11.3271 22.8537C11.3607 22.8761 11.4055 22.8705 11.4279 22.8369C11.4503 22.8033 11.4447 22.7585 11.4111 22.7361C11.3831 22.7137 11.3327 22.7193 11.3103 22.7529Z" fill="#B88209"/>
<path d="M11.6915 23.5592C11.6523 23.5424 11.6131 23.5592 11.5963 23.5984C11.5795 23.6376 11.5963 23.6768 11.6355 23.6936C11.6747 23.7104 11.7139 23.6936 11.7307 23.6544C11.7419 23.6208 11.7307 23.576 11.6915 23.5592Z" fill="#B88209"/>
<path d="M10.8902 23.5428C10.8566 23.582 10.8622 23.638 10.9014 23.6716C10.9406 23.7052 10.9966 23.6996 11.0302 23.6604C11.0638 23.6212 11.0582 23.5652 11.019 23.5316C10.9798 23.5036 10.9238 23.5092 10.8902 23.5428Z" fill="#B88209"/>
<path d="M11.0583 23.9795C11.0135 23.9627 10.9631 23.9907 10.9463 24.0355C10.9295 24.0803 10.9575 24.1307 11.0023 24.1475C11.0471 24.1643 11.0975 24.1363 11.1143 24.0915C11.1311 24.0467 11.1031 23.9963 11.0583 23.9795Z" fill="#B88209"/>
<path d="M11.9373 23.3356C11.8981 23.3076 11.8421 23.3188 11.8141 23.3636C11.7861 23.4084 11.7973 23.4588 11.8421 23.4868C11.8869 23.5148 11.9373 23.5036 11.9653 23.4588C11.9933 23.4196 11.9765 23.3636 11.9373 23.3356Z" fill="#B88209"/>
<path d="M10.392 23.9794C10.3528 23.9682 10.308 23.9906 10.2968 24.0298C10.2856 24.069 10.308 24.1138 10.3472 24.125C10.3864 24.1362 10.4312 24.1138 10.4424 24.0746C10.4536 24.0354 10.4312 23.9906 10.392 23.9794Z" fill="#B88209"/>
<path d="M10.4816 23.9179C10.448 23.8955 10.4032 23.9067 10.3808 23.9403C10.3584 23.9739 10.3696 24.0187 10.4032 24.0411C10.4368 24.0635 10.4816 24.0523 10.504 24.0187C10.5208 23.9851 10.5152 23.9403 10.4816 23.9179Z" fill="#B88209"/>
<path d="M10.7169 23.5313C10.6665 23.5481 10.6385 23.5985 10.6553 23.6489C10.6721 23.6993 10.7225 23.7273 10.7729 23.7105C10.8233 23.6937 10.8513 23.6433 10.8345 23.5929C10.8233 23.5425 10.7673 23.5145 10.7169 23.5313Z" fill="#B88209"/>
<path d="M10.6444 23.9062C10.6108 23.8838 10.5604 23.895 10.538 23.9286C10.5156 23.9622 10.5268 24.0126 10.5604 24.035C10.594 24.0574 10.6444 24.0462 10.6668 24.0126C10.6892 23.979 10.678 23.9286 10.6444 23.9062Z" fill="#B88209"/>
<path d="M10.1563 23.4189C10.1059 23.4357 10.0779 23.4861 10.0947 23.5309C10.1115 23.5813 10.1619 23.6093 10.2067 23.5925C10.2571 23.5757 10.2851 23.5253 10.2683 23.4805C10.2571 23.4301 10.2011 23.4021 10.1563 23.4189Z" fill="#B88209"/>
<path d="M9.91645 23.5593C9.87725 23.5649 9.84365 23.5985 9.84925 23.6377C9.85485 23.6769 9.88845 23.7105 9.92765 23.7049C9.96685 23.6993 10.0004 23.6657 9.99485 23.6265C9.98925 23.5817 9.95565 23.5537 9.91645 23.5593Z" fill="#B88209"/>
<path d="M10.5321 23.1673C10.4985 23.1953 10.4929 23.2513 10.5209 23.2849C10.5489 23.3185 10.6049 23.3241 10.6385 23.2961C10.6721 23.2681 10.6777 23.2121 10.6497 23.1785C10.6217 23.1449 10.5657 23.1393 10.5321 23.1673Z" fill="#B88209"/>
<path d="M10.2074 23.1673C10.1626 23.1897 10.1458 23.2457 10.1738 23.2905C10.1962 23.3353 10.2522 23.3521 10.297 23.3241C10.3418 23.3017 10.3586 23.2457 10.3306 23.2009C10.3082 23.1617 10.2522 23.1449 10.2074 23.1673Z" fill="#B88209"/>
<path d="M10.2243 22.7917C10.1795 22.7749 10.1347 22.7973 10.1179 22.8421C10.1011 22.8869 10.1235 22.9317 10.1683 22.9485C10.2131 22.9653 10.2579 22.9429 10.2747 22.8981C10.2915 22.8533 10.2691 22.8029 10.2243 22.7917Z" fill="#B88209"/>
<path d="M9.79815 23.2678C9.75335 23.2958 9.74215 23.3574 9.77015 23.4022C9.79815 23.447 9.85975 23.4582 9.90455 23.4302C9.94935 23.4022 9.96055 23.3406 9.93255 23.2958C9.90455 23.2566 9.84295 23.2398 9.79815 23.2678Z" fill="#B88209"/>
<path d="M10.7668 22.9316C10.7164 22.9316 10.666 22.9708 10.666 23.0212C10.666 23.0716 10.7052 23.122 10.7556 23.122C10.806 23.122 10.8564 23.0828 10.8564 23.0324C10.862 22.982 10.8228 22.9372 10.7668 22.9316Z" fill="#B88209"/>
<path d="M11.0417 22.5123C10.9913 22.4955 10.9353 22.5179 10.9185 22.5739C10.9017 22.6243 10.9241 22.6803 10.9801 22.6971C11.0305 22.7139 11.0865 22.6915 11.1033 22.6355C11.1201 22.5851 11.0921 22.5291 11.0417 22.5123Z" fill="#B88209"/>
<path d="M11.1423 23.3183C11.1031 23.3071 11.0639 23.3295 11.0527 23.3687C11.0415 23.4079 11.0639 23.4471 11.1031 23.4583C11.1423 23.4695 11.1815 23.4471 11.1927 23.4079C11.2039 23.3687 11.1815 23.3295 11.1423 23.3183Z" fill="#B88209"/>
<path d="M10.6944 22.6627C10.6552 22.6963 10.6496 22.7579 10.6832 22.7971C10.7168 22.8363 10.7784 22.8419 10.8176 22.8083C10.8568 22.7747 10.8624 22.7131 10.8288 22.6739C10.7952 22.6347 10.7336 22.6291 10.6944 22.6627Z" fill="#B88209"/>
<path d="M11.6629 22.4C11.6293 22.428 11.6237 22.484 11.6517 22.5176C11.6797 22.5512 11.7357 22.5568 11.7693 22.5288C11.8029 22.5008 11.8085 22.4448 11.7805 22.4112C11.7469 22.372 11.6965 22.3664 11.6629 22.4Z" fill="#B88209"/>
<path d="M11.243 23.1454C11.215 23.179 11.2206 23.2238 11.2486 23.2518C11.2822 23.2798 11.327 23.2742 11.355 23.2462C11.383 23.2126 11.3774 23.1678 11.3494 23.1398C11.3158 23.1062 11.271 23.1118 11.243 23.1454Z" fill="#B88209"/>
<path d="M11.4056 23.3631C11.3776 23.3967 11.3832 23.4471 11.4168 23.4751C11.4504 23.5031 11.5008 23.4975 11.5288 23.4639C11.5568 23.4303 11.5512 23.3799 11.5176 23.3519C11.484 23.3239 11.4336 23.3295 11.4056 23.3631Z" fill="#B88209"/>
<path d="M11.3106 23.6324C11.2602 23.6436 11.2322 23.694 11.249 23.7444C11.2602 23.7948 11.3106 23.8228 11.361 23.806C11.4114 23.7948 11.4394 23.7444 11.4226 23.694C11.4058 23.6492 11.3554 23.6212 11.3106 23.6324Z" fill="#B88209"/>
<path d="M11.6858 24.1637C11.641 24.1917 11.6298 24.2533 11.6578 24.2981C11.6858 24.3429 11.7474 24.3541 11.7922 24.3261C11.837 24.2981 11.8482 24.2365 11.8202 24.1917C11.7922 24.1469 11.7306 24.1357 11.6858 24.1637Z" fill="#B88209"/>
<path d="M10.8008 24.3994C10.7504 24.4162 10.728 24.4722 10.7448 24.5226C10.7616 24.573 10.8176 24.5954 10.868 24.5786C10.9184 24.5618 10.9408 24.5058 10.924 24.4554C10.9016 24.405 10.8456 24.377 10.8008 24.3994Z" fill="#B88209"/>
<path d="M10.79 23.8733C10.7508 23.8509 10.7004 23.8677 10.678 23.9069C10.6556 23.9461 10.6724 23.9965 10.7116 24.0189C10.7508 24.0413 10.8012 24.0245 10.8236 23.9853C10.8404 23.9405 10.8292 23.8901 10.79 23.8733Z" fill="#B88209"/>
<path d="M10.1399 24.2763C10.0951 24.2931 10.0727 24.3379 10.0839 24.3827C10.1007 24.4275 10.1455 24.4499 10.1903 24.4387C10.2351 24.4219 10.2575 24.3771 10.2463 24.3323C10.2351 24.2875 10.1847 24.2651 10.1399 24.2763Z" fill="#B88209"/>
<path d="M10.0564 24.0186C10.0116 24.0018 9.96118 24.0298 9.94438 24.0746C9.92758 24.1194 9.95558 24.1698 10.0004 24.1866C10.0452 24.2034 10.0956 24.1754 10.1124 24.1306C10.1292 24.0858 10.1012 24.0354 10.0564 24.0186Z" fill="#B88209"/>
<path d="M10.1008 24.4721C10.0728 24.5057 10.084 24.5561 10.1176 24.5841C10.1512 24.6121 10.2016 24.6009 10.2296 24.5673C10.2576 24.5337 10.2464 24.4833 10.2128 24.4553C10.1792 24.4273 10.1288 24.4385 10.1008 24.4721Z" fill="#B88209"/>
<path d="M11.31 24.0464C11.2596 24.0352 11.2148 24.0632 11.2036 24.1136C11.1924 24.164 11.2204 24.2088 11.2708 24.22C11.3212 24.2312 11.366 24.2032 11.3772 24.1528C11.3884 24.1024 11.3548 24.0576 11.31 24.0464Z" fill="#B88209"/>
<path d="M10.3081 24.0962C10.2577 24.085 10.2129 24.113 10.2017 24.1634C10.1905 24.2138 10.2185 24.2586 10.2689 24.2698C10.3193 24.281 10.3641 24.253 10.3753 24.2026C10.3865 24.1578 10.3585 24.1074 10.3081 24.0962Z" fill="#B88209"/>
<path d="M9.92766 24.3429C9.89966 24.3821 9.90526 24.4381 9.94446 24.4661C9.98366 24.4941 10.0397 24.4885 10.0677 24.4493C10.0957 24.4101 10.0901 24.3541 10.0509 24.3261C10.0117 24.2981 9.95566 24.3037 9.92766 24.3429Z" fill="#B88209"/>
<path d="M9.93862 24.1023C9.89942 24.1191 9.88822 24.1639 9.90502 24.2031C9.92182 24.2423 9.96662 24.2535 10.0058 24.2367C10.045 24.2199 10.0562 24.1751 10.0394 24.1359C10.017 24.1023 9.97222 24.0855 9.93862 24.1023Z" fill="#B88209"/>
<path d="M9.88757 23.7998C9.84277 23.8278 9.83157 23.8838 9.85397 23.923C9.88197 23.9678 9.93797 23.979 9.97717 23.9566C10.022 23.9286 10.0332 23.8726 10.0108 23.8334C9.98837 23.7886 9.93237 23.7718 9.88757 23.7998Z" fill="#B88209"/>
<path d="M9.70863 24.2203C9.66383 24.2147 9.62463 24.2483 9.62463 24.2931C9.61903 24.3379 9.65263 24.3771 9.69743 24.3771C9.74223 24.3827 9.78143 24.3491 9.78143 24.3043C9.78703 24.2651 9.75343 24.2259 9.70863 24.2203Z" fill="#B88209"/>
<path d="M10.3696 23.7109C10.3136 23.7221 10.28 23.7725 10.2912 23.8229C10.3024 23.8733 10.3528 23.9125 10.4032 23.9013C10.4592 23.8901 10.4928 23.8397 10.4816 23.7893C10.476 23.7389 10.4256 23.6997 10.3696 23.7109Z" fill="#B88209"/>
<path d="M10.6216 24.3544C10.5712 24.332 10.5096 24.3544 10.4872 24.4048C10.4648 24.4552 10.4872 24.5168 10.5376 24.5392C10.588 24.5616 10.6496 24.5392 10.672 24.4888C10.6944 24.4384 10.672 24.3824 10.6216 24.3544Z" fill="#B88209"/>
<path d="M10.6888 24.1138C10.6496 24.125 10.6328 24.1698 10.644 24.2034C10.6552 24.2426 10.7 24.2594 10.7336 24.2482C10.7728 24.237 10.7896 24.1922 10.7784 24.1586C10.7672 24.1194 10.728 24.1026 10.6888 24.1138Z" fill="#B88209"/>
<path d="M11.0697 24.1756C11.0417 24.2092 11.0473 24.254 11.0809 24.2764C11.1145 24.3044 11.1593 24.2988 11.1817 24.2652C11.2097 24.2316 11.2041 24.1868 11.1705 24.1644C11.1425 24.1364 11.0977 24.142 11.0697 24.1756Z" fill="#B88209"/>
<path d="M10.3749 24.483C10.3301 24.5054 10.3077 24.5614 10.3301 24.6062C10.3525 24.651 10.4085 24.6734 10.4533 24.651C10.4981 24.6286 10.5205 24.5726 10.4981 24.5278C10.4757 24.483 10.4197 24.4662 10.3749 24.483Z" fill="#B88209"/>
<path d="M11.4166 23.733C11.3886 23.761 11.383 23.8058 11.4054 23.8338C11.4278 23.8618 11.4782 23.8674 11.5062 23.845C11.5342 23.817 11.5398 23.7722 11.5174 23.7442C11.495 23.7162 11.4502 23.705 11.4166 23.733Z" fill="#B88209"/>
<path d="M11.686 23.7105C11.658 23.7385 11.658 23.7889 11.686 23.8169C11.714 23.8449 11.7644 23.8449 11.7924 23.8169C11.8204 23.7889 11.8204 23.7385 11.7924 23.7105C11.7644 23.6825 11.714 23.6825 11.686 23.7105Z" fill="#B88209"/>
<path d="M10.9353 23.1502C10.8905 23.1334 10.8457 23.1558 10.8289 23.195C10.8121 23.2398 10.8345 23.2846 10.8737 23.3014C10.9185 23.3182 10.9633 23.2958 10.9801 23.2566C10.9969 23.2118 10.9745 23.167 10.9353 23.1502Z" fill="#B88209"/>
<path d="M12.0604 22.7526C12.0212 22.7582 11.9932 22.7918 11.9932 22.831C11.9988 22.8702 12.0324 22.8982 12.0716 22.8982C12.1108 22.8926 12.1388 22.859 12.1388 22.8198C12.1332 22.7806 12.0996 22.747 12.0604 22.7526Z" fill="#B88209"/>
<path d="M11.5288 23.1841C11.484 23.2177 11.4784 23.2793 11.5064 23.3241C11.54 23.3689 11.6016 23.3745 11.6464 23.3465C11.6912 23.3129 11.6968 23.2513 11.6688 23.2065C11.6408 23.1617 11.5736 23.1561 11.5288 23.1841Z" fill="#B88209"/>
</g>
<defs>
<clipPath id="clip0_164_3969">
<rect width="18" height="28" fill="white"/>
</clipPath>
</defs>
</svg>
