<svg width="20" height="20" viewBox="0 0 20 20" fill="none" xmlns="http://www.w3.org/2000/svg">
<path d="M10.0003 1.66663C14.6028 1.66663 18.3337 5.39746 18.3337 9.99996C18.3337 12.2101 17.4557 14.3297 15.8929 15.8925C14.3301 17.4553 12.2105 18.3333 10.0003 18.3333C7.79019 18.3333 5.67057 17.4553 4.10777 15.8925C2.54497 14.3297 1.66699 12.2101 1.66699 9.99996L1.67033 9.76663C1.79366 5.27246 5.47533 1.66663 10.0003 1.66663ZM12.5003 11.7666C12.2793 11.7666 12.0674 11.8544 11.9111 12.0107C11.7548 12.167 11.667 12.3789 11.667 12.6V12.6125C11.667 12.8335 11.7548 13.0454 11.9111 13.2017C12.0674 13.358 12.2793 13.4458 12.5003 13.4458C12.7213 13.4458 12.9333 13.358 13.0896 13.2017C13.2459 13.0454 13.3337 12.8335 13.3337 12.6125V12.6C13.3337 12.3789 13.2459 12.167 13.0896 12.0107C12.9333 11.8544 12.7213 11.7666 12.5003 11.7666ZM13.0895 6.97329C12.9332 6.81707 12.7213 6.7293 12.5003 6.7293C12.2794 6.7293 12.0674 6.81707 11.9112 6.97329L6.91116 11.9733C6.75936 12.1305 6.67537 12.341 6.67726 12.5595C6.67916 12.778 6.7668 12.987 6.92131 13.1415C7.07582 13.296 7.28483 13.3836 7.50332 13.3855C7.72182 13.3874 7.93232 13.3034 8.08949 13.1516L13.0895 8.15163C13.2457 7.99535 13.3335 7.78343 13.3335 7.56246C13.3335 7.34149 13.2457 7.12957 13.0895 6.97329ZM7.50033 6.75413C7.27931 6.75413 7.06735 6.84192 6.91107 6.9982C6.75479 7.15448 6.66699 7.36645 6.66699 7.58746V7.59996C6.66699 7.82097 6.75479 8.03293 6.91107 8.18921C7.06735 8.34549 7.27931 8.43329 7.50033 8.43329C7.72134 8.43329 7.9333 8.34549 8.08958 8.18921C8.24586 8.03293 8.33366 7.82097 8.33366 7.59996V7.58746C8.33366 7.36645 8.24586 7.15448 8.08958 6.9982C7.9333 6.84192 7.72134 6.75413 7.50033 6.75413Z" fill="#FB8900"/>
</svg>
