<svg width="212" height="160" viewBox="0 0 212 160" fill="none" xmlns="http://www.w3.org/2000/svg">
<path d="M105.937 78.369C72.313 78.369 40.686 65.26 16.882 41.455C9.62102 34.194 9.62202 22.423 16.883 15.163C24.143 7.90401 35.914 7.90301 43.175 15.164C59.956 31.945 82.245 41.186 105.936 41.186C129.629 41.186 151.918 31.945 168.698 15.163C175.959 7.902 187.731 7.902 194.991 15.163C202.251 22.424 202.251 34.196 194.991 41.456C171.188 65.259 139.561 78.369 105.937 78.369Z" fill="#E63950"/>
<path d="M105.92 49.18C94.4502 49.18 83.2502 47.21 72.6092 43.31C62.0002 39.42 52.2202 33.72 43.5202 26.35C42.6802 25.64 42.5812 24.371 43.2912 23.53C43.9802 22.72 45.3012 22.61 46.1102 23.301C63.0102 37.611 83.7012 45.181 105.94 45.191C130.69 45.181 153.991 35.521 171.531 17.992C172.281 17.242 173.6 17.242 174.35 17.992C175.13 18.771 175.13 20.042 174.35 20.821C156.07 39.111 131.781 49.181 105.96 49.181L105.92 49.18ZM38.9302 21.41C38.4002 21.41 37.9002 21.2 37.5202 20.819C37.1402 20.439 36.9302 19.939 36.9302 19.399C36.9302 18.87 37.1402 18.37 37.5202 17.99C38.2702 17.24 39.5902 17.24 40.3502 17.99V18C40.7302 18.38 40.9302 18.87 40.9302 19.399C40.9302 19.939 40.7302 20.439 40.3502 20.819C39.9702 21.2 39.4702 21.41 38.9302 21.41Z" fill="#E8566F"/>
<path d="M194.992 15.163C193.222 13.392 191.183 12.054 189.007 11.147C191.82 17.896 190.482 25.966 184.992 31.457C161.188 55.26 129.56 68.37 95.9362 68.37C65.7492 68.37 37.1712 57.803 14.4192 38.417C15.1172 39.493 15.9382 40.513 16.8812 41.456C40.6852 65.26 72.3122 78.37 105.936 78.37C139.56 78.37 171.187 65.261 194.992 41.457C202.252 34.195 202.252 22.423 194.992 15.163Z" fill="#D10028"/>
<path d="M18.2081 12.101L15.4411 3.799C14.7841 1.828 12.9221 0.514001 10.8451 0.556001C8.89509 0.595001 7.32409 2.166 7.28509 4.116C7.24709 6.066 5.67609 7.637 3.72609 7.676H3.72209C1.77309 7.715 0.202091 9.286 0.163091 11.235V11.247C0.121091 13.319 1.43009 15.179 3.39509 15.84L11.6831 18.627L18.2081 12.101Z" fill="#E63950"/>
<path d="M18.375 10.405L10.007 18.773C8.95698 19.823 8.95698 21.525 10.007 22.575C11.057 23.625 12.759 23.625 13.809 22.575L22.177 14.207C23.227 13.157 23.227 11.455 22.177 10.405C21.127 9.35601 19.425 9.35601 18.375 10.405Z" fill="#FFA91A"/>
<path d="M22.177 10.405C21.81 10.038 21.363 9.8 20.893 9.689C21.099 10.565 20.86 11.524 20.177 12.207L11.809 20.575C11.126 21.258 10.167 21.496 9.29102 21.291C9.40102 21.762 9.64002 22.208 10.007 22.575C11.057 23.625 12.759 23.625 13.809 22.575L22.177 14.207C23.227 13.157 23.227 11.455 22.177 10.405Z" fill="#F79219"/>
<path d="M193.792 12.101L196.559 3.799C197.216 1.828 199.078 0.514001 201.155 0.556001C203.105 0.595001 204.676 2.166 204.715 4.116C204.753 6.066 206.324 7.637 208.274 7.676H208.278C210.227 7.715 211.798 9.286 211.837 11.235V11.247C211.879 13.319 210.57 15.179 208.605 15.84L200.317 18.627L193.792 12.101Z" fill="#E63950"/>
<path d="M211.838 11.235C211.808 9.74301 210.88 8.47201 209.573 7.94101C209.736 8.34101 209.829 8.77801 209.838 9.23501V9.24701C209.88 11.319 208.571 13.179 206.606 13.839L198.318 16.626L200.318 18.626L208.606 15.839C210.571 15.178 211.879 13.319 211.838 11.247V11.235Z" fill="#D10028"/>
<path d="M193.625 10.405L201.993 18.773C203.043 19.823 203.043 21.525 201.993 22.575C200.943 23.625 199.241 23.625 198.191 22.575L189.823 14.207C188.773 13.157 188.773 11.455 189.823 10.405C190.873 9.35601 192.575 9.35601 193.625 10.405Z" fill="#FFA91A"/>
<path d="M201.992 18.773L199.992 16.773C201.042 17.823 201.042 19.525 199.992 20.575C198.942 21.625 197.24 21.625 196.19 20.575L198.19 22.575C199.24 23.625 200.942 23.625 201.992 22.575C203.042 21.525 203.042 19.823 201.992 18.773Z" fill="#F79219"/>
<path d="M106 159.446C72.376 159.446 40.749 146.337 16.945 122.532C9.68401 115.271 9.68501 103.5 16.946 96.24C24.206 88.981 35.977 88.98 43.238 96.241C60.019 113.022 82.308 122.263 105.999 122.263C129.692 122.263 151.981 113.022 168.761 96.24C176.022 88.979 187.794 88.979 195.054 96.24C202.314 103.501 202.314 115.273 195.054 122.533C171.251 146.336 139.624 159.446 106 159.446Z" fill="#E63950"/>
<path d="M195.055 96.24C193.284 94.469 191.246 93.131 189.07 92.224C191.883 98.973 190.545 107.043 185.055 112.533C161.251 136.336 129.623 149.446 95.9992 149.446C65.8122 149.446 37.2342 138.879 14.4822 119.493C15.1802 120.569 16.0012 121.589 16.9442 122.532C40.7482 146.336 72.3752 159.446 105.999 159.446C139.623 159.446 171.25 146.336 195.055 122.533C202.315 115.272 202.315 103.5 195.055 96.24Z" fill="#D10028"/>
<path d="M194.992 96.24C194.137 95.385 193.219 94.631 192.254 93.977C197.151 101.209 196.397 111.127 189.992 117.533C166.188 141.336 134.56 154.446 100.936 154.446C69.021 154.446 38.906 142.634 15.571 121.078C15.978 121.58 16.414 122.065 16.881 122.532C40.685 146.336 72.312 159.446 105.936 159.446C139.56 159.446 171.187 146.336 194.992 122.533C202.252 115.272 202.252 103.5 194.992 96.24Z" fill="#B7022D"/>
<path d="M18.2081 93.178L15.4411 84.876C14.7841 82.905 12.9221 81.591 10.8451 81.633C8.89509 81.672 7.32409 83.243 7.28509 85.193C7.24709 87.143 5.67609 88.714 3.72609 88.753H3.72209C1.77309 88.792 0.202091 90.363 0.163091 92.312V92.324C0.121091 94.396 1.43009 96.256 3.39509 96.917L11.6831 99.704L18.2081 93.178Z" fill="#E63950"/>
<path d="M18.375 91.483L10.007 99.851C8.95698 100.901 8.95698 102.603 10.007 103.653C11.057 104.703 12.759 104.703 13.809 103.653L22.177 95.285C23.227 94.235 23.227 92.533 22.177 91.483C21.127 90.433 19.425 90.433 18.375 91.483Z" fill="#FFA91A"/>
<path d="M22.177 91.482C21.81 91.115 21.363 90.877 20.893 90.766C21.099 91.642 20.86 92.601 20.177 93.284L11.809 101.652C11.126 102.335 10.167 102.573 9.29102 102.368C9.40102 102.839 9.64002 103.285 10.007 103.652C11.057 104.702 12.759 104.702 13.809 103.652L22.177 95.284C23.227 94.234 23.227 92.532 22.177 91.482Z" fill="#F79219"/>
<path d="M193.792 93.178L196.559 84.876C197.216 82.905 199.078 81.591 201.155 81.633C203.105 81.672 204.676 83.243 204.715 85.193C204.753 87.143 206.324 88.714 208.274 88.753H208.278C210.227 88.792 211.798 90.363 211.837 92.312V92.324C211.879 94.396 210.57 96.256 208.605 96.917L200.317 99.704L193.792 93.178Z" fill="#E63950"/>
<path d="M211.838 92.312C211.808 90.82 210.88 89.549 209.573 89.018C209.736 89.418 209.829 89.855 209.838 90.312V90.324C209.88 92.396 208.571 94.256 206.606 94.916L198.318 97.703L200.318 99.703L208.606 96.916C210.571 96.255 211.879 94.396 211.838 92.324V92.312Z" fill="#D10028"/>
<path d="M193.625 91.483L201.993 99.851C203.043 100.901 203.043 102.603 201.993 103.653C200.943 104.703 199.241 104.703 198.191 103.653L189.823 95.285C188.773 94.235 188.773 92.533 189.823 91.483C190.873 90.433 192.575 90.433 193.625 91.483Z" fill="#FFA91A"/>
<path d="M201.992 99.85L199.992 97.85C201.042 98.9 201.042 100.602 199.992 101.652C198.942 102.702 197.24 102.702 196.19 101.652L198.19 103.652C199.24 104.702 200.942 104.702 201.992 103.652C203.042 102.602 203.042 100.9 201.992 99.85Z" fill="#F79219"/>
</svg>
