<svg width="209" height="192" viewBox="0 0 209 192" fill="none" xmlns="http://www.w3.org/2000/svg">
<path d="M96 191.306C148.636 191.306 191.306 148.636 191.306 96.0001C191.306 43.364 148.636 0.694092 96 0.694092C43.3639 0.694092 0.694 43.364 0.694 96.0001C0.694 148.636 43.3639 191.306 96 191.306Z" fill="#F1F2F2"/>
<path d="M6.7 98.0002C5.59 98.0002 4.69 97.1002 4.69 96.0002C4.69 94.8992 5.59 94.0002 6.7 94.0002C7.8 94.0002 8.69 94.8992 8.69 96.0002C8.69 97.1002 7.8 98.0002 6.7 98.0002ZM7.05 90.0102C6.99 90.0102 6.93 90.0102 6.87 90.0102C6.34 89.9602 5.86 89.7102 5.52 89.3002C5.17 88.8902 5.01001 88.3702 5.06001 87.8302C7.07001 65.2292 17.43 44.2702 34.23 28.8102C51.13 13.2602 73.07 4.7002 96 4.7002C97.1 4.7002 98 5.5902 98 6.7002C98 7.8002 97.1 8.68919 96 8.68919C51.2 8.68919 13 43.6092 9.04 88.1892C8.95 89.2292 8.09 90.0102 7.05 90.0102Z" fill="white"/>
<path d="M158.206 23.7942C172.601 40.4882 181.305 62.2282 181.305 86.0002C181.305 138.636 138.635 181.306 85.999 181.306C62.226 181.306 40.487 172.602 23.793 158.207C41.27 178.475 67.136 191.306 95.999 191.306C148.635 191.306 191.305 148.636 191.305 96.0002C191.306 67.1372 178.475 41.2712 158.206 23.7942Z" fill="#E6E7E8"/>
<path d="M160.845 26.155C176.644 43.165 186.306 65.954 186.306 91C186.306 143.636 143.636 186.306 91 186.306C65.954 186.306 43.165 176.645 26.155 160.845C43.559 179.582 68.41 191.306 96 191.306C148.636 191.306 191.306 148.636 191.306 96C191.306 68.41 179.582 43.559 160.845 26.155Z" fill="#D1D3D4"/>
<path d="M96 165.612C134.446 165.612 165.612 134.446 165.612 96.0002C165.612 57.5545 134.446 26.3882 96 26.3882C57.5544 26.3882 26.388 57.5545 26.388 96.0002C26.388 134.446 57.5544 165.612 96 165.612Z" fill="white"/>
<path d="M68.129 117.504C91.8811 117.504 111.136 98.2491 111.136 74.497C111.136 50.7449 91.8811 31.49 68.129 31.49C44.3769 31.49 25.122 50.7449 25.122 74.497C25.122 98.2491 44.3769 117.504 68.129 117.504Z" fill="#F79219"/>
<path d="M68.129 111.488C88.5586 111.488 105.12 94.9267 105.12 74.4971C105.12 54.0675 88.5586 37.5061 68.129 37.5061C47.6994 37.5061 31.138 54.0675 31.138 74.4971C31.138 94.9267 47.6994 111.488 68.129 111.488Z" fill="#EF7816"/>
<path d="M68.129 104.898C84.919 104.898 98.53 91.287 98.53 74.4969C98.53 57.7069 84.919 44.0959 68.129 44.0959C51.339 44.0959 37.728 57.7069 37.728 74.4969C37.728 91.287 51.339 104.898 68.129 104.898Z" fill="#FFC91D"/>
<path d="M68.129 98.5429C81.4092 98.5429 92.175 87.7772 92.175 74.4969C92.175 61.2167 81.4092 50.4509 68.129 50.4509C54.8488 50.4509 44.083 61.2167 44.083 74.4969C44.083 87.7772 54.8488 98.5429 68.129 98.5429Z" fill="#EF7816"/>
<path d="M68.129 93.285C78.5053 93.285 86.917 84.8733 86.917 74.497C86.917 64.1207 78.5053 55.709 68.129 55.709C57.7527 55.709 49.341 64.1207 49.341 74.497C49.341 84.8733 57.7527 93.285 68.129 93.285Z" fill="#F79219"/>
<path d="M68.129 87.233C75.1629 87.233 80.865 81.5309 80.865 74.497C80.865 67.4631 75.1629 61.761 68.129 61.761C61.0951 61.761 55.393 67.4631 55.393 74.497C55.393 81.5309 61.0951 87.233 68.129 87.233Z" fill="#EF7816"/>
<path d="M123.871 117.504C147.623 117.504 166.878 98.2491 166.878 74.497C166.878 50.7449 147.623 31.49 123.871 31.49C100.119 31.49 80.864 50.7449 80.864 74.497C80.864 98.2491 100.119 117.504 123.871 117.504Z" fill="#FFC91D"/>
<path d="M123.871 111.488C144.301 111.488 160.862 94.9267 160.862 74.4971C160.862 54.0675 144.301 37.5061 123.871 37.5061C103.441 37.5061 86.88 54.0675 86.88 74.4971C86.88 94.9267 103.441 111.488 123.871 111.488Z" fill="#EF7816"/>
<path d="M123.871 104.898C140.661 104.898 154.272 91.287 154.272 74.4969C154.272 57.7069 140.661 44.0959 123.871 44.0959C107.081 44.0959 93.47 57.7069 93.47 74.4969C93.47 91.287 107.081 104.898 123.871 104.898Z" fill="#F79219"/>
<path d="M123.871 98.5429C137.151 98.5429 147.917 87.7772 147.917 74.4969C147.917 61.2167 137.151 50.4509 123.871 50.4509C110.591 50.4509 99.825 61.2167 99.825 74.4969C99.825 87.7772 110.591 98.5429 123.871 98.5429Z" fill="#EF7816"/>
<path d="M123.871 93.285C134.247 93.285 142.659 84.8733 142.659 74.497C142.659 64.1207 134.247 55.709 123.871 55.709C113.495 55.709 105.083 64.1207 105.083 74.497C105.083 84.8733 113.495 93.285 123.871 93.285Z" fill="#F79219"/>
<path d="M123.871 87.233C130.905 87.233 136.607 81.5309 136.607 74.497C136.607 67.4631 130.905 61.761 123.871 61.761C116.837 61.761 111.135 67.4631 111.135 74.497C111.135 81.5309 116.837 87.233 123.871 87.233Z" fill="#EF7816"/>
<path d="M68.129 160.51C91.8811 160.51 111.136 141.255 111.136 117.503C111.136 93.751 91.8811 74.4961 68.129 74.4961C44.3769 74.4961 25.122 93.751 25.122 117.503C25.122 141.255 44.3769 160.51 68.129 160.51Z" fill="#FFC91D"/>
<path d="M68.129 154.494C88.5586 154.494 105.12 137.933 105.12 117.503C105.12 97.0736 88.5586 80.5122 68.129 80.5122C47.6994 80.5122 31.138 97.0736 31.138 117.503C31.138 137.933 47.6994 154.494 68.129 154.494Z" fill="#EF7816"/>
<path d="M68.129 147.904C84.919 147.904 98.53 134.293 98.53 117.503C98.53 100.713 84.919 87.1021 68.129 87.1021C51.339 87.1021 37.728 100.713 37.728 117.503C37.728 134.293 51.339 147.904 68.129 147.904Z" fill="#F79219"/>
<path d="M68.129 141.549C81.4092 141.549 92.175 130.783 92.175 117.503C92.175 104.223 81.4092 93.457 68.129 93.457C54.8488 93.457 44.083 104.223 44.083 117.503C44.083 130.783 54.8488 141.549 68.129 141.549Z" fill="#EF7816"/>
<path d="M68.129 136.291C78.5053 136.291 86.917 127.879 86.917 117.503C86.917 107.127 78.5053 98.7151 68.129 98.7151C57.7527 98.7151 49.341 107.127 49.341 117.503C49.341 127.879 57.7527 136.291 68.129 136.291Z" fill="#F79219"/>
<path d="M68.129 130.239C75.1629 130.239 80.865 124.537 80.865 117.503C80.865 110.469 75.1629 104.767 68.129 104.767C61.0951 104.767 55.393 110.469 55.393 117.503C55.393 124.537 61.0951 130.239 68.129 130.239Z" fill="#EF7816"/>
<path d="M123.871 160.51C147.623 160.51 166.878 141.255 166.878 117.503C166.878 93.751 147.623 74.4961 123.871 74.4961C100.119 74.4961 80.864 93.751 80.864 117.503C80.864 141.255 100.119 160.51 123.871 160.51Z" fill="#F79219"/>
<path d="M123.871 154.494C144.301 154.494 160.862 137.933 160.862 117.503C160.862 97.0736 144.301 80.5122 123.871 80.5122C103.441 80.5122 86.88 97.0736 86.88 117.503C86.88 137.933 103.441 154.494 123.871 154.494Z" fill="#EF7816"/>
<path d="M123.871 147.904C140.661 147.904 154.272 134.293 154.272 117.503C154.272 100.713 140.661 87.1021 123.871 87.1021C107.081 87.1021 93.47 100.713 93.47 117.503C93.47 134.293 107.081 147.904 123.871 147.904Z" fill="#FFC91D"/>
<path d="M123.871 141.549C137.151 141.549 147.917 130.783 147.917 117.503C147.917 104.223 137.151 93.457 123.871 93.457C110.591 93.457 99.825 104.223 99.825 117.503C99.825 130.783 110.591 141.549 123.871 141.549Z" fill="#EF7816"/>
<path d="M123.871 136.291C134.247 136.291 142.659 127.879 142.659 117.503C142.659 107.127 134.247 98.7151 123.871 98.7151C113.495 98.7151 105.083 107.127 105.083 117.503C105.083 127.879 113.495 136.291 123.871 136.291Z" fill="#F79219"/>
<path d="M123.871 130.239C130.905 130.239 136.607 124.537 136.607 117.503C136.607 110.469 130.905 104.767 123.871 104.767C116.837 104.767 111.135 110.469 111.135 117.503C111.135 124.537 116.837 130.239 123.871 130.239Z" fill="#EF7816"/>
<path d="M61.087 143.51C84.8391 143.51 104.094 124.255 104.094 100.503C104.094 76.751 84.8391 57.4961 61.087 57.4961C37.3349 57.4961 18.08 76.751 18.08 100.503C18.08 124.255 37.3349 143.51 61.087 143.51Z" fill="#FFA91A"/>
<path d="M61.087 137.494C81.5166 137.494 98.078 120.933 98.078 100.503C98.078 80.0736 81.5166 63.5122 61.087 63.5122C40.6574 63.5122 24.096 80.0736 24.096 100.503C24.096 120.933 40.6574 137.494 61.087 137.494Z" fill="#EF7816"/>
<path d="M61.087 130.904C77.877 130.904 91.488 117.293 91.488 100.503C91.488 83.7131 77.877 70.1021 61.087 70.1021C44.297 70.1021 30.686 83.7131 30.686 100.503C30.686 117.293 44.297 130.904 61.087 130.904Z" fill="#FFC91D"/>
<path d="M61.087 124.549C74.3672 124.549 85.133 113.783 85.133 100.503C85.133 87.2228 74.3672 76.457 61.087 76.457C47.8068 76.457 37.041 87.2228 37.041 100.503C37.041 113.783 47.8068 124.549 61.087 124.549Z" fill="#EF7816"/>
<path d="M61.087 119.291C71.4633 119.291 79.875 110.879 79.875 100.503C79.875 90.1268 71.4633 81.7151 61.087 81.7151C50.7107 81.7151 42.299 90.1268 42.299 100.503C42.299 110.879 50.7107 119.291 61.087 119.291Z" fill="#FFA91A"/>
<path d="M61.087 113.239C68.1209 113.239 73.823 107.537 73.823 100.503C73.823 93.4692 68.1209 87.7671 61.087 87.7671C54.0531 87.7671 48.351 93.4692 48.351 100.503C48.351 107.537 54.0531 113.239 61.087 113.239Z" fill="#EF7816"/>
<path d="M100.503 104.094C124.255 104.094 143.51 84.8392 143.51 61.0871C143.51 37.335 124.255 18.0801 100.503 18.0801C76.7509 18.0801 57.496 37.335 57.496 61.0871C57.496 84.8392 76.7509 104.094 100.503 104.094Z" fill="#FFA91A"/>
<path d="M100.503 98.0782C120.933 98.0782 137.494 81.5168 137.494 61.0872C137.494 40.6576 120.933 24.0962 100.503 24.0962C80.0734 24.0962 63.512 40.6576 63.512 61.0872C63.512 81.5168 80.0734 98.0782 100.503 98.0782Z" fill="#EF7816"/>
<path d="M100.503 91.488C117.293 91.488 130.904 77.877 130.904 61.087C130.904 44.297 117.293 30.686 100.503 30.686C83.713 30.686 70.102 44.297 70.102 61.087C70.102 77.877 83.713 91.488 100.503 91.488Z" fill="#FFA91A"/>
<path d="M100.503 85.133C113.783 85.133 124.549 74.3673 124.549 61.087C124.549 47.8068 113.783 37.041 100.503 37.041C87.2228 37.041 76.457 47.8068 76.457 61.087C76.457 74.3673 87.2228 85.133 100.503 85.133Z" fill="#EF7816"/>
<path d="M100.503 79.8751C110.879 79.8751 119.291 71.4634 119.291 61.0871C119.291 50.7107 110.879 42.2991 100.503 42.2991C90.1267 42.2991 81.715 50.7107 81.715 61.0871C81.715 71.4634 90.1267 79.8751 100.503 79.8751Z" fill="#FFC91D"/>
<path d="M100.503 73.8231C107.537 73.8231 113.239 68.121 113.239 61.0871C113.239 54.0532 107.537 48.3511 100.503 48.3511C93.4691 48.3511 87.767 54.0532 87.767 61.0871C87.767 68.121 93.4691 73.8231 100.503 73.8231Z" fill="#EF7816"/>
<path d="M130.913 134.504C154.665 134.504 173.92 115.249 173.92 91.4972C173.92 67.7451 154.665 48.4902 130.913 48.4902C107.161 48.4902 87.906 67.7451 87.906 91.4972C87.906 115.249 107.161 134.504 130.913 134.504Z" fill="#FFC91D"/>
<path d="M130.913 128.488C151.343 128.488 167.904 111.927 167.904 91.4971C167.904 71.0675 151.343 54.5061 130.913 54.5061C110.483 54.5061 93.922 71.0675 93.922 91.4971C93.922 111.927 110.483 128.488 130.913 128.488Z" fill="#EF7816"/>
<path d="M130.913 121.898C147.703 121.898 161.314 108.287 161.314 91.4972C161.314 74.7072 147.703 61.0962 130.913 61.0962C114.123 61.0962 100.512 74.7072 100.512 91.4972C100.512 108.287 114.123 121.898 130.913 121.898Z" fill="#FFA91A"/>
<path d="M130.913 115.543C144.193 115.543 154.959 104.777 154.959 91.4972C154.959 78.2169 144.193 67.4512 130.913 67.4512C117.633 67.4512 106.867 78.2169 106.867 91.4972C106.867 104.777 117.633 115.543 130.913 115.543Z" fill="#EF7816"/>
<path d="M130.913 110.285C141.289 110.285 149.701 101.874 149.701 91.4972C149.701 81.1209 141.289 72.7092 130.913 72.7092C120.537 72.7092 112.125 81.1209 112.125 91.4972C112.125 101.874 120.537 110.285 130.913 110.285Z" fill="#FFA91A"/>
<path d="M130.913 104.233C137.947 104.233 143.649 98.5311 143.649 91.4972C143.649 84.4633 137.947 78.7612 130.913 78.7612C123.879 78.7612 118.177 84.4633 118.177 91.4972C118.177 98.5311 123.879 104.233 130.913 104.233Z" fill="#EF7816"/>
<path d="M205.48 8.6332C209.108 12.2612 209.004 18.1752 205.251 21.6742L141.187 82.0122L132.102 72.9272L192.44 8.8632C195.938 5.1082 201.852 5.0042 205.48 8.6332Z" fill="#E6E7E8"/>
<path d="M205.48 8.63316C204.592 7.74516 203.567 7.08116 202.474 6.63916C203.838 10.0122 203.086 14.0322 200.251 16.6742L136.186 77.0122L132.101 72.9272L141.186 82.0122L205.251 21.6742C209.005 18.1752 209.109 12.2612 205.48 8.63316Z" fill="#D1D3D4"/>
<path d="M93.186 107.026L116.582 83.6301C117.868 82.3441 119.954 82.3441 121.24 83.6301C122.526 84.9161 122.526 87.0011 121.24 88.2881L97.844 111.684C96.769 112.759 96.769 114.502 97.844 115.577L98.537 116.27C99.612 117.345 101.355 117.345 102.43 116.27L125.826 92.8741C127.112 91.5881 129.198 91.5881 130.484 92.8741C131.77 94.1601 131.77 96.2461 130.484 97.5321L107.088 120.928C106.013 122.003 106.013 123.746 107.088 124.821L107.876 125.609C108.951 126.684 110.694 126.684 111.769 125.609L141.607 95.7711C145.29 92.0881 145.29 86.1161 141.607 82.4321L131.683 72.5081C128 68.8251 122.028 68.8251 118.344 72.5081L88.506 102.346C87.431 103.421 87.431 105.164 88.506 106.239L89.294 107.027C90.368 108.101 92.111 108.101 93.186 107.026Z" fill="#E6E7E8"/>
<path d="M144.262 87.6863C143.972 89.6093 143.087 91.4603 141.606 92.9413L111.768 122.779C110.693 123.854 108.951 123.854 107.876 122.779L107.088 121.991C106.925 121.828 106.786 121.649 106.672 121.459C106.038 122.517 106.176 123.908 107.088 124.819L107.876 125.607C108.951 126.682 110.693 126.682 111.768 125.607L141.606 95.7693C143.809 93.5673 144.694 90.5473 144.262 87.6863Z" fill="#D1D3D4"/>
<path d="M91.497 173.92C115.249 173.92 134.504 154.665 134.504 130.913C134.504 107.161 115.249 87.9062 91.497 87.9062C67.7449 87.9062 48.49 107.161 48.49 130.913C48.49 154.665 67.7449 173.92 91.497 173.92Z" fill="#FFA91A"/>
<path d="M91.497 167.904C111.927 167.904 128.488 151.343 128.488 130.913C128.488 110.484 111.927 93.9224 91.497 93.9224C71.0674 93.9224 54.506 110.484 54.506 130.913C54.506 151.343 71.0674 167.904 91.497 167.904Z" fill="#EF7816"/>
<path d="M91.497 161.314C108.287 161.314 121.898 147.703 121.898 130.913C121.898 114.123 108.287 100.512 91.497 100.512C74.707 100.512 61.096 114.123 61.096 130.913C61.096 147.703 74.707 161.314 91.497 161.314Z" fill="#FFC91D"/>
<path d="M91.497 154.959C104.777 154.959 115.543 144.193 115.543 130.913C115.543 117.633 104.777 106.867 91.497 106.867C78.2168 106.867 67.451 117.633 67.451 130.913C67.451 144.193 78.2168 154.959 91.497 154.959Z" fill="#EF7816"/>
<path d="M91.497 149.701C101.873 149.701 110.285 141.29 110.285 130.913C110.285 120.537 101.873 112.125 91.497 112.125C81.1207 112.125 72.709 120.537 72.709 130.913C72.709 141.29 81.1207 149.701 91.497 149.701Z" fill="#FFA91A"/>
<path d="M91.497 143.649C98.5309 143.649 104.233 137.947 104.233 130.913C104.233 123.879 98.5309 118.177 91.497 118.177C84.4631 118.177 78.761 123.879 78.761 130.913C78.761 137.947 84.4631 143.649 91.497 143.649Z" fill="#EF7816"/>
<path d="M101.433 60.86C107.182 60.86 111.843 56.1993 111.843 50.45C111.843 44.7008 107.182 40.04 101.433 40.04C95.6837 40.04 91.023 44.7008 91.023 50.45C91.023 56.1993 95.6837 60.86 101.433 60.86Z" fill="#E8566F"/>
<path d="M105.858 41.0251C106.49 42.3681 106.843 43.8681 106.843 45.4501C106.843 51.2001 102.182 55.8611 96.433 55.8611C94.851 55.8611 93.351 55.5071 92.008 54.8761C93.671 58.4131 97.266 60.8611 101.433 60.8611C107.182 60.8611 111.843 56.2001 111.843 50.4501C111.843 46.2831 109.394 42.6881 105.858 41.0251Z" fill="#E63950"/>
<path d="M62.419 108.953C68.1683 108.953 72.829 104.292 72.829 98.5431C72.829 92.7938 68.1683 88.1331 62.419 88.1331C56.6697 88.1331 52.009 92.7938 52.009 98.5431C52.009 104.292 56.6697 108.953 62.419 108.953Z" fill="#E8566F"/>
<path d="M66.844 89.1182C67.476 90.4612 67.829 91.9612 67.829 93.5432C67.829 99.2932 63.168 103.954 57.419 103.954C55.837 103.954 54.337 103.6 52.994 102.969C54.657 106.506 58.252 108.954 62.419 108.954C68.168 108.954 72.829 104.293 72.829 98.5432C72.83 94.3752 70.381 90.7812 66.844 89.1182Z" fill="#E63950"/>
<path d="M108.73 151.059C114.479 151.059 119.14 146.398 119.14 140.649C119.14 134.9 114.479 130.239 108.73 130.239C102.981 130.239 98.32 134.9 98.32 140.649C98.32 146.398 102.981 151.059 108.73 151.059Z" fill="#E8566F"/>
<path d="M113.155 131.224C113.787 132.567 114.14 134.067 114.14 135.649C114.14 141.399 109.479 146.06 103.73 146.06C102.148 146.06 100.648 145.706 99.305 145.075C100.968 148.612 104.563 151.06 108.73 151.06C114.479 151.06 119.14 146.399 119.14 140.649C119.141 136.482 116.692 132.887 113.155 131.224Z" fill="#E63950"/>
<path d="M37.573 125.839L35.123 123.389C34.732 122.998 34.732 122.365 35.123 121.975L40.665 116.433C41.056 116.042 41.689 116.042 42.079 116.433L44.529 118.883C44.92 119.274 44.92 119.907 44.529 120.297L38.987 125.839C38.597 126.23 37.964 126.23 37.573 125.839Z" fill="#76A34F"/>
<path d="M129.673 118.129L127.223 115.679C126.832 115.288 126.832 114.655 127.223 114.265L132.765 108.723C133.156 108.332 133.789 108.332 134.179 108.723L136.629 111.173C137.02 111.564 137.02 112.197 136.629 112.587L131.087 118.129C130.697 118.52 130.063 118.52 129.673 118.129Z" fill="#76A34F"/>
<path d="M77.622 44.7432L75.172 42.2932C74.781 41.9022 74.781 41.2692 75.172 40.8792L80.714 35.3372C81.105 34.9462 81.738 34.9462 82.128 35.3372L84.578 37.7872C84.969 38.1782 84.969 38.8112 84.578 39.2012L79.036 44.7432C78.646 45.1342 78.013 45.1342 77.622 44.7432Z" fill="#76A34F"/>
<path d="M82.624 82.7981L80.174 85.2481C79.783 85.6391 79.15 85.6391 78.76 85.2481L73.218 79.7061C72.827 79.3151 72.827 78.6821 73.218 78.2921L75.668 75.8421C76.059 75.4511 76.692 75.4511 77.082 75.8421L82.624 81.3841C83.014 81.7741 83.014 82.4071 82.624 82.7981Z" fill="#76A34F"/>
<path d="M160.432 100.503H156.448C155.592 100.503 154.898 101.197 154.898 102.053C154.898 102.909 154.204 103.603 153.348 103.603H153.038C152.182 103.603 151.488 104.297 151.488 105.153V109.138C151.488 109.994 152.182 110.688 153.038 110.688H157.022C157.878 110.688 158.572 109.994 158.572 109.138C158.572 108.282 159.266 107.588 160.122 107.588H160.432C161.288 107.588 161.982 106.894 161.982 106.038V102.053C161.982 101.197 161.288 100.503 160.432 100.503Z" fill="#8C3F0A"/>
<path d="M160.432 100.503H159.982V104.038C159.982 104.894 159.288 105.588 158.432 105.588H158.122C157.266 105.588 156.572 106.282 156.572 107.138C156.572 107.994 155.878 108.688 155.022 108.688H151.487V109.138C151.487 109.994 152.181 110.688 153.037 110.688H157.021C157.877 110.688 158.571 109.994 158.571 109.138C158.571 108.282 159.265 107.588 160.121 107.588H160.431C161.287 107.588 161.981 106.894 161.981 106.038V102.054C161.982 101.197 161.288 100.503 160.432 100.503Z" fill="#7C3108"/>
<path d="M85.708 58.4192H81.724C80.868 58.4192 80.174 59.1132 80.174 59.9692C80.174 60.8252 79.48 61.5192 78.624 61.5192H78.314C77.458 61.5192 76.764 62.2132 76.764 63.0692V67.0542C76.764 67.9102 77.458 68.6042 78.314 68.6042H82.298C83.154 68.6042 83.848 67.9102 83.848 67.0542C83.848 66.1982 84.542 65.5042 85.398 65.5042H85.708C86.564 65.5042 87.258 64.8102 87.258 63.9542V59.9692C87.259 59.1132 86.564 58.4192 85.708 58.4192Z" fill="#8C3F0A"/>
<path d="M85.708 58.418H85.258V61.953C85.258 62.809 84.564 63.503 83.708 63.503H83.398C82.542 63.503 81.848 64.197 81.848 65.053C81.848 65.909 81.154 66.603 80.298 66.603H76.763V67.053C76.763 67.909 77.457 68.603 78.313 68.603H82.297C83.153 68.603 83.847 67.909 83.847 67.053C83.847 66.197 84.541 65.503 85.397 65.503H85.707C86.563 65.503 87.257 64.809 87.257 63.953V59.969C87.259 59.112 86.564 58.418 85.708 58.418Z" fill="#7C3108"/>
<path d="M37.673 96.8152H33.689C32.833 96.8152 32.139 97.5092 32.139 98.3652C32.139 99.2212 31.445 99.9152 30.589 99.9152H30.279C29.423 99.9152 28.729 100.609 28.729 101.465V105.45C28.729 106.306 29.423 107 30.279 107H34.263C35.119 107 35.813 106.306 35.813 105.45C35.813 104.594 36.507 103.9 37.363 103.9H37.673C38.529 103.9 39.223 103.206 39.223 102.35V98.3652C39.223 97.5092 38.529 96.8152 37.673 96.8152Z" fill="#8C3F0A"/>
<path d="M37.673 96.814H37.223V100.349C37.223 101.205 36.529 101.899 35.673 101.899H35.363C34.507 101.899 33.813 102.593 33.813 103.449C33.813 104.305 33.119 104.999 32.263 104.999H28.728V105.449C28.728 106.305 29.422 106.999 30.278 106.999H34.262C35.118 106.999 35.812 106.305 35.812 105.449C35.812 104.593 36.506 103.899 37.362 103.899H37.672C38.528 103.899 39.222 103.205 39.222 102.349V98.364C39.223 97.509 38.529 96.814 37.673 96.814Z" fill="#7C3108"/>
<path d="M99.697 116.805H95.713C94.857 116.805 94.163 117.499 94.163 118.355C94.163 119.211 93.469 119.905 92.613 119.905H92.303C91.447 119.905 90.753 120.599 90.753 121.455V125.44C90.753 126.296 91.447 126.99 92.303 126.99H96.287C97.143 126.99 97.837 126.296 97.837 125.44C97.837 124.584 98.531 123.89 99.387 123.89H99.697C100.553 123.89 101.247 123.196 101.247 122.34V118.355C101.247 117.499 100.553 116.805 99.697 116.805Z" fill="#8C3F0A"/>
<path d="M99.697 116.805H99.247V120.34C99.247 121.196 98.553 121.89 97.697 121.89H97.387C96.531 121.89 95.837 122.584 95.837 123.44C95.837 124.296 95.143 124.99 94.287 124.99H90.752V125.44C90.752 126.296 91.446 126.99 92.302 126.99H96.286C97.142 126.99 97.836 126.296 97.836 125.44C97.836 124.584 98.53 123.89 99.386 123.89H99.696C100.552 123.89 101.246 123.196 101.246 122.34V118.356C101.247 117.499 100.553 116.805 99.697 116.805Z" fill="#7C3108"/>
</svg>
