<svg width="14" height="21" viewBox="0 0 14 21" fill="none" xmlns="http://www.w3.org/2000/svg">
<g clip-path="url(#clip0_164_3825)">
<path d="M3.95508 20.2117L4.08661 20.9531C4.08661 20.9531 8.19744 21.0821 10.3286 20.8886L10.4423 20.1426L3.95508 20.2117Z" fill="#5B332B"/>
<path d="M4.86433 5.06497C4.86433 5.06497 4.86433 6.20016 4.73949 6.33141C4.61465 6.46266 0 8.51892 0 13.0459C0 17.5729 3.95478 20.2117 3.95478 20.2117C3.95478 20.2117 7.52166 20.6008 10.4465 20.1472C10.4465 20.1472 14.3924 16.4377 13.9688 12.5278C13.5229 8.44293 9.19586 6.40049 9.16465 6.21628C9.13344 6.03207 9.0465 4.98438 9.0465 4.98438L4.86433 5.06497Z" fill="#5F352D"/>
<path opacity="0.5" d="M9.14014 5.9983C9.10224 5.63219 9.04651 4.97363 9.04651 4.97363L4.86435 5.06574C4.86435 5.06574 4.86435 5.60686 4.82422 5.98679C6.25003 5.70216 7.71577 5.70607 9.14014 5.9983Z" fill="#47221A"/>
<path d="M5.5 1.95901L5.65605 3.38433L8.19745 3.41657L8.29331 1.89453L5.5 1.95901Z" fill="#5B332B"/>
<path d="M4.99609 4.4229L5.0273 2.89856H8.85724L8.88845 4.48738L4.99609 4.4229Z" fill="#5F352D"/>
<path d="M4.40039 4.25982L4.52523 5.36278L9.39179 5.42725L9.51663 4.09863L4.40039 4.25982Z" fill="#915E54"/>
<path d="M4.875 2.05353C4.875 2.05353 5.85589 0.496952 6.17022 0.211426C6.48455 -0.0741007 7.38073 -0.0188375 7.63264 0.117018C7.88455 0.252873 9.00812 2.07195 9.00812 2.07195C9.00812 2.07195 6.91035 2.6384 4.875 2.05353Z" fill="#915E54"/>
<path d="M6.93341 0.789258C7.10457 0.770079 7.26795 0.70522 7.40749 0.601059C7.54703 0.496898 7.65792 0.35702 7.72927 0.195179C7.70139 0.162219 7.66912 0.133532 7.63341 0.109981C7.3815 -0.018966 6.48532 -0.088045 6.17099 0.204389L6.13086 0.248139C6.19609 0.411487 6.30767 0.550607 6.45093 0.647194C6.59418 0.743781 6.76238 0.793308 6.93341 0.789258Z" fill="#B38A81"/>
<path d="M7.16954 7.6604C4.01286 7.59823 1.59184 10.3384 1.467 13.2074C1.3377 16.1893 3.68961 19.1736 6.91095 19.2449C10.1323 19.3163 12.638 16.4127 12.6269 13.4193C12.6113 10.5617 10.3195 7.72718 7.16954 7.6604Z" fill="#EEB458"/>
<path d="M7.08957 8.09781C4.20931 8.03564 2.00676 10.5409 1.88861 13.159C1.76823 15.8876 3.91504 18.6024 6.84657 18.6692C9.7781 18.736 12.0698 16.0856 12.0609 13.3547C12.0498 10.7458 9.9609 8.15998 7.08957 8.09781Z" fill="#915E54"/>
<path d="M8.76607 14.8766C7.65142 14.4713 6.53677 14.0775 5.35078 13.9923C4.21409 13.9018 3.07209 14.0725 2.00684 14.492C2.49505 16.7048 4.39665 18.6137 6.84442 18.669C7.76347 18.6798 8.66843 18.4352 9.46458 17.9608C10.2607 17.4864 10.9188 16.7997 11.3699 15.9726C10.6476 15.3808 9.58645 15.1759 8.76607 14.8766Z" fill="#C4A572"/>
<path d="M6.37793 0.204506C6.37793 0.204506 6.87283 1.03115 7.50818 0.204506C7.14382 0.0633823 6.74229 0.0633823 6.37793 0.204506Z" fill="#5B332B"/>
<path d="M6.38427 13.2372C6.38427 13.2372 5.76899 11.5655 8.00275 10.5638L8.15211 11.2224C8.15211 11.2224 8.63364 10.5178 10.4461 10.4971C10.1986 11.0772 9.91106 11.6382 9.58555 12.1757L10.2187 12.3231C10.2187 12.3231 9.11517 14.6856 6.38427 13.2372Z" fill="#708F39"/>
<path d="M6.60942 12.5237C7.10432 12.4937 7.56579 11.4644 7.1935 10.5733L6.8056 10.8473C6.8056 10.8473 6.37757 9.8549 5.61069 9.44043L5.7333 11.0016L5.11133 10.875C5.11133 10.875 5.10018 12.6181 6.60942 12.5237Z" fill="#80A23E"/>
<path d="M4.37406 11.3013C3.92329 11.3057 3.47819 11.4057 3.06634 11.595C2.6545 11.7843 2.28468 12.059 1.97979 12.402C1.9303 12.6517 1.89974 12.905 1.88839 13.1595C1.86354 14.1768 2.11628 15.1807 2.61773 16.0566C3.11918 16.9324 3.8491 17.6449 4.72406 18.1125C5.57682 18.0346 6.36701 17.6178 6.92813 16.95C7.48925 16.2822 7.77749 15.4154 7.73212 14.5324C7.68674 13.6494 7.3113 12.8191 6.68489 12.2163C6.05848 11.6136 5.23002 11.2856 4.37406 11.3013Z" fill="#F2DFBF"/>
<path d="M12.0044 14.1102C11.7367 13.7092 11.389 13.3719 10.9847 13.1211C10.5804 12.8703 10.1288 12.7118 9.66022 12.6561C9.19168 12.6005 8.71703 12.649 8.26816 12.7985C7.81928 12.948 7.40656 13.195 7.05772 13.5228C6.70887 13.8506 6.43197 14.2518 6.24561 14.6993C6.05925 15.1468 5.96774 15.6303 5.97723 16.1173C5.98672 16.6044 6.09699 17.0837 6.30063 17.5231C6.50427 17.9624 6.79658 18.3517 7.15791 18.6648C9.68148 18.5566 11.6544 16.4589 12.0044 14.1102Z" fill="#FAE6C5"/>
<path d="M8.76986 12.5512C8.09441 12.6222 7.45356 12.8947 6.92549 13.3355C6.39741 13.7762 6.00495 14.3662 5.79597 15.0335C5.54183 15.9407 5.86731 16.369 5.97432 16.0858C5.97432 16.0858 6.52272 14.4555 7.34979 14.7042C8.50234 15.0703 7.91381 17.7436 8.46444 17.769C9.14661 17.7989 8.53578 14.5821 9.78196 13.9029C10.6581 13.4262 11.5453 14.345 11.8664 14.7341C11.9452 14.4646 12.0026 14.1889 12.038 13.9098C11.7103 13.4377 10.7695 12.3923 8.76986 12.5512Z" fill="#542F29"/>
<path d="M5.15225 12.0119C5.13888 11.83 5.62486 11.6366 6.34716 11.9267C6.39397 11.5214 5.32614 10.9711 3.9306 11.1323C3.2369 11.1943 2.58395 11.497 2.07805 11.9912C1.96976 12.3711 1.90614 12.763 1.88856 13.1586C1.87664 13.43 1.88708 13.7019 1.91977 13.9714C2.04702 13.7641 2.21207 13.5842 2.40576 13.4418C2.81372 13.1494 3.16149 13.5984 3.2083 14.1004C3.25512 14.6024 3.2083 15.931 3.50703 15.9425C3.80575 15.954 3.75448 15.4267 3.75671 15.2517C3.77232 13.6951 3.95958 12.9076 4.62614 12.7441C4.84417 12.7085 5.06744 12.7322 5.27388 12.813C5.48031 12.8937 5.66277 13.0287 5.80321 13.2047C6.07982 13.56 6.29341 13.963 6.4341 14.3951C6.60853 14.2401 6.83274 14.158 7.06276 14.1649C6.28474 12.5599 5.17677 12.3158 5.15225 12.0119Z" fill="#542F29"/>
<g style="mix-blend-mode:multiply" opacity="0.3">
<path d="M2.53223 15.9014C2.95393 16.7119 3.57436 17.3937 4.33142 17.8786C5.08847 18.3636 5.95558 18.6346 6.84592 18.6645C7.77126 18.6847 8.68325 18.4341 9.47649 17.9415C7.07554 18.7244 6.02554 16.7902 6.02554 16.7902C4.54528 17.4741 2.98032 16.6612 2.53223 15.9014Z" fill="#E6C38F"/>
</g>
<path d="M3.14734 8.11355C2.84639 7.84875 1.3483 9.6402 1.65817 9.86355C2.00594 10.1122 3.42378 8.35302 3.14734 8.11355Z" fill="#FFF9CE"/>
<path d="M1.21245 10.4369C0.87137 10.377 0.474555 11.4846 0.766593 11.6043C1.05863 11.7241 1.58029 10.5014 1.21245 10.4369Z" fill="#FFF9CE"/>
<path d="M9.05314 4.1123L4.77734 4.24816C5.38371 4.41395 7.68435 4.60507 9.05314 4.1123Z" fill="#B38A81"/>
</g>
<defs>
<clipPath id="clip0_164_3825">
<rect width="14" height="21" fill="white"/>
</clipPath>
</defs>
</svg>
