<svg width="186" height="190" viewBox="0 0 186 190" fill="none" xmlns="http://www.w3.org/2000/svg">
<path d="M19.747 108.914C14.695 108.914 9.94503 106.946 6.37303 103.374C-1.00097 95.9991 -1.00097 83.9991 6.37303 76.6241L46.859 36.1391C51.332 31.6651 51.332 24.3871 46.859 19.9141L39.658 12.7121C38.486 11.5401 38.486 9.64106 39.658 8.47006C40.83 7.29806 42.73 7.29806 43.9 8.47006L51.101 15.6721C57.914 22.4841 57.914 33.5681 51.101 40.3811L10.615 80.8661C5.58103 85.9021 5.58103 94.0951 10.615 99.1321C15.651 104.168 23.844 104.167 28.88 99.1321L35.905 92.1071C37.077 90.9351 38.975 90.9351 40.147 92.1071C41.319 93.2781 41.319 95.1781 40.147 96.3491L33.122 103.374C29.55 106.947 24.8 108.914 19.747 108.914Z" fill="#D10028"/>
<path d="M38.8969 91.3569C39.2069 92.3819 38.9569 93.5399 38.1469 94.3489L31.1219 101.374C27.5499 104.946 22.7999 106.914 17.7469 106.914C13.1719 106.914 8.84394 105.3 5.41394 102.341C5.71794 102.694 6.03794 103.039 6.37294 103.374C9.94494 106.946 14.6949 108.914 19.7469 108.914C24.7999 108.914 29.5499 106.946 33.1219 103.374L40.1469 96.3489C41.3189 95.1779 41.3189 93.2779 40.1469 92.1069C39.7859 91.7449 39.3549 91.4949 38.8969 91.3569Z" fill="#B7022D"/>
<path d="M51.101 15.6718L43.9 8.46984C43.898 8.46784 43.896 8.46684 43.894 8.46484L49.101 13.6728C55.914 20.4848 55.914 31.5688 49.101 38.3818L8.61498 78.8668C3.58098 83.9028 3.58098 92.0958 8.61498 97.1328C8.95298 97.4708 9.30598 97.7858 9.67098 98.0788C5.60398 93.0118 5.91798 85.5658 10.615 80.8678L51.101 40.3828C57.914 33.5688 57.914 22.4838 51.101 15.6718Z" fill="#B7022D"/>
<path d="M39.7581 94.448C38.9901 94.448 38.2231 94.155 37.6371 93.569C33.8821 89.816 31.8151 84.825 31.8151 79.515C31.8151 74.205 33.8821 69.214 37.6371 65.461L73.7831 29.315C79.1921 23.905 79.1921 15.101 73.7831 9.69097L69.4741 5.38296C68.3021 4.21196 68.3021 2.31296 69.4741 1.14096C70.6441 -0.0310371 72.5441 -0.0310371 73.7161 1.14096L78.0251 5.44897C85.7741 13.198 85.7741 25.808 78.0251 33.557L41.8791 69.703C39.2581 72.324 37.8151 75.808 37.8151 79.515C37.8151 83.222 39.2581 86.705 41.8791 89.327C43.0511 90.498 43.0511 92.397 41.8791 93.569C41.2941 94.155 40.5251 94.448 39.7581 94.448Z" fill="#D10028"/>
<path d="M71.7991 7.71C71.7931 7.704 71.7881 7.698 71.7821 7.692L69.4651 5.375C69.4681 5.378 69.4711 5.381 69.4741 5.384L71.7991 7.71Z" fill="#B7022D"/>
<path d="M78.0241 33.5591C85.7731 25.8101 85.7731 13.2001 78.0241 5.45108L76.0591 3.48608C83.7731 11.2381 83.7621 23.8221 76.0241 31.5591L39.8781 67.7051C37.2571 70.3261 35.8141 73.8101 35.8141 77.5171C35.8141 81.2241 37.2571 84.7071 39.8781 87.3291C41.0501 88.5001 41.0501 90.3991 39.8781 91.5711C39.2931 92.1571 38.5241 92.4501 37.7571 92.4501C37.2401 92.4501 36.7231 92.3171 36.2611 92.0511C36.6901 92.5771 37.1491 93.0851 37.6361 93.5721C38.2221 94.1581 38.9901 94.4511 39.7571 94.4511C40.5241 94.4511 41.2931 94.1581 41.8781 93.5721C43.0501 92.4001 43.0501 90.5011 41.8781 89.3301C39.2571 86.7091 37.8141 83.2251 37.8141 79.5181C37.8141 75.8111 39.2571 72.3281 41.8781 69.7061L78.0241 33.5591Z" fill="#B7022D"/>
<path d="M75.356 53.553L38.75 90.159C37.341 91.568 37.341 93.853 38.75 95.262C53.66 110.172 77.833 110.172 92.743 95.262L94.321 93.684C108.12 79.885 130.603 78.862 144.884 92.163C159.877 106.126 160.192 129.609 145.828 143.972L132.522 157.278L143.039 167.795L166.319 144.515C191.438 119.396 191.438 78.671 166.319 53.552C141.2 28.434 100.474 28.434 75.356 53.553Z" fill="#E63950"/>
<path d="M134.964 82.163C120.683 68.863 98.2 69.885 84.401 83.684L82.823 85.262C70.647 97.438 52.294 99.67 37.852 91.959C37.607 93.114 37.933 94.365 38.829 95.262C53.739 110.172 77.912 110.172 92.822 95.262L94.4 93.684C106.815 81.269 126.257 79.197 140.433 88.59C138.903 86.293 137.08 84.134 134.964 82.163Z" fill="#D10028"/>
<path d="M166.399 53.553C164.709 51.863 162.949 50.287 161.127 48.825C181.404 74.08 179.828 111.087 156.399 134.516L133.119 157.795L143.119 167.795L166.399 144.516C191.518 119.397 191.518 78.672 166.399 53.553Z" fill="#D10028"/>
<path d="M139.884 87.163C125.603 73.863 103.12 74.885 89.321 88.684L87.743 90.262C74.141 103.864 52.829 105.056 37.875 93.841C38.046 94.361 38.337 94.849 38.75 95.262C53.66 110.172 77.833 110.172 92.743 95.262L94.321 93.684C107.592 80.413 128.895 78.959 143.21 90.699C142.195 89.466 141.087 88.284 139.884 87.163Z" fill="#B7022D"/>
<path d="M166.319 53.5531C165.48 52.7141 164.624 51.9041 163.751 51.1211C186.409 76.3751 185.598 115.236 161.319 139.516L138.039 162.795L132.522 157.278L143.039 167.795L166.319 144.516C191.437 119.397 191.437 78.6721 166.319 53.5531Z" fill="#B7022D"/>
<path d="M73.479 82.0871C77.298 82.0871 80.394 78.9911 80.394 75.1721C80.394 71.353 77.298 68.2571 73.479 68.2571C69.6599 68.2571 66.564 71.353 66.564 75.1721C66.564 78.9911 69.6599 82.0871 73.479 82.0871Z" fill="#B7022D"/>
<path d="M111.863 160.755C111.863 165.763 119.59 169.824 129.123 169.824C130.072 169.824 130.997 169.773 131.904 169.696C131.827 170.604 131.776 171.528 131.776 172.478C131.776 182.01 135.836 189.738 140.845 189.738C145.853 189.738 149.914 182.011 149.914 172.478C149.914 165.584 147.785 159.652 144.715 156.886C141.949 153.816 136.017 151.687 129.123 151.687C119.591 151.686 111.863 155.746 111.863 160.755Z" fill="#E8566F"/>
<path d="M144.714 156.884C143.987 156.077 143.042 155.336 141.918 154.68C143.756 157.834 144.913 162.393 144.913 167.475C144.913 177.007 140.853 184.735 135.844 184.735C135.331 184.735 134.827 184.654 134.337 184.498C135.985 187.728 138.291 189.735 140.844 189.735C145.853 189.735 149.913 182.007 149.913 172.475C149.913 165.583 147.785 159.65 144.714 156.884Z" fill="#E63950"/>
<path d="M97.043 39.2689L105.504 86.0119C108.857 84.5139 112.383 83.5079 115.968 83.0459L107.475 36.1279C103.933 36.8759 100.442 37.9179 97.043 39.2689Z" fill="#E8566F"/>
<path d="M103.242 73.5159L105.504 86.0119C108.857 84.5139 112.383 83.5079 115.968 83.0459L114.13 72.8929C110.503 72.5599 106.829 72.7709 103.242 73.5159Z" fill="#E63950"/>
<path d="M170.358 58.0001C169.09 56.4731 167.75 54.9851 166.319 53.5531C165.099 52.3331 163.833 51.1911 162.543 50.0901L138.932 87.7121C141.028 88.9601 143.028 90.4351 144.884 92.1641C145.753 92.9731 146.561 93.8211 147.331 94.6911L170.358 58.0001Z" fill="#E8566F"/>
<path d="M182.326 117.912L156.3 119.91C156.156 123.654 155.442 127.372 154.136 130.932L177.7 129.123C179.612 125.512 181.15 121.756 182.326 117.912Z" fill="#E8566F"/>
<path d="M177.7 129.124C179.612 125.513 181.15 121.756 182.326 117.913L167.836 119.025C165.717 123.044 163.143 126.886 160.114 130.474L177.7 129.124Z" fill="#E63950"/>
</svg>
