<svg width="144" height="212" viewBox="0 0 144 212" fill="none" xmlns="http://www.w3.org/2000/svg">
<path d="M77.0601 17.3131H33.9021C32.0621 17.3131 30.5701 15.8211 30.5701 13.9811V4.19406C30.5701 2.35406 32.0621 0.862061 33.9021 0.862061H77.0611C78.9011 0.862061 80.3931 2.35406 80.3931 4.19406V13.9811C80.3921 15.8211 78.9011 17.3131 77.0601 17.3131Z" fill="#F7CB15"/>
<path d="M77.0601 0.862061H70.3921V3.98106C70.3921 5.82106 68.9001 7.31306 67.0601 7.31306H30.5701V13.9811C30.5701 15.8211 32.0621 17.3131 33.9021 17.3131H77.0611C78.9011 17.3131 80.3931 15.8211 80.3931 13.9811V4.19406C80.3921 2.35406 78.9011 0.862061 77.0601 0.862061Z" fill="#FFA91A"/>
<path d="M107.405 60.7091L78.912 31.0111C77.126 29.1491 76.128 26.6681 76.128 24.0881V17.3131H34.834V24.0881C34.834 26.6681 33.836 29.1491 32.05 31.0111L3.55801 60.7091C1.72901 62.6151 0.708008 65.1551 0.708008 67.7971V200.787C0.708008 206.504 5.34201 211.138 11.059 211.138H99.905C105.622 211.138 110.256 206.504 110.256 200.787V67.7971C110.255 65.1551 109.234 62.6161 107.405 60.7091Z" fill="#377DE2"/>
<path d="M107.405 60.7091L78.912 31.0111C77.126 29.1491 76.128 26.6681 76.128 24.0881V17.3131H56.128V18.1091L87.405 50.7091C89.234 52.6151 90.255 55.1551 90.255 57.7971V190.787C90.255 196.504 85.621 201.138 79.904 201.138H0.713989C0.898989 206.692 5.45899 211.138 11.059 211.138H99.905C105.622 211.138 110.256 206.504 110.256 200.787V67.7971C110.255 65.1551 109.234 62.6151 107.405 60.7091Z" fill="#2266D3"/>
<path d="M9.56506 81.5971V198.238C9.56506 200.123 11.0931 201.651 12.9781 201.651H97.9851C99.8701 201.651 101.398 200.123 101.398 198.238V81.5971C101.398 80.6551 100.634 79.8911 99.6921 79.8911H11.2721C10.3291 79.8901 9.56506 80.6541 9.56506 81.5971Z" fill="#E6E7E8"/>
<path d="M15.5701 182.38C14.4601 182.38 13.5701 181.49 13.5701 180.39V98.4901C13.5701 97.3801 14.4601 96.4901 15.5701 96.4901C16.6701 96.4901 17.5701 97.3801 17.5701 98.4901V180.389C17.5701 181.49 16.6701 182.38 15.5701 182.38ZM15.5701 92.4901C14.4601 92.4901 13.5701 91.5901 13.5701 90.4901C13.5701 89.3891 14.4601 88.4901 15.5701 88.4901C16.6701 88.4901 17.5701 89.3891 17.5701 90.4901C17.5701 91.5901 16.6701 92.4901 15.5701 92.4901Z" fill="white"/>
<path d="M99.691 79.89H91.397V188.238C91.397 190.123 89.869 191.651 87.984 191.651H9.56396V198.238C9.56396 200.123 11.092 201.651 12.977 201.651H97.984C99.869 201.651 101.397 200.123 101.397 198.238V81.597C101.397 80.654 100.633 79.89 99.691 79.89Z" fill="#D1D3D4"/>
<path d="M136.947 211.138H82.475C78.97 211.138 76.129 208.297 76.129 204.792V120.312C76.129 106 88.822 83.1541 109.711 83.1541C130.6 83.1541 143.293 106 143.293 120.312V204.792C143.293 208.296 140.451 211.138 136.947 211.138Z" fill="#478CF7"/>
<path d="M111.649 83.2201C119.13 91.1201 123.293 102.115 123.293 110.312V194.791C123.293 198.296 120.452 201.137 116.947 201.137H76.1281V204.791C76.1281 208.296 78.969 211.137 82.474 211.137H136.946C140.451 211.137 143.292 208.296 143.292 204.791V120.312C143.293 106.448 131.383 84.5771 111.649 83.2201Z" fill="#377DE2"/>
<path d="M133.991 96.5521H85.43C83.359 96.5521 81.681 94.8741 81.681 92.8031V81.7911C81.681 79.7201 83.359 78.0421 85.43 78.0421H133.991C136.062 78.0421 137.74 79.7201 137.74 81.7911V92.8031C137.74 94.8731 136.061 96.5521 133.991 96.5521Z" fill="#F7CB15"/>
<path d="M133.991 78.0421H127.74V82.8031C127.74 84.8741 126.062 86.5521 123.991 86.5521H81.681V92.8031C81.681 94.8741 83.36 96.5521 85.43 96.5521H133.991C136.061 96.5521 137.74 94.8741 137.74 92.8031V81.7911C137.74 79.7201 136.061 78.0421 133.991 78.0421Z" fill="#FFA91A"/>
<path d="M85.847 142.185V198.822C85.847 200.384 87.114 201.651 88.676 201.651H130.745C132.307 201.651 133.574 200.384 133.574 198.822V142.185C133.574 141.404 132.941 140.771 132.16 140.771H87.262C86.48 140.771 85.847 141.404 85.847 142.185Z" fill="#F1F2F2"/>
<path d="M132.159 140.771H123.573V188.822C123.573 190.385 122.306 191.651 120.744 191.651H85.8461V198.822C85.8461 200.385 87.1121 201.651 88.6751 201.651H130.744C132.306 201.651 133.573 200.385 133.573 198.822V142.185C133.574 141.404 132.941 140.771 132.159 140.771Z" fill="#E6E7E8"/>
<path d="M132.159 140.771H128.573V193.822C128.573 195.385 127.306 196.651 125.744 196.651H85.8461V198.822C85.8461 200.385 87.1121 201.651 88.6751 201.651H130.744C132.306 201.651 133.573 200.385 133.573 198.822V142.185C133.574 141.404 132.941 140.771 132.159 140.771Z" fill="#D1D3D4"/>
</svg>
