<svg width="210" height="210" viewBox="0 0 210 210" fill="none" xmlns="http://www.w3.org/2000/svg">
<path d="M108.475 44.0922H78.835C77.571 44.0922 76.547 43.0672 76.547 41.8042V35.0832C76.547 33.8192 77.572 32.7952 78.835 32.7952H108.475C109.739 32.7952 110.763 33.8202 110.763 35.0832V41.8042C110.764 43.0672 109.739 44.0922 108.475 44.0922Z" fill="#F79219"/>
<path d="M108.475 32.7942H105.763V36.8042C105.763 38.0682 104.739 39.0922 103.475 39.0922H76.547V41.8042C76.547 43.0682 77.572 44.0922 78.835 44.0922H108.475C109.739 44.0922 110.763 43.0672 110.763 41.8042V35.0832C110.764 33.8182 109.739 32.7942 108.475 32.7942Z" fill="#EF7816"/>
<path d="M129.315 73.8953L109.747 53.4993C108.52 52.2203 107.835 50.5173 107.835 48.7443V44.0913H79.476V48.7443C79.476 50.5163 78.791 52.2203 77.564 53.4993L57.995 73.8953C56.739 75.2043 56.037 76.9483 56.037 78.7633V170.097C56.037 174.023 59.22 177.206 63.146 177.206H124.163C128.089 177.206 131.272 174.023 131.272 170.097V78.7633C131.273 76.9493 130.571 75.2053 129.315 73.8953Z" fill="#377DE2"/>
<path d="M129.315 73.8953L109.747 53.4993C108.52 52.2203 107.835 50.5173 107.835 48.7443V44.0913H90.316L109.316 63.8943C110.572 65.2033 111.274 66.9473 111.274 68.7623V160.096C111.274 164.022 108.091 167.205 104.165 167.205H56.038V170.096C56.038 174.022 59.221 177.205 63.147 177.205H124.164C128.09 177.205 131.273 174.022 131.273 170.096V78.7623C131.273 76.9493 130.571 75.2053 129.315 73.8953Z" fill="#2266D3"/>
<path d="M62.121 88.2401V168.346C62.121 169.64 63.17 170.69 64.465 170.69H122.846C124.14 170.69 125.19 169.641 125.19 168.346V88.2401C125.19 87.5931 124.665 87.0681 124.018 87.0681H63.293C62.646 87.0691 62.121 87.5931 62.121 88.2401Z" fill="#E6E7E8"/>
<path d="M124.018 87.0691H115.19V158.347C115.19 159.641 114.141 160.691 112.846 160.691H62.121V168.347C62.121 169.641 63.17 170.691 64.465 170.691H122.846C124.14 170.691 125.19 169.642 125.19 168.347V88.2401C125.189 87.5931 124.665 87.0691 124.018 87.0691Z" fill="#D1D3D4"/>
<path d="M68.12 157.29C67.019 157.29 66.12 156.39 66.12 155.29V100.16C66.12 99.0501 67.019 98.1601 68.12 98.1601C69.22 98.1601 70.12 99.0501 70.12 100.16V155.29C70.12 156.39 69.22 157.29 68.12 157.29ZM68.12 94.1501C67.019 94.1501 66.12 93.2601 66.12 92.1501C66.12 91.0501 67.019 90.1501 68.12 90.1501C69.22 90.1501 70.12 91.0501 70.12 92.1501C70.12 93.2601 69.22 94.1501 68.12 94.1501Z" fill="white"/>
<path d="M149.604 177.206H112.194C109.787 177.206 107.836 175.255 107.836 172.848V114.829C107.836 105 116.553 89.3101 130.9 89.3101C145.247 89.3101 153.964 105 153.964 114.829V172.848C153.962 175.255 152.011 177.206 149.604 177.206Z" fill="#478CF7"/>
<path d="M139.971 91.593C142.565 96.023 143.962 100.895 143.962 104.829V162.848C143.962 165.255 142.011 167.207 139.604 167.207H107.835V172.848C107.835 175.255 109.786 177.207 112.193 177.207H149.603C152.01 177.207 153.961 175.256 153.961 172.848V114.829C153.962 107.29 148.834 96.304 139.971 91.593Z" fill="#377DE2"/>
<path d="M147.574 98.5111H114.223C112.801 98.5111 111.648 97.3581 111.648 95.9361V88.3731C111.648 86.9511 112.801 85.7981 114.223 85.7981H147.574C148.996 85.7981 150.149 86.9511 150.149 88.3731V95.9361C150.149 97.3591 148.996 98.5111 147.574 98.5111Z" fill="#FFA91A"/>
<path d="M147.574 85.7991H145.149V90.9371C145.149 92.3591 143.996 93.5121 142.574 93.5121H111.649V95.9371C111.649 97.3591 112.802 98.5121 114.224 98.5121H147.575C148.997 98.5121 150.15 97.3591 150.15 95.9371V88.3741C150.149 86.9521 148.996 85.7991 147.574 85.7991Z" fill="#F79219"/>
<path d="M114.51 129.851V168.748C114.51 169.821 115.38 170.691 116.453 170.691H145.345C146.418 170.691 147.288 169.821 147.288 168.748V129.851C147.288 129.315 146.853 128.88 146.317 128.88H115.482C114.945 128.88 114.51 129.315 114.51 129.851Z" fill="#F1F2F2"/>
<path d="M146.316 128.88H137.287V158.748C137.287 159.821 136.417 160.691 135.344 160.691H114.51V168.748C114.51 169.821 115.38 170.691 116.453 170.691H145.345C146.418 170.691 147.288 169.821 147.288 168.748V129.851C147.287 129.315 146.853 128.88 146.316 128.88Z" fill="#E6E7E8"/>
<path d="M146.316 128.88H142.287V163.748C142.287 164.821 141.417 165.691 140.344 165.691H114.51V168.748C114.51 169.821 115.38 170.691 116.453 170.691H145.345C146.418 170.691 147.288 169.821 147.288 168.748V129.851C147.287 129.315 146.853 128.88 146.316 128.88Z" fill="#D1D3D4"/>
<path d="M170.93 32.0194L32.0215 170.909L39.0925 177.981L178.001 39.0914L170.93 32.0194Z" fill="#E63950"/>
<path d="M175.978 37.0902L37.0888 175.979L39.0884 177.979L177.978 39.0899L175.978 37.0902Z" fill="#D10028"/>
<path d="M105 209.576C47.337 209.576 0.424 162.663 0.424 105C0.424 47.3371 47.337 0.424072 105 0.424072C162.663 0.424072 209.576 47.3371 209.576 105C209.576 162.663 162.663 209.576 105 209.576ZM105 10.4241C52.851 10.4241 10.424 52.8501 10.424 105C10.424 157.15 52.851 199.576 105 199.576C157.149 199.576 199.576 157.15 199.576 105C199.576 52.8501 157.149 10.4241 105 10.4241Z" fill="#E63950"/>
<path d="M35.702 169.297C20.023 152.411 10.424 129.806 10.424 105C10.424 52.8511 52.851 10.4241 105 10.4241C129.806 10.4241 152.411 20.0231 169.298 35.7021C152.014 17.0891 127.344 5.42407 100 5.42407C47.851 5.42407 5.424 47.8501 5.424 100C5.424 127.344 17.088 152.014 35.702 169.297Z" fill="#D10028"/>
<path d="M176.37 28.6311C193.857 47.3321 204.576 72.4381 204.576 100C204.576 157.663 157.663 204.576 100 204.576C72.437 204.576 47.331 193.857 28.63 176.369C47.728 196.792 74.899 209.576 105 209.576C162.663 209.576 209.576 162.663 209.576 105C209.576 74.9001 196.793 47.7291 176.37 28.6311Z" fill="#D10028"/>
</svg>
