<svg width="178" height="180" viewBox="0 0 178 180" fill="none" xmlns="http://www.w3.org/2000/svg">
<path d="M165.526 0.562988H12.4739C8.05588 0.562988 4.47388 4.14499 4.47388 8.56299V18.676C4.47388 23.094 8.05588 26.676 12.4739 26.676H165.527C169.945 26.676 173.527 23.094 173.527 18.676V8.56299C173.526 4.14499 169.945 0.562988 165.526 0.562988Z" fill="#F79219"/>
<path d="M165.526 0.562988H153.526V8.67599C153.526 13.094 149.944 16.676 145.526 16.676H4.47388V18.676C4.47388 23.094 8.05588 26.676 12.4739 26.676H165.527C169.945 26.676 173.527 23.094 173.527 18.676V8.56299C173.526 4.14499 169.945 0.562988 165.526 0.562988Z" fill="#EF7816"/>
<path d="M163.994 26.676C149.995 67.583 152.271 113.496 163.994 162.316H14.0059C25.7289 113.496 28.0049 67.583 14.0059 26.676H163.994Z" fill="#E63950"/>
<path d="M24.2099 145.3C24.0899 145.3 23.9699 145.29 23.8399 145.27C22.7599 145.06 22.0399 144.02 22.2399 142.93C22.4399 141.87 23.5099 141.14 24.5799 141.34C25.6599 141.54 26.3799 142.58 26.1799 143.67C25.9999 144.609 25.1699 145.3 24.2099 145.3ZM25.5999 137.42C25.4899 137.42 25.3799 137.41 25.2699 137.39C24.1799 137.21 23.4399 136.18 23.6199 135.09C26.3099 118.75 27.6699 103.069 27.6699 88.4999C27.6599 68.7899 25.1799 50.1889 20.2699 33.2289C20.1199 32.7189 20.1799 32.1789 20.4399 31.7089C20.6899 31.2389 21.1199 30.8979 21.6299 30.7589C22.6699 30.4589 23.8099 31.0889 24.1099 32.1189C26.6199 40.7989 28.5299 49.9289 29.7799 59.2589C31.0299 68.6089 31.6699 78.4389 31.6599 88.4989C31.6599 103.309 30.2899 119.188 27.5699 135.728V135.739C27.4099 136.72 26.5799 137.42 25.5999 137.42Z" fill="#E8566F"/>
<path d="M163.994 26.676H150.92C140.425 65.012 143.217 107.436 153.994 152.316H16.2809C15.5679 155.635 14.8089 158.969 14.0049 162.316H163.993C152.271 113.495 149.995 67.582 163.994 26.676Z" fill="#D10028"/>
<path d="M163.994 26.676H157.372C145.196 66.31 147.747 110.475 158.994 157.316H15.1749C14.7959 158.979 14.4069 160.646 14.0059 162.316H163.994C152.271 113.495 149.995 67.582 163.994 26.676Z" fill="#B7022D"/>
<path d="M168.977 179.437H9.02291C4.29491 179.437 0.461914 175.604 0.461914 170.876C0.461914 166.148 4.29491 162.315 9.02291 162.315H168.977C173.705 162.315 177.538 166.148 177.538 170.876C177.538 175.604 173.705 179.437 168.977 179.437Z" fill="#F79219"/>
<path d="M171.991 162.862C172.344 163.8 172.537 164.816 172.537 165.877C172.537 170.605 168.704 174.438 163.976 174.438H4.02291C2.96191 174.438 1.94591 174.244 1.00891 173.892C2.22791 177.133 5.35591 179.438 9.02291 179.438H168.977C173.705 179.438 177.538 175.605 177.538 170.877C177.538 167.209 175.232 164.081 171.991 162.862Z" fill="#EF7816"/>
<path d="M90.7529 40.101L106.548 76.863C107.994 80.228 105.526 83.975 101.863 83.975H70.2729C66.6099 83.975 64.1419 80.228 65.5879 76.863L81.3829 40.101C83.1519 35.986 88.9849 35.986 90.7529 40.101Z" fill="#EF7816"/>
<path d="M93.6859 61.9441C95.0489 61.9441 96.1539 63.0491 96.1539 64.4121V65.7031C96.1539 67.0661 95.0489 68.1711 93.6859 68.1711C92.3229 68.1711 91.2179 67.0661 91.2179 65.7031V64.4121C91.2179 63.0491 92.3229 61.9441 93.6859 61.9441Z" fill="#F79219"/>
<path d="M78.4519 61.9441C79.8149 61.9441 80.9199 63.0491 80.9199 64.4121V65.7031C80.9199 67.0661 79.8149 68.1711 78.4519 68.1711C77.0889 68.1711 75.9839 67.0661 75.9839 65.7031V64.4121C75.9839 63.0491 77.0889 61.9441 78.4519 61.9441Z" fill="#F79219"/>
<path d="M86.0688 71.2401C87.4318 71.2401 88.5368 72.3451 88.5368 73.7081V74.9991C88.5368 76.3621 87.4318 77.4671 86.0688 77.4671C84.7058 77.4671 83.6008 76.3621 83.6008 74.9991V73.7081C83.6008 72.3451 84.7058 71.2401 86.0688 71.2401Z" fill="#F79219"/>
<path d="M86.0688 51.785C87.4318 51.785 88.5368 52.89 88.5368 54.253V55.544C88.5368 56.907 87.4318 58.012 86.0688 58.012C84.7058 58.012 83.6008 56.907 83.6008 55.544V54.253C83.6008 52.89 84.7058 51.785 86.0688 51.785Z" fill="#F79219"/>
<path d="M104.626 146.173L65.4399 138.088C61.8529 137.348 60.1929 133.18 62.2889 130.176L80.3669 104.27C82.4629 101.266 86.9479 101.387 88.8799 104.498L109.988 138.489C112.351 142.294 109.012 147.078 104.626 146.173Z" fill="#F79219"/>
<path d="M85.0349 136.078C84.2549 137.196 82.7169 137.469 81.5989 136.689L80.5399 135.95C79.4219 135.17 79.1489 133.632 79.9289 132.514C80.7089 131.396 82.2469 131.123 83.3649 131.903L84.4239 132.642C85.5409 133.422 85.8149 134.96 85.0349 136.078Z" fill="#FFA91A"/>
<path d="M93.7529 123.585C92.9729 124.703 91.4349 124.976 90.3169 124.196L89.2579 123.457C88.1399 122.677 87.8669 121.139 88.6469 120.021C89.4269 118.903 90.9649 118.63 92.0829 119.41L93.1419 120.149C94.2589 120.929 94.5329 122.467 93.7529 123.585Z" fill="#FFA91A"/>
<path d="M81.7709 124.512C80.9909 125.63 79.4529 125.903 78.3349 125.123L77.2759 124.384C76.1579 123.604 75.8849 122.066 76.6649 120.948C77.4449 119.83 78.9829 119.557 80.1009 120.337L81.1599 121.076C82.2769 121.856 82.5509 123.394 81.7709 124.512Z" fill="#FFA91A"/>
<path d="M97.7248 135.645C96.9448 136.763 95.4068 137.036 94.2888 136.256L93.2298 135.517C92.1118 134.737 91.8388 133.199 92.6188 132.081C93.3988 130.963 94.9368 130.69 96.0548 131.47L97.1138 132.209C98.2308 132.989 98.5048 134.528 97.7248 135.645Z" fill="#FFA91A"/>
<path d="M136.272 48.444L124.057 86.545C122.939 90.033 118.618 91.239 115.855 88.835L92.0229 68.099C89.2599 65.695 89.8569 61.248 93.1569 59.659L129.204 42.294C133.239 40.35 137.64 44.179 136.272 48.444Z" fill="#F79219"/>
<path d="M124.146 66.848C125.174 67.743 125.282 69.301 124.388 70.329L123.541 71.303C122.646 72.331 121.088 72.439 120.06 71.545C119.032 70.65 118.924 69.092 119.818 68.064L120.665 67.09C121.559 66.061 123.118 65.953 124.146 66.848Z" fill="#FFA91A"/>
<path d="M112.654 56.848C113.682 57.743 113.79 59.301 112.896 60.329L112.049 61.303C111.154 62.331 109.596 62.439 108.568 61.545C107.54 60.65 107.432 59.092 108.326 58.064L109.173 57.09C110.067 56.062 111.626 55.954 112.654 56.848Z" fill="#FFA91A"/>
<path d="M112.298 68.86C113.326 69.755 113.434 71.313 112.54 72.341L111.693 73.315C110.798 74.343 109.24 74.451 108.212 73.557C107.184 72.663 107.076 71.104 107.97 70.076L108.817 69.102C109.711 68.074 111.27 67.966 112.298 68.86Z" fill="#FFA91A"/>
<path d="M125.069 54.183C126.097 55.078 126.205 56.636 125.311 57.664L124.464 58.638C123.569 59.666 122.011 59.774 120.983 58.88C119.955 57.985 119.847 56.427 120.741 55.399L121.588 54.425C122.482 53.397 124.041 53.289 125.069 54.183Z" fill="#FFA91A"/>
<path d="M122.17 116.369L86.9279 97.4231C83.7019 95.6891 83.3019 91.2201 86.1689 88.9411L110.897 69.2811C113.764 67.0021 118.027 68.3981 118.99 71.9321L129.504 110.537C130.681 114.859 126.115 118.489 122.17 116.369Z" fill="#FFA91A"/>
<path d="M106.281 101.095C105.214 101.943 103.662 101.766 102.814 100.699L102.011 99.6891C101.163 98.6221 101.34 97.0701 102.407 96.2221C103.474 95.3741 105.026 95.5511 105.874 96.6181L106.677 97.6281C107.525 98.6951 107.348 100.247 106.281 101.095Z" fill="#F79219"/>
<path d="M118.205 91.6151C117.138 92.4631 115.586 92.2861 114.738 91.2191L113.935 90.2091C113.087 89.1421 113.264 87.5901 114.331 86.7421C115.398 85.8941 116.95 86.0711 117.798 87.1381L118.601 88.1481C119.449 89.2141 119.272 90.7671 118.205 91.6151Z" fill="#F79219"/>
<path d="M106.459 89.0791C105.392 89.9271 103.84 89.7501 102.992 88.6831L102.189 87.6731C101.341 86.6061 101.518 85.0541 102.585 84.2061C103.652 83.3581 105.204 83.5351 106.052 84.6021L106.855 85.6121C107.702 86.6791 107.525 88.2311 106.459 89.0791Z" fill="#F79219"/>
<path d="M118.566 104.308C117.499 105.156 115.947 104.979 115.099 103.912L114.296 102.902C113.448 101.835 113.625 100.283 114.692 99.4351C115.759 98.5871 117.311 98.7641 118.159 99.8311L118.962 100.841C119.81 101.907 119.633 103.459 118.566 104.308Z" fill="#F79219"/>
<path d="M49.4249 34.599L82.6099 56.9521C85.6479 58.9981 85.6019 63.4841 82.5219 65.4681L55.9639 82.574C52.8849 84.557 48.7809 82.7441 48.1749 79.1321L41.5479 39.673C40.8069 35.256 45.7109 32.097 49.4249 34.599Z" fill="#FFA91A"/>
<path d="M63.7189 51.376C64.8649 50.638 66.3919 50.969 67.1299 52.114L67.8289 53.199C68.5669 54.345 68.2359 55.872 67.0909 56.61C65.9449 57.348 64.4179 57.017 63.6799 55.872L62.9809 54.787C62.2419 53.641 62.5729 52.114 63.7189 51.376Z" fill="#F79219"/>
<path d="M50.9109 59.625C52.0569 58.887 53.5839 59.218 54.3219 60.363L55.0209 61.448C55.7589 62.594 55.4279 64.121 54.2829 64.859C53.1369 65.597 51.6099 65.266 50.8719 64.121L50.1729 63.036C49.4349 61.89 49.7659 60.363 50.9109 59.625Z" fill="#F79219"/>
<path d="M62.3479 63.3149C63.4939 62.5769 65.0209 62.9079 65.7589 64.0529L66.4579 65.1379C67.1959 66.2839 66.8649 67.8109 65.7199 68.5489C64.5749 69.2869 63.0469 68.9559 62.3089 67.8109L61.6099 66.7259C60.8719 65.5799 61.2029 64.0529 62.3479 63.3149Z" fill="#F79219"/>
<path d="M51.8139 46.959C52.9599 46.221 54.4869 46.552 55.2249 47.697L55.9239 48.782C56.6619 49.928 56.3309 51.455 55.1859 52.193C54.0399 52.931 52.5129 52.6 51.7749 51.455L51.0759 50.37C50.3369 49.224 50.6679 47.697 51.8139 46.959Z" fill="#F79219"/>
<path d="M43.9829 132.423L52.7839 93.3921C53.5899 89.8191 57.7869 88.2361 60.7519 90.3861L86.3229 108.936C89.2879 111.087 89.0849 115.569 85.9389 117.443L51.5669 137.925C47.7199 140.217 42.9979 136.792 43.9829 132.423Z" fill="#FFA91A"/>
<path d="M54.4359 113.02C53.3329 112.22 53.0869 110.677 53.8879 109.574L54.6459 108.529C55.4459 107.426 56.9889 107.18 58.0919 107.981C59.1949 108.781 59.4409 110.324 58.6399 111.427L57.8819 112.472C57.0819 113.575 55.5389 113.82 54.4359 113.02Z" fill="#F79219"/>
<path d="M66.767 121.966C65.664 121.166 65.418 119.623 66.219 118.52L66.977 117.475C67.777 116.372 69.32 116.126 70.423 116.927C71.526 117.727 71.772 119.27 70.971 120.373L70.213 121.418C69.413 122.52 67.87 122.766 66.767 121.966Z" fill="#F79219"/>
<path d="M66.06 109.969C64.957 109.169 64.711 107.626 65.512 106.523L66.27 105.478C67.07 104.375 68.613 104.129 69.716 104.93C70.819 105.73 71.065 107.273 70.264 108.376L69.506 109.421C68.706 110.523 67.163 110.769 66.06 109.969Z" fill="#F79219"/>
<path d="M54.6359 125.716C53.5329 124.916 53.2869 123.373 54.0879 122.27L54.8459 121.225C55.6459 120.122 57.1889 119.876 58.2919 120.677C59.3949 121.477 59.6409 123.02 58.8399 124.123L58.0819 125.168C57.2819 126.271 55.7389 126.517 54.6359 125.716Z" fill="#F79219"/>
</svg>
