<svg width="21" height="21" viewBox="0 0 21 21" fill="none" xmlns="http://www.w3.org/2000/svg">
<path d="M10.5 18.375C12.1914 18.375 13.5625 17.7874 13.5625 17.0625C13.5625 16.3376 12.1914 15.75 10.5 15.75C8.80863 15.75 7.4375 16.3376 7.4375 17.0625C7.4375 17.7874 8.80863 18.375 10.5 18.375Z" fill="url(#paint0_radial_159_1601)"/>
<path d="M18.8125 11.7994C18.8125 12.9999 17.4195 17.5 10.5 17.5C3.5805 17.5 2.1875 12.9999 2.1875 11.7994C2.1875 10.5989 5.90931 9.625 10.5 9.625C15.0907 9.625 18.8125 10.5984 18.8125 11.7994Z" fill="url(#paint1_radial_159_1601)"/>
<path d="M17.6181 12.7124C16.2487 13.531 13.6062 13.9125 10.5 13.9125C7.39371 13.9125 4.75121 13.531 3.38184 12.7124C4.74684 11.9188 7.41996 11.375 10.5 11.375C13.58 11.375 16.2531 11.9188 17.6181 12.7124Z" fill="url(#paint2_radial_159_1601)"/>
<path d="M7.43796 3.9375H19.688V3.0625L7.43796 3.5C7.19646 3.5 7.19646 3.9375 7.43796 3.9375Z" fill="url(#paint3_linear_159_1601)"/>
<path d="M10.5002 14.3544C6.51022 14.3544 2.26953 13.5257 2.26953 11.9897C2.26953 10.4536 6.51022 9.625 10.5002 9.625C14.4902 9.625 18.7309 10.4536 18.7309 11.9897C18.7309 13.5257 14.4902 14.3544 10.5002 14.3544ZM10.5002 10.0625C5.90778 10.0625 2.70703 11.0779 2.70703 11.9897C2.70703 12.9014 5.90778 13.9169 10.5002 13.9169C15.0927 13.9169 18.2934 12.9014 18.2934 11.9897C18.2934 11.0779 15.0927 10.0625 10.5002 10.0625Z" fill="url(#paint4_linear_159_1601)"/>
<path d="M18.8125 11.8125H18.375C18.375 11.2188 15.5951 10.0625 10.5 10.0625C5.40488 10.0625 2.625 11.2188 2.625 11.8125H2.1875C2.1875 10.6063 5.91631 9.625 10.5 9.625C15.0837 9.625 18.8125 10.6063 18.8125 11.8125Z" fill="#EDE3D0"/>
<path d="M10.7406 13.895H10.29C10.3863 13.6019 10.2069 13.3569 9.8525 12.915C9.38875 12.3375 8.75 11.5456 8.75 10.1237V3.28125C8.75 3.15875 8.84625 3.0625 8.96875 3.0625C9.09125 3.0625 9.1875 3.15875 9.1875 3.28125V10.1237C9.1875 11.3925 9.74312 12.0837 10.1937 12.6394C10.5306 13.0594 10.8237 13.4269 10.7406 13.895Z" fill="#F0B30C"/>
<path d="M10.7058 13.895H10.3295C10.4214 13.58 10.2289 13.3262 9.87891 12.8931C9.41516 12.32 8.78516 11.5325 8.78516 10.1237V3.28122C8.78516 3.1806 8.86828 3.09747 8.96891 3.09747C9.06953 3.09747 9.15266 3.1806 9.15266 3.28122V10.1237C9.15266 11.4012 9.71266 12.1012 10.1633 12.6612C10.5002 13.0812 10.7889 13.4443 10.7058 13.895Z" fill="#F1B817"/>
<path d="M10.6709 13.8953H10.3647C10.4609 13.5672 10.2509 13.3003 9.90531 12.8716C9.44594 12.2984 8.82031 11.5197 8.82031 10.1241V3.28156C8.82031 3.19844 8.88594 3.13281 8.96906 3.13281C9.05219 3.13281 9.11781 3.19844 9.11781 3.28156V10.1241C9.11781 11.4147 9.68219 12.1191 10.1372 12.6834C10.4741 13.0991 10.7541 13.4534 10.6709 13.8953Z" fill="#F2BD22"/>
<path d="M10.6361 13.8955H10.3998C10.4961 13.5542 10.2773 13.2742 9.93172 12.8498C9.47672 12.2811 8.85547 11.5067 8.85547 10.1242V3.28172C8.85547 3.22047 8.90797 3.16797 8.96922 3.16797C9.03047 3.16797 9.08297 3.22047 9.08297 3.28172V10.1242C9.08297 11.428 9.65172 12.1367 10.1111 12.7055C10.4436 13.1211 10.7192 13.4667 10.6361 13.8955Z" fill="#F3C32E"/>
<path d="M10.5959 13.8946H10.434C10.5259 13.5359 10.294 13.2428 9.96152 12.8271C9.50652 12.2628 8.88965 11.4928 8.88965 10.1234V3.2809C8.88965 3.23715 8.92465 3.20215 8.9684 3.20215C9.01215 3.20215 9.04715 3.23715 9.04715 3.2809V10.1234C9.04715 11.4403 9.62027 12.1534 10.084 12.7265C10.4165 13.1378 10.6834 13.4746 10.5959 13.8946Z" fill="#F4C839"/>
<path d="M10.5611 13.895H10.4736C10.5654 13.5231 10.3161 13.2212 9.98793 12.8056C9.5373 12.2456 8.9248 11.4844 8.9248 10.1237V3.28124C8.9248 3.25499 8.9423 3.23749 8.96855 3.23749C8.9948 3.23749 9.01231 3.25499 9.01231 3.28124V10.1237C9.01231 11.4537 9.5898 12.1712 10.0536 12.7487C10.3861 13.16 10.6486 13.4881 10.5611 13.895Z" fill="#F5CD44"/>
<path d="M7.66698 13.9221C7.56942 13.9221 7.48061 13.8569 7.45523 13.7585C7.42504 13.6413 7.49548 13.5218 7.61186 13.4916C8.44486 13.2751 8.34948 12.7155 8.09267 11.6624C7.98548 11.2236 7.87479 10.7699 7.87479 10.3263V3.28125C7.87479 3.1605 7.97279 3.0625 8.09354 3.0625C8.21429 3.0625 8.31229 3.1605 8.31229 3.28125V10.3263C8.31229 10.7174 8.41642 11.1453 8.51792 11.5588C8.74892 12.5059 9.01098 13.58 7.72254 13.9147C7.70373 13.9199 7.68492 13.9221 7.66698 13.9221Z" fill="#F0B30C"/>
<path d="M7.66734 13.8871C7.58553 13.8871 7.51072 13.8324 7.48928 13.7497C7.46391 13.6513 7.52297 13.5511 7.62097 13.5257C8.4951 13.2982 8.37872 12.687 8.12672 11.6545C8.01997 11.2179 7.90972 10.766 7.90972 10.3267V3.28122C7.90972 3.17972 7.99197 3.09747 8.09347 3.09747C8.19497 3.09747 8.27722 3.17972 8.27722 3.28122V10.3263C8.27722 10.7218 8.38222 11.1514 8.48372 11.567C8.71516 12.5155 8.96759 13.5498 7.71328 13.881C7.69841 13.8853 7.68266 13.8871 7.66734 13.8871Z" fill="#F1B817"/>
<path d="M7.66727 13.8524C7.60077 13.8524 7.54083 13.8083 7.52333 13.7413C7.50277 13.6617 7.55046 13.5803 7.63008 13.5597C8.54533 13.3217 8.40796 12.6581 8.16121 11.6466C8.0549 11.2117 7.94552 10.7624 7.94552 10.3271V3.28156C7.94552 3.19931 8.01202 3.13281 8.09427 3.13281C8.17652 3.13281 8.24302 3.19931 8.24302 3.28156V10.3266C8.24302 10.7261 8.34846 11.1579 8.4504 11.5757C8.68183 12.5255 8.92596 13.5247 7.70533 13.8472C7.69221 13.8507 7.67952 13.8524 7.66727 13.8524Z" fill="#F2BD22"/>
<path d="M7.66764 13.8176C7.61689 13.8176 7.57095 13.7839 7.55739 13.7327C7.54164 13.6719 7.57795 13.6098 7.63876 13.594C8.59514 13.3455 8.43676 12.6293 8.19482 11.6384C8.08895 11.2057 7.98001 10.7582 7.98001 10.3272V3.28172C7.98001 3.21872 8.03076 3.16797 8.09376 3.16797C8.15676 3.16797 8.20751 3.21872 8.20751 3.28172V10.3268C8.20751 10.7306 8.31339 11.1646 8.4162 11.5842C8.64807 12.5348 8.88345 13.4991 7.69607 13.8137C7.68689 13.8163 7.67682 13.8176 7.66764 13.8176Z" fill="#F3C32E"/>
<path d="M7.66756 13.7818C7.63256 13.7818 7.60062 13.7581 7.59144 13.7227C7.5805 13.6807 7.60544 13.6374 7.64787 13.6265C8.64537 13.367 8.466 12.5992 8.22931 11.6288C8.12431 11.1979 8.01537 10.7525 8.01537 10.326V3.2809C8.01537 3.23759 8.05037 3.20215 8.09412 3.20215C8.13787 3.20215 8.17288 3.23759 8.17288 3.2809V10.326C8.17288 10.7341 8.27963 11.1699 8.38244 11.5916C8.61475 12.5436 8.84137 13.472 7.68769 13.7791C7.68069 13.7809 7.67412 13.7818 7.66756 13.7818Z" fill="#F4C839"/>
<path d="M7.66692 13.7469C7.64724 13.7469 7.62974 13.7338 7.62449 13.7141C7.61836 13.6905 7.63236 13.6669 7.65555 13.6607C8.69417 13.3908 8.4938 12.5705 8.26236 11.6207C8.1578 11.1919 8.04974 10.7487 8.04974 10.3261V3.28105C8.04974 3.25699 8.06899 3.2373 8.09349 3.2373C8.11799 3.2373 8.13724 3.25699 8.13724 3.28105V10.3261C8.13724 10.7382 8.24442 11.1762 8.34767 11.6001C8.57999 12.5534 8.80005 13.4538 7.6783 13.7452C7.67436 13.7465 7.67042 13.7469 7.66692 13.7469Z" fill="#F5CD44"/>
<path d="M8.3125 4.375H7.875V6.5625H8.3125V4.375Z" fill="url(#paint5_linear_159_1601)"/>
<path d="M9.1875 4.375H8.75V6.5625H9.1875V4.375Z" fill="url(#paint6_linear_159_1601)"/>
<path d="M10.5002 14.7084C6.90266 14.7084 3.72423 13.9209 2.3916 12.8271C2.45898 13.0503 2.55348 13.2953 2.6751 13.549C4.29166 14.5159 7.16385 15.1459 10.5002 15.1459C13.8366 15.1459 16.7088 14.5159 18.3254 13.549C18.447 13.2953 18.5415 13.0503 18.6089 12.8271C17.2762 13.9209 14.0978 14.7084 10.5002 14.7084Z" fill="url(#paint7_linear_159_1601)"/>
<path d="M13.7668 13.7865C13.7432 13.7865 13.7196 13.7826 13.6959 13.7747C13.5813 13.7358 13.5209 13.6111 13.5599 13.4969C13.58 13.4383 13.6417 13.2589 13.3958 12.9692C13.1254 12.6507 12.5479 12.5488 11.9888 12.4495C11.1304 12.2977 10.0625 12.1082 10.0625 10.9576V3.28125C10.0625 3.1605 10.1605 3.0625 10.2812 3.0625C10.402 3.0625 10.5 3.1605 10.5 3.28125V10.9576C10.5 11.7036 11.0946 11.8466 12.0654 12.0186C12.7002 12.131 13.3564 12.2469 13.7292 12.6853C14.0661 13.0813 14.0481 13.4221 13.9738 13.6382C13.9423 13.7292 13.8578 13.7865 13.7668 13.7865Z" fill="#F0B30C"/>
<path d="M13.767 13.7515C13.7473 13.7515 13.7272 13.7484 13.7075 13.7414C13.6112 13.7086 13.5605 13.604 13.5933 13.5078C13.6243 13.4168 13.6607 13.226 13.4227 12.9465C13.144 12.6183 12.5603 12.5151 11.9951 12.4153C11.1332 12.2627 10.0977 12.0793 10.0977 10.958V3.28122C10.0977 3.17972 10.1799 3.09747 10.2814 3.09747C10.3829 3.09747 10.4652 3.17972 10.4652 3.28122V10.9576C10.4652 11.7403 11.107 11.8842 12.0594 12.0531C12.6881 12.1642 13.3382 12.2797 13.7027 12.708C14.0177 13.0782 14.0172 13.4037 13.9407 13.6268C13.9144 13.7033 13.8435 13.7515 13.767 13.7515Z" fill="#F1B817"/>
<path d="M13.7667 13.7168C13.7505 13.7168 13.7343 13.7142 13.7186 13.7085C13.6407 13.6818 13.5996 13.5974 13.6263 13.5195C13.6687 13.3961 13.6792 13.1944 13.4495 12.9241C13.1625 12.5868 12.5727 12.4822 12.0014 12.3811C11.136 12.228 10.1328 12.0499 10.1328 10.9584V3.28156C10.1328 3.19931 10.1993 3.13281 10.2816 3.13281C10.3638 3.13281 10.4303 3.19931 10.4303 3.28156V10.9579C10.4303 11.7778 11.1194 11.9222 12.0539 12.088C12.6764 12.1982 13.3204 12.3124 13.6766 12.7316C13.9697 13.0763 13.9872 13.3861 13.908 13.6166C13.8861 13.6779 13.8284 13.7168 13.7667 13.7168Z" fill="#F2BD22"/>
<path d="M13.7668 13.682C13.7546 13.682 13.7423 13.6798 13.7301 13.6758C13.6706 13.6553 13.6391 13.5905 13.6592 13.531C13.713 13.3753 13.6977 13.1627 13.4759 12.9015C13.181 12.5545 12.5847 12.4487 12.0077 12.3467C11.1383 12.1927 10.168 12.0208 10.168 10.9581V3.28172C10.168 3.21872 10.2187 3.16797 10.2817 3.16797C10.3447 3.16797 10.3955 3.21872 10.3955 3.28172V10.9581C10.3955 11.8147 11.1318 11.9604 12.0479 12.1223C12.6643 12.2317 13.3018 12.3445 13.65 12.754C13.9213 13.073 13.9567 13.3674 13.8753 13.605C13.8578 13.6522 13.8141 13.682 13.7668 13.682Z" fill="#F3C32E"/>
<path d="M13.767 13.6461C13.7587 13.6461 13.7499 13.6448 13.7416 13.6418C13.7001 13.6278 13.6786 13.5827 13.6926 13.5416C13.7574 13.3535 13.7167 13.1299 13.5028 12.8779C13.1996 12.5213 12.5967 12.4146 12.0139 12.3113C11.1411 12.1569 10.2031 11.9906 10.2031 10.9573V3.2809C10.2031 3.23759 10.2381 3.20215 10.2819 3.20215C10.3256 3.20215 10.3606 3.23759 10.3606 3.2809V10.9573C10.3606 11.8511 11.1442 11.9972 12.0419 12.156C12.6523 12.2641 13.2836 12.3761 13.6231 12.776C13.8724 13.0691 13.9267 13.3482 13.8418 13.5928C13.83 13.6256 13.7998 13.6461 13.767 13.6461Z" fill="#F4C839"/>
<path d="M13.7672 13.6113C13.7623 13.6113 13.758 13.6104 13.7532 13.6091C13.73 13.6012 13.7182 13.5763 13.7256 13.5536C13.8017 13.3331 13.7352 13.0981 13.5296 12.8562C13.2181 12.49 12.6091 12.3819 12.0202 12.2778C11.1439 12.1225 10.2383 11.9619 10.2383 10.9583V3.28105C10.2383 3.25699 10.2575 3.2373 10.282 3.2373C10.3065 3.2373 10.3258 3.25699 10.3258 3.28105V10.9574C10.3258 11.888 11.1562 12.035 12.036 12.1907C12.6402 12.2979 13.2653 12.4086 13.5965 12.7989C13.824 13.0666 13.8953 13.3296 13.8087 13.582C13.8022 13.5995 13.7855 13.6113 13.7672 13.6113Z" fill="#F5CD44"/>
<path d="M10.5 4.375H10.0625V6.5625H10.5V4.375Z" fill="url(#paint8_linear_159_1601)"/>
<path d="M7.43796 5.6875H19.688V4.8125L7.43796 5.25C7.19646 5.25 7.19646 5.6875 7.43796 5.6875Z" fill="url(#paint9_linear_159_1601)"/>
<path d="M11.6124 14.0779C11.6045 14.0779 11.5975 14.0779 11.5905 14.0774C11.4702 14.0735 11.3753 13.9724 11.3792 13.8517C11.3832 13.7331 11.4803 13.6399 11.598 13.6399C11.6059 13.6395 11.6172 13.6399 11.6282 13.6404C11.9537 13.6404 12.6112 13.4404 12.8252 13.2886C12.728 13.2453 12.5045 13.1766 12.0079 13.1237C10.1525 12.9277 8.44841 13.4925 7.94748 13.839C7.84948 13.9072 7.7121 13.8832 7.64341 13.7839C7.57473 13.6846 7.59923 13.5481 7.69898 13.4794C8.3316 13.041 10.1529 12.4854 12.0543 12.6888C12.725 12.7601 13.3419 12.883 13.3134 13.2943C13.278 13.8066 11.9873 14.0779 11.6124 14.0779Z" fill="#F0B30C"/>
<path d="M11.6133 14.0427C11.6054 14.0427 11.598 14.0427 11.591 14.0423C11.4899 14.0392 11.4103 13.9543 11.4133 13.8528C11.4164 13.7535 11.4982 13.68 11.5975 13.6752C11.6054 13.6748 11.6163 13.6757 11.6273 13.6757C11.9746 13.673 12.6956 13.4547 12.8698 13.2863C12.7928 13.2417 12.6012 13.152 12.011 13.089C10.1468 12.8917 8.43178 13.4613 7.9269 13.81C7.84465 13.8673 7.72915 13.8472 7.6714 13.7636C7.61365 13.68 7.63421 13.5658 7.71821 13.5081C8.33027 13.0842 10.1446 12.5198 12.0499 12.7237C12.7377 12.7967 13.3033 12.9227 13.2775 13.292C13.2452 13.7662 11.9948 14.0427 11.6133 14.0427Z" fill="#F1B817"/>
<path d="M11.6157 14.0075C11.6078 14.0075 11.6004 14.0075 11.5934 14.0071C11.5111 14.0044 11.4468 13.9357 11.4494 13.8535C11.4521 13.773 11.5172 13.7113 11.5986 13.7096C11.6069 13.7096 11.6174 13.71 11.6279 13.71C11.9976 13.7078 12.7812 13.4676 12.9164 13.283C12.8595 13.2371 12.6998 13.1264 12.016 13.0533C10.1435 12.8547 8.4158 13.4278 7.9083 13.7804C7.8418 13.8268 7.74861 13.8106 7.70136 13.7428C7.65455 13.6754 7.67118 13.5827 7.73899 13.5359C8.33005 13.1264 10.1374 12.5532 12.0471 12.7576C12.7519 12.8324 13.2664 12.9614 13.2436 13.2887C13.2134 13.7253 12.0033 14.0075 11.6157 14.0075Z" fill="#F2BD22"/>
<path d="M11.6171 13.9729C11.6092 13.9729 11.6018 13.9729 11.5943 13.9724C11.5313 13.9703 11.4823 13.9178 11.4845 13.8552C11.4863 13.7935 11.5357 13.7441 11.5991 13.7449C11.6075 13.7449 11.6175 13.7454 11.6276 13.7454C12.0191 13.7436 12.8661 13.482 12.9615 13.2808C12.9248 13.2331 12.7975 13.1018 12.0196 13.0191C10.1383 12.8188 8.39926 13.3967 7.88826 13.7524C7.83751 13.7878 7.7662 13.7751 7.73033 13.7235C7.69445 13.6719 7.70714 13.601 7.7592 13.5651C8.32926 13.1701 10.1296 12.5882 12.0436 12.7925C12.7655 12.8695 13.2288 13.0008 13.2087 13.2864C13.1807 13.6854 12.0104 13.9729 11.6171 13.9729Z" fill="#F3C32E"/>
<path d="M11.6183 13.9375C11.6104 13.9375 11.6025 13.9375 11.5951 13.937C11.5513 13.9357 11.5176 13.899 11.5189 13.8556C11.5203 13.8128 11.5535 13.7778 11.5986 13.7795C11.6073 13.78 11.6169 13.78 11.6266 13.78C12.04 13.7791 12.95 13.4951 13.006 13.2777C12.9894 13.2287 12.894 13.0765 12.0225 12.9837C10.1329 12.782 8.38207 13.3643 7.86757 13.7226C7.83257 13.7471 7.78313 13.7384 7.75819 13.703C7.73326 13.6671 7.74245 13.6181 7.77832 13.5936C8.32826 13.2143 10.1207 12.6223 12.0391 12.8271C12.7781 12.9058 13.1902 13.0401 13.1731 13.2838C13.1482 13.6443 12.0181 13.9375 11.6183 13.9375Z" fill="#F4C839"/>
<path d="M11.62 13.9024C11.6117 13.9024 11.6043 13.9024 11.5964 13.9024C11.5719 13.9015 11.5531 13.8814 11.554 13.8569C11.5544 13.8328 11.5719 13.8118 11.599 13.8144C11.6082 13.8149 11.617 13.8149 11.6266 13.8149C12.0619 13.8149 13.0354 13.5091 13.0515 13.2754C13.055 13.2251 12.9916 13.0519 12.0265 12.9491C10.1282 12.7461 8.36767 13.3349 7.84792 13.6941C7.82867 13.7077 7.80155 13.7029 7.78711 13.6832C7.77355 13.6635 7.77792 13.6359 7.79805 13.6224C8.32655 13.2566 10.1124 12.6568 12.0357 12.862C12.7921 12.9425 13.1526 13.0799 13.1386 13.2816C13.1159 13.604 12.0256 13.9024 11.62 13.9024Z" fill="#F5CD44"/>
<path d="M7.96096 13.786C7.95308 13.786 7.94565 13.7856 7.93777 13.7852C7.8179 13.7725 7.7304 13.6653 7.74308 13.545C7.77108 13.2729 7.70808 13.0607 7.55583 12.9145C7.3384 12.705 6.93458 12.6315 6.41702 12.7059C5.79358 12.7955 5.42827 12.978 5.38758 13.219C5.36746 13.3389 5.25458 13.4199 5.13558 13.3989C5.01658 13.3787 4.93608 13.2659 4.95621 13.1469C5.03321 12.6892 5.50352 12.3952 6.35446 12.2727C7.01946 12.1778 7.53746 12.2907 7.85858 12.5991C8.10927 12.8402 8.21952 13.1827 8.17752 13.59C8.16658 13.7025 8.07165 13.786 7.96096 13.786Z" fill="#F0B30C"/>
<path d="M7.96055 13.7509C7.95399 13.7509 7.94786 13.7504 7.9413 13.75C7.84068 13.7395 7.76718 13.6489 7.77768 13.5483C7.80699 13.2657 7.73961 13.0426 7.57993 12.889C7.35374 12.6716 6.94161 12.5946 6.41224 12.6707C5.77043 12.763 5.3968 12.9542 5.35349 13.2128C5.33686 13.3134 5.24193 13.3812 5.14174 13.3637C5.04155 13.3462 4.97418 13.2521 4.9908 13.1519C5.06474 12.7109 5.52543 12.427 6.35974 12.3067C7.01336 12.2131 7.5213 12.3229 7.83499 12.6239C8.0778 12.8571 8.18411 13.1896 8.14299 13.5859C8.13336 13.6804 8.05374 13.7509 7.96055 13.7509Z" fill="#F1B817"/>
<path d="M7.96113 13.716C7.95588 13.716 7.95063 13.7156 7.94538 13.7152C7.86356 13.7064 7.8045 13.6333 7.81281 13.552C7.84344 13.2593 7.77213 13.0248 7.60456 12.8638C7.36963 12.638 6.94963 12.5584 6.40756 12.6363C5.74738 12.7312 5.36544 12.9316 5.31906 13.2072C5.3055 13.2886 5.22894 13.3433 5.14756 13.3293C5.06663 13.3153 5.01194 13.2392 5.0255 13.1578C5.09681 12.7338 5.54744 12.4591 6.36469 12.3414C7.00694 12.2491 7.50525 12.3558 7.81063 12.649C8.04556 12.8743 8.14838 13.1972 8.10813 13.5822C8.10069 13.6592 8.03638 13.716 7.96113 13.716Z" fill="#F2BD22"/>
<path d="M7.96084 13.6811C7.9569 13.6811 7.95297 13.6806 7.94859 13.6806C7.88603 13.6741 7.84097 13.6181 7.84753 13.5559C7.87903 13.2527 7.80378 13.0073 7.62878 12.8389C7.38553 12.6048 6.95678 12.5221 6.40247 12.6017C5.7239 12.6993 5.33365 12.9089 5.28465 13.2016C5.27415 13.2637 5.21553 13.3057 5.1534 13.2947C5.09128 13.2842 5.04972 13.2256 5.06022 13.1639C5.12847 12.7566 5.56947 12.4919 6.37009 12.3764C7.00097 12.2854 7.48922 12.3891 7.78672 12.6748C8.01334 12.8922 8.11265 13.2051 8.07372 13.5791C8.06759 13.6377 8.01815 13.6811 7.96084 13.6811Z" fill="#F3C32E"/>
<path d="M7.96086 13.6465C7.95823 13.6465 7.95561 13.646 7.95255 13.646C7.90923 13.6416 7.87773 13.6027 7.88255 13.5594C7.91536 13.2457 7.83573 12.9893 7.6533 12.8135C7.4013 12.5711 6.96423 12.4858 6.39767 12.5671C5.70073 12.6673 5.30217 12.8856 5.25011 13.1958C5.24311 13.2391 5.20242 13.268 5.15955 13.2606C5.11667 13.2531 5.0878 13.2129 5.0948 13.17C5.16042 12.7793 5.59136 12.5243 6.37492 12.4114C6.99442 12.3221 7.47305 12.4223 7.76223 12.7001C7.98098 12.9101 8.07723 13.2129 8.03873 13.5756C8.03523 13.6163 8.00111 13.6465 7.96086 13.6465Z" fill="#F4C839"/>
<path d="M7.961 13.6114C7.95968 13.6114 7.95793 13.6114 7.95618 13.6114C7.93212 13.6088 7.91462 13.5874 7.91725 13.5633C7.95093 13.2395 7.86781 12.9714 7.6775 12.7885C7.41675 12.5378 6.97181 12.4499 6.39256 12.533C5.67725 12.6358 5.27037 12.8633 5.21568 13.1905C5.21175 13.2146 5.189 13.2304 5.16537 13.2264C5.14175 13.2225 5.12556 13.1997 5.1295 13.1761C5.1925 12.8025 5.61293 12.5566 6.37987 12.4464C6.988 12.3584 7.45656 12.4555 7.73787 12.7259C7.94831 12.928 8.04018 13.2207 8.00387 13.5725C8.00212 13.5948 7.98331 13.6114 7.961 13.6114Z" fill="#F5CD44"/>
<path d="M9.84416 13.9998C9.72341 13.9998 9.62541 13.9018 9.62541 13.781C9.62541 13.3125 9.49329 13.0071 9.22248 12.8474C8.43804 12.3858 6.63991 13.1869 6.01298 13.5347C5.9071 13.5938 5.7741 13.5553 5.71504 13.4498C5.65641 13.3444 5.69448 13.211 5.79991 13.1523C5.90098 13.0963 8.28098 11.7873 9.44385 12.4703C9.85466 12.7118 10.0629 13.1528 10.0629 13.781C10.0629 13.9018 9.96491 13.9998 9.84416 13.9998Z" fill="#F0B30C"/>
<path d="M9.84414 13.9648C9.74264 13.9648 9.66039 13.8825 9.66039 13.781C9.66039 13.3002 9.5217 12.983 9.23995 12.8172C8.40607 12.3268 6.50164 13.2232 5.99589 13.5041C5.90664 13.554 5.79507 13.5216 5.74564 13.4328C5.69664 13.344 5.72857 13.2324 5.81695 13.183C5.91757 13.1274 8.28051 11.828 9.42632 12.5005C9.82532 12.7354 10.0279 13.1659 10.0279 13.781C10.0279 13.8825 9.94564 13.9648 9.84414 13.9648Z" fill="#F1B817"/>
<path d="M9.84439 13.9298C9.76214 13.9298 9.69564 13.8633 9.69564 13.781C9.69564 13.2884 9.55039 12.9594 9.25814 12.787C8.37483 12.2673 6.36452 13.2595 5.97908 13.4735C5.90689 13.5137 5.81677 13.4879 5.77652 13.4157C5.73671 13.344 5.76252 13.2534 5.83427 13.2136C5.93402 13.1585 8.28077 11.8683 9.40864 12.5306C9.79627 12.7586 9.99271 13.1795 9.99271 13.781C9.99314 13.8633 9.92664 13.9298 9.84439 13.9298Z" fill="#F2BD22"/>
<path d="M9.84437 13.8945C9.78137 13.8945 9.73062 13.8437 9.73062 13.7807C9.73062 13.2763 9.5788 12.935 9.27562 12.7565C8.34287 12.2075 6.22668 13.2955 5.96199 13.4425C5.90687 13.4736 5.83774 13.4535 5.80712 13.3983C5.77693 13.3437 5.79662 13.2741 5.8513 13.2439C5.95018 13.1888 8.2803 11.9087 9.39112 12.5605C9.76737 12.7819 9.95812 13.1923 9.95812 13.7807C9.95812 13.8437 9.90737 13.8945 9.84437 13.8945Z" fill="#F3C32E"/>
<path d="M9.84453 13.8599C9.80078 13.8599 9.76578 13.8245 9.76578 13.7812C9.76578 13.2645 9.60741 12.9119 9.29372 12.7268C8.31153 12.1484 6.08947 13.3323 5.94553 13.4124C5.90747 13.4338 5.85934 13.4202 5.83791 13.3817C5.81691 13.3437 5.83091 13.296 5.86853 13.2746C5.96653 13.2199 8.28003 11.9489 9.37334 12.5907C9.73822 12.8056 9.92284 13.2059 9.92284 13.7807C9.92328 13.8245 9.88828 13.8599 9.84453 13.8599Z" fill="#F4C839"/>
<path d="M9.8446 13.8248C9.8201 13.8248 9.80084 13.8051 9.80084 13.7811C9.80084 13.2526 9.63591 12.8877 9.31128 12.6965C8.2801 12.0888 5.95128 13.3689 5.92853 13.3816C5.90709 13.3934 5.88084 13.386 5.86859 13.3646C5.85722 13.3436 5.86466 13.3169 5.88566 13.3051C5.98322 13.2508 8.28009 11.9895 9.35591 12.6208C9.70897 12.8291 9.88835 13.2193 9.88835 13.7811C9.88835 13.8051 9.8691 13.8248 9.8446 13.8248Z" fill="#F5CD44"/>
<path d="M10.7187 14C10.6491 14 10.5809 13.9667 10.5384 13.9051C10.4702 13.8053 10.4951 13.6692 10.5953 13.601C12.2114 12.4932 13.4894 12.0955 14.3932 12.4162C15.1169 12.673 15.3094 13.2982 15.3168 13.3249C15.3509 13.4409 15.2849 13.5625 15.1689 13.5966C15.0543 13.6316 14.9314 13.5647 14.8972 13.4487C14.892 13.4321 14.7524 13.0038 14.2375 12.8253C13.7107 12.6429 12.6949 12.6927 10.842 13.9619C10.8044 13.9877 10.7615 14 10.7187 14Z" fill="#F0B30C"/>
<path d="M10.7188 13.965C10.6602 13.965 10.6028 13.937 10.5674 13.8849C10.5101 13.8009 10.5311 13.6868 10.6151 13.6294C12.2216 12.5283 13.4895 12.1323 14.3815 12.4486C15.0885 12.6998 15.2758 13.3083 15.2832 13.3341C15.3121 13.4313 15.2561 13.5332 15.159 13.5625C15.0627 13.5914 14.9603 13.5354 14.9306 13.4383C14.9262 13.4238 14.7823 12.9776 14.2507 12.7925C13.7165 12.6066 12.6888 12.6538 10.8225 13.9326C10.791 13.9545 10.7547 13.965 10.7188 13.965Z" fill="#F1B817"/>
<path d="M10.7189 13.93C10.6716 13.93 10.6248 13.9073 10.5964 13.8653C10.55 13.7975 10.5671 13.7047 10.6349 13.6583C12.2318 12.5641 13.4891 12.1695 14.3698 12.4819C15.0602 12.7269 15.2426 13.3193 15.2496 13.3442C15.2728 13.423 15.2278 13.5052 15.149 13.5288C15.0711 13.5525 14.9885 13.507 14.9644 13.4282C14.9609 13.4164 14.8121 12.9513 14.264 12.7597C13.7228 12.5703 12.6828 12.6153 10.8029 13.9038C10.7771 13.9217 10.7478 13.93 10.7189 13.93Z" fill="#F2BD22"/>
<path d="M10.7191 13.8952C10.6828 13.8952 10.6474 13.8777 10.6255 13.8457C10.5901 13.7937 10.6028 13.7232 10.6548 13.6873C12.2421 12.5997 13.4894 12.2068 14.3583 12.5148C15.032 12.7542 15.2092 13.3299 15.2162 13.354C15.2341 13.4143 15.1996 13.4769 15.1392 13.4953C15.0797 13.5132 15.0163 13.4787 14.9979 13.4183C14.9948 13.4087 14.8421 12.9257 14.2769 12.7275C13.7283 12.5345 12.6765 12.5774 10.783 13.875C10.7638 13.8886 10.7414 13.8952 10.7191 13.8952Z" fill="#F3C32E"/>
<path d="M10.7183 13.8602C10.6929 13.8602 10.6684 13.8484 10.6535 13.8261C10.629 13.7898 10.6378 13.7412 10.6736 13.7167C12.2513 12.6357 13.4881 12.2441 14.3456 12.5482C15.0027 12.7814 15.1746 13.3405 15.1816 13.3645C15.1939 13.4061 15.1698 13.4494 15.1287 13.4621C15.0876 13.4748 15.0438 13.4507 15.0311 13.4092C15.0289 13.4017 14.8714 12.9008 14.2896 12.6956C13.7335 12.4992 12.673 12.5442 10.7624 13.8467C10.7493 13.8559 10.7336 13.8602 10.7183 13.8602Z" fill="#F4C839"/>
<path d="M10.7185 13.8253C10.7045 13.8253 10.6909 13.8188 10.6826 13.8065C10.6691 13.7864 10.6734 13.7593 10.6936 13.7457C12.2616 12.6716 13.4883 12.2814 14.334 12.5815C14.9745 12.809 15.1416 13.3515 15.1482 13.3747C15.1547 13.3979 15.1416 13.4219 15.1189 13.4289C15.0961 13.4364 15.0716 13.4228 15.0646 13.3996C15.0629 13.3944 14.9014 12.8751 14.3029 12.6633C13.7399 12.4634 12.6641 12.5014 10.743 13.8179C10.7356 13.8227 10.7272 13.8253 10.7185 13.8253Z" fill="#F5CD44"/>
<path d="M6.97191 13.7865C6.92378 13.7865 6.87522 13.7708 6.83497 13.7384C6.74047 13.6631 6.7256 13.5253 6.80085 13.4308C7.34641 12.7501 9.62753 11.5994 11.3443 12.2544C12.018 12.5116 13.0208 12.4893 13.905 12.4688C14.9103 12.446 15.707 12.4276 16.0286 12.7873C16.1069 12.8748 16.194 13.0279 16.1625 13.2589C16.1467 13.3783 16.0382 13.4614 15.9162 13.4466C15.7967 13.4304 15.7127 13.3201 15.7289 13.2003C15.7381 13.1298 15.7206 13.0992 15.7018 13.0786C15.5158 12.8699 14.6653 12.8892 13.9146 12.9058C12.9902 12.9264 11.9423 12.9504 11.1881 12.6626C9.6831 12.0873 7.61328 13.1163 7.14297 13.7038C7.09922 13.7585 7.03578 13.7865 6.97191 13.7865Z" fill="#F0B30C"/>
<path d="M6.9716 13.751C6.93092 13.751 6.89067 13.7379 6.85698 13.7108C6.77779 13.6473 6.7651 13.5318 6.8281 13.4526C7.36885 12.778 9.62985 11.6379 11.3317 12.2867C12.012 12.5466 13.0183 12.5238 13.9055 12.5033C14.8943 12.481 15.6914 12.4626 16.002 12.81C16.0804 12.8975 16.1556 13.0423 16.1272 13.2536C16.1136 13.3542 16.0239 13.4246 15.9207 13.4111C15.82 13.398 15.75 13.3048 15.7636 13.2046C15.7741 13.1267 15.7553 13.0851 15.7282 13.055C15.5304 12.8349 14.6878 12.8533 13.9143 12.8708C12.9929 12.8913 11.949 12.915 11.2009 12.6301C9.68148 12.0496 7.5911 13.0886 7.11598 13.6823C7.07835 13.7274 7.02542 13.751 6.9716 13.751Z" fill="#F1B817"/>
<path d="M6.97179 13.7165C6.93898 13.7165 6.90617 13.7056 6.87904 13.6837C6.81473 13.6325 6.80467 13.5389 6.85586 13.4745C7.39179 12.806 9.63223 11.676 11.3197 12.3196C12.0061 12.5816 13.0163 12.5589 13.9066 12.5387C14.8792 12.5169 15.6767 12.4985 15.976 12.834C16.0543 12.9215 16.1182 13.058 16.0928 13.2497C16.0819 13.331 16.0105 13.3884 15.9257 13.3774C15.8443 13.3669 15.7874 13.2917 15.7984 13.2103C15.8097 13.125 15.79 13.0725 15.7542 13.0327C15.5464 12.7999 14.7099 12.8187 13.9132 12.8367C12.9953 12.8572 11.9549 12.8809 11.2129 12.5982C9.67904 12.0124 7.56811 13.062 7.08817 13.6609C7.05842 13.6972 7.01511 13.7165 6.97179 13.7165Z" fill="#F2BD22"/>
<path d="M6.97236 13.6819C6.94699 13.6819 6.92205 13.6735 6.90105 13.6569C6.85205 13.6175 6.84418 13.5458 6.88311 13.4972C7.41424 12.8344 9.63455 11.7149 11.3071 12.3532C12.0001 12.6179 13.0138 12.5947 13.9072 12.5745C14.8631 12.5531 15.6611 12.5347 15.9499 12.858C16.0282 12.9455 16.0807 13.0737 16.0579 13.2457C16.0496 13.3078 15.9967 13.352 15.9302 13.3432C15.8681 13.3354 15.8243 13.2776 15.8331 13.2155C15.8457 13.1227 15.8247 13.0593 15.7806 13.0099C15.5618 12.7649 14.7323 12.7837 13.9124 12.802C12.9976 12.8226 11.9612 12.8462 11.2253 12.5658C9.67699 11.9752 7.54549 13.0344 7.06074 13.6394C7.03843 13.6674 7.00561 13.6819 6.97236 13.6819Z" fill="#F3C32E"/>
<path d="M6.97158 13.6462C6.95408 13.6462 6.93701 13.6405 6.92214 13.6287C6.88801 13.6016 6.88276 13.5517 6.90989 13.518C7.4362 12.8613 9.63595 11.7518 11.2941 12.3849C11.9936 12.6522 13.0108 12.629 13.9077 12.6085C14.8475 12.5875 15.6455 12.5691 15.9233 12.8802C16.0016 12.9677 16.0423 13.0875 16.023 13.2398C16.0173 13.2827 15.9832 13.3137 15.9346 13.3072C15.8913 13.3015 15.8616 13.2617 15.8673 13.2188C15.8808 13.1186 15.859 13.0442 15.806 12.9852C15.5763 12.7283 14.7543 12.7467 13.9112 12.766C12.9995 12.7865 11.9665 12.8097 11.2376 12.5319C9.67489 11.936 7.52283 13.0053 7.03326 13.6165C7.01751 13.6362 6.99433 13.6462 6.97158 13.6462Z" fill="#F4C839"/>
<path d="M6.97171 13.6111C6.96209 13.6111 6.95246 13.6081 6.94415 13.6015C6.92534 13.5862 6.92227 13.5586 6.93715 13.5398C7.45821 12.8893 9.63827 11.7898 11.2815 12.4176C11.9872 12.6871 13.0083 12.6639 13.9083 12.6434C14.8314 12.6228 15.6303 12.6044 15.8971 12.9037C15.9759 12.9912 16.0061 13.1028 15.9881 13.2353C15.9855 13.2589 15.9693 13.2769 15.9391 13.2729C15.9151 13.2699 15.8985 13.2476 15.902 13.2239C15.9164 13.1163 15.8932 13.031 15.8324 12.9623C15.5918 12.6933 14.7767 12.7116 13.9105 12.7313C13.0022 12.7514 11.9728 12.7751 11.25 12.4994C9.67327 11.8983 7.50021 12.9776 7.00584 13.5949C6.99709 13.6054 6.9844 13.6111 6.97171 13.6111Z" fill="#F5CD44"/>
<path d="M10.5 14.0976C5.91631 14.0976 2.1875 13.0725 2.1875 11.8125H2.625C2.625 12.4574 5.32963 13.6601 10.5 13.6601C15.6704 13.6601 18.375 12.4574 18.375 11.8125H18.8125C18.8125 13.0725 15.0837 14.0976 10.5 14.0976Z" fill="#EDE3D0"/>
<defs>
<radialGradient id="paint0_radial_159_1601" cx="0" cy="0" r="1" gradientUnits="userSpaceOnUse" gradientTransform="translate(9.76555 16.8679) scale(4.16585 4.00954)">
<stop offset="0.024" stop-color="#9B8F7B"/>
<stop offset="0.632" stop-color="#998E76"/>
<stop offset="0.806" stop-color="#988D73"/>
<stop offset="0.876" stop-color="#9A8E76"/>
<stop offset="0.929" stop-color="#A19380"/>
<stop offset="0.976" stop-color="#AD9B90"/>
<stop offset="0.994" stop-color="#B39F98"/>
</radialGradient>
<radialGradient id="paint1_radial_159_1601" cx="0" cy="0" r="1" gradientUnits="userSpaceOnUse" gradientTransform="translate(10.2746 12.6776) scale(9.29142 7.80711)">
<stop offset="0.024" stop-color="#F2E8D5"/>
<stop offset="0.172" stop-color="#EEE3D0"/>
<stop offset="0.355" stop-color="#E2D6C1"/>
<stop offset="0.555" stop-color="#CEC1A8"/>
<stop offset="0.767" stop-color="#B3A385"/>
<stop offset="0.806" stop-color="#AD9D7E"/>
<stop offset="0.863" stop-color="#AE9F81"/>
<stop offset="0.906" stop-color="#B3A48B"/>
<stop offset="0.944" stop-color="#BBAD9B"/>
<stop offset="0.98" stop-color="#C6BAB2"/>
<stop offset="0.994" stop-color="#CBC1BD"/>
</radialGradient>
<radialGradient id="paint2_radial_159_1601" cx="0" cy="0" r="1" gradientUnits="userSpaceOnUse" gradientTransform="translate(10.5 13.1418) scale(9.82406 2.4511)">
<stop offset="0.541" stop-color="#EDBE34"/>
<stop offset="0.554" stop-color="#EBB931"/>
<stop offset="0.657" stop-color="#E09A1F"/>
<stop offset="0.744" stop-color="#D98713"/>
<stop offset="0.804" stop-color="#D6800F"/>
<stop offset="0.971" stop-color="#EDBF6B"/>
</radialGradient>
<linearGradient id="paint3_linear_159_1601" x1="13.4724" y1="3.0625" x2="13.4724" y2="3.9375" gradientUnits="userSpaceOnUse">
<stop stop-color="#855309"/>
<stop offset="0.413" stop-color="#B67C28"/>
<stop offset="0.821" stop-color="#855309"/>
<stop offset="0.885" stop-color="#764907"/>
<stop offset="1" stop-color="#472A00"/>
</linearGradient>
<linearGradient id="paint4_linear_159_1601" x1="2.26997" y1="11.9897" x2="18.7309" y2="11.9897" gradientUnits="userSpaceOnUse">
<stop stop-color="#AD9F97" stop-opacity="0"/>
<stop offset="0.5" stop-color="#FFF8D9"/>
<stop offset="1" stop-color="#AD9F97" stop-opacity="0"/>
</linearGradient>
<linearGradient id="paint5_linear_159_1601" x1="8.09375" y1="6.5625" x2="8.09375" y2="4.375" gradientUnits="userSpaceOnUse">
<stop stop-color="#FCD420" stop-opacity="0"/>
<stop offset="0.5" stop-color="#8F4500"/>
<stop offset="1" stop-color="#FCD420" stop-opacity="0"/>
</linearGradient>
<linearGradient id="paint6_linear_159_1601" x1="8.96875" y1="6.5625" x2="8.96875" y2="4.375" gradientUnits="userSpaceOnUse">
<stop stop-color="#FCD420" stop-opacity="0"/>
<stop offset="0.5" stop-color="#8F4500"/>
<stop offset="1" stop-color="#FCD420" stop-opacity="0"/>
</linearGradient>
<linearGradient id="paint7_linear_159_1601" x1="2.3916" y1="13.9865" x2="18.6089" y2="13.9865" gradientUnits="userSpaceOnUse">
<stop stop-color="#980D06"/>
<stop offset="0.374" stop-color="#FF8282"/>
<stop offset="0.446" stop-color="#FA7C7C"/>
<stop offset="0.547" stop-color="#EA6B69"/>
<stop offset="0.664" stop-color="#D24E4B"/>
<stop offset="0.794" stop-color="#AF2822"/>
<stop offset="0.871" stop-color="#980D06"/>
<stop offset="1" stop-color="#BE3833"/>
</linearGradient>
<linearGradient id="paint8_linear_159_1601" x1="10.2812" y1="6.5625" x2="10.2812" y2="4.375" gradientUnits="userSpaceOnUse">
<stop stop-color="#FCD420" stop-opacity="0"/>
<stop offset="0.5" stop-color="#8F4500"/>
<stop offset="1" stop-color="#FCD420" stop-opacity="0"/>
</linearGradient>
<linearGradient id="paint9_linear_159_1601" x1="13.4724" y1="4.8125" x2="13.4724" y2="5.6875" gradientUnits="userSpaceOnUse">
<stop stop-color="#855309"/>
<stop offset="0.413" stop-color="#B67C28"/>
<stop offset="0.821" stop-color="#855309"/>
<stop offset="0.885" stop-color="#764907"/>
<stop offset="1" stop-color="#472A00"/>
</linearGradient>
</defs>
</svg>
