<svg width="21" height="19" viewBox="0 0 21 19" fill="none" xmlns="http://www.w3.org/2000/svg">
<g clip-path="url(#clip0_164_3938)">
<path d="M4.83347e-05 11.7427C-0.231882 13.3803 6.39429 20.2362 14.7467 15.0674C23.3252 9.76179 20.4745 0 18.076 0C15.5864 0 15.8301 5.9775 10.801 9.17713C6.08603 12.179 0.293631 9.84032 4.83347e-05 11.7427Z" fill="url(#paint0_linear_164_3938)"/>
<path opacity="0.2" d="M8.35263 15.5352C7.73819 14.2702 7.52821 12.8494 7.75079 11.463C7.81049 11.095 7.90888 10.7343 8.04437 10.3867C6.94965 10.6632 5.82693 10.8164 4.69753 10.8434C5.75149 12.8795 4.63 14.9157 2.24023 14.7935C4.14483 16.2687 6.51175 17.0347 8.92806 16.9576C8.67944 16.508 8.48625 16.0305 8.35263 15.5352Z" fill="#C85D27"/>
<path opacity="0.2" d="M19.7557 1.57617C19.9318 2.94038 18.916 4.50238 17.1516 4.1446C16.8107 4.08815 16.4896 3.9474 16.2182 3.73538C15.9467 3.52336 15.7336 3.24693 15.5986 2.93165C15.0053 4.35539 14.2329 5.6992 13.2998 6.93119C14.3627 7.70596 15.2217 8.72284 15.8042 9.8959C16.3867 11.069 16.6757 12.3637 16.6467 13.6708C21.1854 9.68288 21.0269 4.22896 19.7557 1.57617Z" fill="#C85D27"/>
<path d="M5.39648 10.8062C5.39648 10.8062 5.41997 10.1401 5.66365 9.93359L7.90075 10.7248L7.75689 17.5662L6.12457 17.8338C5.8364 17.4162 5.60169 16.9648 5.42584 16.4899C5.42584 16.4899 5.75466 16.5307 5.99539 16.551C6.60605 15.7453 7.36643 13.1769 5.85154 10.8324C5.73117 10.8033 5.61667 10.8149 5.39648 10.8062Z" fill="#FFDA86"/>
<path d="M5.66309 9.92176C5.66309 9.92176 8.63121 12.2924 6.12401 17.8219C6.12401 17.8219 10.2342 19.3549 15.6655 16.2192C20.5507 13.4006 20.9999 8.05433 20.9999 8.05433C20.2647 6.88894 19.2439 5.9268 18.0325 5.2575C16.821 4.58819 15.4584 4.23349 14.0713 4.22641C13.2121 5.75721 12.0051 7.0688 10.5457 8.05734C9.08626 9.04587 7.41461 9.68419 5.66309 9.92176Z" fill="url(#paint1_linear_164_3938)"/>
<path opacity="0.3" d="M17.0546 15.2624C20.6422 12.3536 21.0004 8.05449 21.0004 8.05449C20.2653 6.88909 19.2445 5.92695 18.033 5.25765C16.8216 4.58834 15.4589 4.23364 14.0718 4.22656C13.5174 5.24241 12.7972 6.16039 11.9404 6.94334C15.3812 8.19411 17.36 11.6555 17.0546 15.2624Z" fill="#C85D27"/>
<path d="M10.7513 9.78478C10.6437 9.63792 10.5456 9.48441 10.4577 9.3252C8.82833 10.0088 6.89655 10.1804 7.04628 10.5847C7.19601 10.989 9.68853 12.1234 12.181 11.1839C11.5944 10.8426 11.103 10.3617 10.7513 9.78478Z" fill="#FFCF66"/>
<path opacity="0.3" d="M15.78 15.1866C15.4744 15.4002 15.1524 15.5899 14.817 15.7538C11.0474 17.6154 8.15268 16.6264 6.80807 15.9458C6.63046 16.5881 6.40172 17.2155 6.12402 17.8219C6.12402 17.8219 10.2342 19.3549 15.6655 16.2192C15.9591 16.0592 16.2057 15.8905 16.4552 15.716C16.2206 15.5518 15.9952 15.3751 15.78 15.1866Z" fill="#C85D27"/>
<path d="M8.03871 9.38343L7.27246 9.58704C7.42406 9.20075 7.63608 8.84051 7.90073 8.51953C7.90073 8.51953 12.099 10.0844 13.0296 13.0543C13.9603 16.0241 11.2505 18.9998 11.2505 18.9998C10.7856 18.7396 10.3392 18.4481 9.91471 18.1272L10.7544 17.9788C10.7544 17.9788 12.6626 13.8542 8.03871 9.38343Z" fill="#FFDA86"/>
<path d="M7.90039 8.52004C7.90039 8.52004 13.4021 12.4614 11.2502 18.9916C11.2502 18.9916 17.8147 18.1655 19.8551 13.398C19.8551 13.398 18.4048 6.74861 11.9489 6.0127C11.9489 6.02142 9.88501 7.77249 7.90039 8.52004Z" fill="url(#paint2_linear_164_3938)"/>
<path opacity="0.3" d="M17.4505 8.86328C17.7242 9.76127 17.7885 10.7091 17.6384 11.6353C17.2009 14.3521 14.4354 16.2341 11.7432 16.1235C11.7254 17.102 11.5571 18.0721 11.2441 19.0003C11.2441 19.0003 17.8087 18.1742 19.8491 13.4068C19.413 11.7296 18.5922 10.1747 17.4505 8.86328Z" fill="#C85D27"/>
<path d="M12.4514 6.80104C12.2635 6.70505 12.058 6.99011 10.9013 7.81328C9.74456 8.63646 9.404 8.74118 9.43336 8.94479C9.50089 9.35493 11.007 9.84069 11.9259 9.16295C12.8448 8.48521 12.8242 6.98138 12.4514 6.80104Z" fill="#FFCF66"/>
<path d="M12.9852 12.9818C12.6153 12.9062 12.1691 12.432 11.4674 11.6903C11.0799 11.2773 10.5867 10.7653 9.99948 10.1981C9.9516 10.1514 9.92439 10.0878 9.92384 10.0213C9.92329 9.95472 9.94944 9.89068 9.99655 9.84323C10.0437 9.79579 10.1079 9.76883 10.175 9.76828C10.2422 9.76774 10.3068 9.79365 10.3547 9.84033C10.9419 10.4221 11.4322 10.9311 11.8226 11.3442C12.354 11.9085 12.906 12.5077 13.0733 12.4815C13.0899 12.469 13.1037 12.4533 13.1138 12.4353C13.1239 12.4172 13.1301 12.3973 13.132 12.3768C13.223 11.8532 12.2718 10.521 11.576 9.54654C10.616 8.20851 10.2079 7.60349 10.5778 7.28935C10.9478 6.9752 11.6377 7.37079 13.3082 8.36268C13.7831 8.65706 14.2731 8.92697 14.7761 9.17131C14.6792 8.79608 14.23 7.92345 13.0146 7.2399C12.9594 7.20495 12.9199 7.15035 12.9042 7.08736C12.8885 7.02437 12.8978 6.95782 12.9302 6.90144C12.9626 6.84507 13.0156 6.80318 13.0783 6.78442C13.141 6.76567 13.2086 6.77149 13.2671 6.80067C14.735 7.62967 15.2429 8.72918 15.3016 9.19749C15.3198 9.274 15.3195 9.35369 15.3006 9.43004C15.2817 9.50639 15.2448 9.57721 15.193 9.63671C14.9464 9.87232 14.5676 9.68907 13.0586 8.79608C12.4215 8.41503 11.3999 7.81001 11.0035 7.70821C11.2976 8.24944 11.6343 8.76686 12.0105 9.25567C13.0469 10.71 13.772 11.7863 13.6517 12.4553C13.6376 12.5419 13.6063 12.6249 13.5594 12.6994C13.5125 12.7738 13.451 12.8382 13.3786 12.8887C13.3235 12.9311 13.2599 12.9613 13.1921 12.9773C13.1242 12.9934 13.0537 12.9949 12.9852 12.9818Z" fill="#7F4823"/>
<path d="M17.0277 7.29254C16.9796 7.28135 16.9352 7.25834 16.8985 7.22564C16.0998 6.50092 15.1087 6.0175 14.0419 5.83234C13.978 5.81768 13.9221 5.77946 13.8855 5.72544C13.849 5.67141 13.8346 5.60564 13.8452 5.54147C13.8594 5.47775 13.8978 5.42191 13.9525 5.3856C14.0072 5.34929 14.0739 5.33531 14.1388 5.34658C15.3011 5.55353 16.3802 6.08309 17.2508 6.87368C17.2979 6.9215 17.3243 6.98571 17.3243 7.05257C17.3243 7.11943 17.2979 7.18363 17.2508 7.23146C17.2206 7.25756 17.1849 7.27661 17.1462 7.28718C17.1076 7.29776 17.0671 7.29959 17.0277 7.29254Z" fill="#7F4823"/>
<path d="M9.02431 13.1652C8.96993 13.155 8.92052 13.1272 8.88384 13.0861C8.84717 13.045 8.82532 12.993 8.82173 12.9383C8.74034 12.1217 8.42222 11.3459 7.90575 10.7044C7.88378 10.6795 7.86695 10.6507 7.85624 10.6194C7.84553 10.5881 7.84114 10.5551 7.84332 10.5221C7.84772 10.4556 7.87863 10.3935 7.92924 10.3495C7.97985 10.3055 8.04602 10.2833 8.11319 10.2876C8.18036 10.292 8.24303 10.3226 8.28741 10.3728C8.88103 11.0935 9.24302 11.9739 9.3267 12.9005C9.3295 12.9336 9.32562 12.9669 9.31529 12.9985C9.30495 13.0301 9.28837 13.0594 9.26651 13.0845C9.24464 13.1097 9.21794 13.1303 9.18795 13.1452C9.15796 13.16 9.12528 13.1688 9.09183 13.171C9.06916 13.1736 9.04619 13.1716 9.02431 13.1652Z" fill="#7F4823"/>
</g>
<defs>
<linearGradient id="paint0_linear_164_3938" x1="-6.16062" y1="5.18422" x2="41.1106" y2="21.6525" gradientUnits="userSpaceOnUse">
<stop stop-color="#FFBF49"/>
<stop offset="0.5" stop-color="#EFAF43"/>
<stop offset="1" stop-color="#D97227"/>
</linearGradient>
<linearGradient id="paint1_linear_164_3938" x1="3.88979" y1="9.66363" x2="17.1676" y2="18.1716" gradientUnits="userSpaceOnUse">
<stop stop-color="#FFBF49"/>
<stop offset="0.5" stop-color="#EFAF43"/>
<stop offset="1" stop-color="#D97227"/>
</linearGradient>
<linearGradient id="paint2_linear_164_3938" x1="8.51398" y1="5.33205" x2="16.6013" y2="17.3683" gradientUnits="userSpaceOnUse">
<stop stop-color="#FFBF49"/>
<stop offset="0.5" stop-color="#EFAF43"/>
<stop offset="1" stop-color="#D97227"/>
</linearGradient>
<clipPath id="clip0_164_3938">
<rect width="21" height="19" fill="white"/>
</clipPath>
</defs>
</svg>
