<svg width="90" height="225" viewBox="0 0 90 225" fill="none" xmlns="http://www.w3.org/2000/svg">
<path d="M77.9737 138.875C74.0479 122.233 83.9527 96.4838 83.4789 82.1182C82.6892 61.7651 58.9314 37.0181 58.9314 37.0181L58.6606 30.8029L30.255 31.0988L30.0068 37.0181C30.0068 37.0181 5.23368 61.9017 5.77517 81.0482C6.15872 95.4366 14.5969 122.233 10.6937 138.875C6.79046 155.517 -8.77735 186.343 10.265 216.28C13.3335 221.107 33.549 224.021 46.3643 224.021C60.082 224.021 75.5145 222.222 78.8536 218.147C99.8363 192.467 81.8769 155.267 77.9737 138.875Z" fill="#FFF7F9"/>
<path d="M84.2234 81.071C83.8624 71.3953 78.1091 60.9683 72.1979 52.7041C62.9633 56.0227 53.1795 57.5071 43.3861 57.0752C34.2329 57.0645 25.124 55.793 16.3117 53.296C10.3778 61.6741 4.80502 72.01 5.03064 81.071C5.34651 95.4366 14.5969 122.233 10.6937 138.875C8.43751 147.981 2.32319 153.81 0.495669 173.024C-0.948302 188.301 0.495669 204.419 8.86619 217.715C11.9346 222.541 33.1204 225.228 46.0033 225.228C59.721 225.228 76.6651 223.224 80.0043 219.149C100.897 193.605 81.877 155.403 77.9737 138.989C74.0705 122.574 84.7649 95.4366 84.2234 81.071Z" fill="#471B0B"/>
<g style="mix-blend-mode:multiply" opacity="0.2">
<path d="M73.6191 60.3991C73.6191 60.3991 81.7188 69.5057 82.4183 78.6122C82.5948 86.7203 82.1952 94.8307 81.2225 102.881C82.9598 94.5942 84.5617 86.9447 84.3361 81.071C83.9751 71.3953 78.2217 60.9683 72.3105 52.7041C63.0759 56.0227 53.2922 57.5071 43.4987 57.0752C34.3456 57.0645 25.2367 55.793 16.4243 53.296C15.8378 54.1138 15.4351 55.0507 15.2442 56.0415C15.0533 57.0323 15.0787 58.0533 15.3188 59.0332C15.3188 59.0332 22.0874 66.9558 45.4165 66.9558C63.3533 66.9558 73.6191 60.3991 73.6191 60.3991Z" fill="#582E22"/>
</g>
<path d="M44.4914 62.0155C60.3414 62.0155 73.1903 58.6927 73.1903 54.5937C73.1903 50.4947 60.3414 47.1719 44.4914 47.1719C28.6414 47.1719 15.7925 50.4947 15.7925 54.5937C15.7925 58.6927 28.6414 62.0155 44.4914 62.0155Z" fill="#8F6E64"/>
<g style="mix-blend-mode:multiply" opacity="0.3">
<path d="M12.1826 215.734C16.0408 210.898 20.9078 206.979 26.4374 204.256C31.967 201.533 38.0234 200.073 44.1756 199.98C67.4596 199.98 76.7101 217.214 76.7101 217.214C76.7101 217.214 48.3496 227.254 12.1826 215.734Z" fill="#582E22"/>
</g>
<path d="M5.0082 82.3688C5.0082 96.8254 13.5818 122.415 9.79135 138.442C7.53515 147.549 1.2629 155.153 0.563477 172.296C37.7006 186.957 73.3035 178.375 88.7811 173.161C87.7883 154.265 81.5838 147.731 79.4855 138.898C75.5823 122.369 85.7352 97.8954 84.6522 81.4354C84.663 79.52 84.2627 77.6249 83.479 75.8804C55.4569 93.3422 15.5672 87.127 5.0082 82.3688Z" fill="#8A5C53"/>
<path d="M51.418 94.5488C38.6704 91.407 24.3435 99.7167 22.0873 113.377C21.2079 119.61 22.7638 125.944 26.4263 131.042C30.0889 136.14 35.5715 139.601 41.7163 140.696C54.8023 142.973 68.0913 133.639 69.6707 120.389C70.2133 114.587 68.6671 108.783 65.3152 104.037C61.9633 99.2921 57.0299 95.9237 51.418 94.5488Z" fill="#FFF7F9"/>
<path d="M62.7445 106C59.8356 101.829 55.5475 98.8424 50.6512 97.5766C39.6184 94.8447 27.0964 102.13 25.111 113.9C24.4353 118.097 25.1239 122.402 27.0739 126.171C33.8425 125.602 54.374 122.574 62.7445 106Z" fill="#E74006"/>
<path d="M29.7139 130.201C32.8837 134.033 37.2812 136.626 42.1456 137.532C44.874 138.001 47.6674 137.92 50.3648 137.295C53.0623 136.67 55.6106 135.513 57.8629 133.889C60.1152 132.266 62.0271 130.21 63.4883 127.838C64.9496 125.466 65.9314 122.826 66.3772 120.07C61.1428 123.53 45.2591 132.865 29.7139 130.201Z" fill="#2BB673"/>
<path d="M0.202148 176.485C34.4739 188.802 72.6263 181.562 89.2094 177.282C89.2094 175.916 88.9612 174.527 88.7807 173.161C88.7807 172.205 88.6679 171.249 88.6002 170.292C80.5005 175.369 61.977 179.399 45.1232 179.649C25.8326 180.036 9.2044 175.369 0.653389 170.543C0.653389 171.135 0.653389 171.727 0.653389 172.319V172.82C0.382645 174.026 0.292397 175.301 0.202148 176.485Z" fill="#C7C0C2"/>
<path d="M83.4789 75.9031V75.3112C58.4778 85.2228 30.993 86.818 5.03062 79.8644C5.00802 80.2359 5.00802 80.6085 5.03062 80.98C5.03062 81.3898 5.03062 81.8223 5.03062 82.2777C5.03062 82.733 5.03062 83.507 5.03062 84.1673C13.1078 87.0814 50.8767 93.2738 84.4039 78.7489C84.2062 77.7672 83.8958 76.8122 83.4789 75.9031Z" fill="#C7C0C2"/>
<path d="M58.7733 34.1495C40.7237 36.0619 31.6989 34.6276 30.1421 34.3544L30.0293 37.1092C39.6095 38.4566 49.3286 38.4566 58.9087 37.1092L58.7733 34.1495Z" fill="#F7E1E7"/>
<g style="mix-blend-mode:multiply" opacity="0.15">
<path d="M79.2822 139.125C75.3564 122.597 85.4867 96.8709 84.9227 82.5054C84.133 62.1522 58.8635 36.9726 58.8635 36.9726V33.9902C55.4195 34.5226 51.9455 34.8344 48.4624 34.9237L48.6429 37.7695C48.6429 37.7695 67.1438 57.4851 63.8948 94.4577C61.0295 126.057 60.1721 125.557 67.9786 157.088C72.7166 176.143 67.1663 209.678 64.1205 223.976C71.769 222.974 78.0864 221.335 79.9139 219.012C100.897 193.378 83.1854 155.631 79.2822 139.125Z" fill="#292623"/>
</g>
<path d="M30.661 26.4773C30.661 26.4773 27.5248 29.5963 24.0503 33.034C35.4667 35.8115 56.111 35.9709 64.504 32.5787C61.0069 29.4142 57.3519 25.7488 57.3519 25.7488L30.661 26.4773Z" fill="#FFF7F9"/>
<g style="mix-blend-mode:multiply" opacity="0.5">
<path d="M57.3522 25.8398L47.9438 26.0675V29.0499L52.3209 34.8553C56.453 34.6765 60.5395 33.9101 64.4593 32.5787C60.917 29.4142 57.3522 25.8398 57.3522 25.8398Z" fill="#D6BDB4"/>
</g>
<path d="M25.3366 4.55322L25.1787 27.7521C37.7156 30.4026 50.6684 30.325 63.1732 27.5245L62.925 4.55322H25.3366Z" fill="#E74006"/>
<g style="mix-blend-mode:multiply" opacity="0.3">
<path d="M62.9247 4.55322H51.6437L48.2368 6.82986L48.5978 29.5962C53.5079 29.3483 58.386 28.655 63.1729 27.5245L62.9247 4.55322Z" fill="#AB6AB0"/>
</g>
<path d="M44.1306 9.74401C54.5104 9.74401 62.9248 7.56274 62.9248 4.872C62.9248 2.18127 54.5104 0 44.1306 0C33.7509 0 25.3364 2.18127 25.3364 4.872C25.3364 7.56274 33.7509 9.74401 44.1306 9.74401Z" fill="#F4B2C9"/>
<path opacity="0.3" d="M9.31721 77.952C10.0166 66.4323 19.8762 49.8128 23.5313 43.9846C15.9956 52.7497 4.51149 68.2991 4.96273 81.071C4.96273 81.4808 4.96273 81.9134 4.96273 82.3687C4.96273 96.8254 13.5363 122.415 9.74589 138.442C7.48968 147.549 1.21743 155.153 0.51801 172.296C-0.318893 179.867 -0.227959 187.513 0.788754 195.062C1.78148 171.704 10.9191 158.864 14.7547 142.882C19.1091 124.737 8.45985 92.1355 9.31721 77.952Z" fill="#E3C1B2"/>
</svg>
