<svg width="230" height="111" viewBox="0 0 230 111" fill="none" xmlns="http://www.w3.org/2000/svg">
<path d="M94.115 18.8579C96.327 22.0479 97.623 25.9209 97.623 30.0979V36.8309C97.623 47.7369 88.782 56.5789 77.875 56.5789H25.533C21.357 56.5789 17.484 55.2829 14.293 53.0709C17.858 58.2119 23.802 61.5789 30.533 61.5789H82.876C93.782 61.5789 102.624 52.7369 102.624 41.8309V35.0979C102.624 28.3669 99.257 22.4229 94.115 18.8579Z" fill="#E6E7E8"/>
<path d="M223.324 83.404H6.67603C3.36203 83.404 0.676025 80.718 0.676025 77.404V67.58C0.676025 64.266 3.36203 61.58 6.67603 61.58H223.323C226.637 61.58 229.323 64.266 229.323 67.58V77.404C229.324 80.717 226.637 83.404 223.324 83.404Z" fill="#F2AD97"/>
<path d="M223.324 61.579H219.324V67.403C219.324 70.717 216.638 73.403 213.324 73.403H0.677002V77.403C0.677002 80.717 3.363 83.403 6.677 83.403H223.324C226.638 83.403 229.324 80.717 229.324 77.403V67.579C229.324 64.265 226.637 61.579 223.324 61.579Z" fill="#E59076"/>
<path d="M187.553 61.579H135.21C124.304 61.579 115.462 52.738 115.462 41.831V35.097C115.462 24.191 124.303 15.349 135.21 15.349H187.553C198.459 15.349 207.301 24.19 207.301 35.097V41.831C207.301 52.738 198.46 61.579 187.553 61.579Z" fill="#F1F2F2"/>
<path d="M198.793 18.8579C201.005 22.0479 202.301 25.9209 202.301 30.0979V36.8309C202.301 47.7369 193.46 56.5789 182.553 56.5789H130.21C126.034 56.5789 122.161 55.2829 118.971 53.0709C122.536 58.2119 128.48 61.5789 135.21 61.5789H187.553C198.459 61.5789 207.301 52.7369 207.301 41.8309V35.0979C207.301 28.3669 203.934 22.4229 198.793 18.8579Z" fill="#E6E7E8"/>
<path d="M121.106 33.8769C123.677 33.8769 126.122 32.5089 128.048 30.1749C131.445 26.0569 135.912 23.5579 140.805 23.5579H181.96C186.853 23.5579 191.319 26.0579 194.717 30.1749C196.642 32.5089 199.088 33.8769 201.659 33.8769C211.402 33.8769 215.686 17.0259 208.044 8.74593C203.334 3.64293 197.383 0.596924 190.913 0.596924H131.853C125.382 0.596924 119.431 3.64293 114.722 8.74593C107.078 17.0259 111.363 33.8769 121.106 33.8769Z" fill="#FFC91D"/>
<path d="M208.043 8.74599C206.865 7.46899 205.609 6.32099 204.287 5.31799C210.153 13.981 205.818 28.877 196.658 28.877C194.087 28.877 191.642 27.509 189.716 25.175C186.319 21.057 181.852 18.558 176.959 18.558H135.804C130.911 18.558 126.445 21.058 123.047 25.175C121.122 27.509 118.676 28.877 116.105 28.877C114.93 28.877 113.834 28.631 112.829 28.185C114.609 31.542 117.479 33.877 121.105 33.877C123.676 33.877 126.121 32.509 128.047 30.175C131.444 26.057 135.911 23.558 140.804 23.558H181.959C186.852 23.558 191.318 26.058 194.716 30.175C196.641 32.509 199.087 33.877 201.658 33.877C211.401 33.877 215.685 17.026 208.043 8.74599Z" fill="#FFA91A"/>
<path d="M184.429 0.595947H138.335V61.5789H184.429V0.595947Z" fill="#76A34F"/>
<path d="M174.428 0.595947V51.5789H138.335V61.5789H184.428V0.595947H174.428Z" fill="#648940"/>
<path d="M179.428 0.595947V56.5789H138.335V61.5789H184.428V0.595947H179.428Z" fill="#5A7A39"/>
<path d="M82.876 61.579H30.533C19.627 61.579 10.785 52.738 10.785 41.831V35.097C10.785 24.191 19.626 15.349 30.533 15.349H82.876C93.782 15.349 102.624 24.19 102.624 35.097V41.831C102.624 52.738 93.782 61.579 82.876 61.579Z" fill="#F1F2F2"/>
<path d="M25.686 41.5329C24.572 40.4189 24.572 38.6119 25.686 37.4969L29.105 34.0779C30.219 32.9639 32.026 32.9639 33.141 34.0779C34.255 35.1919 34.255 36.9989 33.141 38.1139L29.722 41.5329C28.607 42.6479 26.8 42.6479 25.686 41.5329Z" fill="white"/>
<path d="M22.136 49.902C22.136 48.326 23.414 47.048 24.99 47.048H29.825C31.401 47.048 32.679 48.326 32.679 49.902C32.679 51.478 31.401 52.756 29.825 52.756H24.99C23.414 52.756 22.136 51.478 22.136 49.902Z" fill="white"/>
<path d="M42.992 50.3929C41.878 51.5069 40.071 51.5069 38.956 50.3929L35.537 46.9739C34.423 45.8599 34.423 44.0529 35.537 42.9379C36.651 41.8239 38.458 41.8239 39.573 42.9379L42.992 46.3569C44.106 47.4719 44.106 49.2789 42.992 50.3929Z" fill="white"/>
<path d="M54.3339 41.5329C53.2199 40.4189 53.2199 38.6119 54.3339 37.4969L57.7529 34.0779C58.8669 32.9639 60.6739 32.9639 61.7889 34.0779C62.9029 35.1919 62.9029 36.9989 61.7889 38.1139L58.3699 41.5329C57.2549 42.6469 55.4489 42.6469 54.3339 41.5329Z" fill="white"/>
<path d="M50.7839 49.902C50.7839 48.326 52.0619 47.048 53.6379 47.048H58.4729C60.0489 47.048 61.3269 48.326 61.3269 49.902C61.3269 51.478 60.0489 52.756 58.4729 52.756H53.6379C52.0619 52.756 50.7839 51.478 50.7839 49.902Z" fill="white"/>
<path d="M71.64 50.3929C70.526 51.5069 68.719 51.5069 67.604 50.3929L64.185 46.9739C63.071 45.8599 63.071 44.0529 64.185 42.9379C65.299 41.8239 67.106 41.8239 68.221 42.9379L71.64 46.3569C72.754 47.4719 72.754 49.2779 71.64 50.3929Z" fill="white"/>
<path d="M82.982 41.5329C81.868 40.4189 81.868 38.6119 82.982 37.4969L86.401 34.0779C87.515 32.9639 89.322 32.9639 90.437 34.0779C91.551 35.1919 91.551 36.9989 90.437 38.1139L87.018 41.5329C85.903 42.6469 84.097 42.6469 82.982 41.5329Z" fill="white"/>
<path d="M79.3349 29.681C80.4489 30.795 80.4489 32.602 79.3349 33.717L75.9159 37.136C74.8019 38.25 72.9949 38.25 71.8799 37.136C70.7659 36.022 70.7659 34.215 71.8799 33.1L75.2989 29.681C76.4129 28.566 78.2199 28.566 79.3349 29.681Z" fill="white"/>
<path d="M50.687 29.681C51.801 30.795 51.801 32.602 50.687 33.717L47.268 37.136C46.154 38.25 44.347 38.25 43.232 37.136C42.118 36.022 42.118 34.215 43.232 33.1L46.651 29.681C47.765 28.567 49.572 28.567 50.687 29.681Z" fill="white"/>
<path d="M16.428 33.8769C18.999 33.8769 21.444 32.5089 23.37 30.1749C26.767 26.0569 31.234 23.5579 36.127 23.5579H77.282C82.175 23.5579 86.641 26.0579 90.039 30.1749C91.964 32.5089 94.41 33.8769 96.981 33.8769C106.724 33.8769 111.008 17.0259 103.366 8.74593C98.656 3.64293 92.705 0.596924 86.235 0.596924H27.175C20.704 0.596924 14.753 3.64293 10.044 8.74593C2.40102 17.0259 6.68502 33.8769 16.428 33.8769Z" fill="#F2AD97"/>
<path d="M103.366 8.74599C102.188 7.46899 100.932 6.32099 99.61 5.31799C105.476 13.981 101.142 28.877 91.981 28.877C89.41 28.877 86.965 27.509 85.039 25.175C81.642 21.057 77.175 18.558 72.282 18.558H31.127C26.234 18.558 21.768 21.058 18.37 25.175C16.445 27.509 13.999 28.877 11.428 28.877C10.253 28.877 9.15698 28.631 8.15198 28.185C9.93198 31.542 12.802 33.877 16.428 33.877C18.999 33.877 21.444 32.509 23.37 30.175C26.767 26.057 31.234 23.558 36.127 23.558H77.282C82.175 23.558 86.641 26.058 90.039 30.175C91.964 32.509 94.41 33.877 96.981 33.877C106.723 33.877 111.008 17.026 103.366 8.74599Z" fill="#E59076"/>
<path d="M36.127 23.5569H39.576V0.595947H32.193V24.1079C33.463 23.7469 34.779 23.5569 36.127 23.5569Z" fill="#FCC4AE"/>
<path d="M60.3959 0.595947H53.0129V23.5569H60.3959V0.595947Z" fill="#FCC4AE"/>
<path d="M77.282 23.5569C78.63 23.5569 79.946 23.7469 81.217 24.1079V0.595947H73.834V23.5569H77.282Z" fill="#FCC4AE"/>
<path d="M14.4501 14.819C13.9501 14.819 13.4601 14.63 13.0991 14.29C12.7001 13.92 12.4691 13.43 12.4501 12.89C12.4291 12.36 12.6201 11.85 12.9791 11.46C13.7001 10.68 15.0301 10.63 15.8091 11.35C16.6201 12.09 16.6691 13.36 15.9191 14.17C15.5401 14.58 15.0101 14.819 14.4501 14.819ZM20.8101 10.04C20.0311 10.04 19.3201 9.57997 18.9911 8.87997C18.7701 8.38997 18.7411 7.84998 18.9301 7.34998C19.1101 6.84998 19.4801 6.45098 19.9701 6.21998C22.2811 5.13998 24.7 4.59998 27.17 4.59998H86.2401C87.34 4.59998 88.229 5.49098 88.229 6.59998C88.229 7.70098 87.3391 8.59998 86.2401 8.59998H27.17C25.29 8.59998 23.43 9.01998 21.649 9.84998C21.649 9.84998 21.6391 9.84998 21.6391 9.85998C21.3701 9.97898 21.1001 10.04 20.8101 10.04Z" fill="#FFD2C0"/>
<path d="M50.9331 110.199H35.0701C32.8611 110.199 31.0701 108.408 31.0701 106.199V83.403H54.9331V106.199C54.9331 108.409 53.1431 110.199 50.9331 110.199Z" fill="#F2AD97"/>
<path d="M49.9331 83.4039V101.199C49.9331 103.408 48.1421 105.199 45.9331 105.199H31.0701V106.199C31.0701 108.408 32.8611 110.199 35.0701 110.199H50.9331C53.1421 110.199 54.9331 108.408 54.9331 106.199V83.4039H49.9331Z" fill="#E59076"/>
<path d="M194.93 110.199H179.067C176.858 110.199 175.067 108.408 175.067 106.199V83.403H198.93V106.199C198.93 108.409 197.139 110.199 194.93 110.199Z" fill="#F2AD97"/>
<path d="M193.93 83.4039V101.199C193.93 103.408 192.139 105.199 189.93 105.199H175.067V106.199C175.067 108.408 176.858 110.199 179.067 110.199H194.93C197.139 110.199 198.93 108.408 198.93 106.199V83.4039H193.93Z" fill="#E59076"/>
</svg>
