<svg width="180" height="179" viewBox="0 0 180 179" fill="none" xmlns="http://www.w3.org/2000/svg">
<path d="M161.313 92.3786C163.365 90.624 164.38 88.2299 164.302 85.7615H164.372V71.6907H139.711L147.146 43.4637H32.8994L44.0519 71.6907H15.6725V85.7615H15.7431C15.6613 88.2299 16.6799 90.624 18.732 92.3786L24.3343 97.1668C25.4458 98.1184 26.0592 99.3489 26.0592 100.631C26.0592 100.769 26.0257 100.903 26.0109 101.04H15.6799V116.189H15.8063C15.8398 116.479 15.8138 116.765 15.8844 117.055C16.6613 120.39 19.4569 122.996 23.1818 123.855L30.8548 125.62C31.6354 125.803 32.3343 126.115 32.9626 126.502V139.955C32.9291 140.316 32.944 140.669 32.9626 141.03V141.613H33.0146C33.2154 143.212 33.8473 144.747 35.0035 146.059C37.4645 148.851 41.5612 150.089 45.4534 149.219L53.1375 147.491C56.5427 146.728 60.1561 148.405 61.0371 151.156L63.1189 157.673C64.0297 160.524 66.368 162.703 69.5353 163.654C70.6097 163.97 71.7138 164.13 72.8105 164.13C75.3607 164.13 77.8514 163.275 79.7548 161.665L85.3942 156.903C87.9035 154.784 92.1452 154.784 94.6545 156.903L100.294 161.665C103.015 163.967 106.941 164.729 110.517 163.651C113.684 162.699 116.023 160.52 116.933 157.669L119.015 151.152C119.896 148.401 123.513 146.728 126.915 147.487L134.599 149.215C138.488 150.085 142.588 148.847 145.049 146.056C146.205 144.743 146.841 143.204 147.038 141.609H147.09V141.03C147.108 140.669 147.123 140.316 147.09 139.951V126.502C147.718 126.115 148.417 125.803 149.198 125.62L156.871 123.855C160.596 122.996 163.391 120.394 164.168 117.055C164.235 116.765 164.209 116.479 164.246 116.189H164.372V101.04H154.042C154.027 100.903 153.993 100.769 153.993 100.631C153.993 99.3489 154.607 98.1184 155.718 97.1668L161.313 92.3786Z" fill="url(#paint0_linear_41_18243)"/>
<path d="M161.298 94.754C163.796 96.992 164.863 100.226 164.164 103.379C163.358 106.892 160.566 109.609 156.852 110.527L149.172 112.405C147.335 112.843 145.867 113.921 145.094 115.401C144.688 116.159 144.287 117.356 144.726 118.836L146.781 125.706C147.625 128.58 146.963 131.576 145.019 133.933C142.558 136.888 138.48 138.204 134.584 137.249L126.904 135.453C123.487 134.654 119.885 136.412 119.004 139.286L116.911 146.156C115.993 149.189 113.677 151.468 110.517 152.465C106.915 153.621 102.985 152.825 100.268 150.386L94.6471 145.357C92.1489 143.119 87.8886 143.119 85.3905 145.357L79.7696 150.386C77.8588 152.063 75.3607 152.981 72.8253 152.981C71.725 152.981 70.6209 152.821 69.5205 152.461C66.3606 151.461 64.0446 149.186 63.1264 146.152L61.0334 139.282C60.1524 136.409 56.5501 134.65 53.1337 135.45L45.4534 137.245C41.5575 138.204 37.4794 136.884 35.0184 133.929C33.0704 131.572 32.4087 128.58 33.2563 125.702L35.3121 118.832C35.7544 117.356 35.3492 116.156 34.944 115.397C34.1708 113.921 32.7024 112.843 30.8659 112.401L23.1856 110.524C19.4755 109.605 16.6837 106.888 15.8732 103.375C15.1744 100.219 16.2413 96.9845 18.7394 94.7503L24.3231 89.7205C25.4607 88.7205 26.0518 87.4045 26.0518 86.0476C26.0518 84.6908 25.4644 83.4119 24.3231 82.4119L18.7394 77.3413C16.2413 75.1033 15.1744 71.91 15.8732 68.7575C16.6799 65.2445 19.4718 62.4898 23.1856 61.5716L30.8659 59.7352C32.7024 59.2965 34.1708 58.1775 34.944 56.7017C35.3492 55.9433 35.7507 54.7463 35.3121 53.3076L33.2563 46.4377C32.4124 43.5232 33.0741 40.5269 35.0184 38.1737C37.4794 35.2592 41.5575 33.9394 45.4534 34.8577L53.1337 36.6941C56.5501 37.4934 60.1524 35.735 61.0334 32.8205L63.1264 25.9505C64.0446 22.9542 66.3606 20.6382 69.5205 19.6419C73.1227 18.523 77.0521 19.3222 79.7696 21.7572L85.3905 26.7498C87.8886 28.9877 92.1489 28.9877 94.6471 26.7498L100.268 21.7572C102.985 19.3222 106.919 18.523 110.517 19.6419C113.677 20.6419 115.993 22.9542 116.911 25.9505L119.004 32.8205C119.885 35.735 123.487 37.4525 126.904 36.6941L134.584 34.8577C138.48 33.9394 142.558 35.2554 145.019 38.1737C146.967 40.5306 147.629 43.5232 146.781 46.4377L144.726 53.3076C144.283 54.7463 144.688 55.9433 145.094 56.7017C145.867 58.1775 147.335 59.2965 149.172 59.7352L156.852 61.5716C160.562 62.4898 163.354 65.2445 164.164 68.7575C164.863 71.9137 163.796 75.107 161.298 77.3413L155.714 82.4119C154.577 83.4119 153.986 84.687 153.986 86.0476C153.986 87.4045 154.573 88.7242 155.714 89.7205L161.298 94.754Z" fill="url(#paint1_radial_41_18243)"/>
<path d="M95.8664 121.814C84.8998 121.814 73.9034 118.951 64.8996 113.754C52.1151 106.42 44.6058 93.1816 45.7656 80.0328C46.4497 73.0216 49.0965 66.594 53.42 61.423C57.8364 56.0214 64.0929 51.6199 71.4945 48.7165C77.5205 46.3634 83.6209 45.17 89.6359 45.17C91.5467 45.17 93.4575 45.2927 95.3162 45.5418C100.011 46.1924 104.101 47.408 107.48 49.1589C110.822 50.8058 113.803 52.7389 116.833 55.2222C123.421 60.6348 127.432 67.3189 128.131 74.0476C128.536 77.8283 128 81.6759 126.58 85.1741C125.826 86.8841 125.082 88.5719 123.978 90.1183L122.562 92.1927C121.833 93.0961 121.168 93.9027 120.469 94.6239C114.625 100.379 106.658 103.929 98.0039 104.65C97.0486 104.732 96.082 104.773 95.1192 104.773C86.7659 104.776 78.7622 101.706 73.7101 96.5645C70.6543 93.4678 68.7101 89.5979 68.2416 85.6685C67.7955 81.4677 68.9591 77.3264 71.5093 73.9732C74.0781 70.252 79.3049 67.4936 84.1674 67.3412C84.4946 67.3226 84.8737 67.3115 85.2455 67.3115C89.2158 67.3115 93.0485 68.5085 96.6396 70.8654C97.714 71.5717 98.4092 72.6647 98.543 73.8617C98.6731 75.029 98.2605 76.2 97.4129 77.0773C96.5207 77.9993 95.227 78.5309 93.8589 78.5309C93.2158 78.5309 92.5913 78.4156 92.0039 78.1889C90.2493 77.5123 88.528 77.1591 87.0745 77.1591C86.5392 77.1591 86.0522 77.2075 85.6321 77.3004C84.2492 77.6238 83.4425 78.2855 82.7659 79.6573C81.067 82.6647 82.5615 85.8321 84.7697 87.6908C85.9555 88.7168 87.8106 89.6425 90.0188 90.3079C91.2753 90.6574 92.6656 90.8395 94.1043 90.8395C94.8106 90.8395 95.5207 90.7949 96.2307 90.7094C100.625 90.1629 105.116 88.0588 107.655 85.3525C107.848 85.1406 108.023 84.9213 108.205 84.6982L108.554 84.2707L109.357 82.9993C109.814 82.3413 110.09 81.7168 110.368 81.1071L110.77 80.2484C111.372 78.7837 111.61 77.1554 111.446 75.3896C111.168 72.1777 108.978 68.7278 105.283 65.6683C103.409 64.1033 101.242 62.6832 99.1787 61.6683C97.4835 60.7538 95.4649 60.159 92.7586 59.7575C91.5727 59.5828 90.3199 59.4936 89.0373 59.4936C85.3868 59.4936 81.5689 60.1925 77.9926 61.5159C73.119 63.2668 68.8476 66.0735 65.9554 69.4193C62.9702 72.8097 61.0334 76.9138 60.3457 81.3041C59.0408 90.0328 63.684 99.1742 72.1785 104.583C79.5094 109.304 88.8924 111.903 98.6136 111.903C100.829 111.903 103.052 111.765 105.216 111.487C117.075 110.029 128.186 104.605 135.714 96.6017C136.302 95.9771 137.149 95.624 138.038 95.624C138.662 95.624 139.264 95.795 139.781 96.1258C141.131 96.992 141.532 98.7058 140.703 100.029C134.231 110.382 121.32 118.342 107.011 120.799C103.409 121.472 99.6545 121.814 95.8664 121.814Z" fill="url(#paint2_linear_41_18243)"/>
<defs>
<linearGradient id="paint0_linear_41_18243" x1="15.6725" y1="103.799" x2="164.372" y2="103.799" gradientUnits="userSpaceOnUse">
<stop offset="0.03" stop-color="#CCBEBE"/>
<stop offset="0.12" stop-color="#BA9C9C"/>
<stop offset="0.17" stop-color="#D4C6C5"/>
<stop offset="0.27" stop-color="#B09EA1"/>
<stop offset="0.4" stop-color="#D4C6C5"/>
<stop offset="0.5" stop-color="#B09EA1"/>
<stop offset="0.6" stop-color="#D4C6C5"/>
<stop offset="0.73" stop-color="#B09EA1"/>
<stop offset="0.82" stop-color="#D4C6C5"/>
<stop offset="0.88" stop-color="#BA9C9C"/>
<stop offset="0.97" stop-color="#CCBEBE"/>
</linearGradient>
<radialGradient id="paint1_radial_41_18243" cx="0" cy="0" r="1" gradientUnits="userSpaceOnUse" gradientTransform="translate(89.564 65.0978) scale(145.906 145.168)">
<stop stop-color="#EDEDED"/>
<stop offset="0.198" stop-color="#EAE7E7"/>
<stop offset="0.459" stop-color="#E3D7D7"/>
<stop offset="0.754" stop-color="#D6BDBB"/>
<stop offset="0.891" stop-color="#CFAEAC"/>
</radialGradient>
<linearGradient id="paint2_linear_41_18243" x1="93.3905" y1="122.795" x2="93.3905" y2="40.6756" gradientUnits="userSpaceOnUse">
<stop stop-color="#E3525B"/>
<stop offset="1" stop-color="#E38C91"/>
</linearGradient>
</defs>
</svg>
