<svg width="180" height="179" viewBox="0 0 180 179" fill="none" xmlns="http://www.w3.org/2000/svg">
<path d="M93.4289 135.671C94.4045 134.696 93.0804 131.79 90.4716 129.181C87.8627 126.572 84.9569 125.248 83.9813 126.224C83.0057 127.2 84.3298 130.105 86.9387 132.714C89.5476 135.323 92.4533 136.647 93.4289 135.671Z" fill="#BA9448"/>
<path d="M155.691 158.23C154.233 159.688 151.869 159.688 150.412 158.23L111.545 119.364L118.858 112.052L155.691 148.885C158.271 151.468 158.271 155.65 155.691 158.23Z" fill="url(#paint0_linear_41_18247)"/>
<path d="M158.62 155.301L156.568 157.353C155.111 158.81 152.746 158.81 151.289 157.353L112.423 118.487L119.735 111.174L158.62 150.059C160.066 151.509 160.066 153.855 158.62 155.301Z" fill="url(#paint1_linear_41_18247)"/>
<path d="M68.7942 71.3339C67.3369 72.7911 64.9726 72.7911 63.5153 71.3339L56.2514 64.0699L63.5637 56.7576L68.7942 61.9881C71.3741 64.568 71.3741 68.7539 68.7942 71.3339Z" fill="url(#paint2_linear_41_18247)"/>
<path d="M71.7236 68.4044L69.6715 70.4564C68.2143 71.9137 65.8499 71.9137 64.3927 70.4564L57.1287 63.1924L64.441 55.8801L71.7236 63.1627C73.1697 64.6125 73.1697 66.9583 71.7236 68.4044Z" fill="url(#paint3_linear_41_18247)"/>
<path d="M136.363 98.7318C136.363 98.7318 125.408 107.71 115.88 117.241C106.649 126.479 97.9729 137.119 97.9729 137.119C96.0063 139.085 91.7832 137.684 90.3706 135.609C90.3706 135.609 95.6903 136.13 89.6159 130.055C84.6345 125.074 83.746 128.918 83.746 128.918C81.337 127.312 80.5638 123.639 82.5304 121.672C82.5304 121.672 91.6048 114.241 102.3 103.546C113.512 92.334 120.921 83.2819 120.921 83.2819C122.888 81.3153 127.631 81.3376 132.969 86.6759C138.903 92.6165 138.33 96.7652 136.363 98.7318Z" fill="url(#paint4_radial_41_18247)"/>
<path d="M136.363 98.7318C136.363 98.7318 125.408 107.71 115.88 117.241C106.649 126.479 97.9729 137.119 97.9729 137.119C96.0063 139.085 91.7832 137.684 90.3706 135.609C90.3706 135.609 95.6903 136.13 89.6159 130.055C84.6345 125.074 83.746 128.918 83.746 128.918C81.337 127.312 80.5638 123.639 82.5304 121.672C82.5304 121.672 91.6048 114.241 102.3 103.546C113.512 92.334 120.921 83.2819 120.921 83.2819C122.888 81.3153 127.631 81.3376 132.969 86.6759C138.903 92.6165 138.33 96.7652 136.363 98.7318Z" fill="url(#paint5_radial_41_18247)"/>
<path d="M84.627 112C100.001 112 112.464 99.5367 112.464 84.1629C112.464 68.7892 100.001 56.3263 84.627 56.3263C69.2533 56.3263 56.7904 68.7892 56.7904 84.1629C56.7904 99.5367 69.2533 112 84.627 112Z" fill="url(#paint6_radial_41_18247)"/>
<path d="M23.634 33.6756L31.6564 86.2039C32.1025 89.1295 35.6861 90.3043 37.7754 88.2113L81.2813 44.776C83.3742 42.6831 82.1995 39.1031 79.2738 38.657L27.6563 27.6421C25.5336 29.7648 23.266 31.2667 23.634 33.6756Z" fill="url(#paint7_linear_41_18247)"/>
<path d="M26.6415 30.7573L34.6564 83.2372C35.1062 86.174 38.701 87.3525 40.8014 85.2521L85.2627 40.7908C87.3631 38.6904 86.1847 35.0919 83.2478 34.6458L30.7753 26.6271C28.3552 26.2591 26.2734 28.3409 26.6415 30.7573Z" fill="url(#paint8_radial_41_18247)"/>
<path d="M84.627 112C100.001 112 112.464 99.5367 112.464 84.1629C112.464 68.7892 100.001 56.3263 84.627 56.3263C69.2533 56.3263 56.7904 68.7892 56.7904 84.1629C56.7904 99.5367 69.2533 112 84.627 112Z" fill="url(#paint9_radial_41_18247)"/>
<path d="M26.8087 30.5528C27.3292 37.8986 33.2735 78.1889 35.1248 82.122C36.9761 86.0551 28.4928 33.6532 28.3143 32.6346C27.7902 29.683 26.6824 28.7499 26.8087 30.5528Z" fill="url(#paint10_radial_41_18247)"/>
<defs>
<linearGradient id="paint0_linear_41_18247" x1="120.465" y1="111.122" x2="149.736" y2="161.815" gradientUnits="userSpaceOnUse">
<stop stop-color="#2B1A05"/>
<stop offset="0.309" stop-color="#3E2904"/>
<stop offset="0.714" stop-color="#523A02"/>
</linearGradient>
<linearGradient id="paint1_linear_41_18247" x1="121.624" y1="110.084" x2="150.896" y2="160.777" gradientUnits="userSpaceOnUse">
<stop stop-color="#5E520B"/>
<stop offset="0.048" stop-color="#6F5713"/>
<stop offset="0.124" stop-color="#845D1C"/>
<stop offset="0.209" stop-color="#936223"/>
<stop offset="0.31" stop-color="#9B6427"/>
<stop offset="0.471" stop-color="#9E6528"/>
<stop offset="0.655" stop-color="#9B6327"/>
<stop offset="0.767" stop-color="#935E23"/>
<stop offset="0.859" stop-color="#85541D"/>
<stop offset="0.94" stop-color="#714614"/>
<stop offset="1" stop-color="#5C380B"/>
</linearGradient>
<linearGradient id="paint2_linear_41_18247" x1="64.0191" y1="56.3567" x2="73.534" y2="67.1714" gradientUnits="userSpaceOnUse">
<stop stop-color="#2B1A05"/>
<stop offset="0.309" stop-color="#3E2904"/>
<stop offset="0.714" stop-color="#523A02"/>
</linearGradient>
<linearGradient id="paint3_linear_41_18247" x1="65.5235" y1="54.9275" x2="75.0383" y2="65.7417" gradientUnits="userSpaceOnUse">
<stop stop-color="#5E520B"/>
<stop offset="0.048" stop-color="#6F5713"/>
<stop offset="0.124" stop-color="#845D1C"/>
<stop offset="0.209" stop-color="#936223"/>
<stop offset="0.31" stop-color="#9B6427"/>
<stop offset="0.471" stop-color="#9E6528"/>
<stop offset="0.655" stop-color="#9B6327"/>
<stop offset="0.767" stop-color="#935E23"/>
<stop offset="0.859" stop-color="#85541D"/>
<stop offset="0.94" stop-color="#714614"/>
<stop offset="1" stop-color="#5C380B"/>
</linearGradient>
<radialGradient id="paint4_radial_41_18247" cx="0" cy="0" r="1" gradientUnits="userSpaceOnUse" gradientTransform="translate(86.4747 132.959) rotate(-45.001) scale(71.9188)">
<stop stop-color="#CFAF72"/>
<stop offset="0.107" stop-color="#E5C88B"/>
<stop offset="0.178" stop-color="#EFD497"/>
<stop offset="0.195" stop-color="#EACE82"/>
<stop offset="0.225" stop-color="#E2C564"/>
<stop offset="0.242" stop-color="#DFC258"/>
<stop offset="0.277" stop-color="#D9A842"/>
<stop offset="0.317" stop-color="#D59431"/>
<stop offset="0.362" stop-color="#D18525"/>
<stop offset="0.416" stop-color="#D07D1D"/>
<stop offset="0.501" stop-color="#CF7A1B"/>
<stop offset="0.552" stop-color="#D08020"/>
<stop offset="0.621" stop-color="#D4912F"/>
<stop offset="0.7" stop-color="#DAAE47"/>
<stop offset="0.747" stop-color="#DFC258"/>
<stop offset="0.754" stop-color="#E1C564"/>
<stop offset="0.769" stop-color="#E5C978"/>
<stop offset="0.787" stop-color="#E8CC87"/>
<stop offset="0.808" stop-color="#EACE8F"/>
<stop offset="0.841" stop-color="#EACF92"/>
<stop offset="1" stop-color="#CFAF72"/>
</radialGradient>
<radialGradient id="paint5_radial_41_18247" cx="0" cy="0" r="1" gradientUnits="userSpaceOnUse" gradientTransform="translate(79.3184 76.6127) scale(51.8108 51.8108)">
<stop offset="0.692" stop-color="#4D2D00" stop-opacity="0.6"/>
<stop offset="0.902" stop-color="#C9BFB1" stop-opacity="0.191"/>
<stop offset="1" stop-color="white" stop-opacity="0"/>
</radialGradient>
<radialGradient id="paint6_radial_41_18247" cx="0" cy="0" r="1" gradientUnits="userSpaceOnUse" gradientTransform="translate(79.2813 76.0179) scale(36.9705 36.9705)">
<stop stop-color="#ED9727"/>
<stop offset="0.336" stop-color="#C27122"/>
<stop offset="0.624" stop-color="#994D1D"/>
<stop offset="0.712" stop-color="#954C1B"/>
<stop offset="0.79" stop-color="#8B4917"/>
<stop offset="0.865" stop-color="#79440F"/>
<stop offset="0.933" stop-color="#613D04"/>
</radialGradient>
<linearGradient id="paint7_linear_41_18247" x1="43.6044" y1="90.8052" x2="53.9235" y2="32.275" gradientUnits="userSpaceOnUse">
<stop stop-color="#AD94AD"/>
<stop offset="0.015" stop-color="#A78DA4"/>
<stop offset="0.103" stop-color="#846772"/>
<stop offset="0.19" stop-color="#674849"/>
<stop offset="0.274" stop-color="#503029"/>
<stop offset="0.355" stop-color="#401E12"/>
<stop offset="0.432" stop-color="#361405"/>
<stop offset="0.499" stop-color="#331000"/>
<stop offset="0.577" stop-color="#361304"/>
<stop offset="0.654" stop-color="#3E1C10"/>
<stop offset="0.729" stop-color="#4C2B23"/>
<stop offset="0.804" stop-color="#5F403F"/>
<stop offset="0.879" stop-color="#785B62"/>
<stop offset="0.953" stop-color="#977C8D"/>
<stop offset="1" stop-color="#AD94AD"/>
</linearGradient>
<radialGradient id="paint8_radial_41_18247" cx="0" cy="0" r="1" gradientUnits="userSpaceOnUse" gradientTransform="translate(49.0454 48.8879) rotate(-44.0924) scale(46.2705 38.5577)">
<stop offset="0.068" stop-color="#331000"/>
<stop offset="1" stop-color="#786778"/>
</radialGradient>
<radialGradient id="paint9_radial_41_18247" cx="0" cy="0" r="1" gradientUnits="userSpaceOnUse" gradientTransform="translate(93.1914 88.8128) rotate(151.763) scale(36.9705 36.9705)">
<stop stop-color="#C27B20" stop-opacity="0"/>
<stop offset="0.192" stop-color="#BE781F" stop-opacity="0.205"/>
<stop offset="0.381" stop-color="#B2711B" stop-opacity="0.408"/>
<stop offset="0.568" stop-color="#9E6416" stop-opacity="0.61"/>
<stop offset="0.754" stop-color="#83530E" stop-opacity="0.809"/>
<stop offset="0.933" stop-color="#613D04"/>
</radialGradient>
<radialGradient id="paint10_radial_41_18247" cx="0" cy="0" r="1" gradientUnits="userSpaceOnUse" gradientTransform="translate(30.2697 48.2705) scale(26.0188 26.0188)">
<stop stop-color="#B89DB8"/>
<stop offset="0.932" stop-color="#331000"/>
</radialGradient>
</defs>
</svg>
