<?xml version="1.0" encoding="utf-8"?>
<!-- Generator: Adobe Illustrator 28.2.0, SVG Export Plug-In . SVG Version: 6.00 Build 0)  -->
<svg version="1.1" id="Layer_1" xmlns="http://www.w3.org/2000/svg" xmlns:xlink="http://www.w3.org/1999/xlink" x="0px" y="0px"
	 viewBox="0 0 841.9 595.3" style="enable-background:new 0 0 841.9 595.3;" xml:space="preserve">
<style type="text/css">
	.st0{fill:#DF923A;}
	.st1{fill:#61A681;}
	.st2{fill:none;}
	.st3{fill:#ABE1FA;}
	.st4{fill:#C02550;}
	.st5{fill:#6F6E6F;}
</style>
<g>
	<g>
		<g>
			<path class="st0" d="M563.3,334.5c-0.6-0.6-1.2-1.2-1.8-1.8c-0.2-0.3-0.4-0.3-0.8-0.1c-5.7,2.8-11.7,3.5-17.9,1.6
				c-7.3-2.3-12.4-7-15.1-14.1c-3.9-10.2-0.4-21.7,8.7-27.8c7.4-4.9,15.3-5.8,23.5-2.1c6,2.8,10.3,7.4,12.5,13.7
				c2,5.7,1.7,11.4-0.7,17c-1.1,2.7-2.8,5.1-4.8,7.2c0.5,0.6,1,1.1,1.5,1.7C566.7,331.5,565,333,563.3,334.5z M535.4,314.9
				c1.8,8,9.7,13,17.8,11.3c8.3-1.8,13.1-10.1,11.4-17.7c-1.8-8-9.9-13.2-17.8-11.4C538.7,298.9,533.6,306.7,535.4,314.9z"/>
			<path class="st0" d="M592.2,351.8c0.8,2.9-0.8,6.1-3.7,7.2c-2.8,1.1-5.2,0.6-7.3-1.6c-4.5-4.8-9.1-9.5-13.6-14.3
				c-0.4-0.4-0.9-0.8-1.2-1.3c-0.6-0.7-0.5-1.2,0.2-1.8c2.3-2.1,4.7-4.3,7-6.4c0.9-0.8,1.5-0.8,2.3,0.1c4.5,4.7,9.1,9.5,13.6,14.2
				c0.8,0.9,1.5,1.9,2.3,2.9C592,351.1,592,351.5,592.2,351.8z"/>
			<g>
				<path class="st0" d="M565.6,338.7c-0.4-0.9-0.7-1.7-1-2.5c-0.1-0.1,0.1-0.4,0.2-0.6c1.7-1.6,3.3-3.1,5-4.7
					c0.9,0.5,1.8,0.9,2.7,1.4C570.2,334.5,567.9,336.5,565.6,338.7z"/>
			</g>
		</g>
	</g>
	<g>
		<g>
			<path class="st1" d="M545.3,302.2c1.7,0,3,0.8,3.9,2.4c0.3,0.7,0.5,1.3,0.5,2.1c0,1.5-0.7,2.8-2.1,3.7c-0.7,0.4-1.5,0.6-2.3,0.6
				c-1.5,0-2.8-0.7-3.7-2.1c-0.4-0.7-0.6-1.4-0.6-2.1v-0.3c0-1.3,0.6-2.4,1.7-3.4C543.5,302.5,544.4,302.2,545.3,302.2z
				 M553.6,302.3h4.3c0,0,0,0,0,0L546.2,321h-4.3c0,0,0,0,0,0c0.2-0.2,3.3-5.2,9.5-15C552.7,303.7,553.5,302.6,553.6,302.3z
				 M544.6,306.6c0,0.3,0.2,0.5,0.5,0.6h0.1c0.4-0.1,0.7-0.3,0.7-0.7c-0.1-0.4-0.3-0.7-0.7-0.7C544.9,306,544.6,306.2,544.6,306.6
				L544.6,306.6z M555.2,312.2L555.2,312.2c1.5,0,2.7,0.6,3.6,1.9c0.5,0.8,0.8,1.6,0.8,2.5c0,1.5-0.7,2.8-2.1,3.7
				c-0.7,0.4-1.4,0.6-2.2,0.6h-0.2c-1.3,0-2.5-0.6-3.4-1.8c-0.6-0.8-0.8-1.6-0.8-2.4v-0.3c0-1.1,0.5-2.1,1.4-3.1
				C553.2,312.6,554.2,312.2,555.2,312.2z M554.6,316.6L554.6,316.6c0,0.4,0.2,0.6,0.7,0.6c0.4,0,0.6-0.2,0.6-0.7
				c0-0.3-0.2-0.5-0.5-0.6c-0.1,0-0.1,0-0.2,0C554.9,315.9,554.7,316.1,554.6,316.6z"/>
		</g>
	</g>
</g>
<g>
	<g>
		<path class="st1" d="M260.5,296c6.5,4.2,9.8,10.1,9.8,17.9c0,5.9-2.1,10.9-6.2,15.1c-4.2,4.2-9.2,6.2-15,6.2h-2.4h-19h-9.4v-71
			h9.4h19c5.2,0,9.7,1.9,13.4,5.6c3.7,3.7,5.6,8.1,5.6,13.4C265.6,288.1,263.9,292.4,260.5,296z M246.7,273.8h-19v18.9h19
			c2.6,0,4.8-0.9,6.7-2.8c1.8-1.8,2.8-4.1,2.8-6.7c0-2.6-0.9-4.8-2.8-6.7C251.5,274.7,249.3,273.8,246.7,273.8z M249.1,325.8
			c3.2,0,6-1.1,8.4-3.4c2.3-2.3,3.5-5.1,3.5-8.4c0-3.2-1.2-6-3.5-8.4c-2.3-2.3-5.1-3.5-8.4-3.5c-0.2,0-0.4,0-0.5,0.1h-20.8v23.6
			H249.1z"/>
		<path class="st1" d="M300.4,287.9c6.5,0,12.1,2.3,16.7,7c4.7,4.6,7,10.2,7,16.7v23.7h-23.7c-6.5,0-12.1-2.3-16.8-6.9
			c-4.6-4.7-6.9-10.2-6.9-16.8c0-6.5,2.3-12.1,6.9-16.7C288.3,290.2,293.9,287.9,300.4,287.9z M314.6,311.6c0-3.9-1.4-7.3-4.1-10
			c-2.8-2.8-6.1-4.1-10-4.1c-3.9,0-7.3,1.4-10,4.1c-2.8,2.8-4.2,6.1-4.2,10c0,3.9,1.4,7.3,4.2,10c2.8,2.8,6.1,4.2,10,4.2h14.2V311.6
			z"/>
		<path class="st1" d="M379.4,287.9L351,325.8h28.4v9.4h-47.4l28.4-37.8h-28.4v-9.5H379.4z"/>
		<path class="st1" d="M410.6,287.9c6.5,0,12.1,2.3,16.7,7c4.7,4.6,7,10.2,7,16.7v23.7h-23.7c-6.5,0-12.1-2.3-16.8-6.9
			c-4.6-4.7-6.9-10.2-6.9-16.8c0-6.5,2.3-12.1,6.9-16.7C398.5,290.2,404.1,287.9,410.6,287.9z M424.8,311.6c0-3.9-1.4-7.3-4.1-10
			c-2.8-2.8-6.1-4.1-10-4.1c-3.9,0-7.3,1.4-10,4.1c-2.8,2.8-4.2,6.1-4.2,10c0,3.9,1.4,7.3,4.2,10c2.8,2.8,6.1,4.2,10,4.2h14.2V311.6
			z"/>
		<path class="st1" d="M442.3,335.3v-23.7c0-6.5,2.3-12.1,6.9-16.7c4.7-4.7,10.2-7,16.8-7h9.4v9.5H466c-3.9,0-7.3,1.4-10,4.1
			c-2.8,2.8-4.2,6.1-4.2,10v23.7H442.3z"/>
		<path class="st0" d="M492.3,264.2v42.6l16.1-19h12.3l-21.8,25.5l21.8,21.9h-13.2l-14.3-14.6l-0.3-0.3l-0.6,0.6v14.2h-9.4v-71
			H492.3z"/>
		<path class="st0" d="M642.7,287.9c6.5,0,12.1,2.3,16.8,7c4.6,4.6,6.9,10.2,6.9,16.7v23.7h-9.4v-23.7c0-3.9-1.4-7.3-4.1-10
			c-2.8-2.8-6.2-4.1-10.1-4.1c-3.9,0-7.3,1.4-10,4.1c-2.8,2.8-4.1,6.1-4.1,10v23.7H619v-23.7c0-3.9-1.4-7.3-4.1-10
			c-2.8-2.8-6.1-4.1-10-4.1c-3.9,0-7.3,1.4-10,4.1c-2.8,2.8-4.2,6.1-4.2,10v23.7h-9.4v-23.7c0-6.5,2.3-12.1,6.9-16.7
			c4.7-4.7,10.2-7,16.8-7c7.9,0,14.2,3.2,19,9.5C628.5,291.1,634.8,287.9,642.7,287.9z"/>
		<path class="st1" d="M689.7,333.3c-1.3,1.3-2.8,2-4.7,2c-1.8,0-3.4-0.7-4.6-2c-1.3-1.3-2-2.8-2-4.6c0-1.8,0.7-3.4,2-4.6
			c1.3-1.3,2.8-2,4.6-2c1.8,0,3.4,0.7,4.7,2c1.3,1.3,2,2.8,2,4.6C691.7,330.5,691.1,332.1,689.7,333.3z"/>
		<path class="st1" d="M724.3,287.9c6.5,0,12.1,2.3,16.7,7c4.7,4.6,7,10.2,7,16.7v23.7h-23.7c-6.5,0-12.1-2.3-16.8-6.9
			c-4.6-4.7-6.9-10.2-6.9-16.8c0-6.5,2.3-12.1,6.9-16.7C712.2,290.2,717.8,287.9,724.3,287.9z M738.5,311.6c0-3.9-1.4-7.3-4.1-10
			c-2.8-2.8-6.1-4.1-10-4.1c-3.9,0-7.3,1.4-10,4.1c-2.8,2.8-4.2,6.1-4.2,10c0,3.9,1.4,7.3,4.2,10c2.8,2.8,6.1,4.2,10,4.2h14.2V311.6
			z"/>
		<path class="st1" d="M803.4,287.9L775,325.8h28.4v9.4H756l28.4-37.8H756v-9.5H803.4z"/>
	</g>
</g>
<g>
	<g>
		<path class="st1" d="M226.8,357.7h4.3l8.5,22h-4.4l-1.7-4.5h-9l-1.8,4.5h-4.4L226.8,357.7z M229,363.5l-3,7.6h5.9L229,363.5z"/>
		<path class="st1" d="M254.4,363.4h4.1v14c0,2.8-0.6,4.8-1.7,6.1c-1.5,1.8-3.7,2.6-6.7,2.6c-1.6,0-2.9-0.2-4-0.6
			c-1.1-0.4-2-1-2.8-1.8c-0.7-0.8-1.3-1.7-1.7-2.8h4.5c0.4,0.5,0.9,0.8,1.5,1c0.6,0.2,1.4,0.4,2.2,0.4c1.1,0,2-0.2,2.7-0.5
			s1.1-0.8,1.4-1.3c0.3-0.5,0.4-1.5,0.4-2.8c-0.7,0.7-1.5,1.2-2.3,1.6c-0.8,0.3-1.7,0.5-2.7,0.5c-2.2,0-4-0.8-5.5-2.4
			c-1.5-1.6-2.3-3.6-2.3-6c0-2.6,0.8-4.7,2.4-6.2c1.5-1.4,3.2-2.1,5.2-2.1c0.9,0,1.8,0.2,2.7,0.5c0.8,0.3,1.7,0.9,2.5,1.7V363.4z
			 M244.8,356.2h3.3c0.3,0.4,0.6,0.7,1.1,0.9c0.5,0.2,1,0.3,1.7,0.3c0.7,0,1.3-0.1,1.8-0.4c0.4-0.2,0.7-0.4,0.9-0.9h3.3
			c-0.2,1.3-0.8,2.3-1.8,3.1c-1,0.8-2.5,1.2-4.3,1.2c-1.2,0-2.3-0.2-3.1-0.5c-0.8-0.3-1.5-0.8-2-1.5
			C245.3,357.8,244.9,357.1,244.8,356.2z M250.2,366.8c-1.3,0-2.3,0.4-3.2,1.3c-0.8,0.9-1.3,2-1.3,3.3c0,1.4,0.4,2.5,1.3,3.3
			c0.9,0.9,1.9,1.3,3.2,1.3c1.3,0,2.3-0.4,3.1-1.3c0.8-0.9,1.2-2,1.2-3.3c0-1.4-0.4-2.5-1.2-3.3
			C252.5,367.3,251.5,366.8,250.2,366.8z"/>
		<path class="st1" d="M262.2,363.4h4.1v16.3h-4.1V363.4z"/>
		<path class="st1" d="M269.5,357.1h4.1v22.6h-4.1V357.1z"/>
		<path class="st1" d="M276.9,357.1h4.1v22.6h-4.1V357.1z"/>
		<path class="st1" d="M284.2,363.4h4.1v16.3h-4.1V363.4z"/>
		<path class="st1" d="M304.7,357.1v8.1c0.7-0.7,1.5-1.3,2.4-1.7c0.9-0.4,1.8-0.6,2.8-0.6c2.1,0,3.9,0.8,5.4,2.4
			c1.5,1.6,2.2,3.7,2.2,6.2c0,2.4-0.8,4.5-2.3,6.1c-1.5,1.6-3.4,2.4-5.5,2.4c-0.9,0-1.8-0.2-2.6-0.5s-1.6-0.9-2.4-1.6v1.7h-4.1
			v-22.6H304.7z M309,366.8c-1.3,0-2.4,0.4-3.2,1.3c-0.9,0.9-1.3,2-1.3,3.4c0,1.4,0.4,2.6,1.3,3.5c0.9,0.9,1.9,1.3,3.2,1.3
			c1.3,0,2.3-0.5,3.2-1.4c0.9-0.9,1.3-2.1,1.3-3.5c0-1.4-0.4-2.6-1.3-3.4C311.3,367.2,310.3,366.8,309,366.8z"/>
		<path class="st1" d="M332.9,363.4h4.1v16.3h-4.1V378c-0.8,0.8-1.6,1.3-2.4,1.6s-1.7,0.5-2.6,0.5c-2.1,0-3.9-0.8-5.5-2.4
			c-1.5-1.6-2.3-3.7-2.3-6.1c0-2.5,0.7-4.6,2.2-6.2c1.5-1.6,3.3-2.4,5.4-2.4c1,0,1.9,0.2,2.8,0.6c0.9,0.4,1.7,0.9,2.4,1.7V363.4z
			 M328.6,366.8c-1.3,0-2.3,0.4-3.1,1.3c-0.8,0.9-1.3,2-1.3,3.4c0,1.4,0.4,2.6,1.3,3.5c0.9,0.9,1.9,1.4,3.1,1.4
			c1.3,0,2.3-0.4,3.2-1.3c0.8-0.9,1.3-2.1,1.3-3.5c0-1.4-0.4-2.6-1.3-3.4C331,367.2,329.9,366.8,328.6,366.8z"/>
		<path class="st1" d="M340.5,363.4H353l-7.3,12.8h6.9v3.5h-13.2l7.4-12.8h-6.2V363.4z"/>
		<path class="st1" d="M367.3,363.4h4.1v16.3h-4.1V378c-0.8,0.8-1.6,1.3-2.4,1.6s-1.7,0.5-2.6,0.5c-2.1,0-3.9-0.8-5.5-2.4
			c-1.5-1.6-2.3-3.7-2.3-6.1c0-2.5,0.7-4.6,2.2-6.2c1.5-1.6,3.3-2.4,5.4-2.4c1,0,1.9,0.2,2.8,0.6c0.9,0.4,1.6,0.9,2.4,1.7V363.4z
			 M363,366.8c-1.3,0-2.3,0.4-3.2,1.3c-0.8,0.9-1.3,2-1.3,3.4c0,1.4,0.4,2.6,1.3,3.5c0.9,0.9,1.9,1.4,3.1,1.4c1.3,0,2.3-0.4,3.2-1.3
			c0.8-0.9,1.3-2.1,1.3-3.5c0-1.4-0.4-2.6-1.3-3.4C365.4,367.2,364.3,366.8,363,366.8z"/>
		<path class="st1" d="M374.6,363.4h3.5v2.1c0.4-0.8,0.9-1.4,1.5-1.8c0.6-0.4,1.3-0.6,2.1-0.6c0.5,0,1.1,0.1,1.7,0.4l-1.3,3.5
			c-0.5-0.2-0.9-0.4-1.2-0.4c-0.6,0-1.2,0.4-1.6,1.2c-0.4,0.8-0.7,2.3-0.7,4.6l0,0.8v6.6h-4.1V363.4z"/>
		<path class="st1" d="M384.9,357.1h4.1v22.6h-4.1V357.1z"/>
		<path class="st1" d="M392.3,363.4h4.1v16.3h-4.1V363.4z"/>
		<path class="st1" d="M412.1,363.4h4.1v22.3h-4.1V378c-0.8,0.8-1.6,1.3-2.4,1.6s-1.7,0.5-2.6,0.5c-2.1,0-3.9-0.8-5.5-2.4
			c-1.5-1.6-2.3-3.7-2.3-6.1c0-2.5,0.7-4.6,2.2-6.2c1.5-1.6,3.3-2.4,5.4-2.4c1,0,1.9,0.2,2.8,0.6c0.9,0.4,1.7,0.9,2.4,1.7V363.4z
			 M407.8,366.8c-1.3,0-2.3,0.4-3.1,1.3c-0.8,0.9-1.3,2-1.3,3.4c0,1.4,0.4,2.6,1.3,3.5c0.9,0.9,1.9,1.4,3.1,1.4
			c1.3,0,2.3-0.4,3.2-1.3c0.8-0.9,1.3-2.1,1.3-3.5c0-1.4-0.4-2.6-1.3-3.4C410.2,367.2,409.1,366.8,407.8,366.8z"/>
		<path class="st1" d="M433,357.1v8.1c0.7-0.7,1.5-1.3,2.4-1.7c0.9-0.4,1.8-0.6,2.8-0.6c2.1,0,3.9,0.8,5.4,2.4
			c1.5,1.6,2.2,3.7,2.2,6.2c0,2.4-0.8,4.5-2.3,6.1c-1.5,1.6-3.4,2.4-5.5,2.4c-0.9,0-1.8-0.2-2.6-0.5c-0.8-0.3-1.6-0.9-2.4-1.6v1.7
			h-4.1v-22.6H433z M437.3,366.8c-1.3,0-2.4,0.4-3.2,1.3c-0.9,0.9-1.3,2-1.3,3.4c0,1.4,0.4,2.6,1.3,3.5c0.9,0.9,1.9,1.3,3.2,1.3
			c1.3,0,2.3-0.5,3.2-1.4c0.9-0.9,1.3-2.1,1.3-3.5c0-1.4-0.4-2.6-1.3-3.4C439.6,367.2,438.6,366.8,437.3,366.8z"/>
		<path class="st1" d="M449.2,363.4h4.1v7.9c0,1.5,0.1,2.6,0.3,3.2c0.2,0.6,0.6,1.1,1,1.4c0.5,0.3,1,0.5,1.7,0.5
			c0.7,0,1.3-0.2,1.7-0.5c0.5-0.3,0.8-0.8,1.1-1.4c0.2-0.5,0.3-1.5,0.3-3v-8h4.1v6.9c0,2.8-0.2,4.8-0.7,5.8
			c-0.6,1.3-1.4,2.3-2.4,2.9c-1.1,0.7-2.4,1-4.1,1c-1.8,0-3.2-0.4-4.3-1.2c-1.1-0.8-1.9-1.9-2.3-3.3c-0.3-1-0.5-2.8-0.5-5.4V363.4z"
			/>
		<path class="st1" d="M466.7,363.4h3.5v2.1c0.4-0.8,0.9-1.4,1.5-1.8c0.6-0.4,1.3-0.6,2.1-0.6c0.5,0,1.1,0.1,1.7,0.4l-1.3,3.5
			c-0.5-0.2-0.9-0.4-1.2-0.4c-0.6,0-1.2,0.4-1.6,1.2c-0.4,0.8-0.7,2.3-0.7,4.6l0,0.8v6.6h-4.1V363.4z"/>
		<path class="st1" d="M489.5,357.1h4.1v22.6h-4.1V378c-0.8,0.8-1.6,1.3-2.4,1.6s-1.7,0.5-2.6,0.5c-2.1,0-3.9-0.8-5.5-2.4
			c-1.5-1.6-2.3-3.7-2.3-6.1c0-2.5,0.7-4.6,2.2-6.2c1.5-1.6,3.3-2.4,5.4-2.4c1,0,1.9,0.2,2.8,0.6c0.9,0.4,1.7,0.9,2.4,1.7V357.1z
			 M485.2,366.8c-1.3,0-2.3,0.4-3.1,1.3c-0.8,0.9-1.3,2-1.3,3.4c0,1.4,0.4,2.6,1.3,3.5c0.9,0.9,1.9,1.4,3.1,1.4
			c1.3,0,2.3-0.4,3.2-1.3c0.8-0.9,1.3-2.1,1.3-3.5c0-1.4-0.4-2.6-1.3-3.4C487.5,367.2,486.5,366.8,485.2,366.8z"/>
		<path class="st1" d="M509.7,363.4h4.1v16.3h-4.1V378c-0.8,0.8-1.6,1.3-2.4,1.6s-1.7,0.5-2.6,0.5c-2.1,0-3.9-0.8-5.5-2.4
			c-1.5-1.6-2.3-3.7-2.3-6.1c0-2.5,0.7-4.6,2.2-6.2c1.5-1.6,3.3-2.4,5.4-2.4c1,0,1.9,0.2,2.8,0.6c0.9,0.4,1.7,0.9,2.4,1.7V363.4z
			 M505.4,366.8c-1.3,0-2.3,0.4-3.1,1.3c-0.8,0.9-1.3,2-1.3,3.4c0,1.4,0.4,2.6,1.3,3.5c0.9,0.9,1.9,1.4,3.1,1.4
			c1.3,0,2.3-0.4,3.2-1.3c0.8-0.9,1.3-2.1,1.3-3.5c0-1.4-0.4-2.6-1.3-3.4C507.8,367.2,506.7,366.8,505.4,366.8z"/>
		<path class="st1" d="M517.9,363.4h4.1v1.7c0.9-0.8,1.8-1.3,2.5-1.6c0.8-0.3,1.5-0.5,2.3-0.5c1.6,0,3,0.6,4.1,1.7
			c0.9,1,1.4,2.4,1.4,4.3v10.8h-4v-7.1c0-1.9-0.1-3.2-0.3-3.9s-0.5-1.1-0.9-1.5s-1-0.5-1.6-0.5c-0.8,0-1.5,0.3-2.1,0.8
			s-1,1.3-1.2,2.3c-0.1,0.5-0.2,1.6-0.2,3.3v6.5h-4.1V363.4z"/>
		<path class="st1" d="M549,357.1v8.1c0.7-0.7,1.5-1.3,2.4-1.7c0.9-0.4,1.8-0.6,2.8-0.6c2.1,0,3.9,0.8,5.4,2.4
			c1.5,1.6,2.2,3.7,2.2,6.2c0,2.4-0.8,4.5-2.3,6.1c-1.5,1.6-3.4,2.4-5.5,2.4c-0.9,0-1.8-0.2-2.6-0.5s-1.6-0.9-2.4-1.6v1.7H545v-22.6
			H549z M553.3,366.8c-1.3,0-2.4,0.4-3.2,1.3c-0.9,0.9-1.3,2-1.3,3.4c0,1.4,0.4,2.6,1.3,3.5c0.9,0.9,1.9,1.3,3.2,1.3
			c1.3,0,2.3-0.5,3.2-1.4c0.9-0.9,1.3-2.1,1.3-3.5c0-1.4-0.4-2.6-1.3-3.4C555.7,367.2,554.6,366.8,553.3,366.8z"/>
		<path class="st1" d="M577.3,363.4h4.1v16.3h-4.1V378c-0.8,0.8-1.6,1.3-2.4,1.6c-0.8,0.3-1.7,0.5-2.6,0.5c-2.1,0-3.9-0.8-5.5-2.4
			c-1.5-1.6-2.3-3.7-2.3-6.1c0-2.5,0.7-4.6,2.2-6.2c1.5-1.6,3.3-2.4,5.4-2.4c1,0,1.9,0.2,2.8,0.6c0.9,0.4,1.6,0.9,2.4,1.7V363.4z
			 M573,366.8c-1.3,0-2.3,0.4-3.2,1.3c-0.8,0.9-1.3,2-1.3,3.4c0,1.4,0.4,2.6,1.3,3.5c0.9,0.9,1.9,1.4,3.1,1.4c1.3,0,2.3-0.4,3.2-1.3
			c0.8-0.9,1.3-2.1,1.3-3.5c0-1.4-0.4-2.6-1.3-3.4C575.3,367.2,574.2,366.8,573,366.8z"/>
		<path class="st1" d="M595.5,365.7l-2.5,2.5c-1-1-2-1.5-2.8-1.5c-0.5,0-0.8,0.1-1.1,0.3c-0.3,0.2-0.4,0.4-0.4,0.7
			c0,0.2,0.1,0.4,0.2,0.6c0.2,0.2,0.6,0.4,1.2,0.8l1.5,0.7c1.6,0.8,2.7,1.6,3.3,2.4c0.6,0.8,0.9,1.8,0.9,2.8c0,1.4-0.5,2.7-1.6,3.6
			c-1.1,1-2.5,1.5-4.3,1.5c-2.4,0-4.3-0.9-5.7-2.8l2.5-2.7c0.5,0.6,1,1,1.7,1.4c0.6,0.3,1.2,0.5,1.7,0.5c0.5,0,1-0.1,1.3-0.4
			c0.3-0.3,0.5-0.6,0.5-0.9c0-0.6-0.6-1.2-1.8-1.8l-1.4-0.7c-2.6-1.3-4-3-4-5c0-1.3,0.5-2.4,1.5-3.3c1-0.9,2.3-1.4,3.8-1.4
			c1.1,0,2.1,0.2,3,0.7C594,364.2,594.8,364.8,595.5,365.7z M588.9,379.5h2.5l-0.2,0.7c0.7,0.1,1.2,0.4,1.6,0.9
			c0.4,0.4,0.6,0.9,0.6,1.4c0,0.8-0.3,1.5-1,2.1c-0.7,0.6-1.6,0.9-2.8,0.9c-1,0-2.1-0.2-3.3-0.7l0.5-1.9c0.7,0.2,1.4,0.3,2.1,0.3
			c0.5,0,0.9-0.1,1.1-0.3c0.2-0.2,0.4-0.5,0.4-0.8c0-0.3-0.1-0.5-0.3-0.6c-0.2-0.2-0.5-0.2-0.9-0.2l-0.8,0L588.9,379.5z"/>
		<path class="st1" d="M598.5,357.1h4.1v22.6h-4.1V357.1z"/>
		<path class="st1" d="M618.4,363.4h4.1v16.3h-4.1V378c-0.8,0.8-1.6,1.3-2.4,1.6c-0.8,0.3-1.7,0.5-2.6,0.5c-2.1,0-3.9-0.8-5.5-2.4
			c-1.5-1.6-2.3-3.7-2.3-6.1c0-2.5,0.7-4.6,2.2-6.2c1.5-1.6,3.3-2.4,5.4-2.4c1,0,1.9,0.2,2.8,0.6c0.9,0.4,1.7,0.9,2.4,1.7V363.4z
			 M614.1,366.8c-1.3,0-2.3,0.4-3.1,1.3c-0.8,0.9-1.3,2-1.3,3.4c0,1.4,0.4,2.6,1.3,3.5c0.9,0.9,1.9,1.4,3.1,1.4
			c1.3,0,2.3-0.4,3.2-1.3c0.8-0.9,1.3-2.1,1.3-3.5c0-1.4-0.4-2.6-1.3-3.4C616.4,367.2,615.4,366.8,614.1,366.8z"/>
		<path class="st1" d="M624.8,363.4h4.2l4.2,10.2l4.7-10.2h4.2l-10.2,22.3h-4.2l3.4-7.2L624.8,363.4z"/>
		<path class="st1" d="M644,363.4h4.1v16.3H644V363.4z"/>
		<path class="st1" d="M650.8,363.4h3.5v2.1c0.4-0.8,0.9-1.4,1.5-1.8c0.6-0.4,1.3-0.6,2.1-0.6c0.5,0,1.1,0.1,1.7,0.4l-1.3,3.5
			c-0.5-0.2-0.9-0.4-1.2-0.4c-0.6,0-1.2,0.4-1.6,1.2c-0.4,0.8-0.7,2.3-0.7,4.6l0,0.8v6.6h-4.1V363.4z"/>
		<path class="st1" d="M663.8,375c0.7,0,1.3,0.2,1.8,0.7s0.8,1.1,0.8,1.8c0,0.7-0.3,1.3-0.8,1.8c-0.5,0.5-1.1,0.8-1.8,0.8
			c-0.7,0-1.3-0.2-1.8-0.7c-0.5-0.5-0.8-1.1-0.8-1.8s0.3-1.3,0.8-1.8C662.5,375.3,663.1,375,663.8,375z M661.7,357.1h4.1v16.1h-4.1
			V357.1z"/>
	</g>
</g>
<path class="st0" d="M127.6,332.6c0.1,0,0.2,0,0.3,0c0,0,0,0,0,0C127.8,332.6,127.7,332.6,127.6,332.6z M100.8,311.5
	c0.2,0.2,0.5,0.4,0.7,0.6C101.3,311.9,101,311.7,100.8,311.5z"/>
<path class="st2" d="M177.8,238.5c-1.6-0.6-3.3-0.9-4.8-0.9c-0.5,0-1.1,0-1.5,0.1c-1.5,0.2-2.6,0.9-2.9,1.7
	c-0.6,1.8,1.9,4.9,6.6,6.5c4.7,1.6,8.6,0.8,9.2-1C185,243.2,182.4,240.1,177.8,238.5z"/>
<g>
	<polygon class="st3" points="163.4,212.8 162.5,211.4 166.4,206.6 166.9,217.7 	"/>
	
		<rect x="181.2" y="192.7" transform="matrix(0.3303 -0.9439 0.9439 0.3303 -72.5392 312.3559)" class="st3" width="5.3" height="29.3"/>
	<polygon class="st3" points="196.3,217 196.9,230.5 169.4,220.9 168.9,207.4 	"/>
</g>
<g>
	<g>
		<polygon class="st0" points="123.4,265.7 123.4,265.7 123.4,265.7 		"/>
		<path class="st0" d="M120.2,229.4c-1.2-2.3-2.5-4.6-3.8-6.7l-0.7,4.2L120.2,229.4z"/>
		<path class="st0" d="M113.5,218.1c-12.3-18.6-27.2-26.3-39.2-20.2c-6.5,3.3-10.3,9.8-11,18.7c-0.8,10,2.4,22.4,9.2,35.8
			c0.8,1.6,1.8,3.3,2.9,4.9c8,0.4,15.8,1.6,23.8,2.5c0-0.1-0.1-0.1-0.1-0.2c-2-0.7-3.6-2.3-4.2-4.4c-0.1-0.3-0.1-0.7-0.2-1
			c-0.1-0.9-0.1-1.8,0.1-2.6c-0.5-0.4-0.9-0.9-1.3-1.5l-3.6-0.1l3.6,0.1c-0.3-0.5-0.6-1.1-0.8-1.6c-0.7-2.2-0.1-4.6,1.3-6.3l0.9-0.9
			c0.3-0.3,0.7-0.5,1-0.7c-0.2-1.6,0.3-3.2,1.2-4.5l-16.9-0.5c-1.1,0-2-1-2-2.1c0-1.1,1-2,2.1-2l20.3,0.6l0.8-1.1l-5.7-7.1l7.5,2.6
			l-1.8-3.9l1.9,0.9l0.8-3l1.3,0.4c1.9,0.5,3,1.8,3.6,3.2l1.9-5.7l1,4.3c1.2-1.3,2.5-1.8,2.6-1.8l0.5-0.1
			C114.7,219.8,114.1,218.9,113.5,218.1z M94.3,217.7C94.3,217.7,94.2,217.7,94.3,217.7L71,217.1c-1.1,0-2-1-2-2.1c0-1.1,0.9-2,2-2
			c0,0,0,0,0.1,0l23.2,0.7c1.1,0,2,1,2,2.1C96.3,216.9,95.4,217.7,94.3,217.7z"/>
		<path class="st0" d="M99.1,259.6c0,0.1,0.1,0.1,0.1,0.2c0.9,0.1,1.7,0.2,2.6,0.3c3.7,0.4,7.3,0.5,11,0.6v-6.1l-18.1-0.5
			c0,0.4,0.1,0.7,0.2,1C95.5,257.3,97,258.9,99.1,259.6z"/>
	</g>
	<g id="b25_fruit_00000101813543386018215770000011752306767158331541_">
		<path class="st4" d="M109.1,231.5c3.1-0.4,8.4-2.5,8.4-2.5l-3.1-1.7l0.9-5.4c0,0-3,0.9-3.4,4.9l-0.8-3.6l-1.4,4.3l-5-2.4l1.6,3.4
			l-6-2.1l3.4,4.2l-2.5,3.2C101.2,233.8,106,231.8,109.1,231.5z"/>
		<path class="st4" d="M109.1,228.4l-0.9-0.1c0,0,0.2-4.9-2.8-5.7l0.2-0.9C109.3,222.8,109.1,228.2,109.1,228.4z"/>
		<path class="st4" d="M96.7,250.6c-0.5,1.1-0.7,2.5-0.3,3.8c0.6,2,2.2,3.3,4.1,3.7c0,0.2,0.1,0.4,0.1,0.6c0.1,0.5,0.4,0.9,0.6,1.3
			c0.2,0,0.4,0,0.5,0.1c4,0.4,8.1,0.5,12.1,0.7c0.2-0.4,0.3-0.9,0.2-1.4c0,0.1,0.1,0.2,0.1,0.3c0.1,0.4,0.1,0.7,0.1,1.1
			c4.4,0.1,8.7,0.3,13,0.8c0.3-0.9,0.3-2,0-3c0-0.1-0.1-0.2-0.1-0.3c1.8-1.3,2.6-3.6,2-5.8c0-0.1-0.1-0.3-0.2-0.4
			c1.6-1.3,2.3-3.5,1.7-5.6c-0.1-0.3-0.2-0.6-0.4-0.9c1-1.3,1.4-3.1,0.9-4.8c-0.6-2-2.3-3.4-4.2-3.7c0.2-0.9,0.2-1.9,0-2.8
			c-0.8-2.8-3.8-4.5-6.7-3.6c-0.4,0.1-0.8,0.3-1.2,0.5c-1.3-0.8-2.9-1.1-4.4-0.7c-1.7,0.5-2.9,1.7-3.5,3.2c-1.3-0.9-3-1.3-4.7-0.8
			c-0.9,0.3-1.7,0.8-2.4,1.5c-0.9-0.2-1.8-0.2-2.8,0.1c-2.8,0.8-4.5,3.8-3.6,6.7c0,0,0,0,0,0c-2.8,0.9-4.4,3.8-3.5,6.6
			C94.7,248.9,95.6,249.9,96.7,250.6z M106.1,260c-1.6,0.5-3.2-0.4-3.7-2c-0.1-0.2-0.1-0.4-0.1-0.6c0.6,1.4,2.1,2.1,3.6,1.7
			c1.4-0.4,2.2-1.7,2.1-3.1c0,0.1,0.1,0.2,0.1,0.3C108.6,257.9,107.7,259.5,106.1,260z M114.2,257.3c-1.6,0.5-3.2-0.4-3.7-2
			c-0.1-0.2-0.1-0.4-0.1-0.6c0.6,1.4,2.1,2.1,3.6,1.7c1.4-0.4,2.2-1.8,2.1-3.1c0,0.1,0.1,0.2,0.1,0.3
			C116.7,255.1,115.8,256.8,114.2,257.3z M124.5,257.9c-1.6,0.5-3.2-0.4-3.7-2c-0.1-0.2-0.1-0.4-0.1-0.6c0.6,1.4,2.1,2.1,3.6,1.7
			c1.4-0.4,2.2-1.7,2.1-3.1c0,0.1,0.1,0.2,0.1,0.3C127,255.8,126.1,257.4,124.5,257.9z M127,250.9c-1.6,0.5-3.2-0.4-3.7-2
			c-0.1-0.2-0.1-0.4-0.1-0.6c0.6,1.4,2.1,2.1,3.6,1.7c1.4-0.4,2.2-1.7,2.1-3.1c0.1,0.1,0.1,0.2,0.1,0.3
			C129.4,248.8,128.5,250.4,127,250.9z M126.6,243.4c1.4-0.4,2.2-1.7,2.1-3.1c0,0.1,0.1,0.2,0.1,0.3c0.5,1.6-0.4,3.2-2,3.7
			c-1.6,0.5-3.2-0.4-3.7-2c-0.1-0.2-0.1-0.4-0.1-0.6C123.6,243.1,125.1,243.9,126.6,243.4z M121.3,247.2c0,0.1,0.1,0.2,0.1,0.3
			c0.5,1.6-0.4,3.2-2,3.7c-1.6,0.5-3.2-0.4-3.7-2c-0.1-0.2-0.1-0.4-0.1-0.6c0.6,1.4,2.1,2.1,3.6,1.7
			C120.6,250,121.5,248.6,121.3,247.2z M116.6,241.6c2-0.6,3.3-2.6,3.1-4.6c0.1,0.2,0.1,0.3,0.2,0.5c0.7,2.3-0.6,4.7-2.9,5.4
			c-2.3,0.7-4.7-0.6-5.4-2.9c-0.1-0.3-0.1-0.5-0.2-0.8C112.3,241.1,114.5,242.2,116.6,241.6z M111.9,248.2c0,0.1,0.1,0.2,0.1,0.3
			c0.5,1.6-0.4,3.2-2,3.7c-1.6,0.5-3.2-0.4-3.7-2c-0.1-0.2-0.1-0.4-0.1-0.6c0.6,1.4,2.1,2.1,3.6,1.7
			C111.2,250.9,112,249.6,111.9,248.2z M107.3,244.3c2-0.6,3.3-2.6,3.1-4.6c0.1,0.2,0.1,0.3,0.2,0.5c0.7,2.3-0.6,4.7-2.9,5.4
			c-2.3,0.7-4.7-0.6-5.4-2.9c-0.1-0.3-0.1-0.5-0.2-0.8C103,243.9,105.2,245,107.3,244.3z M102.5,253.7c1.1-0.3,1.8-1.4,1.6-2.4
			c0,0.1,0.1,0.2,0.1,0.3c0.4,1.2-0.3,2.5-1.6,2.9c-1.2,0.4-2.5-0.3-2.9-1.6c0-0.1-0.1-0.3-0.1-0.4
			C100.2,253.5,101.4,254.1,102.5,253.7z M99.4,247.9c1.3-0.4,2.1-1.6,1.9-2.9c0,0.1,0.1,0.2,0.1,0.3c0.4,1.4-0.4,2.9-1.8,3.4
			c-1.4,0.4-2.9-0.4-3.4-1.8c-0.1-0.2-0.1-0.3-0.1-0.5C96.7,247.6,98.1,248.3,99.4,247.9z"/>
	</g>
</g>
<g>
	<path class="st2" d="M147.6,365.7h23.4c1.1,0,2-0.9,2-2c0-1.1-0.9-2-2-2h-23.4c-1.1,0-2,0.9-2,2
		C145.5,364.8,146.4,365.7,147.6,365.7z"/>
	<path class="st2" d="M157.6,352.9h13.3c1.1,0,2-0.9,2-2c0-1.1-0.9-2-2-2h-13.3c-1.1,0-2,0.9-2,2C155.6,352,156.5,352.9,157.6,352.9
		z"/>
</g>
<g>
	<path class="st2" d="M172.4,257.8c5.1,1.8,10,1,10.9-1.8c1-2.8-2.4-6.4-7.4-8.2c-5.1-1.8-10-1-10.9,1.8c-0.1,0.2-0.1,0.5-0.1,0.8
		c0.3,0.7,0.4,1.4,0.5,2.2C166.5,254.6,169.1,256.6,172.4,257.8z"/>
	<path class="st2" d="M153.2,236.5c-0.9-0.3-1.7-0.6-2.5-1.1l-1.1,3.1c0.5,1.1,1,2.3,1.6,3.5L153.2,236.5z"/>
	<path class="st2" d="M146.4,247.9"/>
	<path class="st2" d="M147.7,244.1"/>
	<path class="st3" d="M165.5,268.7c4.3,0.9,8.4,2.1,12.7,2.7c1.6,0.2,3.2,0.4,4.8,0.5l13.6-39l-27.6-9.7l-8,22.9
		c1.8,1,3.2,2.4,3.9,4.2c0-0.3,0-0.5,0.1-0.8c1-2.8,5.9-3.6,10.9-1.8c5.1,1.8,8.4,5.4,7.4,8.2c-1,2.8-5.9,3.6-10.9,1.8
		c-3.4-1.2-5.9-3.2-7-5.2c0,0.4,0.1,0.7,0.1,1.1c0,5.4-4.4,9.8-9.8,9.8c-0.3,0-0.5,0-0.8-0.1l-1.1,3.1
		C157.8,267.2,161.6,267.9,165.5,268.7z"/>
	<path class="st0" d="M175.4,274.9c-4.3-0.7-8.5-1.9-12.8-2.8c-2.8-0.6-5.7-1.1-8.5-1.6c0,1.3,0.1,2.6,0.5,4.2c0.3,1.5,0.7,3,1,4.7
		l22,7.7l4-11.4C179.6,275.5,177.5,275.2,175.4,274.9z"/>
	<path class="st3" d="M161.4,231.6c0.2,1,0.4,2.1,0.5,3.2l0.1,1.1l-1,0.4c-1.7,0.6-3.1,0.7-4.3,0.7c-1.2,0-2.3-0.2-3.4-0.5
		c0,0,0,0,0,0l-1.9,5.5c0.5,1,1.1,2.1,1.8,3.2c1.3-0.3,2.7-0.4,4-0.2c0.6,0.1,1.1,0.2,1.7,0.4l8.2-23.3l-5.8-8.1l-3.7,10.6
		c1.3,1.3,2.3,2.8,3,4.4C160.8,229.8,161.1,230.7,161.4,231.6z"/>
	<path class="st5" d="M148.3,233.5c-0.2-0.2-0.3-0.3-0.5-0.5c0.4,1.7,1,3.5,1.9,5.5l1.1-3.1C149.9,234.9,149.1,234.3,148.3,233.5z"
		/>
	<path class="st5" d="M144.7,221.1c0.6-0.6,1.2-1.1,1.8-1.6l0-0.1l0,0.1c2.5-1.9,5.4-2.9,8.7-3c-1.8-6.5-5-11-6.7-14.5
		c-3.5-7.2-3.6-16.2-3.6-16.2h2v-3.4l-0.7-0.5v-6.9c0,0-3.2-0.7-8.7-0.5c-5.5-0.2-8.7,0.5-8.7,0.5v6.9l-0.7,0.5v3.4h2
		c0,0,0,8.9-3.6,16.2c-2.1,4.4-6.6,10.2-7.8,19.5c0,0.3-0.1,0.7-0.1,1.1c1,1.8,2.1,3.6,3.1,5.5l0.1,0.1c1.2-0.1,2.5,0.2,3.6,0.8
		c1.6,0.9,2.7,2.3,3.2,4c0.2,0.7,0.3,1.5,0.3,2.2c1.9,0.7,3.4,2.3,4,4.3c0.5,1.8,0.3,3.8-0.7,5.4c0,0.1,0.1,0.3,0.1,0.4
		c0.2,0.5,0.2,1,0.3,1.6c1.2-0.9,2.7-1.6,4.4-1.9C137.1,239.2,138.4,227.6,144.7,221.1z"/>
	<path class="st5" d="M155,220.6c-0.8,0.2-1.6,0.4-2.3,0.7c0.1,0,0.1,0,0.2,0.1c0.8,0.3,1.6,0.8,2.4,1.2l0.7-2h-0.2
		C155.5,220.6,155.2,220.6,155,220.6z"/>
	<path class="st5" d="M147.7,244.1c-2.1-3.9-3.8-8.3-4.4-12.5c-1.7,4.9-2.2,10.2-2.3,13.5c2.2,0.4,4.1,1.5,5.4,2.9"/>
</g>
<g>
	<path class="st2" d="M170.9,348.9h-13.3c-1.1,0-2,0.9-2,2c0,1.1,0.9,2,2,2h13.3c1.1,0,2-0.9,2-2C173,349.8,172.1,348.9,170.9,348.9
		z"/>
	<path class="st2" d="M170.9,361.6h-23.4c-1.1,0-2,0.9-2,2c0,1.1,0.9,2,2,2h23.4c1.1,0,2-0.9,2-2C173,362.5,172.1,361.6,170.9,361.6
		z"/>
</g>
<g>
	<path class="st2" d="M150.1,246.4c0.2,0.3,0.5,0.6,0.8,0.9c0,0,0.1,0.1,0.1,0.1c0.1,0,0.1-0.1,0.2-0.2c-3.7-6.2-8.4-15.8-5.9-22.5
		c0,0,0,0,0,0c-4.7,6.5-5.5,16.9-5.6,21.5c0.1,0,0.3,0,0.4,0c3,0.4,5.5,1.9,6.6,4.4C147.5,248.9,148.6,247.4,150.1,246.4z"/>
	<path class="st2" d="M156.1,231.4c0,0-6.6-6.3-8.7-8.5l-0.5,0.6C147,223.5,149.6,227.2,156.1,231.4z"/>
	<path class="st0" d="M157.1,246.2c-0.4-0.1-0.8-0.1-1.2-0.1c-1.2,0-2.3,0.2-3.3,0.5c-3.4-5.6-7.6-14.1-6.2-20.3
		c0.1,0.6,0.2,1.2,0.4,1.8c0.5,1.8,1.4,3.2,2.6,4.3c1.2,1.2,2.6,2.1,4.4,2.6c0.9,0.3,1.9,0.4,3,0.5c1.1,0,2.4-0.1,3.9-0.6
		c-0.1-1.1-0.3-2.1-0.5-3.1c-0.2-0.9-0.5-1.8-0.8-2.6c-0.7-1.6-1.6-2.9-2.7-4c-1.1-1.1-2.5-2.1-4.1-2.7c-1-0.4-2.1-0.7-3.3-0.8
		c1.4-1.2,3.4-2,5.8-2.5c0.3,0,0.6,0,0.8,0v-1.4c-4,0-7.4,1.4-10.1,4.2c-6.4,6.6-7.4,19-7.5,24.2c-4.3,0.3-7.7,3-7.7,7.5
		c0,4.7,3.8,8.4,8.4,8.4c3.4,0,6.3-2,7.7-4.9c-0.3-1-0.6-2-0.6-3.1c0-1.2,0.3-2.3,0.7-3.4c-1.1-2.5-3.6-4-6.6-4.4
		c-0.1,0-0.3,0-0.4,0c0.1-4.6,1-15,5.6-21.5c0,0,0,0,0,0c-2.5,6.7,2.1,16.3,5.9,22.5c-0.1,0-0.1,0.1-0.2,0.2
		c-2.2,1.3-3.6,3.4-3.6,6.2c0,4.5,3.6,8.2,8.1,8.4c0.1,0,0.2,0,0.3,0c4.7,0,8.4-3.8,8.4-8.4C164.3,249.3,161.2,246.8,157.1,246.2z
		 M147.4,222.9c2.1,2.2,8.7,8.5,8.7,8.5c-6.5-4.2-9.1-7.9-9.1-7.9L147.4,222.9z"/>
</g>
<g>
	<path class="st2" d="M170.9,361.6h-23.4c-1.1,0-2,0.9-2,2c0,1.1,0.9,2,2,2h23.4c1.1,0,2-0.9,2-2C173,362.5,172.1,361.6,170.9,361.6
		z"/>
	<path class="st2" d="M170.9,348.9h-13.3c-1.1,0-2,0.9-2,2c0,1.1,0.9,2,2,2h13.3c1.1,0,2-0.9,2-2C173,349.8,172.1,348.9,170.9,348.9
		z"/>
	<polygon class="st2" points="80.1,365.1 79.7,361.5 79.7,365.1 	"/>
	<path class="st1" d="M109.7,283.1H79.7v29.8h29.9c4.1,0,7.6-1.4,10.5-4.4c2.9-2.9,4.4-6.4,4.4-10.5c0-4.1-1.5-7.6-4.4-10.5
		C117.3,284.5,113.8,283.1,109.7,283.1z"/>
	<path class="st1" d="M192.5,249.3c-8.4,1.5-17.4,2.7-26.9,3.5c0,0.3,0.1,0.5,0.1,0.8c0,5.4-4.4,9.8-9.8,9.8c-5.2,0-9.5-4.1-9.8-9.3
		c-5.6,0.2-11.3,0.3-17.1,0.3c-21.3,0-41.3-1.6-58.6-4.3l1.5,17.9h7.9h29.9c8.3,0,15.3,2.9,21.1,8.8c5.9,5.8,8.8,12.8,8.8,21.1
		c0,7.8-2.7,14.6-8,20.3c10.3,6.6,15.5,16,15.5,28.2c0,9.3-3.3,17.3-9.9,23.8c-6.3,6.3-13.8,9.5-22.6,9.8h66.8L192.5,249.3z
		 M170.9,365.7h-23.4c-1.1,0-2-0.9-2-2c0-1.1,0.9-2,2-2h23.4c1.1,0,2,0.9,2,2C173,364.8,172.1,365.7,170.9,365.7z M170.9,352.9
		h-13.3c-1.1,0-2-0.9-2-2c0-1.1,0.9-2,2-2h13.3c1.1,0,2,0.9,2,2C173,352,172.1,352.9,170.9,352.9z"/>
	<path class="st1" d="M113.5,365.1c5.1,0,9.5-1.8,13.2-5.4c3.7-3.7,5.5-8.1,5.5-13.3c0-5.1-1.8-9.5-5.5-13.2
		c-3.7-3.7-8.1-5.5-13.2-5.5c-0.3,0-0.6,0-0.8,0.1H79.7v33.6l0.3,3.6H113.5z"/>
</g>
</svg>
