<?xml version="1.0" encoding="utf-8"?>
<!-- Generator: Adobe Illustrator 28.2.0, SVG Export Plug-In . SVG Version: 6.00 Build 0)  -->
<svg version="1.1" id="Layer_1" xmlns="http://www.w3.org/2000/svg" xmlns:xlink="http://www.w3.org/1999/xlink" x="0px" y="0px"
	 viewBox="0 0 500 500" style="enable-background:new 0 0 500 500;" xml:space="preserve">
<style type="text/css">
	.st0{fill:#61A681;}
	.st1{fill:#FFFFFF;}
	.st2{fill:#DF923A;}
	.st3{fill:none;}
	.st4{fill:#ABE1FA;}
	.st5{fill:#C02550;}
	.st6{fill:#6F6E6F;}
</style>
<g>
	<circle class="st0" cx="249.7" cy="249.5" r="246.1"/>
	<circle class="st1" cx="249.7" cy="249.5" r="231.8"/>
</g>
<g>
	<path class="st2" d="M245.1,341.1c0.2,0,0.4,0,0.5,0c0,0,0,0,0,0C245.4,341.1,245.3,341.1,245.1,341.1z M197.1,303.3
		c0.4,0.4,0.9,0.7,1.3,1.1C198,304,197.5,303.7,197.1,303.3z"/>
	<path class="st3" d="M335.1,172.4c-2.9-1-5.9-1.6-8.6-1.6c-1,0-1.9,0.1-2.7,0.2c-2.7,0.4-4.6,1.6-5.1,3c-1.1,3.2,3.5,8.7,11.8,11.6
		s15.4,1.4,16.5-1.7C348,180.9,343.4,175.3,335.1,172.4z"/>
	<g>
		<polygon class="st4" points="309.3,126.4 307.7,123.9 314.8,115.2 315.6,135.2 		"/>
		
			<rect x="341.2" y="90.3" transform="matrix(0.3303 -0.9439 0.9439 0.3303 121.7128 404.5605)" class="st4" width="9.5" height="52.4"/>
		<polygon class="st4" points="368.3,134 369.3,158.1 320.1,140.9 319.2,116.7 		"/>
	</g>
	<g>
		<g>
			<polygon class="st2" points="237.7,221.1 237.7,221.1 237.7,221.1 			"/>
			<path class="st2" d="M231.9,156.2c-2.2-4.1-4.5-8.2-6.8-12l-1.3,7.5L231.9,156.2z"/>
			<path class="st2" d="M219.9,135.8c-22-33.3-48.8-47.2-70.2-36.3c-11.7,5.9-18.5,17.5-19.8,33.6c-1.4,17.9,4.3,40.1,16.6,64.1
				c1.5,2.9,3.3,5.9,5.1,8.8c14.3,0.7,28.4,2.9,42.6,4.5c0-0.1-0.1-0.2-0.2-0.3c-3.6-1.3-6.5-4.2-7.6-7.9c-0.2-0.6-0.2-1.2-0.3-1.9
				c-0.2-1.6-0.2-3.2,0.2-4.7c-0.9-0.8-1.6-1.7-2.2-2.6l-6.4-0.2l6.4,0.2c-0.6-0.9-1-1.9-1.3-2.9c-1.2-4-0.2-8.2,2.4-11.3l1.6-1.5
				c0.6-0.5,1.2-0.9,1.9-1.2c-0.3-3,0.6-5.8,2.2-8.1l-30.2-0.9c-2-0.1-3.6-1.7-3.5-3.8c0.1-2,1.7-3.6,3.8-3.5l36.5,1.1l1.5-1.9
				l-10.2-12.7l13.4,4.7l-3.2-7l3.4,1.6l1.4-5.4l2.4,0.7c3.4,0.9,5.3,3.3,6.5,5.8l3.3-10.2l1.7,7.8c2.1-2.4,4.5-3.2,4.7-3.2l0.9-0.3
				C222,139,220.9,137.4,219.9,135.8z M185.4,135.2c0,0-0.1,0-0.1,0l-41.5-1.2c-2-0.1-3.6-1.7-3.5-3.8c0.1-2,1.7-3.5,3.7-3.5
				c0,0,0.1,0,0.1,0l41.5,1.2c2,0.1,3.6,1.7,3.5,3.8C189,133.7,187.4,135.2,185.4,135.2z"/>
			<path class="st2" d="M194,210.2c0,0.1,0.1,0.2,0.2,0.3c1.6,0.2,3.1,0.4,4.6,0.6c6.6,0.7,13.2,0.9,19.8,1.1v-10.8l-32.5-1
				c0.1,0.6,0.1,1.3,0.3,1.9C187.5,206.1,190.4,209,194,210.2z"/>
		</g>
		<g id="b25_fruit_00000101813543386018215770000011752306767158331541_">
			<path class="st5" d="M212,159.8c5.6-0.7,15.1-4.5,15.1-4.5l-5.5-3.1l1.7-9.7c0,0-5.3,1.6-6.1,8.8l-1.5-6.5l-2.5,7.7l-9-4.3
				l2.8,6.1l-10.8-3.7l6.1,7.6l-4.5,5.8C197.8,164.1,206.4,160.5,212,159.8z"/>
			<path class="st5" d="M212,154.4l-1.7-0.1c0-0.1,0.3-8.7-5.1-10.3l0.4-1.6C212.4,144.3,212,154,212,154.4z"/>
			<path class="st5" d="M189.7,194.2c-1,2.1-1.2,4.4-0.5,6.8c1.1,3.5,4,6,7.3,6.6c0.1,0.4,0.1,0.8,0.2,1.1c0.3,0.8,0.7,1.6,1.1,2.3
				c0.3,0,0.6,0.1,1,0.1c7.2,0.8,14.5,1,21.7,1.2c0.3-0.8,0.5-1.6,0.4-2.5c0.1,0.2,0.2,0.4,0.2,0.6c0.2,0.6,0.2,1.3,0.2,1.9
				c7.8,0.2,15.6,0.5,23.4,1.4c0.5-1.7,0.5-3.5,0-5.4c-0.1-0.2-0.2-0.4-0.2-0.6c3.1-2.3,4.7-6.5,3.5-10.4c-0.1-0.3-0.2-0.5-0.3-0.7
				c2.8-2.4,4.2-6.3,3-10.1c-0.2-0.6-0.4-1.1-0.7-1.7c1.9-2.4,2.6-5.6,1.7-8.7c-1.1-3.6-4.1-6-7.5-6.7c0.4-1.6,0.4-3.3-0.1-5.1
				c-1.5-5.1-6.9-8-12-6.5c-0.8,0.2-1.5,0.6-2.1,1c-2.3-1.5-5.1-2-8-1.2c-3,0.9-5.2,3.1-6.2,5.8c-2.3-1.7-5.4-2.3-8.3-1.4
				c-1.7,0.5-3.1,1.5-4.2,2.7c-1.6-0.4-3.3-0.4-5,0.1c-5.1,1.5-8,6.9-6.5,12c0,0,0,0,0,0c-5,1.6-7.8,6.9-6.3,11.9
				C186.2,191.1,187.8,193,189.7,194.2z M206.7,211c-2.8,0.8-5.8-0.8-6.6-3.6c-0.1-0.3-0.2-0.7-0.2-1c1.1,2.4,3.8,3.8,6.4,3
				c2.5-0.7,4-3.1,3.8-5.6c0.1,0.2,0.2,0.4,0.2,0.6C211.1,207.1,209.5,210.1,206.7,211z M221.2,206.1c-2.8,0.8-5.8-0.8-6.6-3.6
				c-0.1-0.3-0.2-0.7-0.2-1c1.1,2.4,3.8,3.8,6.4,3c2.5-0.7,4-3.1,3.8-5.6c0.1,0.2,0.2,0.4,0.2,0.6
				C225.6,202.3,224,205.2,221.2,206.1z M239.7,207.2c-2.8,0.8-5.8-0.8-6.6-3.6c-0.1-0.3-0.2-0.7-0.2-1c1.1,2.4,3.8,3.8,6.4,3
				c2.5-0.7,4-3.1,3.8-5.6c0.1,0.2,0.2,0.4,0.2,0.6C244.1,203.4,242.5,206.4,239.7,207.2z M244,194.6c-2.8,0.8-5.8-0.8-6.6-3.6
				c-0.1-0.3-0.2-0.7-0.2-1c1.1,2.4,3.8,3.8,6.4,3c2.5-0.7,4-3.1,3.8-5.6c0.1,0.2,0.2,0.4,0.2,0.6
				C248.5,190.8,246.9,193.8,244,194.6z M243.3,181.3c2.5-0.7,4-3.1,3.8-5.6c0.1,0.2,0.2,0.4,0.2,0.6c0.8,2.8-0.8,5.8-3.6,6.6
				c-2.8,0.8-5.8-0.8-6.6-3.6c-0.1-0.3-0.2-0.7-0.2-1C238,180.7,240.7,182,243.3,181.3z M233.9,188.1c0.1,0.2,0.2,0.4,0.2,0.6
				c0.8,2.8-0.8,5.8-3.6,6.6c-2.8,0.8-5.8-0.8-6.6-3.6c-0.1-0.3-0.2-0.7-0.2-1c1.1,2.4,3.8,3.8,6.4,3
				C232.6,193,234.2,190.6,233.9,188.1z M225.5,177.9c3.6-1.1,5.9-4.6,5.5-8.2c0.1,0.3,0.2,0.6,0.3,0.9c1.2,4.1-1.1,8.5-5.2,9.7
				c-4.1,1.2-8.4-1.1-9.7-5.2c-0.1-0.5-0.2-1-0.3-1.5C217.7,177.2,221.7,179.1,225.5,177.9z M217,189.8c0.1,0.2,0.2,0.4,0.2,0.6
				c0.8,2.8-0.8,5.8-3.6,6.6c-2.8,0.8-5.8-0.8-6.6-3.6c-0.1-0.3-0.2-0.7-0.2-1c1.1,2.4,3.8,3.8,6.4,3
				C215.7,194.7,217.2,192.3,217,189.8z M208.8,182.9c3.6-1.1,5.9-4.6,5.5-8.2c0.1,0.3,0.2,0.6,0.3,0.9c1.2,4.1-1.1,8.5-5.2,9.7
				c-4.1,1.2-8.4-1.1-9.7-5.2c-0.1-0.5-0.2-1-0.3-1.5C201,182.1,205,184,208.8,182.9z M200.2,199.7c1.9-0.6,3.1-2.4,2.9-4.4
				c0.1,0.1,0.1,0.3,0.2,0.5c0.7,2.2-0.6,4.5-2.8,5.2c-2.2,0.7-4.5-0.6-5.2-2.8c-0.1-0.3-0.1-0.5-0.1-0.8
				C196,199.3,198.1,200.3,200.2,199.7z M194.7,189.3c2.3-0.7,3.7-2.9,3.5-5.1c0.1,0.2,0.1,0.4,0.2,0.6c0.8,2.6-0.7,5.3-3.3,6.1
				c-2.6,0.8-5.3-0.7-6.1-3.3c-0.1-0.3-0.1-0.6-0.2-0.9C189.8,188.8,192.3,190,194.7,189.3z"/>
		</g>
	</g>
	<g>
		<path class="st3" d="M280.9,400.4h41.9c2,0,3.7-1.6,3.7-3.7c0-2-1.6-3.7-3.7-3.7h-41.9c-2,0-3.7,1.6-3.7,3.7
			C277.3,398.8,278.9,400.4,280.9,400.4z"/>
		<path class="st3" d="M299,377.5h23.9c2,0,3.7-1.6,3.7-3.7c0-2-1.6-3.7-3.7-3.7H299c-2,0-3.7,1.6-3.7,3.7
			C295.3,375.9,297,377.5,299,377.5z"/>
	</g>
	<g>
		<path class="st3" d="M325.5,207c9.1,3.2,17.8,1.8,19.6-3.2c1.7-4.9-4.2-11.5-13.3-14.7c-9.1-3.2-17.8-1.7-19.6,3.2
			c-0.2,0.4-0.2,0.9-0.2,1.4c0.5,1.2,0.8,2.6,1,4C314.9,201.3,319.5,204.9,325.5,207z"/>
		<path class="st3" d="M291.1,168.8c-1.6-0.5-3.1-1.1-4.4-1.9l-1.9,5.5c0.9,2,1.8,4.1,2.9,6.2L291.1,168.8z"/>
		<path class="st3" d="M278.8,189.3"/>
		<path class="st3" d="M281.2,182.4"/>
		<path class="st4" d="M313,226.6c7.6,1.7,15.1,3.7,22.8,4.8c2.8,0.4,5.7,0.7,8.6,1l24.4-69.8l-49.5-17.3l-14.4,41
			c3.2,1.8,5.7,4.3,7,7.5c0-0.5,0.1-0.9,0.2-1.4c1.7-4.9,10.5-6.4,19.6-3.2c9.1,3.2,15,9.8,13.3,14.7c-1.7,4.9-10.5,6.4-19.6,3.2
			c-6-2.1-10.6-5.7-12.6-9.4c0.1,0.6,0.2,1.3,0.2,1.9c0,9.7-7.9,17.5-17.5,17.5c-0.5,0-0.9-0.1-1.4-0.1l-1.9,5.5
			C299.2,223.8,306.1,225.1,313,226.6z"/>
		<path class="st4" d="M305.7,160.1c0.4,1.9,0.7,3.7,0.9,5.8l0.2,1.9l-1.8,0.6c-3,1.1-5.5,1.3-7.8,1.3c-2.1,0-4-0.3-6.1-0.9
			c0,0,0,0,0,0l-3.4,9.8c1,1.9,2,3.7,3.2,5.7c2.3-0.5,4.8-0.7,7.2-0.3c1,0.1,2,0.4,3,0.6l14.6-41.8l-10.3-14.5l-6.6,19
			c2.3,2.3,4.1,5,5.4,7.9C304.7,156.8,305.3,158.4,305.7,160.1z"/>
		<path class="st6" d="M282.3,163.5c-0.3-0.3-0.6-0.6-0.8-0.9c0.7,3,1.8,6.3,3.3,9.8l1.9-5.5C285.1,166,283.6,164.9,282.3,163.5z"/>
		<path class="st6" d="M275.8,141.2c1-1,2.1-2,3.2-2.8l0-0.2l0,0.1c4.5-3.4,9.7-5.2,15.6-5.4c-3.3-11.6-9-19.7-12-26
			c-6.3-13-6.4-29-6.4-29h3.5v-6.2l-1.3-0.9V58.5c0,0-5.7-1.3-15.6-0.9c-9.9-0.3-15.6,0.9-15.6,0.9v12.5l-1.3,0.9V78h3.5
			c0,0-0.1,16-6.4,29c-3.8,7.9-11.8,18.3-14,34.9c-0.1,0.6-0.2,1.3-0.2,2c1.9,3.2,3.7,6.5,5.6,9.9l0.1,0.2c2.2-0.1,4.5,0.3,6.5,1.4
			c2.8,1.5,4.9,4.1,5.8,7.2c0.4,1.3,0.5,2.7,0.5,4c3.4,1.3,6,4.1,7.1,7.7c1,3.2,0.5,6.7-1.2,9.6c0.1,0.2,0.2,0.5,0.2,0.7
			c0.3,0.9,0.4,1.9,0.5,2.8c2.2-1.7,4.9-2.8,7.9-3.3C262.2,173.7,264.5,152.8,275.8,141.2z"/>
		<path class="st6" d="M294.2,140.4c-1.5,0.3-2.9,0.7-4.1,1.2c0.1,0,0.2,0.1,0.3,0.1c1.5,0.6,2.9,1.3,4.3,2.2l1.3-3.6h-0.4
			C295.1,140.3,294.7,140.3,294.2,140.4z"/>
		<path class="st6" d="M281.2,182.4c-3.7-7-6.9-14.9-7.9-22.4c-3,8.7-3.9,18.3-4.2,24.1c4,0.8,7.3,2.6,9.7,5.1"/>
	</g>
	<g>
		<path class="st3" d="M322.8,370.2H299c-2,0-3.7,1.6-3.7,3.7s1.6,3.7,3.7,3.7h23.9c2,0,3.7-1.6,3.7-3.7S324.9,370.2,322.8,370.2z"
			/>
		<path class="st3" d="M322.8,393.1h-41.9c-2,0-3.7,1.6-3.7,3.7c0,2,1.6,3.7,3.7,3.7h41.9c2,0,3.7-1.6,3.7-3.7
			C326.5,394.7,324.9,393.1,322.8,393.1z"/>
	</g>
	<g>
		<path class="st3" d="M285.5,186.5c0.4,0.6,0.9,1.1,1.5,1.6c0.1,0.1,0.2,0.2,0.2,0.2c0.1-0.1,0.2-0.2,0.4-0.3
			c-6.7-11.1-15-28.3-10.5-40.3c0,0,0,0,0,0c-8.4,11.6-9.9,30.2-10.1,38.5c0.3,0,0.5,0,0.8,0.1c5.4,0.8,9.9,3.5,11.9,7.9
			C280.9,191.1,282.8,188.4,285.5,186.5z"/>
		<path class="st3" d="M296.2,159.7c0,0-11.8-11.2-15.5-15.2l-0.8,1.1C279.9,145.6,284.6,152.2,296.2,159.7z"/>
		<path class="st2" d="M298,186.2c-0.7-0.1-1.4-0.1-2.1-0.1c-2.1,0-4.1,0.3-5.9,0.9c-6.1-10-13.7-25.3-11.1-36.4
			c0.2,1.2,0.4,2.2,0.8,3.3c1,3.1,2.6,5.7,4.6,7.8c2.1,2.1,4.6,3.7,7.8,4.7c1.6,0.5,3.4,0.8,5.4,0.8c2,0,4.2-0.1,7-1.1
			c-0.2-2.1-0.5-3.8-0.9-5.5c-0.4-1.7-0.9-3.2-1.5-4.6c-1.2-2.8-2.9-5.2-4.9-7.2c-2-2-4.4-3.7-7.3-4.9c-1.8-0.7-3.7-1.2-5.9-1.5
			c2.6-2.1,6.1-3.7,10.4-4.6c0.5,0,1,0,1.5,0v-2.6c-7.1,0-13.2,2.6-18.1,7.6c-11.4,11.8-13.2,34-13.4,43.3
			c-7.7,0.5-13.8,5.4-13.8,13.4c0,8.3,6.8,15.1,15.1,15.1c6.1,0,11.3-3.6,13.7-8.9c-0.6-1.7-1-3.6-1-5.5c0-2.2,0.5-4.2,1.3-6.1
			c-2-4.4-6.5-7.2-11.9-7.9c-0.3,0-0.5-0.1-0.8-0.1c0.2-8.3,1.7-26.9,10.1-38.5c0,0,0,0,0,0c-4.5,12.1,3.8,29.3,10.5,40.3
			c-0.1,0.1-0.2,0.2-0.4,0.3c-3.9,2.2-6.4,6.1-6.4,11.2c0,8.1,6.5,14.7,14.5,15.1c0.2,0,0.4,0.1,0.6,0.1c8.3,0,15.1-6.8,15.1-15.1
			C311,191.9,305.3,187.3,298,186.2z M280.7,144.4c3.7,4,15.5,15.2,15.5,15.2c-11.6-7.5-16.4-14.1-16.4-14.1L280.7,144.4z"/>
	</g>
	<g>
		<path class="st3" d="M322.8,393.1h-41.9c-2,0-3.7,1.6-3.7,3.7c0,2,1.6,3.7,3.7,3.7h41.9c2,0,3.7-1.6,3.7-3.7
			C326.5,394.7,324.9,393.1,322.8,393.1z"/>
		<path class="st3" d="M322.8,370.2H299c-2,0-3.7,1.6-3.7,3.7c0,2,1.6,3.7,3.7,3.7h23.9c2,0,3.7-1.6,3.7-3.7
			C326.5,371.8,324.9,370.2,322.8,370.2z"/>
		<polygon class="st3" points="159.9,399.4 159.4,392.9 159.4,399.4 		"/>
		<path class="st0" d="M213,252.3h-53.6v53.4H213c7.4,0,13.7-2.6,18.9-7.8c5.2-5.2,7.8-11.5,7.8-18.9c0-7.4-2.6-13.7-7.8-18.9
			C226.7,254.9,220.4,252.3,213,252.3z"/>
		<path class="st0" d="M361.5,191.8c-15,2.6-31.2,4.8-48.3,6.3c0,0.5,0.1,0.9,0.1,1.4c0,9.7-7.9,17.6-17.6,17.6
			c-9.4,0-17-7.4-17.5-16.7c-10,0.4-20.2,0.6-30.6,0.6c-38.1,0-73.9-2.8-105.1-7.8l2.7,32.1h14.1H213c14.8,0,27.4,5.3,37.8,15.8
			c10.5,10.4,15.8,23,15.8,37.8c0,14-4.8,26.1-14.4,36.4c18.5,11.8,27.7,28.6,27.7,50.5c0,16.7-5.9,30.9-17.7,42.7
			c-11.3,11.3-24.8,17.1-40.5,17.6h119.7L361.5,191.8z M322.8,400.4h-41.9c-2,0-3.7-1.6-3.7-3.7c0-2,1.6-3.7,3.7-3.7h41.9
			c2,0,3.7,1.6,3.7,3.7C326.5,398.8,324.9,400.4,322.8,400.4z M322.8,377.5H299c-2,0-3.7-1.6-3.7-3.7c0-2,1.6-3.7,3.7-3.7h23.9
			c2,0,3.7,1.6,3.7,3.7C326.5,375.9,324.9,377.5,322.8,377.5z"/>
		<path class="st0" d="M219.8,399.4c9.2,0,17.1-3.2,23.6-9.7c6.6-6.6,9.9-14.5,9.9-23.8c0-9.2-3.3-17.1-9.9-23.6
			c-6.6-6.6-14.5-9.9-23.6-9.9c-0.5,0-1,0.1-1.4,0.2h-59v60.3l0.5,6.5H219.8z"/>
	</g>
</g>
</svg>
